<?xml version="1.0" encoding="UTF-8"?>
<svg id="No_Icon" data-name="No Icon" xmlns="http://www.w3.org/2000/svg" viewBox="0 0 512 512">
  <path d="m167.21,154.17c4.46,5.01,6.39,15.36,5.93,31.67-.29,10.08-1.52,20.73-2.76,28.09,1.32,4.39,5.03,13.28,11.15,16.79,2.99,1.71,6.3,2,10.09.85,6.85-2.05,10.09-17.05,12.69-29.09.34-1.56.68-3.09,1.01-4.59,6.6-29.42,6.97-47.68,1.1-54.28-8.4-9.45-30.56-25.17-46.69-36.06-5.61-2.13-24.14-7.92-36.66,2.81-4.54,3.89-6.99,8.22-8.29,12.02,19.24,10.19,46.72,25.37,52.42,31.79Z" stroke-width="0"/>
  <path d="m265.68,23.07h0c.71-9.09-1.02-19.47-11.64-22.37-11.7-3.2-20.23,4.26-36.19,28.74-13.3,20.39-21.3,38.08-50.25,71.72,14.03,9.54,31.69,22.17,41.85,31.72,10.09-14.57,40.88-61.28,56.24-109.81Z" stroke-width="0"/>
  <path d="m270.01,278.58c23.42-37.26,30.87-64.95,54.3-84.11,23.42-19.16-4.26-39.39-25.56-29.81-21.29,9.58-35.13,31.94-35.13,31.94,0,0-18.11-26.62-14.91-47.92.16-1.05,24.49-39.39,35.14-80.91,5.41-21.08-2.33-30.09-12.61-30.87-17.47,48.52-47.11,92.05-55.24,103.51,6.05,10.35,5.62,29.08-1.22,59.6-.33,1.47-.66,2.98-.99,4.51-.98,4.53-2,9.24-3.26,13.73,15.33-9.65,27.5-12.17,28.41-12.35,2.63-.5,5.16,1.21,5.68,3.84.51,2.62-1.2,5.16-3.82,5.68-.09.02-9.27,1.9-21.42,8.85-11.16,6.39-27.22,18.53-40.33,40.02-.91,1.49-2.51,2.33-4.14,2.33-.86,0-1.73-.23-2.52-.72-2.29-1.39-3-4.37-1.62-6.66,4.06-6.66,8.38-12.48,12.79-17.61-2.38-.43-4.69-1.26-6.89-2.53-5.09-2.92-8.75-7.7-11.28-12.24-3.15,3.72-7.67,6.08-12.9,6.46-.48.03-.97.05-1.45.05-9.58,0-18.18-6.86-22.19-17.86-3.44-9.42-3.68-23.19-3.58-29.47l-22.63-10.38c-2.44-1.11-3.51-3.98-2.39-6.41,1.11-2.44,3.99-3.51,6.42-2.39l25.56,11.71c1.8.83,2.92,2.67,2.82,4.65,0,.18-.9,18.55,2.91,28.98,3.26,8.95,9.3,11.8,13.85,11.46,4.22-.3,7.41-3.17,8.31-7.48.13-.63.26-1.32.4-2.04-.05-.76.1-1.49.39-2.17,1.15-6.94,2.29-16.92,2.56-26.41.54-18.91-2.53-23.88-3.49-24.96-3.95-4.45-25.81-16.89-46.48-27.94,0,.04,0,.06,0,.06,0,0-20.06-5.87-31.94,14.91-8.52,14.9,0,41.52,6.39,64.95,6.38,23.42,1.07,71.33,43.65,89.43,24.49,10.41,43.12-.44,57.49-1.07,24.49-1.07,57.5,14.91,80.92-22.36Z" stroke-width="0"/>
  <path d="m403.52,368.09c-.62.72-1.3,1.4-2.02,2.02,11.04,27.64-15.89,45.12-40.97,30.3-20.52-11.41-42.52-29.41-42.52-29.41,0,0-7.78,45.92-10.63,56.79,15.33-9.65,27.51-12.17,28.41-12.34,6.13-1.27,8.05,8.38,1.86,9.5-.21.05-9.35,1.95-21.41,8.86-11.17,6.39-27.23,18.52-40.33,40.01-.92,1.5-2.51,2.33-4.15,2.33-13.35-2.48,5.88-20.38,8.66-24.98-8.04-1.2-14.7-8.22-18.16-14.76-11.44,12.86-31.11,5.46-36.56-11.34-3.44-9.42-3.68-23.19-3.58-29.47l-22.63-10.38c-5.72-2.51-1.66-11.52,4.03-8.81,0,0,25.56,11.71,25.56,11.71,1.8.82,2.93,2.67,2.82,4.65-.6,4.56-1.09,42.29,16.76,40.44,5.22.25,8.83-6.01,9.09-11.69,2.62-8.6,3.93-50.47-.92-51.36-4.53-5.12-32.61-20.71-55.45-32.7-38.61,2.17-29.68,47.77-18.75,80.61,6.39,23.42,1.06,71.34,43.65,89.44,24.5,10.41,43.13-.44,57.5-1.07,24.49-1.07,57.5,14.91,80.91-22.36,23.42-37.26,25.28-66,48.7-85.16,20.14-16.48,9.57-32.18-9.85-30.83Z" stroke-width="0"/>
  <path d="m288.47,441.11c7.77-2.19,11.08-22.01,13.7-33.67,4.49-25.77,6.61-34.9.52-46.08-8.63-15.85-35.84-34.88-55.86-50.56-11.82-9.26-40.05,6.97-38.08,19.61,0,.06,49.32,26.56,55.31,33.31,8.95,8.34,5.81,45.75,3.17,59.76,1.86,7.29,9.96,22.1,21.25,17.64Z" stroke-width="0"/>
  <path d="m394.2,335.03c-10.67-10.79-54.38-72.8-84.01-47.83l84.07,76.29c8.56-6.02,6.04-21.51-.06-28.46Z" stroke-width="0"/>
  <path d="m389.95,392.52c5.81-6.74,5.05-13.52,3.29-16.86l-94.98-86.19c-33.93-7.89-40.14,18.6-40.14,18.6.38-1.66,109.88,109.93,131.82,84.45Z" stroke-width="0"/>
  <path d="m430.5,228.56c-2.62-.79-5.38.69-6.17,3.31l-7.6,25.22c-7.61-49.64-30.23-94.56-65.7-130.26-1.93-1.94-5.06-1.95-7-.02-1.94,1.93-1.95,5.06-.02,7,34.19,34.4,55.92,77.75,63.07,125.66l-17.03-17.8c-1.89-1.98-5.03-2.04-7-.15-1.98,1.89-2.04,5.03-.15,7l29.7,31.03c1.22,1.27,3.02,1.8,4.73,1.39.29-.07.57-.17.84-.28,1.31-.58,2.32-1.7,2.74-3.1l12.91-42.82c.79-2.62-.69-5.38-3.31-6.17Z" stroke-width="0"/>
</svg>