<?xml version="1.0" encoding="utf-8"?>
<!-- Generator: Adobe Illustrator 28.0.0, SVG Export Plug-In . SVG Version: 6.00 Build 0)  -->
<svg version="1.1" id="No_Icon" xmlns="http://www.w3.org/2000/svg" xmlns:xlink="http://www.w3.org/1999/xlink" x="0px" y="0px"
	 width="512px" height="512px" viewBox="0 0 512 512" enable-background="new 0 0 512 512" xml:space="preserve">
<g>
	<path d="M167.21,154.17c4.46,5.01,6.39,15.36,5.93,31.67c-0.29,10.08-1.52,20.73-2.76,28.09c1.32,4.39,5.03,13.28,11.15,16.79
		c2.99,1.71,6.3,2,10.09,0.85c6.85-2.05,10.09-17.05,12.69-29.09c0.34-1.56,0.68-3.09,1.01-4.59c6.6-29.42,6.97-47.68,1.1-54.28
		c-8.4-9.45-30.56-25.17-46.69-36.06c-5.61-2.13-24.14-7.92-36.66,2.81c-4.54,3.89-6.99,8.22-8.29,12.02
		C134.03,132.58,161.52,147.76,167.21,154.17z"/>
	<path d="M265.68,23.07C265.68,23.06,265.68,23.06,265.68,23.07c0.71-9.09-1.02-19.47-11.64-22.37c-11.7-3.2-20.23,4.26-36.19,28.74
		c-13.3,20.39-21.3,38.08-50.25,71.72c14.03,9.54,31.69,22.17,41.85,31.72C219.54,118.31,250.33,71.59,265.68,23.07z"/>
	<path d="M270.01,278.58c23.42-37.26,30.87-64.95,54.3-84.11c23.42-19.16-4.26-39.39-25.56-29.81
		c-21.29,9.58-35.13,31.94-35.13,31.94s-18.11-26.62-14.91-47.92c0.16-1.05,24.49-39.39,35.14-80.91
		c5.41-21.08-2.33-30.09-12.61-30.87c-17.47,48.52-47.11,92.05-55.24,103.51c6.05,10.35,5.62,29.08-1.22,59.6
		c-0.33,1.47-0.66,2.98-0.99,4.51c-0.98,4.53-2,9.24-3.26,13.73c15.33-9.65,27.5-12.17,28.41-12.35c2.63-0.5,5.16,1.21,5.68,3.84
		c0.51,2.62-1.2,5.16-3.82,5.68c-0.09,0.02-9.27,1.9-21.42,8.85c-11.16,6.39-27.22,18.53-40.33,40.02
		c-0.91,1.49-2.51,2.33-4.14,2.33c-0.86,0-1.73-0.23-2.52-0.72c-2.29-1.39-3-4.37-1.62-6.66c4.06-6.66,8.38-12.48,12.79-17.61
		c-2.38-0.43-4.69-1.26-6.89-2.53c-5.09-2.92-8.75-7.7-11.28-12.24c-3.15,3.72-7.67,6.08-12.9,6.46c-0.48,0.03-0.97,0.05-1.45,0.05
		c-9.58,0-18.18-6.86-22.19-17.86c-3.44-9.42-3.68-23.19-3.58-29.47l-22.63-10.38c-2.44-1.11-3.51-3.98-2.39-6.41
		c1.11-2.44,3.99-3.51,6.42-2.39l25.56,11.71c1.8,0.83,2.92,2.67,2.82,4.65c-0.01,0.18-0.9,18.55,2.91,28.98
		c3.26,8.95,9.3,11.8,13.85,11.46c4.22-0.3,7.41-3.17,8.31-7.48c0.13-0.63,0.26-1.32,0.4-2.04c-0.05-0.76,0.1-1.49,0.39-2.17
		c1.15-6.94,2.29-16.92,2.56-26.41c0.54-18.91-2.53-23.88-3.49-24.96c-3.95-4.45-25.81-16.89-46.48-27.94
		c0.01,0.04,0.01,0.06,0.01,0.06s-20.06-5.87-31.94,14.91c-8.52,14.9,0,41.52,6.39,64.95c6.38,23.42,1.07,71.33,43.65,89.43
		c24.49,10.41,43.12-0.44,57.49-1.07C213.58,299.88,246.59,315.85,270.01,278.58z"/>
	<path d="M403.52,368.09c-0.62,0.72-1.3,1.4-2.02,2.02c11.04,27.64-15.89,45.12-40.97,30.3C340,389,318,371,318,371
		s-7.78,45.92-10.63,56.79c15.33-9.65,27.51-12.17,28.41-12.34c6.13-1.27,8.05,8.38,1.86,9.5c-0.21,0.05-9.35,1.95-21.41,8.86
		c-11.17,6.39-27.23,18.52-40.33,40.01c-0.92,1.5-2.51,2.33-4.15,2.33c-13.35-2.48,5.88-20.38,8.66-24.98
		c-8.04-1.2-14.7-8.22-18.16-14.76c-11.44,12.86-31.11,5.46-36.56-11.34c-3.44-9.42-3.68-23.19-3.58-29.47l-22.63-10.38
		c-5.72-2.51-1.66-11.52,4.03-8.81c0,0,25.56,11.71,25.56,11.71c1.8,0.82,2.93,2.67,2.82,4.65c-0.6,4.56-1.09,42.29,16.76,40.44
		c5.22,0.25,8.83-6.01,9.09-11.69c2.62-8.6,3.93-50.47-0.92-51.36c-4.53-5.12-32.61-20.71-55.45-32.7
		c-38.61,2.17-29.68,47.77-18.75,80.61c6.39,23.42,1.06,71.34,43.65,89.44c24.5,10.41,43.13-0.44,57.5-1.07
		c24.49-1.07,57.5,14.91,80.91-22.36c23.42-37.26,25.28-66,48.7-85.16C433.51,382.43,422.94,366.73,403.52,368.09z"/>
	<path d="M288.47,441.11c7.77-2.19,11.08-22.01,13.7-33.67c4.49-25.77,6.61-34.9,0.52-46.08c-8.63-15.85-35.84-34.88-55.86-50.56
		c-11.82-9.26-40.05,6.97-38.08,19.61c0.01,0.06,49.32,26.56,55.31,33.31c8.95,8.34,5.81,45.75,3.17,59.76
		C269.08,430.76,277.18,445.57,288.47,441.11z"/>
	<path d="M394.2,335.03c-10.67-10.79-54.38-72.8-84.01-47.83l84.07,76.29C402.82,357.48,400.29,341.99,394.2,335.03z"/>
	<path d="M389.95,392.52c5.81-6.74,5.05-13.52,3.29-16.86l-94.98-86.19c-33.93-7.89-40.14,18.6-40.14,18.6
		C258.5,306.41,368,418,389.95,392.52z"/>
	<path d="M430.5,228.56c-2.62-0.79-5.38,0.69-6.17,3.31l-7.6,25.22c-7.61-49.64-30.23-94.56-65.7-130.26
		c-1.93-1.94-5.06-1.95-7-0.02c-1.94,1.93-1.95,5.06-0.02,7c34.19,34.4,55.92,77.75,63.07,125.66l-17.03-17.8
		c-1.89-1.98-5.03-2.04-7-0.15c-1.98,1.89-2.04,5.03-0.15,7l29.7,31.03c1.22,1.27,3.02,1.8,4.73,1.39c0.29-0.07,0.57-0.17,0.84-0.28
		c1.31-0.58,2.32-1.7,2.74-3.1l12.91-42.82C434.6,232.11,433.12,229.35,430.5,228.56z"/>
</g>
</svg>
