<svg version="1.1" viewBox="0 0 512 512" xmlns="http://www.w3.org/2000/svg">
		<path d="m82.768918 166.00551c6.299586 12.26369 11.257249 25.08651 14.444317 37.90934 3.447995 13.79199 4.864475 27.58399 3.746205 40.64911l-0.0186 0.35412c0 10.86586 4.67809 18.0787 11.63 22.2163 4.26807 2.53474 9.37483 3.82076 14.74253 4.02577 5.21859 0.20502 10.69811-0.61505 15.89806-2.32973 6.50461-2.14335 12.63645-5.68453 17.33318-10.34399 1.56558 9.93396 6.82145 17.16544 13.82927 21.78762 4.39853 2.9075 9.46802 4.73401 14.72389 5.5168 5.18132 0.76415 10.60492 0.52186 15.74897-0.72688 9.76622-2.367 18.56327-8.33111 23.16682-17.74321 2.79567 5.34906 7.0451 9.54257 12.11458 12.63645 4.90175 2.98205 10.56765 4.88311 16.43857 5.74045 5.79636 0.8387 11.85366 0.65232 17.59411-0.52186 10.17625-2.10608 19.38334-7.36194 24.65785-15.65578 3.09388 7.1942 8.66659 12.61781 15.43212 16.25219 4.86447 2.60929 10.36263 4.26806 15.99125 4.99494 5.60999 0.70823 11.35044 0.50322 16.75541-0.63369 13.53107-2.85159 25.06788-11.44363 27.4908-25.68293l0.0746-0.42867c2.44156-20.35251 4.04441-41.48781 4.99494-62.58584 1.06235-23.39048 1.30465-46.74367 0.96917-68.9786 13.0092-41.692825 35.16958-63.629549 55.80165-69.705481 9.37483-2.758398 18.41418-2.180625 25.99977 1.341924 7.56696 3.52255 13.75472 10.027152 17.50092 19.122412 8.33111 20.259315 4.64082 53.061895-22.14174 94.717445l-0.24229 0.46594c-32.16889 60.38657-37.7416 113.37393-42.25195 156.39004-8.79706 83.70248-13.49379 128.35872-217.01888 112.16245l-0.22365-0.0186c-39.54957-3.69033-64.58017-15.02213-81.57787-35.63557-17.184075-20.83709-26.484351-51.4404-34.349515-93.3196l-7.399218-105.63923c-0.987805-18.00415 1.397837-32.26208 6.318224-42.82973 0.559135-1.21146 1.155545-2.38565 1.789232-3.50391zm236.81225 179.81778c1.97561-0.35412 3.87666 0.96917 4.21215 2.94478 0.35411 1.97561-0.96917 3.87667-2.94478 4.21215-16.32674 2.94477-30.97607 9.20708-44.15302 18.33962-13.25149 9.18845-25.0306 21.30304-35.56097 35.93373-1.17419 1.62149-3.448 1.99425-5.06949 0.82007-1.62149-1.17419-1.99425-3.448-0.82007-5.06949 11.01496-15.30166 23.39048-27.99402 37.33157-37.66705 14.01565-9.71031 29.59688-16.36402 47.00461-19.51381zm-87.896-96.05937c1.80787-18.35827 2.47883-36.43697 1.77059-54.16154-0.8387-20.78118-3.5971-41.0405-8.66659-60.66613-0.63368-9.76622 4.26806-17.29591 11.64864-22.08583 4.36126-2.83295 9.59849-4.73401 15.09665-5.60999 5.53543-0.89461 11.3318-0.74551 16.79268 0.5405 10.62356 2.49747 19.94248 9.35619 23.37184 21.30304l0.0559 0.16774c4.56627 17.59411 6.82144 37.29429 7.43649 57.57225 0.72688 23.8937-0.8387 48.6261-3.5971 71.75566-2.38564 10.62356-11.90957 17.20271-22.86861 19.47653-4.90175 1.00644-10.10171 1.17418-15.09664 0.44731-4.93903-0.70824-9.6544-2.29246-13.68017-4.73401-7.62287-4.64082-12.80419-12.58054-12.22642-23.96825zm141.62886-118.48069v0.67097c0.33548 22.19765 0.0932 45.58812-0.96917 69.10906-0.93189 20.81846-2.53475 41.74874-4.95766 62.04535v0.0559c-1.84515 10.88449-10.99632 17.51956-21.80626 19.79338-4.64082 0.9878-9.57985 1.17418-14.36977 0.55913-4.75264-0.61505-9.37483-2.01288-13.45651-4.19351-9.00207-4.8272-15.30166-13.6988-14.12747-26.63346 2.31109-21.41487 3.52255-44.05984 2.85158-66.07112-0.63368-20.72526-2.94477-40.91003-7.60423-59.00736 0.0186-15.74896 9.30028-25.60837 21.2844-29.988264 6.00138-2.180626 12.67372-3.037966 19.25288-2.590658 6.56051 0.447308 12.97192 2.161988 18.47008 5.125402 10.6422 5.72181 17.79913 16.23355 15.48804 31.12517zm-205.76163 116.87784c0.59641-1.45376 1.06235-2.96342 1.39783-4.54764l0.0373-0.22365c2.85159-17.48229 4.24942-34.61046 1.47239-50.73218-2.73976-15.95398-9.52393-30.84561-22.88725-43.96663-0.0186-11.64865 7.13828-20.55753 16.88587-25.99978 5.05085-2.81431 10.80994-4.69673 16.64358-5.57271 5.83364-0.85734 11.70456-0.6896 16.9977 0.57778 9.50529 2.29245 17.25863 8.27519 19.49517 18.526 0.0373 0.13046 0.0559 0.26093 0.11183 0.39139 4.9763 19.14105 7.66014 38.93442 8.48021 59.24966 0.67096 16.51311 0.0932 33.39899-1.50967 50.60171-0.0186 0.13046-0.0373 0.24229-0.0559 0.37276-0.0746 0.74552-0.1491 1.49103-0.18638 2.21791-0.31684 3.14979-0.65232 6.29958-1.02508 9.46801-2.367 10.53038-10.71675 17.09089-20.25932 19.40198-4.21215 1.02508-8.66659 1.2301-12.97193 0.57778-4.24942-0.63369-8.31247-2.08744-11.77911-4.37989-7.25011-4.77129-12.05867-13.38196-10.80994-26.03705zm-80.086749-88.88382c7.399218 13.77335 13.195579 28.3295 16.829959 42.867 3.63437 14.53751 5.1254 29.09366 3.95122 42.90429 0.0373 7.84654 3.26162 12.9533 8.0329 15.80489 3.18707 1.90106 7.11965 2.87023 11.29453 3.03797 4.34261 0.16774 8.96479-0.5405 13.38196-1.99425 8.61067-2.83295 16.34537-8.46157 19.62563-15.95399l0.0186-0.0559 0.0745-0.18638c0.48458-1.15555 0.87598-2.34837 1.13691-3.5971 2.72112-16.73677 4.06304-33.06352 1.45375-48.23471-2.53475-14.74252-8.85297-28.4786-21.35895-40.53728-10.344-4.734-20.20341-6.87735-28.98183-6.39277-6.95191 0.39139-13.270129 2.44155-18.656462 6.15048-2.460193 1.69604-4.734008 3.74621-6.802807 6.16912z"/>
		<path d="m55.483138 439.96296c1.491026 1.34193 1.621491 3.63438 0.279567 5.12541-1.341924 1.49102-3.634376 1.62149-5.125403 0.27956-32.821215-29.44777-48.290613-67.61804-49.315693-96.69305-0.35411881-10.25081 1.080994-19.43926 4.1562357-26.81984 3.2429821-7.77197 8.3311094-13.56833 15.115278-16.64358 8.517488-3.83939 19.476531-3.24298 32.541648 3.448 1.789232 0.91326 2.497469 3.11252 1.584216 4.88311-0.913254 1.78923-3.112518 2.49747-4.883111 1.58422-10.90313-5.57271-19.700185-6.22504-26.242063-3.28026-5.013575 2.25518-8.83433 6.74689-11.387712 12.80419-2.7024855 6.43005-3.95122 14.59342-3.6157391 23.78187 0.9505292 27.39761 15.655775 63.49908 46.892776 91.51173z"/>
		<path d="m65.24936 337.26853-34.200415 2.49747c-0.913254 0.0559-1.863783-0.22366-2.627934-0.87598-1.528302-1.30465-1.71468-3.61574-0.391395-5.14404l31.553844-36.95881c0.615048-0.78279 1.54694-1.32329 2.627934-1.39784 2.012885-0.1491 3.746203 1.3792 3.895306 3.37344l2.534744 34.57318c0.149103 2.01288-1.379199 3.7462-3.373447 3.8953z"/>
		<path d="m462.6265 409.78832c-1.49103 1.34192-3.80212 1.21146-5.1254-0.27957-1.34193-1.49103-1.21146-3.80212 0.27956-5.1254 31.21837-28.01266 45.94225-64.11413 46.89278-91.51174 0.31684-9.18845-0.93189-17.35182-3.61574-23.78187-2.55338-6.05729-6.37414-10.53037-11.38771-12.80419-6.54188-2.96341-15.33893-2.31109-26.24206 3.28026-1.78924 0.91326-3.96986 0.20502-4.88312-1.58421-0.91325-1.78924-0.20501-3.96986 1.58422-4.88311 13.06512-6.69099 24.0428-7.2874 32.54165-3.448 6.78417 3.0566 11.87229 8.8716 15.11528 16.62494 3.09388 7.38058 4.52899 16.58767 4.15623 26.83847-1.00644 29.07501-16.47584 67.24529-49.31569 96.69306z"/>
		<path d="m482.19622 304.18638-34.20042-2.49747c-2.01288-0.1491-3.52255-1.88242-3.37344-3.8953l2.53474-34.57317c0.1491-2.01289 1.88242-3.52255 3.89531-3.37345 1.08099 0.0745 2.01288 0.61505 2.62793 1.39784l31.55384 36.95881c1.30465 1.5283 1.13691 3.82075-0.39139 5.14404-0.76415 0.65232-1.69604 0.93189-2.62793 0.87598z"/>
</svg>
