<svg
	viewBox="0 0 38.99 36.39"
	xmlns="http://www.w3.org/2000/svg"
>
	<path d="m4.01 32.69c1.61 1.95 3.99 3.02 7.74 3.38h0.03c20.13 1.6 20.68-2.95 21.7-11.5 0.48-4 1.05-8.84 3.6-14.35l0.02-0.04c2.12-3.95 2.26-6.79 1.39-8.46-0.38-0.74-0.97-1.24-1.66-1.51-0.71-0.27-1.53-0.29-2.37-0.06-1.96 0.54-4 2.43-4.97 5.8 0.03 2.14 0.01 4.38-0.09 6.63-0.09 2.04-0.25 4.08-0.48 6.04l-0.01 0.06c-0.25 1.43-1.41 2.3-2.76 2.58-0.54 0.11-1.11 0.13-1.66 0.06-0.56-0.07-1.11-0.24-1.59-0.5l-0.03-0.02c-0.59-0.32-1.09-0.79-1.41-1.38-0.54 0.71-1.39 1.17-2.32 1.36-0.57 0.12-1.17 0.14-1.74 0.05-0.59-0.08-1.15-0.28-1.64-0.57-0.44-0.26-0.81-0.61-1.09-1.04-0.49 0.81-1.3 1.33-2.2 1.55-0.51 0.12-1.05 0.15-1.57 0.07-0.53-0.08-1.03-0.26-1.48-0.55-0.64-0.42-1.14-1.07-1.35-1.93-0.44 0.38-0.97 0.66-1.53 0.85-0.52 0.17-1.06 0.25-1.58 0.23-0.54-0.02-1.06-0.15-1.49-0.41-0.71-0.42-1.19-1.16-1.19-2.27v-0.05c0.11-1.24-0.03-2.55-0.36-3.86-0.28-1.13-0.71-2.27-1.25-3.36l-0.04 0.07c-0.46 1-0.69 2.34-0.6 4.05l0.71 10.17c0.75 4 1.64 6.93 3.27 8.91zm23.86-7.65c0.28 0 0.5 0.23 0.49 0.5 0 0.28-0.23 0.5-0.5 0.49-1.75-0.03-3.28 0.63-4.51 1.7-1.4 1.21-2.43 2.96-2.98 4.84-0.08 0.26-0.35 0.42-0.62 0.34-0.26-0.08-0.42-0.35-0.34-0.62 0.6-2.06 1.74-3.98 3.29-5.32 1.41-1.22 3.16-1.97 5.17-1.94zm0.61-19.15v-0.14c0.21-1.36-0.44-2.32-1.42-2.84-0.51-0.27-1.11-0.43-1.72-0.48-0.61-0.04-1.24 0.04-1.79 0.24-1.09 0.4-1.94 1.3-1.95 2.73 0.45 1.75 0.67 3.7 0.73 5.7 0.06 2.13-0.05 4.32-0.28 6.39-0.1 1.16 0.46 1.96 1.26 2.4l0.03 0.01c0.38 0.2 0.8 0.33 1.24 0.39s0.9 0.04 1.33-0.05c0.98-0.21 1.81-0.8 1.98-1.78v-0.01c0.23-1.95 0.39-3.97 0.48-5.96 0.1-2.26 0.12-4.51 0.09-6.64zm-7.84-0.22-0.01-0.02c-0.31-1.09-1.17-1.72-2.14-1.95-0.51-0.12-1.05-0.13-1.56-0.05s-0.99 0.26-1.4 0.52c-0.67 0.43-1.11 1.11-1.05 1.98 0.49 1.9 0.75 3.85 0.84 5.86 0.07 1.72 0 3.47-0.17 5.24-0.05 1.03 0.42 1.74 1.11 2.16 0.37 0.22 0.8 0.37 1.26 0.44 0.47 0.07 0.95 0.05 1.4-0.04 1-0.21 1.87-0.8 2.09-1.75 0.26-2.22 0.41-4.59 0.34-6.88-0.06-1.94-0.27-3.82-0.71-5.5zm-7.13 0.71c-0.01-0.02-0.01-0.03-0.01-0.05-0.2-0.92-0.9-1.46-1.77-1.67-0.49-0.12-1.04-0.13-1.58-0.05-0.55 0.08-1.08 0.26-1.55 0.52-0.88 0.49-1.52 1.28-1.55 2.31 1.28 1.28 1.93 2.72 2.2 4.27 0.27 1.57 0.13 3.24-0.14 4.93l-0.01 0.03c-0.03 0.15-0.08 0.3-0.13 0.44-0.11 1.14 0.33 1.92 0.98 2.35 0.32 0.21 0.69 0.34 1.07 0.4 0.4 0.06 0.81 0.04 1.19-0.05 0.87-0.21 1.62-0.8 1.84-1.75 0.04-0.3 0.07-0.6 0.1-0.9 0-0.07 0.01-0.15 0.02-0.22 0-0.01 0-0.03 0.01-0.04 0.15-1.65 0.21-3.27 0.14-4.85-0.08-1.94-0.34-3.84-0.81-5.67zm-7.24 1.69c-0.97-0.44-1.88-0.64-2.7-0.59-0.64 0.04-1.23 0.22-1.72 0.57-0.2 0.14-0.39 0.3-0.56 0.49 0.7 1.31 1.24 2.69 1.59 4.07 0.35 1.41 0.5 2.83 0.39 4.17 0 0.69 0.28 1.14 0.7 1.39 0.29 0.17 0.64 0.26 1.02 0.27 0.4 0.02 0.83-0.05 1.24-0.18 0.79-0.26 1.5-0.77 1.79-1.44l0.02-0.04c0.04-0.1 0.07-0.2 0.1-0.31 0.26-1.6 0.39-3.15 0.14-4.59-0.24-1.38-0.83-2.67-1.99-3.8z" />
</svg>