<?xml version="1.0" encoding="UTF-8"?>
<!DOCTYPE svg PUBLIC "-//W3C//DTD SVG 1.1//EN" "http://www.w3.org/Graphics/SVG/1.1/DTD/svg11.dtd">
<!-- Creator: CorelDRAW 2020 (64-Bit) -->
<svg xmlns="http://www.w3.org/2000/svg" xml:space="preserve" width="0.852587in" height="0.79872in" version="1.1" shape-rendering="geometricPrecision" text-rendering="geometricPrecision" image-rendering="optimizeQuality" fill-rule="evenodd" clip-rule="evenodd"
viewBox="0 0 428.44 401.37"
 xmlns:xlink="http://www.w3.org/1999/xlink"
 xmlns:xodm="http://www.corel.com/coreldraw/odm/2003">
 <g id="Layer_x0020_1">
  <metadata id="CorelCorpID_0Corel-Layer"/>
  <g id="_2294838883600">
   <path fill="black" stroke="white" stroke-width="17.16" stroke-linecap="round" stroke-linejoin="round" stroke-miterlimit="2.61313" d="M133.2 392.77c-82.07,-7.58 -104.23,-47.33 -120.3,-133.07 -2.48,-35.49 -4.97,-70.97 -7.45,-106.46 -3.46,-61.86 31.79,-82.21 73.46,-62.81 -2.01,-40.24 69.46,-52.64 77.72,-14.9 -2.81,-37.35 63.38,-46.4 74.52,-7.45 -0.49,-52.61 90.25,-47.28 82.26,3.83 30.13,-106.25 159.16,-82.13 89.49,47.5 -85.09,183.61 42.38,298.2 -269.7,273.37z"/>
   <path fill="none" stroke="white" stroke-width="17.16" stroke-linecap="round" stroke-linejoin="round" stroke-miterlimit="2.61313" d="M78.9 90.43c27.09,25.71 27.18,58.66 21.56,93.15 -5.77,27.71 -61.21,37.47 -61.21,2.13 2.41,-27.89 -6.31,-58.9 -21.64,-86.63"/>
   <path fill="none" stroke="white" stroke-width="17.16" stroke-linecap="round" stroke-linejoin="round" stroke-miterlimit="2.61313" d="M156.62 75.53c10.22,39.23 11.06,81.06 5.86,124.55 -7.45,34.08 -68.27,32.06 -63.43,-12.01"/>
   <path fill="none" stroke="white" stroke-width="17.16" stroke-linecap="round" stroke-linejoin="round" stroke-miterlimit="2.61313" d="M231.14 68.07c10.22,39.23 9.21,88.51 4.01,132.01 -7.45,34.08 -76.26,32.06 -71.42,-12.01"/>
   <path fill="none" stroke="white" stroke-width="17.16" stroke-linecap="round" stroke-linejoin="round" stroke-miterlimit="2.61313" d="M301.77 277.45c-41.65,-0.61 -71.97,33 -83.42,72.09"/>
   <path fill="none" stroke="white" stroke-width="17.16" stroke-linecap="round" stroke-linejoin="round" stroke-miterlimit="2.61313" d="M313.4 71.9c0.64,42.43 -0.78,89.08 -5.98,132.57 -5.69,35.52 -76.26,32.06 -71.42,-12.02"/>
  </g>
 </g>
</svg>
