<?xml version="1.0" encoding="UTF-8"?>
<svg id="Answer_Icon" data-name="Answer Icon" xmlns="http://www.w3.org/2000/svg" viewBox="0 0 512 512">
  <path d="m510.72,49.08c-13.56,32.04-23.41,73.93-48.06,146.63-24.64,72.7,26.44,170.85-43.05,245.42-58.61,62.9-150.61,48.9-150.61,48.9-223,50-235.13-119.36-251.01-176.43s-30.94-140.07,0-177.2c24.73-29.68,58.13-20.67,70.55-15.86,3.33,4,6.78,8.6,10.22,13.85,29.95,45.7,36.24,104.97,36.24,146.64,0,18.13-6.98,39.27-26.58,44.21-15.24,3.84-31.32-4.43-40.02-20.58-10.18-18.91-16.22-35.38-21.52-58.74-.62-2.69-3.3-4.38-5.99-3.77-2.69.62-4.38,3.3-3.77,5.99,4.61,20.28,10.2,38.46,22.48,61.26,9.07,16.85,24.85,26.78,41.27,26.78,3.32,0,6.67-.4,9.99-1.24,18.25-4.6,30.5-20.73,33.45-43.14,3.05,2.45,6.88,5.14,11.33,7.52,8.34,4.45,16.74,6.68,24.95,6.68,7.47,0,14.79-1.85,21.76-5.55,11.58-6.16,18.04-19.91,21.6-34.54,3.38,2.56,7.74,5.5,12.8,8.08,8.65,4.41,17.07,6.63,25.03,6.63,7.04,0,13.72-1.74,19.84-5.21,9.85-5.59,17.7-16.15,23.2-30.84,7.47,7.32,21.73,18.08,41.1,18.08,3.56,0,7.29-.37,11.18-1.18,20.66-4.32,36.67-23.26,46.31-54.77,8.02-26.21,10.71-58.99,7.37-89.96-2.77-25.7-9.31-47.23-18.76-62.28,43.36-71.1,131.65-35.99,118.7-5.38Z" stroke-width="0"/>
  <path d="m217.5,242.58c-.3,3.5-.69,6.85-1.16,10.03-.34,2.39-.34,3.39-.9,5.41-3.31,17.42-9.45,29.13-17.79,33.56-24.89,13.23-47.21-7.01-52.66-12.57-.2-43.19-7.12-103.71-38.32-150.83-3.18-4.8-6.36-9.08-9.46-12.89,25.06-44.32,70.28-33.11,81.97-29.3,11.19,13.23,21.29,34.94,28.51,61.72,8.5,31.5,12.16,66.97,9.81,94.87Z" stroke-width="0"/>
  <path d="m303.43,200.41c-2.39,33.82-12.13,57.98-26.74,66.27-10.07,5.71-21.9,5.2-35.18-1.52-6.83-3.46-12.35-7.76-15.39-10.36.6-3.9,1.03-7.73,1.34-11.38,2.45-29-1.33-65.75-10.11-98.31-7.53-27.94-17.9-50.31-29.84-64.77,29.13-32.2,63.5-25.3,80.26-19.03,21.21,21.86,39.97,77.95,35.66,139.1Z" stroke-width="0"/>
  <path d="m393.85,203.75c-8.39,27.41-22.17,44.42-38.8,47.9-24.97,5.23-42.12-12.51-46.76-18.04,2.53-9.57,4.26-20.45,5.11-32.5,1.97-28-1.16-59.88-8.61-87.48-5.66-20.99-13.53-38.48-22.82-51.05,57.22-47.26,104.3,2.49,104.3,2.49.05-.1.09-.2.14-.29,7.08,13.46,12.15,31.85,14.43,53,3.2,29.67.65,61-6.99,85.97Z" stroke-width="0"/>
</svg>