<svg version="1.1" viewBox="0 0 512 512" xmlns="http://www.w3.org/2000/svg">
	<path d="m52.645082 446.32385c21.098039 25.64706 52.313728 39.76471 101.64706 44.39216h0.47059c264.39216 21.0196 271.52941-38.7451 284.86275-151.05883 6.27451-52.54902 13.88235-116.15686 47.37255-188.39216l0.15686-0.47058c27.92157-51.843141 29.72549-89.098043 18.27451-111.05883-5.01961-9.72549-12.70588-16.392157-21.80392-19.843137-9.25491-3.529412-20.07843-3.843137-31.13726-0.862745-25.80392 7.058823-52.62745 32-65.33333 76.156863 0.39215 28.078427 0.0784 57.568627-1.2549 87.058827-1.17647 26.7451-3.21569 53.56862-6.35295 79.29412l-0.0784 0.78431c-3.29411 18.82353-18.5098 30.19608-36.31372 33.96078-7.05883 1.41177-14.50981 1.72549-21.80392 0.78432-7.37255-0.94118-14.58824-3.13726-20.94118-6.50981l-0.39216-0.23529c-7.7647-4.2353-14.35294-10.27451-18.5098-18.19608-7.13726 9.33333-18.27451 15.37255-30.50981 17.88235-7.45098 1.56863-15.29411 1.80392-22.90196 0.70589-7.68627-1.09804-15.05882-3.60785-21.49019-7.52942-5.72549-3.52941-10.66667-8-14.27451-13.64705-6.43138 10.66666-17.09804 17.49019-28.86275 20.31372-6.82353 1.64706-13.88235 1.96078-20.70588 0.94118-6.90196-1.01961-13.56863-3.45098-19.37255-7.29412-8.47059-5.56863-14.98039-13.96078-17.64706-25.33333-5.80392 4.94117-12.705881 8.70588-20.07843 11.13725-6.745098 2.19608-13.960784 3.29412-20.784314 3.05882-7.137285-0.31372-13.882383-2.03921-19.529442-5.41176-9.411765-5.56863-15.686274-15.21569-15.686274-29.72549v-0.70588c1.411764-16.2353-0.392157-33.4902-4.705883-50.66667-3.686274-14.90196-9.254902-29.80392-16.392157-44.15686l-0.4705882 0.94117c-6.0392157 13.09804-9.0196079 30.82353-7.8431373 53.17647l9.4117648 133.56863c9.8823525 52.54902 21.490196 90.9804 42.980392 116.94118zm313.41177-100.47059c3.60784 0.0784 6.5098 3.05882 6.43137 6.66667 0 3.60784-2.98039 6.5098-6.58823 6.43137-22.9804-0.31373-43.05883 8.31373-59.21569 22.27451-18.43137 15.92157-32 38.82353-39.21569 63.60784-1.01961 3.45098-4.62745 5.41177-8.15686 4.47059-3.45098-1.01961-5.41177-4.70588-4.47059-8.15686 8-27.05882 22.82353-52.2353 43.21569-69.80392 18.5098-16 41.56863-25.88236 68-25.4902zm8-251.45098v-1.098025l0.0784-0.07843v-0.07843c2.7451-17.803921-5.88235-30.431373-18.58824-37.333333-6.74509-3.607844-14.58823-5.647059-22.58823-6.196079-8.07843-0.549019-16.2353 0.470588-23.52941 3.137255-14.35294 5.254902-25.4902 17.019608-25.64706 35.843138 5.88235 22.980395 8.86274 48.549025 9.64706 74.823535 0.86274 28-0.70589 56.70588-3.68628 83.92157-1.33333 15.21568 6.03922 25.72549 16.54902 31.45098l0.31373 0.23529c4.94117 2.58824 10.58823 4.31373 16.39215 5.01961 5.80393 0.78431 11.84314 0.54902 17.4902-0.62745 12.86275-2.7451 23.84314-10.58824 26.03922-23.37255v-0.0784c3.05882-25.64706 5.09804-52.07843 6.27451-78.27451 1.33333-29.72549 1.64706-59.29412 1.2549-87.294124zm-103.05883-2.901961-0.0784-0.235294c-4.07843-14.352941-15.29411-22.588235-28.07843-25.568627-6.66667-1.568628-13.80392-1.725491-20.54902-0.705883-6.66667 1.098039-13.01961 3.372549-18.27451 6.82353-8.78431 5.647059-14.58823 14.588235-13.88235 26.039216 6.43137 24.86274 9.96078 50.58824 10.98039 76.94118 0.94118 22.5098 0.0784 45.49019-2.27451 68.78431-0.62745 13.4902 5.56863 22.90196 14.58824 28.39216 4.86274 2.98039 10.58823 4.86274 16.54902 5.72549 6.11764 0.86274 12.47058 0.70588 18.43137-0.54902 13.09804-2.66667 24.47059-10.50981 27.37255-23.05883 3.45098-29.09803 5.41176-60.23529 4.54902-90.35294-0.78432-25.41176-3.60785-50.11764-9.33334-72.235292zm-93.56862 9.333332c-0.0784-0.23529-0.15687-0.39216-0.2353-0.62745-2.58823-12.156862-11.84314-19.215686-23.13725-21.960784-6.50981-1.568627-13.64706-1.72549-20.78432-0.705882-7.13725 1.098039-14.19608 3.372549-20.39215 6.823529-11.52942 6.431373-20.000004 16.862747-20.313729 30.352937 16.784309 16.78432 25.411769 35.76471 28.862749 56.07844 3.52941 20.62745 1.80392 42.5098-1.88236 64.78431l-0.0784 0.39216c-0.39216 2.03921-1.01961 3.92157-1.72549 5.80392-1.41176 14.98039 4.31373 25.17647 12.86275 30.82353 4.07843 2.7451 8.94117 4.47059 14.03921 5.17647 5.2549 0.78431 10.66667 0.54902 15.68628-0.62745 11.37255-2.82353 21.33333-10.58824 24.15686-23.05883 0.47059-3.92156 0.94118-7.84313 1.33333-11.7647 0-0.94118 0.0784-1.88235 0.2353-2.82353 0-0.23529 0-0.39216 0.0784-0.54902 2.03921-21.64706 2.7451-42.90196 1.88235-63.68628-1.01961-25.49019-4.39216-50.35294-10.58823-74.43137zm-95.137259 22.19608c-12.705883-5.72549-24.705883-8.31373-35.450981-7.76471-8.392157 0.47059-16.078431 2.9804-22.588235 7.45098-2.588235 1.80393-5.098039 3.92157-7.372549 6.43138 9.17647 17.2549 16.313725 35.37255 20.862745 53.49019 4.627451 18.50981 6.509804 37.09804 5.019608 54.82353 0.07843 9.09804 3.764706 14.9804 9.254902 18.19608 3.764706 2.27451 8.392157 3.37255 13.333333 3.60785 5.254902 0.15686 10.901961-0.70589 16.235295-2.43138 10.352941-3.45098 19.686271-10.11764 23.607841-18.98039l0.2353-0.54902c0.47058-1.2549 0.94117-2.58823 1.2549-4 3.37255-20.94118 5.01961-41.41176 1.80392-60.31373-3.13726-18.11764-10.82353-35.05882-26.196079-49.96078z"/>
</svg>
