<?xml version="1.0" encoding="UTF-8"?>
<svg id="Be_Quiet_Icon" data-name="Be Quiet Icon" xmlns="http://www.w3.org/2000/svg" viewBox="0 0 512 512">
  <path d="m192.79,383.53l-49.38,16.81,18.14,28.77c1.48,2.33.78,5.42-1.56,6.91-.83.52-1.75.77-2.66.77-1.66,0-3.28-.83-4.23-2.34l-20.06-31.79c-2.76-3.62-12.96-16.93-23.6-29.58-5.07-6.01-15.86-4.24-9.81,12.45l15.04,27.2c.92,1.66.82,3.7-.26,5.26-.5.74-12.4,18.65,3.02,32.46,2.06,1.85,2.24,5.01.4,7.07-.99,1.11-2.36,1.67-3.73,1.67-1.19,0-2.38-.42-3.33-1.27-16.04-14.35-11.78-32.97-6.27-42.89l-16.52-29.86c-8-12.84-28.9-46.44-31.28-50.66-5.4-9.64-18.92-1.6-12.17,14.46-.41-.49-13.59-16.19-18.92-24.1-5.41-8.04-20.29,1.6-8.12,25.72,0,0-9.47-6.44-12.17,4.81-2.7,11.26,11.78,36.41,29.7,60.76,0,0-20.91-1.78-30.03-3.14-9.13-1.35-6.43,13.12,13.85,19.55,20.28,6.43,28.19,6.62,28.19,6.62,0,0,20.02,28.02,40.03,29.02,24.35,1.22,20.6,1.02,34.03,4,27.02,6,43.76-9.1,47.81-20.36l50.03-1.6s34.68-57.07-26.16-66.71h.02Z" stroke-width="0"/>
  <path d="m507.03,413c-9.13,1.36-30.03,3.14-30.03,3.14,17.92-24.35,32.41-49.5,29.7-60.76-2.7-11.25-12.17-4.81-12.17-4.81,12.17-24.12-2.7-33.76-8.12-25.72-5.32,7.91-18.5,23.61-18.92,24.1,6.75-16.06-6.77-24.1-12.17-14.46-2.37,4.22-23.28,37.82-31.28,50.66l-16.52,29.86c5.51,9.93,9.78,28.54-6.27,42.89-.95.85-2.14,1.27-3.33,1.27-1.37,0-2.74-.56-3.73-1.67-1.84-2.05-1.66-5.21.4-7.07,15.42-13.8,3.52-31.72,3.02-32.46-1.08-1.56-1.18-3.6-.26-5.26l15.04-27.2c6.05-16.69-4.73-18.46-9.81-12.45-10.64,12.65-20.84,25.96-23.6,29.58l-20.06,31.79c-.95,1.51-2.57,2.34-4.23,2.34-.91,0-1.83-.25-2.66-.77-2.34-1.48-3.04-4.57-1.56-6.91l18.14-28.77-49.38-16.81c-60.84,9.65-26.16,66.71-26.16,66.71l50.03,1.6c4.05,11.26,20.79,26.36,47.81,20.36,13.43-2.98,9.68-2.78,34.03-4,20.02-1,40.03-29.02,40.03-29.02,0,0,7.92-.19,28.19-6.62,20.28-6.43,22.98-20.9,13.85-19.55h.02Z" stroke-width="0"/>
  <g>
    <path d="m159.07,246.96c-.56-.12-1.14-.18-1.71-.18-3.73,0-7.02,2.65-7.81,6.3-.1.45-9.79,42.57-44.76,67.09l4.21-12.8c.67-2.03.51-4.2-.46-6.11-.96-1.91-2.61-3.33-4.64-4-.81-.27-1.65-.4-2.5-.4-3.46,0-6.52,2.21-7.6,5.5l-10.68,32.45c-.78,2.36-.43,4.89.95,6.95s3.59,3.35,6.07,3.53l38.34,2.81c.2.02.41.02.61.02,4.17,0,7.67-3.26,7.98-7.42.32-4.4-3-8.25-7.4-8.57l-12.77-.94c37.81-28.19,47.88-72.73,48.31-74.72.94-4.31-1.81-8.58-6.12-9.52h-.02Z" stroke-width="0"/>
    <path d="m427.18,334.82l-10.68-32.45c-1.08-3.29-4.14-5.5-7.6-5.5-.85,0-1.69.13-2.5.4-2.03.67-3.68,2.09-4.64,4-.96,1.91-1.13,4.08-.46,6.11l4.21,12.79c-34.89-24.5-44.66-66.64-44.76-67.08-.79-3.65-4.08-6.31-7.81-6.31-.57,0-1.15.06-1.71.18-2.09.45-3.88,1.69-5.03,3.49-1.16,1.8-1.54,3.94-1.09,6.03.43,1.99,10.49,46.53,48.31,74.73l-12.77.94c-4.4.32-7.72,4.17-7.4,8.57.3,4.16,3.81,7.42,7.98,7.42.2,0,.4,0,.59-.02l38.35-2.81c2.48-.18,4.69-1.47,6.07-3.53s1.73-4.6.95-6.95h-.01Z" stroke-width="0"/>
  </g>
  <path d="m226.69,205.75c-2.13,1.84-4.08,3.94-5.78,6.25l-21.54,29.32s-34.83-5.6-55.6-52.65c0,0,7.76-4.77,18.93-13.09.8.46,1.6.92,2.4,1.36,2.89,1.6,7.3,4.79,11.57,7.87,6.12,4.42,11.9,8.6,16.61,10.78,12.03,5.56,22.41,8.77,33.41,10.16Z" stroke-width="0"/>
  <path d="m328.88,163.37c-4.68-3.62-9.78-7.76-15.02-12.34,5.57-2.6,11.56-4.09,17.29-.74,5.51,3.23,5.72,7.24-2.27,13.08Z" stroke-width="0"/>
  <path d="m301.9,90.14c-5.04,4.01-17.49,14.37-25.48,21.05-2.48-2.84-5.28-5.72-8.33-8.63,15.83-12.15,34.28-25.04,39.7-27.01,1.47.84,1.63,1.79,1.69,2.25.43,2.71-1.76,7.72-7.58,12.34Z" stroke-width="0"/>
  <path d="m346.79,73.06c-1.6,6.45-6.97,11.2-10.46,15.51,0,0,5.45.02,6.76,5.06,2.35,9.07-24.52,34.77-39.39,48.14-7.11-6.8-14.19-14.28-20.58-22.25,7.97-6.66,20.5-17.1,25.42-21,8.23-6.55,12.64-15.12,11.5-22.37-.8-5.13-4.16-9.06-9.48-11.06-3.38-1.27-7.51-.94-29.94,14.95-9.18,6.51-18.01,13.24-20.63,15.24-2.03-1.74-4.13-3.49-6.29-5.22,25.29-19,55.58-37.53,71.44-49.1,7.07-5.15,19.4-2.8,16.61,10.53-.52,2.47-3.72,7.35-3.72,7.35,5.45-1.72,11.07,4.88,8.76,14.22Z" stroke-width="0"/>
  <path d="m347.32,188.67s-45.63-28.08-75.05-66.78c-20.79-27.32-81.38-62.74-106.31-80.93-7.07-5.15-19.4-2.8-16.61,10.53.51,2.46,3.72,7.34,3.72,7.34-5.45-1.72-11.07,4.88-8.76,14.22,1.6,6.45,6.97,11.2,10.46,15.51,0,0-5.45.02-6.76,5.06-3.24,12.48,48.88,56.46,48.88,56.46,0,0,8.32,7.26-1.96,8.73-7.65,1.1-22.01-16.13-34.98-8.53-6.91,4.05-5.49,9.33,10,17.9,7.51,4.15,20.5,15.07,27.53,18.32,16.9,7.81,29.29,10.02,42.66,10.07,11.87.06,23.01,5.84,30.04,15.4l21.55,29.33s34.82-5.61,55.6-52.65Zm-99.86-9.19c-1.11,1.42-2.8,2.13-4.46,2.05-1.07-.05-2.13-.42-3.04-1.13-22.98-17.97-26.33-47.61-26.81-56.55-5.9-4.93-24.36-20.38-30.6-25.33-8.23-6.54-12.64-15.12-11.49-22.37.8-5.13,4.16-9.06,9.48-11.05,3.38-1.27,7.51-.94,29.94,14.95,10.89,7.72,21.3,15.76,21.41,15.85,2.33,1.8,2.75,5.16.95,7.49-1.81,2.33-5.17,2.76-7.5.95-16.31-12.63-36.33-26.71-42.02-28.79-1.47.84-1.63,1.8-1.69,2.25-.43,2.71,1.76,7.72,7.58,12.34,7.54,5.99,31.63,26.19,32.65,27.04,1.21,1.02,1.91,2.53,1.91,4.11,0,.32.26,33.05,22.79,50.68,2.33,1.82,2.74,5.18.92,7.5Z" stroke-width="0"/>
</svg>