<?xml version="1.0" encoding="UTF-8"?>
<svg id="Be_Quiet_Icon" data-name="Be Quiet Icon" xmlns="http://www.w3.org/2000/svg" viewBox="0 0 512 512">
  <path d="m192.77,378.63l-49.38,16.81,18.14,28.77c1.48,2.33.78,5.42-1.56,6.91-.83.52-1.75.77-2.66.77-1.66,0-3.28-.83-4.23-2.34l-20.06-31.79c-2.76-3.62-12.96-16.93-23.6-29.58-5.07-6.01-15.86-4.24-9.81,12.45l15.04,27.2c.92,1.66.82,3.7-.26,5.26-.5.74-12.4,18.65,3.02,32.46,2.06,1.85,2.24,5.01.4,7.07-.99,1.11-2.36,1.67-3.73,1.67-1.19,0-2.38-.42-3.33-1.27-16.04-14.35-11.78-32.97-6.27-42.89l-16.52-29.86c-8-12.84-28.9-46.44-31.28-50.66-5.4-9.64-18.92-1.6-12.17,14.46-.41-.49-13.59-16.19-18.92-24.1-5.41-8.04-20.29,1.6-8.12,25.72,0,0-9.47-6.44-12.17,4.81-2.7,11.26,11.78,36.41,29.7,60.76,0,0-20.91-1.78-30.03-3.14-9.13-1.35-6.43,13.12,13.85,19.55,20.28,6.43,28.19,6.62,28.19,6.62,0,0,20.02,28.02,40.03,29.02,24.35,1.22,20.6,1.02,34.03,4,27.02,6,43.76-9.1,47.81-20.36l50.03-1.6s34.68-57.07-26.16-66.71Z" stroke-width="0"/>
  <path d="m199.63,154.04c-.98-.54-2.14-1.19-3.43-1.93-21.99,19.49-41.92,33.73-41.92,33.73-4.78,45.55,41.27,56.86,41.27,56.86l28.23-43.1c6.39-.9,12.36-2.37,17.92-4.26-23.94-14.12-37.62-34.01-42.07-41.28Z" stroke-width="0"/>
  <path d="m283.74,110.47c2.65,3.16,5.46,6.33,8.39,9.47l53.29-30.55c3.44-3.87,6.85-8.56,7.53-12.49,1.26-7.32-.72-10.26-3.13-11.34l-68.59,42.05c.88.96,1.73,1.91,2.52,2.86Z" stroke-width="0"/>
  <path d="m312.24,139.69c11.49-7.12,27.91-18.55,32.89-28.48,2.67-5.32,2.43-8.64,1.04-10.69l-46.85,26.84c4.22,4.23,8.58,8.37,12.92,12.33Z" stroke-width="0"/>
  <path d="m274.11,100.25l74.69-45.8c.56-2.47.67-4.92-.18-6.87-2.48-5.62-9.18-5.12-14.49-1.62-15.97,10.52-46.9,27.43-71.96,44.81,4.21,3.22,8.16,6.45,11.71,9.64.07-.06.15-.11.23-.16Z" stroke-width="0"/>
  <path d="m161.84,89.39l59.83,34.3c2.39,1.38,3.22,4.43,1.85,6.84-.93,1.61-2.61,2.51-4.34,2.51-.85,0-1.7-.21-2.49-.66l-55.58-31.86c-1.39,2.05-1.63,5.36,1.04,10.69,7.91,15.78,44.73,35.37,44.73,35.37,0,0,24.42,45.67,76.62,53.01l28.23,43.1s46.06-11.31,41.27-56.86c0,0-47.7-34.07-76.91-68.94-20.64-24.62-78.83-55.05-102.94-70.94-5.31-3.5-12.01-4-14.49,1.62-.85,1.94-.74,4.39-.18,6.87l74.69,45.8c2.36,1.44,3.1,4.52,1.65,6.88-.94,1.54-2.58,2.39-4.27,2.39-.89,0-1.79-.24-2.6-.74l-70.49-43.21c-2.41,1.08-4.39,4.02-3.13,11.34.68,3.93,4.08,8.62,7.53,12.49Z" stroke-width="0"/>
  <path d="m507.01,408.11c-9.13,1.36-30.03,3.14-30.03,3.14,17.92-24.35,32.41-49.5,29.7-60.76-2.7-11.25-12.17-4.81-12.17-4.81,12.17-24.12-2.7-33.76-8.12-25.72-5.32,7.91-18.5,23.61-18.92,24.1,6.75-16.06-6.77-24.1-12.17-14.46-2.37,4.22-23.28,37.82-31.28,50.66l-16.52,29.86c5.51,9.93,9.78,28.54-6.27,42.89-.95.85-2.14,1.27-3.33,1.27-1.37,0-2.74-.56-3.73-1.67-1.84-2.05-1.66-5.21.4-7.07,15.42-13.8,3.52-31.72,3.02-32.46-1.08-1.56-1.18-3.6-.26-5.26l15.04-27.2c6.05-16.69-4.73-18.46-9.81-12.45-10.64,12.65-20.84,25.96-23.6,29.58l-20.06,31.79c-.95,1.51-2.57,2.34-4.23,2.34-.91,0-1.83-.25-2.66-.77-2.34-1.48-3.04-4.57-1.56-6.91l18.14-28.77-49.38-16.81c-60.84,9.65-26.16,66.71-26.16,66.71l50.03,1.6c4.05,11.26,20.79,26.36,47.81,20.36,13.43-2.98,9.68-2.78,34.03-4,20.02-1,40.03-29.02,40.03-29.02,0,0,7.92-.19,28.19-6.62,20.28-6.43,22.98-20.9,13.85-19.55Z" stroke-width="0"/>
  <g>
    <path d="m159.05,242.06c-.56-.12-1.14-.18-1.71-.18-3.73,0-7.02,2.65-7.81,6.3-.1.45-9.79,42.57-44.76,67.09l4.21-12.8c.67-2.03.51-4.2-.46-6.11-.96-1.91-2.61-3.33-4.64-4-.81-.27-1.65-.4-2.5-.4-3.46,0-6.52,2.21-7.6,5.5l-10.68,32.45c-.78,2.36-.43,4.89.95,6.95,1.38,2.06,3.59,3.35,6.07,3.53l38.34,2.81c.2.02.41.02.61.02,4.17,0,7.67-3.26,7.98-7.42.32-4.4-3-8.25-7.4-8.57l-12.77-.94c37.81-28.19,47.88-72.73,48.31-74.72.94-4.31-1.81-8.58-6.12-9.52Z" stroke-width="0"/>
    <path d="m427.16,329.92l-10.68-32.45c-1.08-3.29-4.14-5.5-7.6-5.5-.85,0-1.69.13-2.5.4-2.03.67-3.68,2.09-4.64,4-.96,1.91-1.13,4.08-.46,6.11l4.21,12.79c-34.89-24.5-44.66-66.64-44.76-67.08-.79-3.65-4.08-6.31-7.81-6.31-.57,0-1.15.06-1.71.18-2.09.45-3.88,1.69-5.03,3.49-1.16,1.8-1.54,3.94-1.09,6.03.43,1.99,10.49,46.53,48.31,74.73l-12.77.94c-4.4.32-7.72,4.17-7.4,8.57.3,4.16,3.81,7.42,7.98,7.42.2,0,.4,0,.59-.02l38.35-2.81c2.48-.18,4.69-1.47,6.07-3.53,1.38-2.06,1.73-4.6.95-6.95Z" stroke-width="0"/>
  </g>
</svg>