<?xml version="1.0" encoding="utf-8"?>
<!-- Generator: Adobe Illustrator 28.0.0, SVG Export Plug-In . SVG Version: 6.00 Build 0)  -->
<svg version="1.1" id="Be_Quiet_Icon" xmlns="http://www.w3.org/2000/svg" xmlns:xlink="http://www.w3.org/1999/xlink" x="0px"
	 y="0px" viewBox="0 0 512 512" style="enable-background:new 0 0 512 512;" xml:space="preserve">
<g>
	<path d="M219,450.3l-50,1.6c-4,11.3-20.8,26.4-47.8,20.4c-13.4-3-9.7-2.8-34-4c-20-1-40-29-40-29s-7.9-0.2-28.2-6.6
		c-20.3-6.4-23-20.9-13.9-19.5c4.1,0.6,10.5,1.3,16.3,1.8l11,14.3c1,1.3,2.5,1.9,4,1.9c1.1,0,2.1-0.3,3.1-1c2.2-1.7,2.6-4.8,0.9-7
		l-5.3-6.9c0.1,0,0.1,0,0.1,0c-17.9-24.4-32.4-49.5-29.7-60.8c0.6-2.4,1.5-4,2.6-5.1c15.2,27.8,39,56.4,40.2,57.8
		c1,1.2,2.4,1.8,3.8,1.8c1.1,0,2.3-0.4,3.2-1.2c2.1-1.8,2.4-4.9,0.6-7c-0.3-0.4-28.1-33.8-42.4-62.4c-3.2-15.7,7.7-21.1,12.2-14.5
		c0.1,0.1,0.1,0.2,0.2,0.3c0,0.4,0.1,0.9,0.3,1.3c14.8,39,42.1,70.2,43.2,71.5c1,1.1,2.4,1.7,3.8,1.7c1.2,0,2.4-0.4,3.3-1.3
		c2.1-1.8,2.3-5,0.5-7.1c-0.2-0.3-19.6-22.4-34.1-51.8c0.8-9.3,9.8-12.4,14-5c2.4,4.3,23.3,37.9,31.3,50.7l16.4,30
		c-5.5,9.9-9.7,28.5,6.3,42.9c0.9,0.9,2.1,1.3,3.3,1.3c1.3,0,2.7-0.6,3.7-1.7c1.8-2.1,1.7-5.3-0.4-7.1c-15.4-13.8-3.5-31.8-3-32.5
		c1.1-1.6,1.2-3.6,0.3-5.3l-15-27.2c-6.1-16.7,4.7-18.5,9.8-12.5c10.6,12.7,20.8,26,23.6,29.6l20,31.8c0.9,1.5,2.5,2.3,4.2,2.3
		c0.9,0,1.9-0.3,2.7-0.8c2.4-1.5,3.1-4.6,1.6-6.9l-18.1-28.8l49.4-16.8C253.7,393.2,219,450.3,219,450.3z"/>
	<path d="M90.1,345.3l38.3,2.8c0.2,0,0.4,0,0.6,0c4.2,0,7.7-3.3,8-7.4c0.3-4.4-3-8.2-7.4-8.6l-12.8-0.9
		c37.8-28.2,47.9-72.7,48.3-74.7c0.9-4.3-1.8-8.6-6.1-9.5l0,0l0,0c-0.6-0.1-1.1-0.2-1.7-0.2c-3.7,0-7,2.6-7.8,6.3
		c-0.1,0.5-9.8,42.6-44.8,67.1l4.2-12.8c0.7-2,0.5-4.2-0.5-6.1s-2.6-3.3-4.6-4c-0.8-0.3-1.7-0.4-2.5-0.4c-3.5,0-6.5,2.2-7.6,5.5
		L83,334.9c-0.8,2.4-0.4,4.9,1,7C85.4,344,87.7,345.1,90.1,345.3z"/>
	<path d="M346.3,250.4c-1.2,1.8-1.5,3.9-1.1,6c0.4,2,10.5,46.5,48.3,74.7l-12.8,0.9c-4.4,0.3-7.7,4.2-7.4,8.6c0.3,4.2,3.8,7.4,8,7.4
		c0.2,0,0.4,0,0.6,0l38.4-2.8c2.5-0.2,4.7-1.5,6.1-3.5c1.4-2,1.7-4.6,1-7l0,0l0,0l-10.7-32.5c-1.1-3.3-4.1-5.5-7.6-5.5
		c-0.9,0-1.7,0.1-2.5,0.4c-2,0.7-3.7,2.1-4.6,4c-1,1.9-1.1,4.1-0.5,6.1l4.2,12.8c-34.9-24.5-44.7-66.6-44.8-67.1
		c-0.8-3.6-4.1-6.3-7.8-6.3c-0.6,0-1.2,0.1-1.7,0.2C349.2,247.4,347.4,248.6,346.3,250.4z"/>
	<path d="M199.4,241.3L221,212c1.7-2.3,3.6-4.4,5.8-6.2c-11-1.4-21.4-4.6-33.4-10.2c-4.7-2.2-10.5-6.4-16.6-10.8
		c-4.3-3.1-8.7-6.3-11.6-7.9c-0.8-0.4-1.6-0.9-2.4-1.4c-11.2,8.3-18.9,13.1-18.9,13.1C164.5,235.7,199.4,241.3,199.4,241.3z"/>
	<path d="M314,151c5.2,4.6,10.3,8.7,15,12.3l0,0c8-5.8,7.8-9.9,2.3-13.1C325.5,146.9,319.5,148.4,314,151z"/>
	<path d="M309.6,77.7c-0.1-0.5-0.2-1.4-1.7-2.2c-5.4,2-23.9,14.9-39.7,27c3,2.9,5.8,5.8,8.3,8.6c8-6.7,20.4-17,25.5-21
		C307.8,85.4,310,80.4,309.6,77.7z"/>
	<path d="M343.2,93.5c0-0.2-0.1-0.3-0.1-0.5l-47.5,40.3c2.7,2.9,5.5,5.6,8.3,8.3C318.7,128.3,345.5,102.6,343.2,93.5z"/>
	<path d="M308.6,98.4c-4.9,3.9-17.4,14.3-25.4,21c1.8,2.2,3.6,4.4,5.5,6.6l55.5-47.1c1.2-1.8,2.2-3.8,2.7-6
		c1.6-6.4-0.5-11.4-3.8-13.5l-22.8,17.5C320.9,84,316.5,92.1,308.6,98.4z"/>
	<path d="M280.7,79.9C303.1,64,307.3,63.7,310.6,65c1.9,0.7,3.6,1.7,5,2.9l26.6-20.3c-0.1-9.9-10.7-11.3-17-6.7
		C309.3,52.5,279,71,253.8,90c2.2,1.7,4.3,3.5,6.3,5.2C262.7,93.2,271.5,86.4,280.7,79.9z"/>
	<path d="M347.4,188.7c0,0-45.6-28.1-75-66.8C251.6,94.5,190.9,59.1,166,40.9c-7.1-5.2-19.4-2.8-16.6,10.5c0.1,0.6,0.4,1.3,0.8,2.1
		l22.7,17.6c1.6-2.7,4.2-4.8,7.7-6.1c3.4-1.3,7.5-0.9,29.9,15c10.9,7.7,21.3,15.8,21.4,15.9c2.3,1.8,2.8,5.2,1,7.5
		c-1.8,2.3-5.2,2.8-7.5,1c-16.3-12.6-36.3-26.7-42-28.8c-1.5,0.8-1.6,1.8-1.7,2.2c-0.4,2.7,1.8,7.7,7.6,12.3
		c7.5,6,31.6,26.2,32.6,27c1.2,1,1.9,2.5,1.9,4.1c0,0.3,0.3,33.1,22.8,50.7c2.3,1.8,2.7,5.2,0.9,7.5l0,0c-1.1,1.4-2.8,2.1-4.5,2.1
		c-1.1-0.1-2.1-0.4-3-1.1c-23-18-26.3-47.6-26.8-56.6c-5.9-4.9-24.4-20.4-30.6-25.3c-5.8-4.6-9.7-10.3-11.1-15.7l-26.1-20.2
		c-1.5,2.6-2.1,6.3-1,10.5c1.1,4.5,4.1,8.2,7,11.5l57.1,46c2.1,1.7,2.5,4.9,0.8,7c-1,1.2-2.4,1.9-3.9,1.9c-1.1,0-2.2-0.4-3.1-1.1
		l-54.2-43.8c-0.4,13.7,49,55.4,49,55.4s8.3,7.3-2,8.7c-7.6,1.1-22-16.1-35-8.5c-6.9,4-5.5,9.3,10,17.9c7.5,4.2,20.5,15.1,27.5,18.3
		c16.9,7.8,29.3,10,42.7,10.1c11.9,0.1,23,5.8,30,15.4l21.5,29.3C291.8,241.3,326.6,235.7,347.4,188.7z"/>
</g>
<path d="M293,450.3l50,1.6c4,11.3,20.8,26.4,47.8,20.4c13.4-3,9.7-2.8,34-4c20-1,40-29,40-29s7.9-0.2,28.2-6.6
	c20.3-6.4,23-20.9,13.9-19.5c-4.1,0.6-10.5,1.3-16.3,1.8l-11,14.3c-1,1.3-2.5,1.9-4,1.9c-1.1,0-2.1-0.3-3.1-1
	c-2.2-1.7-2.6-4.8-0.9-7l5.3-6.9c-0.1,0-0.1,0-0.1,0c17.9-24.4,32.4-49.5,29.7-60.8c-0.6-2.4-1.5-4-2.6-5.1
	c-15.2,27.8-39,56.4-40.2,57.8c-1,1.2-2.4,1.8-3.8,1.8c-1.1,0-2.3-0.4-3.2-1.2c-2.1-1.8-2.4-4.9-0.6-7c0.3-0.4,28.1-33.8,42.4-62.4
	c3.2-15.7-7.7-21.1-12.2-14.5c-0.1,0.1-0.1,0.2-0.2,0.3c0,0.4-0.1,0.9-0.3,1.3c-14.8,39-42.1,70.2-43.2,71.5c-1,1.1-2.4,1.7-3.8,1.7
	c-1.2,0-2.4-0.4-3.3-1.3c-2.1-1.8-2.3-5-0.5-7.1c0.2-0.3,19.6-22.4,34.1-51.8c-0.8-9.3-9.8-12.4-14-5c-2.4,4.3-23.3,37.9-31.3,50.7
	l-16.4,30c5.5,9.9,9.7,28.5-6.3,42.9c-0.9,0.9-2.1,1.3-3.3,1.3c-1.3,0-2.7-0.6-3.7-1.7c-1.8-2.1-1.7-5.3,0.4-7.1
	c15.4-13.8,3.5-31.8,3-32.5c-1.1-1.6-1.2-3.6-0.3-5.3l15-27.2c6.1-16.7-4.7-18.5-9.8-12.5c-10.6,12.7-20.8,26-23.6,29.6l-20,31.8
	c-0.9,1.5-2.5,2.3-4.2,2.3c-0.9,0-1.9-0.3-2.7-0.8c-2.4-1.5-3.1-4.6-1.6-6.9l18.1-28.8l-49.4-16.8C258.3,393.2,293,450.3,293,450.3z
	"/>
</svg>
