<?xml version="1.0" encoding="UTF-8"?>
<svg id="Continue_Icon" data-name="Continue Icon" xmlns="http://www.w3.org/2000/svg" viewBox="0 0 512 512">
  <path d="m459.92,251.52c-13.67-33.35-27.15-29.66-55.19-53.52-26.38-22.44-37.61-16.57-59.11-5.73-14.82,7.47-25.66,15.55-33.25,23.42-4.22,5.27-14.62,20.26-13.06,37.75,14.49-34.87,46.31-53.08,47.95-54,2.41-1.36,5.46-.49,6.81,1.91,1.35,2.41.49,5.46-1.91,6.81-.41.23-38.08,21.9-47.72,61.76.9,5.88,4.13,13.73,14.78,15.44,2.56-16.38,11.45-32.93,26.31-48.72,15.28-16.23,31.31-25.89,31.99-26.3,2.37-1.42,5.44-.64,6.86,1.73,1.42,2.36.64,5.43-1.72,6.85-.58.35-55.63,33.89-54.2,77.95,2.2,3.94,6.52,8.18,14.72,11.32,8.05,3.08,19.99-.31,25.05-2.03-3.14-3.19-4.86-7.15-5.13-11.8-.77-13.29,11.12-32.34,36.35-58.23,1.92-1.98,5.09-2.01,7.07-.09,1.98,1.92,2.01,5.09.09,7.07-28.45,29.2-33.93,43.67-33.52,50.68.15,2.58,1.14,4.53,3.15,6.15,7,5.69,25.3,10.93,33.74,8.3,2.47-.77,2.78-1.85,2.9-2.25.9-3.08-4.85-8.84-9.16-11.64-1.29-.83-2.12-2.21-2.26-3.73-.14-1.52.42-3.03,1.53-4.09l22.58-21.52c1.99-1.91,5.16-1.83,7.07.16,1.9,2,1.82,5.17-.17,7.07l-18.37,17.52c4.71,4.18,10.66,11.27,8.38,19.05-.88,3.02-3.26,7.03-9.52,8.99-2.56.8-5.47,1.14-8.56,1.14-10.53-.02-23.12-4.14-30.82-8.73,4.89,5.89,17.46,15.1,48.48,16.24,0,0,30.31,49.06,31.05,48.55,0,0,59.61-15.41,58.83-70.19,0,0-39.83-23.55-52.03-53.28Z" stroke-width="0"/>
  <path d="m299.48,218.23c-10.66-.51-24.45-2.04-31.44-6.47-6.05-3.83-11.02,1.57-11.96,9.65-.91-8.08-5.86-13.5-11.92-9.69-7.01,4.41-20.8,5.9-31.46,6.37,5.72,8.49,11.83,21.63,9.9,37.32,6.58-1.31,13.51-3.63,19.9-7.56,8.79-5.38,12.76-13.54,13.57-20.87.79,7.33,4.74,15.51,13.51,20.91,6.38,3.95,13.3,6.29,19.88,7.62-1.88-15.69,4.28-28.81,10.02-37.28Z" stroke-width="0"/>
  <path d="m134.68,209.96c.68.41,16.68,10.13,31.91,26.4,14.81,15.83,23.65,32.42,26.15,48.8,10.65-1.68,13.9-9.52,14.82-15.4-9.51-39.89-47.11-61.67-47.52-61.9-2.4-1.36-3.24-4.42-1.89-6.81,1.36-2.4,4.41-3.24,6.81-1.89,1.64.92,33.4,19.23,47.79,54.14,1.63-17.55-8.82-32.61-12.99-37.84,0-.01,0-.01,0-.01-7.56-7.87-18.36-15.97-33.11-23.46-21.46-10.9-32.67-16.81-59.13,5.55-28.11,23.77-41.58,20.04-55.35,53.34C39.87,280.58-.04,304-.04,304c-.96,54.78,58.61,70.37,58.61,70.37.74.51,31.21-48.45,31.21-48.45,31.03-1.04,43.63-10.21,48.54-16.08-7.71,4.57-20.31,8.65-30.84,8.63-3.09,0-6-.36-8.56-1.16-6.26-1.97-8.62-5.99-9.5-9.01-2.26-7.79,3.71-14.86,8.44-19.03l-18.31-17.58c-1.99-1.9-2.05-5.07-.15-7.07,1.91-1.99,5.08-2.05,7.07-.14l22.52,21.6c1.11,1.06,1.67,2.57,1.51,4.09-.15,1.53-.98,2.9-2.28,3.73-4.32,2.79-10.09,8.53-9.2,11.62.12.4.43,1.48,2.9,2.25,8.43,2.65,26.74-2.53,33.76-8.2,2.01-1.62,3.02-3.57,3.17-6.15.43-7.01-5.01-21.5-33.36-50.78-1.92-1.98-1.87-5.15.11-7.07,1.98-1.93,5.15-1.87,7.07.11,25.15,25.97,36.98,45.06,36.17,58.35-.29,4.65-2.02,8.61-5.18,11.78,5.05,1.74,16.99,5.17,25.06,2.11,8.19-3.12,12.52-7.32,14.76-11.26v-.02c1.57-44.05-53.38-77.76-53.96-78.11-2.36-1.42-3.12-4.49-1.7-6.86,1.43-2.36,4.49-3.12,6.86-1.7Z" stroke-width="0"/>
  <path d="m232.15,265.56c-3.74-.29-7,2.52-7.28,6.26-4.78,63.27-19.88,89.52-26.9,89.51-2.45,0-8.18-4.37-14.1-20.71-1.28-3.53-5.17-5.35-8.7-4.08-3.53,1.28-5.35,5.17-4.08,8.7,7.12,19.67,16.15,29.65,26.85,29.67,24.15.04,36.74-52.7,40.47-102.07.28-3.74-2.52-7-6.26-7.28Z" stroke-width="0"/>
  <path d="m167.12,136.02c.41,1.8,1.53,3.36,3.11,4.32,1.07.64,2.28.98,3.5.98.59,0,1.19-.08,1.77-.23l23.93-6.43c3.62-.97,5.77-4.7,4.8-8.32-.97-3.62-4.69-5.77-8.32-4.8l-7.43,1.99c4.31-8.28,8.06-10.73,9.86-10.73,6.83.01,19.55,23.43,25.16,73.66.39,3.47,3.32,6.03,6.73,6.04.26,0,.51-.01.77-.04,3.73-.42,6.41-3.78,5.99-7.5-2.88-25.76-12.41-85.69-38.64-85.73-8.22-.01-15.49,5.88-21.67,17.54l-1.15-5.09c-.83-3.66-4.46-5.96-8.12-5.13-3.66.82-5.96,4.46-5.13,8.12l4.81,21.36Z" stroke-width="0"/>
  <path d="m340.39,336.8c-3.52-1.29-7.42.53-8.71,4.05-5.96,16.32-11.71,20.67-14.16,20.67-7.02-.01-22.05-26.3-26.62-89.59-.27-3.74-3.51-6.55-7.26-6.28-3.74.27-6.55,3.52-6.28,7.26,3.57,49.38,15.99,102.15,40.15,102.19,10.7.02,19.76-9.94,26.94-29.58,1.29-3.52-.53-7.42-4.05-8.71Z" stroke-width="0"/>
  <path d="m284.99,192.54c.26.03.52.04.77.04,3.41,0,6.35-2.55,6.75-6.02,5.77-50.21,18.57-73.59,25.39-73.58,1.8,0,5.54,2.47,9.83,10.76l-7.42-2.02c-3.63-.99-7.35,1.15-8.34,4.77-.98,3.62,1.15,7.35,4.77,8.33l23.91,6.5c.58.16,1.18.24,1.77.24,1.22,0,2.44-.33,3.5-.97,1.59-.95,2.72-2.51,3.13-4.31l4.88-21.35c.84-3.66-1.45-7.3-5.11-8.13-3.65-.84-7.3,1.45-8.13,5.11l-1.16,5.09c-6.14-11.68-13.39-17.59-21.61-17.6-26.23-.04-35.95,59.85-38.91,85.61-.43,3.73,2.24,7.09,5.97,7.52Z" stroke-width="0"/>
</svg>