<?xml version="1.0" encoding="UTF-8"?>
<svg id="Together_Icon" data-name="Together Icon" xmlns="http://www.w3.org/2000/svg" viewBox="0 0 512 512">
  <path d="m83.14,155.09s-16-40.01-36.58-38.87c-20.58,1.14-10.29,14.86,3.43,35.44,13.72,20.58,24.58,66.88,41.73,84.03,18.29,18.29,39.78,4.09,56.02,5.72,11.43,1.14,22.86,8,42.3,1.14,22.66-8,24.39-38.15,31.44-87.46,1.14-8,19.17-73.66,21.15-82.88,3.43-16-14.29-18.86-18.86-8.57s-17.72,46.3-21.15,53.16c-1.45,2.89-5.81,3.59-5.52-.98,1.04-16.1,8.56-56.29,11.23-68.75,3.43-16,2.29-24.01-6.86-25.15-9.08-1.13-11.43,8-17.15,27.44-4.7,15.97-11.88,51.2-16,59.45-2.29,4.57-6.86,3.43-6.86-3.43,0-23.64-.46-88.02-2.29-97.17-2.29-11.43-20.58-11.43-21.72,3.43s-8,93.74-9.15,98.32-8.02,6.74-10.29-9.15c-2.29-16-13.33-72.11-14.86-77.74-3.43-12.58-21.72-12.58-20.58,5.72,1.43,22.85,11.43,93.74,12.58,99.46s-12,26.87-12,26.87Z" stroke-width="0"/>
  <path d="m429.19,155.09s16-40.01,36.58-38.87c20.58,1.14,10.29,14.86-3.43,35.44-13.72,20.58-24.58,66.88-41.73,84.03-18.29,18.29-39.78,4.09-56.02,5.72-11.43,1.14-22.86,8-42.3,1.14-22.66-8-24.39-38.15-31.44-87.46-1.14-8-19.17-73.66-21.15-82.88-3.43-16,14.29-18.86,18.86-8.57,4.57,10.29,17.72,46.3,21.15,53.16,1.45,2.89,5.81,3.59,5.52-.98-1.04-16.1-8.56-56.29-11.23-68.75-3.43-16-2.29-24.01,6.86-25.15s11.43,8,17.15,27.44c4.7,15.97,11.88,51.2,16,59.45,2.29,4.57,6.86,3.43,6.86-3.43,0-23.64.46-88.02,2.29-97.17,2.29-11.43,20.58-11.43,21.72,3.43,1.14,14.86,8,93.74,9.15,98.32s8.02,6.74,10.29-9.15c2.29-16,13.33-72.11,14.86-77.74,3.43-12.58,21.72-12.58,20.58,5.72-1.43,22.85-11.43,93.74-12.58,99.46-1.14,5.72,12,26.87,12,26.87Z" stroke-width="0"/>
  <path d="m231.09,382.67c-14.22-.79-29.45,24.5-33.94,36.03-.78,1.99-2.31,3.57-4.43,3.74-1.53.13-37.71,3.63-37.71,38.46,0,2.76-2.24,5-5,5s-5-2.24-5-5c0-23.11,12.91-35.11,23.73-41.1,7.64-4.24,19.97-8.36,19.97-8.36-3.36-6.28-6.82-13.72-6.21-16.77,1.15-5.71,11.15-76.61,12.58-99.46,1.14-18.29-17.15-18.29-20.58-5.71-1.53,5.62-12.57,61.73-14.86,77.73-2.27,15.89-9.15,13.72-10.29,9.15-1.14-4.57-8-83.45-9.15-98.32-1.14-14.86-19.43-14.86-21.72-3.43-1.83,9.16-2.28,73.54-2.28,97.18,0,6.86-4.58,8-6.86,3.43-4.12-8.25-11.31-43.48-16.01-59.45-5.71-19.43-8.07-28.57-17.14-27.44-9.15,1.15-10.29,9.15-6.86,25.15,2.67,12.47,10.19,52.66,11.23,68.76.29,4.57-4.07,3.87-5.52.98-3.43-6.86-16.57-42.87-21.15-53.16-4.57-10.29-22.29-7.43-18.86,8.57,1.97,9.22,20.01,74.88,21.15,82.89,7.04,49.3,8.77,79.45,31.44,87.45,19.43,6.86,30.86,0,42.3-1.14,16.23-1.62,37.72,12.57,56.01-5.72,17.15-17.15,28.01-63.45,41.73-84.02,13.72-20.58,24.01-34.3,3.43-35.44Zm-111.86,83.22s-.1,0-.15,0c-2.69,0-4.91-2.14-5-4.85-1.09-36.11-28.26-45.62-28.53-45.71-2.62-.88-4.03-3.71-3.15-6.33.87-2.62,3.71-4.04,6.32-3.16,1.39.47,34.06,11.89,35.36,54.9.08,2.76-2.09,5.06-4.85,5.14Z" stroke-width="0"/>
  <path d="m448.64,330.08c-4.58,10.29-17.72,46.3-21.15,53.16-1.45,2.89-5.82,3.59-5.52-.98,1.04-16.1,8.56-56.29,11.23-68.76,3.43-16,2.29-24-6.86-25.15-9.07-1.13-11.43,8.01-17.14,27.44-4.7,15.97-11.89,51.2-16.01,59.45-2.29,4.57-6.86,3.43-6.86-3.43,0-23.64-.45-88.02-2.28-97.18-2.29-11.43-20.58-11.43-21.73,3.43-1.14,14.87-8,93.75-9.14,98.32s-8.02,6.74-10.29-9.15c-2.29-16-13.33-72.11-14.86-77.73-3.43-12.58-21.72-12.58-20.58,5.71,1.43,22.85,11.43,93.75,12.58,99.46.61,3.05-2.85,10.49-6.21,16.77,0,0,12.33,4.12,19.97,8.36,10.82,5.99,23.73,17.99,23.73,41.1,0,2.76-2.24,5-5,5s-5-2.24-5-5c0-34.83-36.18-38.33-37.72-38.46-2.11-.18-3.65-1.76-4.42-3.74-4.5-11.53-19.72-36.82-33.94-36.03-20.58,1.14-10.29,14.86,3.43,35.44,13.72,20.57,24.58,66.87,41.73,84.02,18.29,18.29,39.78,4.1,56.01,5.72,11.44,1.14,22.87,8,42.3,1.14,22.67-8,24.4-38.15,31.44-87.45,1.14-8.01,19.17-73.67,21.15-82.89,3.43-16-14.29-18.86-18.86-8.57Zm-31.64,85.25c-1.14.39-27.47,9.9-28.55,45.72-.09,2.71-2.31,4.85-5,4.85-.05,0-.1,0-.15,0-2.76-.08-4.93-2.38-4.85-5.14,1.3-43.01,33.97-54.43,35.36-54.9,2.61-.87,5.45.54,6.32,3.16.88,2.61-.52,5.44-3.13,6.32Z" stroke-width="0"/>
  <g>
    <path d="m509.98,278.83c-1.26-1.73-3.11-2.87-5.22-3.2-.41-.06-.83-.1-1.25-.1-3.96,0-7.28,2.84-7.9,6.75l-.58,3.63c-12.97-24.85-18.9-42.97-21.61-54.14-4.17-17.19-2.05-23.34-1.22-24.08.06-.01.17-.03.35-.03,2.12,0,6.72,1.86,13.3,7.08,1.41,1.12,3.17,1.73,4.97,1.73,2.46,0,4.75-1.1,6.27-3.03,1.33-1.67,1.93-3.77,1.68-5.89-.25-2.12-1.3-4.02-2.98-5.35-8.84-7.01-16.67-10.57-23.27-10.57-3.03,0-5.83.74-8.33,2.19-10.18,5.91-11.97,21.28-5.32,45.67,4.36,15.97,11.87,34.35,21.88,53.63l-3.1-1.72c-1.19-.66-2.53-1.01-3.88-1.01-2.91,0-5.59,1.58-7,4.12-1.04,1.87-1.28,4.03-.7,6.08.59,2.05,1.94,3.76,3.81,4.79l25.15,13.96c1.18.66,2.53,1,3.88,1,1.21,0,2.42-.28,3.5-.81,2.34-1.14,3.99-3.36,4.4-5.94l4.57-28.82c.33-2.11-.17-4.22-1.43-5.95Z" stroke-width="0"/>
    <path d="m47.81,193.82c-2.5-1.45-5.3-2.19-8.33-2.19-6.6,0-14.43,3.56-23.27,10.57-1.67,1.33-2.73,3.23-2.98,5.35-.25,2.12.35,4.21,1.68,5.89,1.53,1.92,3.81,3.03,6.27,3.03,1.79,0,3.56-.62,4.97-1.73,6.58-5.22,11.19-7.08,13.3-7.08.18,0,.29.02.35.03.82.74,2.94,6.89-1.23,24.08-2.71,11.18-8.64,29.3-21.61,54.14l-.58-3.63c-.62-3.91-3.94-6.75-7.9-6.75-.42,0-.84.03-1.26.1-2.11.33-3.96,1.47-5.22,3.2-1.26,1.73-1.76,3.84-1.43,5.95l4.57,28.82c.41,2.58,2.05,4.8,4.4,5.94,1.08.53,2.3.81,3.5.81,1.35,0,2.7-.35,3.88-1l25.15-13.96c1.87-1.04,3.22-2.74,3.81-4.79.59-2.05.34-4.21-.7-6.08-1.41-2.54-4.09-4.12-7-4.12-1.35,0-2.69.35-3.88,1.01l-3.1,1.72c10.01-19.28,17.52-37.67,21.88-53.63,6.66-24.39,4.87-39.75-5.32-45.67Z" stroke-width="0"/>
  </g>
</svg>