<?xml version="1.0" encoding="UTF-8"?>
<svg id="Focus_Icon" data-name="Focus Icon" xmlns="http://www.w3.org/2000/svg" viewBox="0 0 512 512">
  <path d="m179.89,353.86c.11-.19.24-.37.38-.55,7.84-10.19,9.57-13.54,9.83-14.1,3.31-10.69,10.91-17.06,20.38-17.06,2.45,0,4.92.43,7.33,1.29,4.88,1.73,8.77,5.33,10.94,10.15,2.48,5.5,2.72,12.3.71,20.3,5.48.23,9.82.55,12.31.93,4.66.7,8.62,2.44,11.71,5.01,3.56.04,7.21.06,10.92.06,11.19,0,21.7-.2,31.56-.56,2.99-2.3,6.72-3.85,11.08-4.51,2.49-.38,6.82-.7,12.32-.93-2.01-8-1.78-14.81.71-20.3,2.17-4.81,6.05-8.42,10.93-10.15,2.41-.86,4.87-1.29,7.34-1.29,9.47,0,17.07,6.37,20.37,17.06.26.54,1.9,3.72,9.16,13.22,57.62-9.88,71.95-26.06,71.95-26.06,0,0-1.23-19.9-12.44-38.18-6.69,3.07-13.99,4.65-21.69,4.65-17.72,0-31.81-8.41-32.4-8.77-3.63-2.2-5.47-6.44-4.61-10.6l3.75-17.99c-37.55-11.92-63.1-29.99-63.1-40.03v-27.08c4.77-3.85,9.2-8.31,13.21-13.28,6.96-8.63,12.66-18.81,16.77-30.09,6.58-1.25,13.78-10.74,17.35-23.54-1.07-8.78-1.24-17.68.77-24.37-1.32-4.17-3.59-7.04-6.65-7.86-1.45-.38-2.96-.27-4.5.26C342.47,17.13,307.27,0,264.39,0,227.35,0,196.04,12.78,185.76,62.66c-.94,4.53-1.7,9.39-2.27,14.56-.44,3.93-.77,8.07-.99,12.39-1.56-.59-3.11-.76-4.58-.41-2.02,5.04-2.86,8.51-3.89,12.7-.88,3.62-1.85,7.59-3.62,13.03.29,1.87.69,3.77,1.2,5.7,3.56,13.51,11.19,23.54,18.02,24.45,6.49,17.66,16.89,32.63,29.83,43.17v27.21c0,11.51-33.58,33.58-80.34,44.83-46.74,11.25-50.14,66.08-50.14,66.08,0,0,14.5,18.33,82.28,27.88,2.9-.15,5.8-.28,8.64-.39Z" stroke-width="0"/>
  <path d="m387.77,230.85l-9.31,44.67s35.92,21.76,61.45-9.76c0,0-8.54-51.2-4.99-91.33,2.49-28.34-14.89-83.84-20.04-108.88-1.13-5.52-5.01-10.03-10.09-8.06-1.75.68-3.21,2.29-4.41,4.19l18.09,75.45c.58,2.38-.89,4.78-3.27,5.34-1.55.38-3.11-.12-4.17-1.18-.56-.56-.97-1.27-1.17-2.09l-17.08-71.2c-2.19-.83-5.27-.23-9.06,5.14-2.04,2.89-2.84,7.95-3.11,12.53l15.99,58.94c.63,2.36-.76,4.79-3.12,5.44-1.59.43-3.21-.06-4.29-1.15-.53-.53-.93-1.2-1.15-1.97l-14.86-54.75c-2.16.41-4.38,2.34-6.04,7.34-4.93,14.83,5.86,50.15,5.86,50.15,0,0-13.3,43.89,14.78,81.17Z" stroke-width="0"/>
  <path d="m119.14,218.81l2.69-39.26s15.89-8.48,20.68-28.02c.72-2.98,1.96-5.8,3.77-8.28,2.77-3.78,7.27-11.22,12.23-24.6,8.16-22.02,4.23-22.63,15.77-45.37,6.48-12.77-5.25-17.5-12.92-8.75-4.26,4.85-9.4,17.07-9.4,17.07,0,0-2.85-35.44-8.08-46.55-3.24-6.87-8.47-12.21-12.82-13.5,6.07,13.69,13.43,36.72,12.72,66.93-.06,2.56-2.19,4.58-4.74,4.52-.59-.02-1.16-.14-1.68-.36-1.7-.72-2.88-2.41-2.83-4.37.81-34.4-9.62-59.05-15.24-69.77-2.03-2.92-4.82-5.79-8.5-7.34-10.38-4.37-14.84,3.72-12.51,11.34.78,2.56,1.64,5.54,2.44,8.35,10.45,10.45,25.33,31.56,26.12,67.45.06,2.55-1.97,4.66-4.52,4.73-.67.02-1.32-.12-1.9-.37-1.63-.69-2.79-2.28-2.84-4.16-.78-35.72-16.57-55.05-25.57-63.2-3.5-.36-6.63,1.33-7.44,7.94-.45,3.61,3,14.39,5.28,20.97,7.63,8.63,15.57,23.39,14.33,46.99,10.85,10.1,25.73,32.19,13.94,53.5-1.15,2.09-3.68,2.94-5.84,2.03-.15-.06-.3-.14-.44-.23-2.24-1.23-3.05-4.05-1.82-6.28,11.88-21.48-13.34-43.33-13.6-43.55-1.13-.96-1.73-2.41-1.62-3.88,1.99-25.99-8-40-16.69-47.17-2.14.62-4.03,2.21-5.23,5.39-2.17,5.77,8.81,15.88,4.26,37.2-4.55,21.32-7.36,20.14-6.92,26.96.45,6.83,3.62,20.33-3.1,36.31-6.73,15.99-21.81,43.94-21.81,43.94,0,0,45.79,39.75,73.8,3.4Z" stroke-width="0"/>
  <path d="m420.97,444.95c-2.64-15.82-.6-17.68-.6-30.71s-7.17-10.44-3.16-22.46c4-12.03-4.39-22.68-12.3-24.42-23.97-5.25-85.36-4.3-96.4-2.65-9.85,1.48-11.05,9.27-10.79,14.18,30.78-.26,79.75-.66,80.46-.66,4.78.16,4.81,7.08,0,7.24-4.22,0-73.05.61-90.1.74-6.78,4.37-4.23,13.83.48,18.07l85.92-1.25c2-.05,3.64,1.57,3.68,3.57.03,2-1.57,3.65-3.57,3.68l-81.98,1.19c-2.97,9.41,1.5,14.06,6.29,16.34l73.27-3.62c2-.11,3.7,1.44,3.8,3.44.1,2-1.44,3.69-3.44,3.79l-65.3,3.23c.73,9.35,8.7,12.61,14.56,13.75l48.2-2.33c4.78-.07,5.14,6.83.35,7.24,0,0-42.78,2.06-42.78,2.06,11.07,14.9,36.12,15.56,45.35,15.56,5.27,0,18.46,40.87,18.46,40.87,46.81,3.3,56.63-37.84,56.63-37.84,0,0-25.44-19.52-27.02-29.02Z" stroke-width="0"/>
  <path d="m334.34,332.86c-6.15,2.18-9.11,10.32-2.9,25.82l29.16.73c-4.39-5.71-10.47-13.95-11.41-17.08-3.19-10.58-10.17-11.13-14.85-9.47Z" stroke-width="0"/>
  <path d="m260.72,386.22c-17.05-.12-85.88-.73-90.1-.74-4.81-.17-4.78-7.08,0-7.24.7,0,49.67.4,80.46.66.26-4.91-.95-12.7-10.79-14.18-11.04-1.65-72.42-2.6-96.4,2.65-7.91,1.73-16.3,12.39-12.3,24.42,4.01,12.03-3.16,9.44-3.16,22.46s2.03,14.89-.6,30.71c-1.58,9.5-27.02,29.02-27.02,29.02,0,0,9.82,41.14,56.63,37.84,0,0,13.19-40.87,18.46-40.87,9.23,0,34.28-.66,45.35-15.56,0,0-42.78-2.06-42.78-2.06-4.79-.4-4.43-7.31.35-7.24l48.2,2.33c5.86-1.14,13.82-4.4,14.56-13.75l-65.3-3.23c-2-.1-3.54-1.8-3.44-3.79.1-2,1.8-3.55,3.8-3.44l73.27,3.62c4.79-2.29,9.26-6.93,6.29-16.34l-81.98-1.19c-2-.03-3.6-1.67-3.57-3.68.03-2,1.68-3.62,3.68-3.57l85.92,1.25c4.71-4.24,7.26-13.7.48-18.07Z" stroke-width="0"/>
  <path d="m214.46,332.86c-4.68-1.66-11.66-1.11-14.85,9.47-.94,3.13-7.02,11.37-11.41,17.08l29.16-.73c6.21-15.5,3.25-23.64-2.9-25.82Z" stroke-width="0"/>
  <path d="m498.25,354.65s-9.74,9.58-9.74,9.58c13.48-44.28,13.78-90.96.78-135.74-1.33-5.42-7.91-7.4-12.43-4.2-2.85,1.96-3.98,5.27-2.96,8.59,12.41,42.76,11.84,87.3-1.57,129.42l-3.84-14.21c-.46-1.7-1.43-3.16-2.82-4.24-3.66-3-9.59-1.84-11.85,2.31-1.07,1.85-1.35,4.01-.79,6.08l11.2,41.47c1.28,5.91,9.46,8,13.44,3.66l-.04-.04c.46-.37.9-.81,1.34-1.25l30.53-30.01c1.52-1.5,2.37-3.51,2.39-5.65.11-7.05-8.64-10.76-13.63-5.79Z" stroke-width="0"/>
  <path d="m46.33,343.62c-1.39,1.08-2.36,2.55-2.82,4.24l-3.84,14.21c-13.41-42.12-13.98-86.66-1.57-129.42,1.01-3.32-.12-6.63-2.96-8.59-4.52-3.2-11.11-1.22-12.43,4.2-13,44.78-12.69,91.46.78,135.74,0,0-9.74-9.58-9.74-9.58-5-4.97-13.75-1.26-13.63,5.79.02,2.14.86,4.15,2.39,5.65l30.53,30.01c.44.43.89.87,1.34,1.25l-.04.04c3.98,4.34,12.16,2.25,13.44-3.66l11.2-41.47c.56-2.07.28-4.23-.79-6.08-2.26-4.15-8.19-5.3-11.85-2.31Z" stroke-width="0"/>
</svg>