<?xml version="1.0" encoding="UTF-8"?>
<svg id="Friend_Icon" data-name="Friend Icon" xmlns="http://www.w3.org/2000/svg" viewBox="0 0 512 512">
  <path d="m319.08,218.94c13.27-8.39,14.2-22.8,14.2-22.8,0,0-26.42-18.13-41.81-17.03-5,.35-9.11,2.77-12.34,6.54,1.53.59,3.04,1.28,4.53,2.08,15.37,8.19,22.74,14.15,30.27,21.68,1.66,1.66,3.56,4.22,5.15,9.53Z" stroke-width="0"/>
  <path d="m197.04,269.41c2.02-1.88,5.18-1.77,7.06.25,1.09,1.17,24.54,27.03,16.83,72.11,2.15-.04,5.02-.26,8-.93,7.26-1.65,11.91-5.23,13.82-10.66,13.93-39.38-8.41-71.66-8.64-71.98-1.39-1.97-1.17-4.6.41-6.29-4.31-12.04-11.27-23.56-17.52-33.89-3.26-5.37-6.19-10.21-8.46-14.67-34.46.08-121.45,18.43-121.45,18.43,0,0-31.82-5.72-63.76-20.89,0,0-41.77,53.87-13.53,104.46l76.64.76c11.56,7.39,28.52,11.89,40.56,11.89,27,0,32.17-18.16,32.44-18.98.68-2.01,2.57-3.39,4.69-3.42h.06c2.1,0,3.98,1.3,4.7,3.28l13.94,38.46c.94,2.59-.41,5.46-3,6.4-.56.2-1.14.3-1.71.3-2.04,0-3.96-1.26-4.7-3.3l-10.32-28.48c-4.7,5.57-12.1,10.9-22.72,12.87,3.57,10.11,11.85,27.79,26.93,31.79,20.41,5.42,36.35-4.87,42.24-9.53,10.87-44.85-12.53-70.65-12.77-70.91-1.88-2.02-1.77-5.19.26-7.07Z" stroke-width="0"/>
  <path d="m253.17,275.75c4.43,14.33,6.96,34.15-.5,56.34,5.1-.1,12.76-2.52,16.92-14.89,2.66-7.93,2.17-20.25-1.01-34.08-5.89-2.43-11.04-4.85-15.41-7.37Z" stroke-width="0"/>
  <path d="m250.72,336.88c-6.91,13.26-22.99,14.9-30.54,14.9-.52,0-.98-.01-1.41-.02-.09.33-.17.66-.27,1,5.59,8.9,14.64,19.85,26.1,21.8,10.01,1.69,20.5-3.54,15.36-15.39-2.99-6.91-6.75-16.11-9.24-22.29Z" stroke-width="0"/>
  <path d="m504.84,216.28s-46.18,11-73.66-4.39c-27.48-15.39-64.86-74.76-85.75-74.76s-55.91,10.11-73.1,9.97c-9.34-.07-8.25,20.81,14.84,24.11,23.09,3.3,38.91-3.96,50.57,7.7,4.76,4.75,4.58,38.31-16.92,47.99.26,1.62.49,3.4.7,5.34.85,7.93,1.06,17.19.57,24.76-.63,9.63-2.15,14.04-5.84,16.88-3.31,2.55-8.41,4.07-13.64,4.07s-18.9-1.82-26.8-18.76c-3.73-8.01-6.96-20.03-8.58-26.62l-2.04-9.68h-.01s-21.02-51.13-46.78-41.51c-16.99,6.34,17.6,37.62,27.6,73.62,5,18,67.55,30.54,98.34,45.93,10.63,5.32,91.24-8.79,152.8,13.19,0,0,27.48-39.57,7.7-97.84Z" stroke-width="0"/>
  <path d="m284.87,254.96c7.7,16.49,21.94,13.57,25.28,10.99,3.35-2.58,3.3-42.87-3.3-49.47s-13.19-12.09-27.9-19.93c-5.93-3.16-11.38-3.77-15.78-3.38-6.51.58,12.7,32.53,12.7,32.53,0,0,4.13,18.85,8.99,29.25Z" stroke-width="0"/>
</svg>