<?xml version="1.0" encoding="UTF-8"?>
<svg id="Go_Away_Icon" data-name="Go Away Icon" xmlns="http://www.w3.org/2000/svg" viewBox="0 0 512 512">
  <path d="m405.91,335.52c-9.93,1.24-21.12,6.02-29,9.96-4.19,9.53-7.51,20.85-5,28.69,1.3,4.03,4.11,6.83,8.61,8.57,2.57.99,3.86,3.88,2.86,6.46-.76,1.99-2.66,3.2-4.66,3.2-.6,0-1.21-.11-1.8-.34-7.4-2.85-12.29-7.85-14.53-14.85-6.55-20.46,13.5-51.26,14.36-52.56.02-.03.04-.06.06-.08,6.15-16.67,12.95-36.33,13.58-43.32,1.18-13.02-1.18-29.59-21.3-33.14-11.55-2.04-18.64,5.77-22.59,12.79,2.61,19.44.99,46.42-15.61,77.16-.9,1.67-2.63,2.62-4.4,2.62-.81,0-1.62-.19-2.38-.6-2.43-1.31-3.33-4.34-2.02-6.77,12.65-23.42,17.51-47.22,14.45-70.73-.02-.19-.05-.38-.08-.57-13.83-14.33-35.13-2.61-37.08,8.88-5.24,30.95-19.34,54.89-19.34,54.89l-13.9,2.8s-4.73-29.58-13.02-47.33c-8.28-17.75-33.13-10.65-34.31,5.91-1.19,16.57,4.73,53.25,4.73,53.25-13.02,4.74-31.95,17.76-31.95,17.76,0,0-28.4-8.29-40.23-13.02-11.84-4.74-22.49,1.18-21.31,14.2.4,4.46,3.31,8.22,6.95,11.24,30.19,15.79,53.26,11.14,53.52,11.09,2.7-.58,5.36,1.13,5.95,3.82.58,2.69-1.11,5.35-3.8,5.95-.47.1-4.61.97-11.46.97-8.7,0-21.76-1.4-37.22-7.57l-69.55,38.4c23.66,86.38,93.48,88.75,93.48,88.75l61.47-74.16c-10.1-1.63-20.24-5.44-28.8-12.87-10.62-9.22-13.69-19.7-13.81-20.14-.75-2.66.79-5.42,3.44-6.18,2.65-.75,5.41.78,6.17,3.42.39,1.32,9.22,29.2,51.46,26.68,11.86-2.14,23.64-5.38,32.19-5.02,11.54.49,32.25,12.54,64.2,3.07,31.95-9.47,44.97-33.13,59.17-47.33s31.95-5.92,37.86-21.3c5.92-15.39-17.75-24.86-35.36-22.65Z" stroke-width="0"/>
  <path d="m130.8,156.5l61-48s28.26,36.66,71,42c9.47,1.18,38.7,36.23,48,46,15.83,16.62,28.66,11.47,32.74,3.32l-55.47-61.99c-1.84-2.05-1.66-5.21.4-7.06,2.05-1.84,5.21-1.66,7.06.4l63.35,70.81c3.1,1.7,6.3,3.25,9.13,4.2,10.37,3.5,18.25-1.05,20.22-7.95l-71.38-91.66c-1.69-2.18-1.3-5.32.88-7.01,2.18-1.7,5.32-1.31,7.02.87l76.8,98.62c6.94,2,15.18,2.25,20.75-4.48,3.7-4.48,2.46-11.24.26-16.94l-74.59-88.92c-1.78-2.11-1.5-5.27.62-7.04,2.11-1.78,5.27-1.5,7.04.62l68.58,81.75c5.09-3.02,10.45-8.66,7.01-18.29-5.92-16.56-71-91.11-71-91.11,0,0,.09-.04.25-.13-16.98-16.49-31.83-21.69-32.02-21.76-2.61-.88-4.02-3.72-3.14-6.33.87-2.61,3.7-4.02,6.31-3.15.91.3,18.35,6.3,37.68,25.87,7.87-5.43,18.34-14.48,20.5-25.27,4.43-22.17-8.28-30.77-21.3-17.75-13.02,13.02-39.05,13.02-57.98,9.47-18.94-3.55-86.8-15.04-107.69-9.47-20.89,5.57-83.92,33.15-133.03,44.38,0,0,.65,74.05,61,106Z" stroke-width="0"/>
  <path d="m93.45,307.22c.85,1.05,1.97,1.88,3.22,2.39.96.39,1.97.58,3,.58h0c.18,0,.36,0,.55-.02,2.6-.18,4.96-1.62,6.3-3.86l15.05-25c1.1-1.83,1.42-3.98.91-6.05s-1.81-3.82-3.64-4.93c-1.25-.75-2.67-1.14-4.12-1.14-2.79,0-5.42,1.48-6.86,3.87l-1.89,3.15c-2.7-27.9-1.4-46.92.28-58.29,2.59-17.53,6.87-22.42,7.9-22.79,1.02.14,4.82,2.51,10,11.66,1.42,2.5,4.09,4.06,6.97,4.06,1.38,0,2.74-.36,3.94-1.04,1.86-1.05,3.2-2.77,3.77-4.83.57-2.06.3-4.22-.75-6.08-7.44-13.13-15.48-19.78-23.88-19.78-.75,0-1.51.05-2.26.16-11.66,1.66-19.08,15.23-22.05,40.34-1.95,16.44-1.88,36.29.17,57.92l-2.23-2.75c-1.53-1.89-3.79-2.97-6.22-2.97-1.82,0-3.61.63-5.03,1.78-1.66,1.34-2.7,3.25-2.93,5.38-.23,2.12.39,4.21,1.73,5.87l18.08,22.37Z" stroke-width="0"/>
</svg>