<?xml version="1.0" encoding="UTF-8"?>
<svg id="Good_Job_Icon" data-name="Good Job Icon" xmlns="http://www.w3.org/2000/svg" viewBox="0 0 512 512">
  <g>
    <path d="m430.76,134.59l-97.77-11.37c15.65-22.95,30.77-88.45,34.82-96.8,14.94-30.9,38.81-29.3,54.06-22,19.21,9.22,31.98,84.76,8.89,130.17Z" stroke-width="0"/>
    <path d="m326.06,354.29c-.59,3.35,1.66,6.53,4.99,7.12l101.54,17.77c14.72,44.57-12.85,75.69-83.8,63.31-50.01-7.02-98.06-1.05-113.24-24.48-12.58-19.4,5.45-24.91-.72-48.1-6.17-23.18-25.08-35.73-5.08-75.03,7.06-13.87-12.97-34.54-6.28-59.65,5.92-22.22,30.5-35.62,27.75-50.47-4.66-45.05,5.98-59.35,56.18-54.29,0,0,139.72,16.24,139.72,16.24,3.63.74,6.64,1.48,8.92,2.18,21.67,6.75,28.01,43.37,5.8,60.26l-6.16-.91-93.23-13.75c-3.36-.5-6.48,1.82-6.98,5.18-.49,3.36,1.85,6.52,5.19,6.98,0,0,102.98,15.19,102.99,15.19,19.71,17.92,11.31,61.08-12.91,69.9l-98.41-18.72c-3.33-.63-6.55,1.56-7.19,4.89s1.56,6.55,4.89,7.19l99.16,18.87c13.83,14.65,4.08,54.88-10.84,63.74l-7.31-1.28-97.86-17.12c-3.35-.59-6.53,1.65-7.12,4.99Z" stroke-width="0"/>
  </g>
  <path d="m235.08,432.41c-30.65,15.24-69.81,40.49-99.87,79.59,0,0-126.03-74.01-93.59-206.83,0,0,101.38-18.3,170.65-52.81.39,12.38,10.03,28.01,8.44,37.92-20.92,42.8-4.62,54.58,4.32,82.23,4.84,21.87-17.99,33.57,10.05,59.9Z" stroke-width="0"/>
</svg>