<?xml version="1.0" encoding="UTF-8"?>
<svg id="Help_Icon" data-name="Help Icon" xmlns="http://www.w3.org/2000/svg" viewBox="0 0 512 512">
  <path d="m495.23,279.95s-62.96,16.7-84.11,14.02c-15.7-1.99-36.51-14.46-60.12-19.47-3.95,12.09-10.47,15.38-10.47,15.38,6.35,14.15,4.26,28.29-5.9,38.44-6.01,6.01-15.66,11.45-27.09,16.04,5.91-1.08,12.05-1.62,18.38-1.62h.68c20.33.12,35.38,5.72,36.01,5.96,2.58.98,3.89,3.86,2.91,6.45-.98,2.58-3.85,3.88-6.44,2.91-.14-.05-14.27-5.27-32.88-5.32h-.29c-24.38,0-44.66,8.47-60.31,25.17-.79.85-1.86,1.39-3.01,1.54-.45.06-26.18,3.54-50.43,13.75-.16.08-.33.15-.5.21-14.94,6.36-29.24,15.27-36.64,27.54-.36,5.26-.24,20.1,12.31,21.68,15.29,1.92,55.74-17.27,76.42-12.47,20.68,4.8,59.3,2.68,93.46-7.88,15.62-4.83,36.34-14.66,52.84-20.48,22.66-8.02,85.18,7.83,85.18,7.83,37.74-66.56,0-129.68,0-129.68Z" stroke-width="0"/>
  <path d="m100.84,371.3c51.6-8.67,98.66,7.97,109.02,12.01,21.54-8.88,43.26-12.57,49.67-13.53,7.2-7.4,15.38-13.33,24.39-17.72-14.45,3.79-29.65,6.31-43.04,7.2-2.24.15-4.57.22-6.91.22-14.4.01-28.6-2.86-42.33-5.64-13.83-2.79-28.12-5.68-42.77-5.68-2.76,0-5.51.11-8.16.31-5.22.45-29.4,9.17-58.38,20.44,6.61,3.06,15.09,2.7,18.51,2.39Z" stroke-width="0"/>
  <path d="m196.85,389.4c-17.61-5.56-53.82-14.4-92.25-8.56-4.37,1.64-14.88,6.98-11.67,19.57,4.05,15.83,29.22,12.95,45.41,12.95,9.26,0,20,1.89,27.49,3.5,6.69-11.68,18.22-20.65,31.02-27.46Z" stroke-width="0"/>
  <path d="m240.22,349.28c32.35-2.15,73.32-14.01,87.34-28.03,11.22-11.22,5.17-25.21,2.31-30.34l-69.22,6.74c-.16.02-.32.02-.49.02-2.54,0-4.72-1.93-4.97-4.51-.27-2.75,1.75-5.19,4.49-5.46l79.21-7.71c2.95-3.64,5.5-8.28,5.92-13.73.66-8.56-2.93-14.66-5.82-18.11l-78.28,8.52c-.18.02-.37.03-.55.03-2.52,0-4.68-1.9-4.96-4.46-.3-2.74,1.68-5.21,4.43-5.51l83.48-9.09c2.63-3.8,4.94-9.25,4.94-16.67,0-13.66-11.5-18.54-16.28-19.97l-71.03,8.22c-.19.03-.39.04-.58.04-2.5,0-4.66-1.88-4.96-4.43-.32-2.74,1.65-5.22,4.39-5.54l80.17-9.28c8.06-15.01,3.56-37.45-16.51-39.13-24-1.99-71.63-.85-78.44-.67-.02,0-.03,0-.05,0-20.73,2.4-36.88,7.02-37.11,7.09-.47.14-.93.2-1.39.2-2.17,0-4.17-1.42-4.8-3.61-.77-2.65.75-5.42,3.4-6.19,1.03-.3,19.26-5.53,42.31-7.83,1.96-7.63,4.44-19.63,6.26-36.49,3.5-32.41-25.07-40.91-27.23-29.05-2.15,11.86-23.72,63.62-36.92,78.33-13.19,14.71-71.98,68.31-107.56,82.33-35.58,14.02-73.32,9.7-73.32,9.7-27.73,59.62,22.1,134.24,22.1,134.24,0,0,95.43-39.35,109.44-40.43,36.57-2.81,67.93,12.94,100.28,10.78Z" stroke-width="0"/>
</svg>