<?xml version="1.0" encoding="UTF-8"?>
<svg id="Hurt_Icon" data-name="Hurt Icon" xmlns="http://www.w3.org/2000/svg" viewBox="0 0 512 512">
  <path d="m268.57,52.45c-5.8,7.97-7.16,17.87,1.25,30.64,5.11,7.75,10.59,15.53,14.45,20.9,4.14,4.42,10.09,10.06,14.1,11.4,2.37.8,6.83,2.01,11.98,3.41,9.76,2.65,20.81,5.66,25.97,8,2.28,1.04,5.03-.38,6.74-2.25,1.63-1.8,3.01-4.78,1.9-7.64-5.93-3.24-35.39-19.36-43.47-24.4-4.23-2.64-6.79-6.29-7.61-10.85-1.61-8.96,3.71-21.23,16.27-37.52,1.19-1.54,3.42-1.83,4.97-.64,1.54,1.19,1.83,3.41.64,4.96-13.84,17.94-15.75,27.28-14.91,31.94.47,2.59,1.86,4.52,4.39,6.11,8.63,5.39,43.75,24.54,44.11,24.73.07.05.14.1.22.15.03.02.06.02.09.05.11.07,7.06,4.74,13.08,3.14-1.47-1.23-3.02-2.51-4.58-3.82-14.66-12.16-23.65-19.92-24.85-25.12-1.76-7.61,5.83-37.95,7.38-43.96.48-1.88,2.41-3.03,4.31-2.54,1.89.48,3.03,2.41,2.54,4.3-3.65,14.23-8.34,36.24-7.33,40.61.89,3.37,14.93,15.01,22.47,21.26,6.86,5.68,12.77,10.6,15.18,13.55,2.25,2.77,6.02,4.13,9.15,3.31,3.36-.87,5.62-4.07,6.52-9.25,1.18-6.72-3.4-14.44-7.45-19.73-1.69-2.2-3.43-4.18-4.97-5.81-3.33-2.84-5.14-4.98-5.28-5.15-.01-.02-.03-.05-.05-.07-.11-.14-.21-.29-.3-.45-.02-.03-.05-.07-.07-.11-.09-.17-.16-.35-.22-.54-.02-.06-.04-.11-.05-.17-.04-.16-.07-.31-.1-.47,0-.04,0-.09-.02-.13-.02-.2-.02-.39,0-.58,0-.06.01-.11.01-.16.01-.07.02-.15.03-.22l5.01-26.83c.36-1.92,2.21-3.19,4.13-2.83,1.92.36,3.19,2.21,2.83,4.13l-4.65,24.87c.91.85,2.16,2.06,3.58,3.55,2.81,2.36,6.82,5.26,11.9,7.75,14.06,6.89,29.31,7.54,45.33,1.93,1.84-.64,3.86.33,4.51,2.17.3.85.25,1.74-.07,2.52-.37.9-1.11,1.64-2.1,1.99-20.67,7.23-37.35,3.69-48.41-1.16,2.7,5.28,4.35,11.08,3.36,16.73-.37,2.1-.91,3.91-1.55,5.47-2.68,6.46-7.29,8.66-10.15,9.4-5.82,1.52-12.42-.76-16.43-5.68-.74-.91-2.04-2.17-3.7-3.66-4.19,2.54-9.33,3.01-14.99,1.33-.45-.13-.88-.27-1.3-.42-.15,1.35-.49,2.69-1.02,3.99-.7,1.68-1.72,3.29-3.05,4.75-4.19,4.59-10.04,6.12-14.89,3.92-4.63-2.11-15.87-5.16-24.9-7.62-5.26-1.43-9.81-2.67-12.37-3.53-4.1-1.37-8.89-5.26-12.87-9.06-6.87,2.78-17.44,8.68-20.35,19.37-3.83,14.09,10.56,18.07,28.08,13.84,64.7-15.61,69.48-2.16,92.79-3.04,34.77-1.31,46.17-24.34,57.99-30.53,11.82-6.2,47.66-3.37,47.66-3.37,0,0,32.32-27.76,19.62-58.47-12.71-30.71-44.05-43.24-44.05-43.24,0,0-32.11,17.21-47.69,19.08-15.58,1.87-85.12-33.44-100.85-25.63-2.92,1.45-6.78,4.74-11.03,8.97l-36.71,42.3s-.09.09-.13.14Z" stroke-width="0"/>
  <path d="m221.68,34.38c15.81,6.56,32.4,9.59,43.69,10.98l29.91-34.46c-6.57-.51-16.26-1.31-26.77-2.34-19.05-1.87-40.78-4.51-51.52-7.58-21.48-6.13-22.94,21.94,4.69,33.4Z" stroke-width="0"/>
  <path d="m105.09,1.09c-8.73-3.09-21.83-2.57-28.17,15.15-1.87,5.23-13.54,18.82-21.97,28.22l54.72.48c12.17-25.86,6.88-39.79-4.58-43.85Z" stroke-width="0"/>
  <path d="m7.36,145.2c-8.6,22.58,2.43,28.31,7.15,40.59s-4.78,16.33,3.2,26.17c9.64,11.88,35.48,5.82,63.14,6.72,32.57,1.06,42.2-6.87,45.11-22.49,1.41-7.6-1.03-13.49-3.14-16.91l-56.38-3.75h-.05c-1.83-.15-3.21-1.75-3.09-3.59.12-1.86,1.73-3.26,3.59-3.13l54.33,3.61,4.06.27c3.06-2.92,6.52-8.3,7.31-17.97.71-8.68-2.19-14.16-5.13-17.4l-55.14-4.49c-1.85-.15-3.24-1.77-3.08-3.63.15-1.85,1.78-3.23,3.63-3.08l54.72,4.45c4.84-3.11,11.09-9.33,10.88-20.59-.19-9.68-4.2-15.2-7.93-18.26h0s-57-2.26-57-2.26c-.05,0-.09,0-.14,0-1.79-.15-3.16-1.68-3.1-3.5.08-1.86,1.64-3.31,3.5-3.23,0,0,70.86,3.32,83.76,2.71,18.17-.86,22.78-10.57,21.86-17.49-1.82-13.58-13.35-15.71-62.27-16.22l-77.09-.68c-3.35.1-6.22.21-8.47.33-18.04.91-19.75,11.87-19.75,11.87,0,0-2.83,8.62.77,20.67,2.37,7.93-10.24,16.67-12.17,29.13-2.18,14.08,9.94,24.17,6.91,32.14Z" stroke-width="0"/>
  <path d="m228.94,406.05c-3.98,3.8-8.77,7.69-12.87,9.06-2.56.86-7.11,2.1-12.37,3.53-9.03,2.46-20.26,5.51-24.9,7.62-4.85,2.2-10.7.67-14.89-3.92-1.33-1.46-2.35-3.08-3.05-4.75-.54-1.3-.88-2.64-1.02-3.99-.42.15-.85.29-1.3.42-5.67,1.68-10.81,1.22-14.99-1.33-1.66,1.49-2.96,2.75-3.7,3.66-4,4.92-10.6,7.19-16.43,5.68-2.87-.74-7.48-2.94-10.15-9.4-.65-1.56-1.18-3.37-1.55-5.47-.99-5.65.65-11.45,3.36-16.73-11.05,4.85-27.74,8.39-48.41,1.16-.99-.35-1.72-1.09-2.1-1.99-.32-.78-.37-1.67-.07-2.52.64-1.84,2.66-2.82,4.51-2.17,16.02,5.61,31.27,4.96,45.33-1.93,5.09-2.49,9.1-5.4,11.9-7.75,1.42-1.49,2.67-2.7,3.58-3.55l-4.65-24.87c-.36-1.92.91-3.77,2.83-4.13,1.92-.36,3.77.91,4.13,2.83l5.01,26.83c.01.07.02.15.03.22,0,.05.01.1.01.16.02.19.01.38,0,.58,0,.04,0,.09-.02.13-.02.16-.05.31-.1.47-.01.06-.03.12-.05.17-.06.19-.13.37-.22.54-.02.04-.04.08-.07.11-.09.16-.19.31-.3.45-.02.02-.03.05-.05.07-.15.17-1.95,2.31-5.28,5.15-1.54,1.63-3.28,3.6-4.97,5.81-4.05,5.3-8.63,13.02-7.45,19.73.91,5.18,3.17,8.38,6.52,9.25,3.14.82,6.9-.54,9.15-3.31,2.41-2.95,8.33-7.86,15.18-13.55,7.54-6.26,21.57-17.9,22.47-21.26,1.01-4.36-3.68-26.37-7.33-40.61-.48-1.89.65-3.82,2.54-4.3,1.9-.49,3.83.66,4.31,2.54,1.54,6.01,9.13,36.35,7.38,43.96-1.2,5.19-10.19,12.96-24.85,25.12-1.57,1.3-3.11,2.58-4.58,3.82,6.02,1.6,12.97-3.07,13.08-3.14.03-.03.06-.03.09-.05.08-.05.15-.1.22-.15.36-.19,35.47-19.34,44.11-24.73,2.53-1.58,3.93-3.52,4.39-6.11.84-4.66-1.07-13.99-14.91-31.94-1.19-1.55-.9-3.77.64-4.96,1.55-1.19,3.78-.91,4.97.64,12.56,16.28,17.88,28.55,16.27,37.52-.82,4.56-3.38,8.21-7.61,10.85-8.08,5.05-37.54,21.17-43.47,24.4-1.11,2.86.26,5.84,1.9,7.64,1.71,1.87,4.46,3.28,6.74,2.25,5.16-2.34,16.21-5.35,25.97-8,5.16-1.4,9.61-2.61,11.98-3.41,4.01-1.34,9.96-6.98,14.1-11.4,3.86-5.37,9.34-13.16,14.45-20.9,8.41-12.77,7.05-22.67,1.25-30.64-.05-.04-.09-.09-.13-.14l-36.71-42.3c-4.26-4.22-8.11-7.51-11.03-8.97-15.73-7.81-85.27,27.49-100.85,25.63-15.58-1.87-47.69-19.08-47.69-19.08,0,0-31.34,12.54-44.05,43.24-12.7,30.71,19.62,58.47,19.62,58.47,0,0,35.83-2.83,47.66,3.37,11.82,6.2,23.22,29.23,57.99,30.53,23.31.88,28.1-12.57,92.79,3.04,17.52,4.22,31.92.25,28.08-13.84-2.91-10.69-13.48-16.59-20.35-19.37Z" stroke-width="0"/>
  <path d="m295.2,293.98c-10.74,3.07-32.47,5.71-51.52,7.58-10.51,1.03-20.2,1.83-26.77,2.34l29.91,34.46c11.29-1.39,27.88-4.42,43.69-10.98,27.62-11.45,26.16-39.53,4.69-33.4Z" stroke-width="0"/>
  <path d="m407.1,294.09c-11.46,4.05-16.75,17.99-4.58,43.85l54.72-.48c-8.43-9.4-20.1-22.99-21.97-28.22-6.34-17.71-19.44-18.24-28.17-15.15Z" stroke-width="0"/>
  <path d="m504.83,438.2c-3.03-7.97,9.09-18.06,6.91-32.14-1.93-12.46-14.54-21.2-12.17-29.13,3.6-12.05.77-20.67.77-20.67,0,0-1.71-10.96-19.75-11.87-2.25-.11-5.12-.23-8.47-.33l-77.09.68c-48.92.51-60.46,2.64-62.27,16.22-.93,6.92,3.69,16.63,21.86,17.49,12.9.61,83.76-2.71,83.76-2.71,1.86-.08,3.42,1.37,3.5,3.23.07,1.81-1.3,3.35-3.1,3.5-.05,0-.09,0-.14,0l-57,2.26h0c-3.73,3.06-7.74,8.58-7.93,18.26-.21,11.26,6.04,17.47,10.88,20.59l54.72-4.45c1.85-.15,3.48,1.23,3.63,3.08.15,1.86-1.23,3.48-3.08,3.63l-55.14,4.49c-2.93,3.24-5.83,8.71-5.13,17.4.79,9.67,4.25,15.05,7.31,17.97l4.06-.27,54.33-3.61c1.86-.12,3.46,1.28,3.59,3.13.12,1.84-1.25,3.43-3.09,3.58h-.05s-56.38,3.75-56.38,3.75c-2.11,3.42-4.55,9.31-3.14,16.91,2.91,15.61,12.53,23.55,45.11,22.49,27.66-.91,53.5,5.16,63.14-6.72,7.99-9.83-1.52-13.89,3.2-26.17,4.72-12.27,15.76-18,7.15-40.59Z" stroke-width="0"/>
  <path d="m357.54,269.55c3.83-2.19,5.17-7.08,2.98-10.91-.57-1-1.33-1.85-2.26-2.52-2.54-1.83-5.94-2.01-8.65-.46l-.51.29c8.65-24.83.17-53.2-21.7-68.98-3.58-2.58-8.59-1.77-11.17,1.8s-1.77,8.59,1.8,11.17c15.69,11.33,21.99,31.36,16.45,49.26l-.16-.66c-.46-1.83-1.55-3.44-3.07-4.54-1.92-1.39-4.34-1.85-6.63-1.28-2.07.52-3.82,1.81-4.92,3.65-1.1,1.83-1.42,3.98-.9,6.06l6.04,24.09c.46,1.83,1.55,3.44,3.08,4.54.48.35,1,.64,1.54.87,2.29.98,4.94.82,7.11-.41l20.99-11.98Z" stroke-width="0"/>
  <path d="m173.14,199.94c3.58-2.58,4.39-7.59,1.8-11.17-2.58-3.58-7.59-4.39-11.17-1.8-21.86,15.79-30.34,44.16-21.7,68.98l-.51-.29c-2.72-1.55-6.11-1.37-8.65.46-.93.67-1.69,1.52-2.26,2.52-2.19,3.83-.85,8.73,2.98,10.91l20.99,11.98c2.16,1.23,4.82,1.39,7.11.41.55-.23,1.06-.53,1.54-.87,1.53-1.1,2.62-2.72,3.08-4.54l6.04-24.09c.52-2.07.2-4.22-.9-6.06-1.1-1.83-2.85-3.13-4.92-3.65-2.29-.58-4.71-.11-6.63,1.28-1.53,1.1-2.62,2.71-3.07,4.54l-.16.66c-5.55-17.9.76-37.94,16.45-49.26Z" stroke-width="0"/>
</svg>