<?xml version="1.0" encoding="UTF-8"?>
<svg id="Hurt_Icon" data-name="Hurt Icon" xmlns="http://www.w3.org/2000/svg" viewBox="0 0 512 512">
  <path d="m367.13,260.39c3.82-2.21,5.23-7.14,3.02-10.97-.6-1.01-1.31-1.91-2.31-2.52-2.52-1.81-5.94-2.01-8.65-.5l-.5.3c8.65-24.95.2-53.53-21.83-69.42-3.62-2.62-8.65-1.81-11.27,1.81s-1.81,8.65,1.81,11.27c15.8,11.37,22.13,31.59,16.6,49.6l-.2-.7c-.5-1.81-1.51-3.42-3.12-4.53-1.91-1.41-4.33-1.91-6.64-1.31-2.11.5-3.82,1.81-4.93,3.62s-1.41,4.02-.91,6.14l6.04,24.25c.5,1.81,1.51,3.42,3.12,4.53.5.4,1.01.6,1.51.91,2.31,1.01,4.93.8,7.14-.4l21.13-12.07h0Z" stroke-width="0"/>
  <path d="m181.6,190.36c3.62-2.62,4.43-7.65,1.81-11.27s-7.65-4.43-11.27-1.81c-22.03,15.9-30.49,44.47-21.83,69.42l-.5-.3c-2.72-1.61-6.14-1.41-8.75.5-.91.7-1.71,1.51-2.31,2.52-2.21,3.82-.91,8.75,3.02,10.97l21.13,12.07c2.21,1.21,4.83,1.41,7.14.4.6-.2,1.11-.5,1.51-.91,1.51-1.11,2.62-2.72,3.12-4.53l6.04-24.25c.5-2.11.2-4.23-.91-6.14-1.11-1.81-2.82-3.12-4.93-3.62-2.31-.6-4.73-.1-6.64,1.31-1.51,1.11-2.62,2.72-3.12,4.53l-.2.7c-5.43-18.11.91-38.23,16.7-49.6h0Z" stroke-width="0"/>
  <path d="m204.98,92.8c-8.47,6.59-58.38,0-58.38,0,.52,2.34.6,5.11.45,7.9-.2.54-.31,1.13-.31,1.74,0,.08-.05,7.27-4.61,11.21-1.68,1.45-3.88,2.31-6.56,2.62,1.21-4.61,2.02-10.01,2.43-16.2.19-2.79-.45-9.93-34.63-29.96-2.39-1.41-5.48-.57-6.87,1.83-1.39,2.4-.57,5.48,1.83,6.88,14.45,8.35,26.44,17.71,29.56,21.65-.93,12.22-3.38,18.3-5.31,21.27-1.02,1.57-2.82,2.7-4.8,3.5,2-6.51,2.76-13.4.81-18.1-4.64-11.2-31.7-22.13-39.88-25.22-2.6-.98-5.5.33-6.48,2.94-.99,2.6.33,5.49,2.93,6.48,14.82,5.59,32.09,14.7,34.14,19.65,1.7,4.13-2.17,17.24-6.69,22.62-2.45,2.93-15.35,3.15-26.03.45-1.11-.27-1.16-.63-1.22-1.06-.22-1.52.8-3.51,1.49-4.04l13.16-2.73c2.73-.55,4.48-3.22,3.91-5.95-.56-2.72-3.22-4.46-5.95-3.9l-13.65,2.83c-.14.03-.28.06-.42.11-4.89,1.46-8.75,7.55-8.62,13.56.12,5.4,3.5,9.59,8.83,10.94.62.16,9.04,2.23,17.89,2.23,7.06,0,14.4-1.32,18.31-5.98.77-.92,1.55-2.01,2.3-3.23,4.75-.57,13.82-2.59,18.4-9.62.17-.27.34-.55.51-.85.64.04,1.3.08,1.92.08,6.17,0,11.31-1.76,15.33-5.26,4.15-3.61,6.15-8.36,7.11-12.18,6.91-.44,12.91,3.84,9.33,8.31-5.64,7.06-22.18,24.31-36.12,44.59-13.93,20.27-50.69,25.34-50.69,25.34l-19.65,36.12C24.62,231.55,0,197.3,0,197.3c0,0,19.98-19.77,22.8-36.25,2.83-16.47,22.12-56.96,25.42-70.61,3.29-13.65,14.59-11.87,14.59-11.87,3.77-9.06,17.42-8.37,17.42-8.37,4.24-7.05,20.72-6.59,37.66-2.82,16.95,3.76,83.32,8.94,89.91,11.19,6.59,2.24,5.65,7.64-2.82,14.23Z" stroke-width="0"/>
  <path d="m416.51,53.59s-84.52-4.47-102.9-6.83-17.15,16.63,0,19.08c17.15,2.45,47.77,5.7,47.77,5.7,0,0-9.19,10.22-.61,18.49,0,0-6.12,16.23,10.41,25.42,0,0,.45,11.02,12.86,18.99,12.41,7.96,6.12,14.98,17.15,20.97,11.02,5.98,45.88,5.39,45.88,5.39l12.04,45.33s52.88,7.08,52.88-40.45c0,0-26.34-48.92-34.3-56.61-7.96-7.7-48.33-51.18-61.19-55.47Z" stroke-width="0"/>
  <g>
    <path d="m175.83,353.72c-8.33,1.11-32.86,2.69-42.22,3.42-1.81.14-2.85.22-2.85.22,6.11,14.1-6.12,22.29-6.12,22.29.38.66.72,1.29,1.01,1.9,6.15,12.77-4.2,18.57-4.2,18.57,10.92-2.27,13.65,10.46,9.3,15.47-4.35,5-62.27,21.76-62.27,21.76l-16.62,27.82c-27.75,4.09-51.86-37.3-51.86-37.3l34.39-37.76s2-8.18.18-21.38c-1.82-13.18,10.46-14.09,8.64-23.2-1.82-9.09,10.47-14.55,29.17-13.64,18.7.91,91.37,2.27,105.02,4.09,13.64,1.82,11.99,15.94-1.58,17.74Z" stroke-width="0"/>
    <path d="m163.32,379.27c-1.34,7.94-20.11,6.89-30.65,5.65-.3-.61-.63-1.25-1.01-1.9,0,0,12.23-8.18,6.12-22.29,0,0,1.05-.08,2.85-.22,10.32,5.71,24.62,7.28,22.69,18.77Z" stroke-width="0"/>
  </g>
  <g>
    <path d="m512,412.6c-2.5,31.44-50.4,34.93-50.4,34.93l-12.48-34.43c-25.45.49-33.93-19.96-49.89-23.47-10.37-2.28-13.58-9.59-14.57-14.44-.52-2.62-.4-4.51-.4-4.51-13.98-2.5-15.97-16.96-15.97-16.96-5.02-1.68-6.93-5.38-7.45-9.13-.71-5.18,1.22-10.42,1.22-10.42,0,0-30.19,6.08-49.16.58-18.97-5.48-13.47-20.45-4.49-19.46,41.72,4.64,93.84-21.13,110.15-10.41,16.92,11.1,38.54,27.39,51.51,51.33,12.98,23.96,41.92,56.38,41.92,56.38Z" stroke-width="0"/>
    <path d="m376.25,377.61c-8.26-3-22.65-8.16-33.7-11.75-16.45-5.34-18.09-19.73-8.63-20.14,5.9-.26,13.57.6,18.51,1.3.51,3.74,2.42,7.45,7.45,9.13,0,0,1.99,14.47,15.97,16.96,0,0-.12,1.89.4,4.51Z" stroke-width="0"/>
  </g>
</svg>