<?xml version="1.0" encoding="utf-8"?>
<!-- Generator: Adobe Illustrator 28.0.0, SVG Export Plug-In . SVG Version: 6.00 Build 0)  -->
<svg version="1.1" id="Hurt_Icon" xmlns="http://www.w3.org/2000/svg" xmlns:xlink="http://www.w3.org/1999/xlink" x="0px" y="0px"
	 viewBox="0 0 512 512" style="enable-background:new 0 0 512 512;" xml:space="preserve">
<g>
	<path d="M370.1,249.3c-2.2-4-7.7-5.2-11.5-2.7c8.7-25,0.2-53.5-21.8-69.4c-3.6-2.6-8.7-1.8-11.3,1.8c-2.6,3.6-1.8,8.6,1.8,11.3
		c15.8,11.4,22.1,31.6,16.6,49.6c-1.1-7.1-11.2-9.3-14.8-2.9c-3.6,3.9,4.8,25.9,5.1,30.4c1.2,5,7.3,7.6,11.7,5
		c0,0,21.1-12.1,21.1-12.1C370.9,258.1,372.3,253.1,370.1,249.3z"/>
	<path d="M141,246.8c-4.7,3.2-4.4,10.7,0.7,13.5c0,0,21.1,12.1,21.1,12.1c4.5,2.7,10.5,0,11.7-5c0,0,6-24.3,6-24.3
		c2.7-10.5-13.8-13.8-15.7-3.2c-5.4-18.1,0.9-38.2,16.7-49.6l0,0c3.6-2.6,4.4-7.6,1.8-11.3c-2.6-3.6-7.7-4.4-11.3-1.8
		c-22,15.9-30.5,44.5-21.8,69.4C147.5,244.7,143.8,244.8,141,246.8z"/>
	<path d="M204.9,92.9c-5.6,4.4-29.3,3-44.7,1.5c-8-12.9-18.5-23.3-23.4-16.5c-1.5,2.3-0.8,5.4,1.5,6.9c0.1,0,8.2,8.1,8.2,8.1
		c1.3,7.3,1.5,21.9-11,23.4c2.6-23.5,11.7-17.8-32.2-46.2c-2.4-1.4-5.5-0.6-6.9,1.8c-1.4,2.4-0.6,5.5,1.8,6.9
		c14.5,8.4,26.5,17.8,29.6,21.7c-2,15.2-2.2,20.8-10.1,24.8c11.7-25.1-24-37-39.1-43.3c-6.1-2.4-9.7,7.1-3.6,9.4
		c14.8,5.5,32.1,14.6,34.1,19.6c1.7,4.1-2.2,17.2-6.7,22.6c-2.4,3-15.3,3.2-26,0.5c-2.6-0.6-0.5-4.4,0.3-5.1c0,0,13.4-2.5,13.4-2.5
		c6.4-1.3,4.3-11.3-2.1-9.9c-0.7,0.2-13.4,2.7-14.1,2.9c-11.2,3.5-11.9,24,2.1,24.9c4.6,3.9,7.4,15.2,0.2,20.9
		c-3.1,3-0.7,8.6,3.6,8.5c12-4.3,12.5-21.2,9-27.7c9.3,0.5,19.4-0.9,23.7-9.1c4.9-0.5,14.9-3,18.9-10.5c11.6,1.6,22.4-7.2,24.3-17.4
		c6.9-0.5,12.9,3.8,9.3,8.3c-5.6,7.1-22.2,24.3-36.1,44.6c-13.9,20.2-50.7,25.3-50.7,25.3l-19.7,36.1C24.6,231.4,0,197.2,0,197.2
		s20-19.8,22.8-36.2c2.8-16.5,22.1-56.9,25.4-70.6s14.6-11.9,14.6-11.9c3.8-9.1,17.4-8.4,17.4-8.4c4.3-7,20.8-6.6,37.7-2.8
		c16.9,3.8,83.3,9,89.9,11.2C214.3,80.8,213.4,86.2,204.9,92.9z"/>
	<path d="M512,165.7c0,47.6-52.9,40.5-52.9,40.5l-9.4-35.4c18.2-4.2,24.4-16.4,24.8-17.2c2.9-5.8-6.3-10.3-9-4.4
		c-0.3,0.5-4.8,8.9-18.4,11.9l-0.1-0.3c-5.1-0.3-52.8,2.5-54.5-16.5l7.6-1.4c6.4-1.1,4.5-11.1-1.8-9.8c0,0-12.7,2.4-12.7,2.4
		c-7.4-4.3-12.7-11.8-13.6-15.9l16.6-1.3c6.5-0.4,5.7-10.6-0.8-10c0,0-23.4,1.8-23.4,1.8c-4.9-5.5-5.2-11.9-4.7-15.9h23.6
		c6.5,0.1,6.5-10.1,0-10c0,0-26.1,0-26.1,0c-1.5-6.6,4-12.7,4-12.7s-30.6-3.3-47.8-5.7c-17.1-2.4-18.2-21.2,0.2-18.9
		c9.8,1.5,94.7,6.5,102.9,6.8c12.9,4.3,53.2,47.8,61.2,55.5S512,165.7,512,165.7z"/>
	<path d="M175.7,353.7c-5.2,0.7-16.8,1.6-27,2.3c-30-18.4-60.9-21.3-60.3-11c0.2,2.8,2.7,4.8,5.4,4.6c0.2,0,16.9-1.3,37,7.9
		c2.3,5.4,1.9,10,0.5,13.5l-29.1-3.2c-6.4-0.8-7.6,9.3-1.1,9.9c0,0,23.9,2.6,23.9,2.6c3,4.9,3.1,10.6,1.6,13.6l-22.9,1.9
		c-6.3,0.3-5.8,10.1,0.4,10c0.4,0.1,26.5-2.2,26.9-2.2c2.4,3.7,2.2,9-0.3,11.9c-4.4,5-62.3,21.8-62.3,21.8L51.9,465
		C24.1,469.1,0,427.7,0,427.7l26.8-29.5c8.8,27.7,31.2,35.2,33.3,25.4c0.4-2.7-1.5-5.2-4.2-5.6c-0.8-0.1-16.1-3.1-21.2-29.4
		c0.4-2.8,1.3-10-0.1-20.1c-1.9-13.2,10.4-14.1,8.6-23.2c-1.8-9.1,10.5-14.5,29.2-13.6c18.7,0.9,91.3,2.3,105,4.1
		C190.9,337.7,189.3,351.8,175.7,353.7z"/>
	<path d="M138.7,363.5c0.2,14.6-6.1,22.3-6.1,22.3c0.4,0.6,30.3,4.2,31.7-3.8l0,0C166.1,370.5,138.7,363.5,138.7,363.5z"/>
	<path d="M511.8,412.4c-2.5,31.4-50.3,34.9-50.3,34.9l-8.9-24.6c17.7-2.6,27-16,27.5-16.7c3.7-5.3-4.7-11-8.3-5.6
		c-0.4,0.5-8.1,11.4-22.7,12.6l0-0.1c-25.5,0.5-33.9-20-49.9-23.5c-11.2-2.6-13.9-9.9-14.8-15.9c4.1-1.9,13.6,0.3,13.3-6.9
		c-1.9-9.5-17.7-1.9-22.5-0.4c-4.5-3.9-6.2-9.3-6.7-11.6c3.3-2.3,8.7-5,16.7-6.3c2.7-0.4,4.5-3,4.1-5.7c-2.9-10.8-25.9,3.3-27.7,4.8
		c-2.2-3.6,0.1-13.7,0.4-13.4c0,0,0,0-0.1,0c6.3-9.4,31.4-15,37.4-14.2c6.5,0.1,6.5-10.1,0-10c-1.7,0-38,0.3-50.7,26.1
		c-10.4,1.1-24.9,1.8-35.7-1.4c-19-5.5-13.5-20.5-4.5-19.5c41.8,4.6,93.9-21.1,110.2-10.4c16.9,11.1,38.5,27.4,51.5,51.3
		C482.9,380.1,511.8,412.4,511.8,412.4z"/>
	<path d="M377.2,379.2L377.2,379.2L377.2,379.2z"/>
	<path d="M376.8,374.7c-14-2.5-16-17-16-17c-5-1.7-6.9-5.4-7.5-9.1c-4.9-0.7-12.6-1.6-18.5-1.3c-9.5,0.4-7.8,14.8,8.6,20.1
		c11,3.6,25.4,8.7,33.7,11.7C376.7,376.6,376.8,374.7,376.8,374.7z"/>
</g>
</svg>
