<?xml version="1.0" encoding="UTF-8"?>
<svg id="I_Love_You_IIcon" data-name="I Love You IIcon" xmlns="http://www.w3.org/2000/svg" viewBox="0 0 512 512">
  <path d="m96.02,47.94l35.07,7.01c.52.1,1.05.16,1.58.16,3.8,0,7.1-2.71,7.85-6.44.87-4.33-1.95-8.56-6.28-9.43l-9.61-1.92c24.16-6.71,50.28-10.23,76.26-10.23s51.75,3.48,75.72,10.11l-10.22,2.04c-2.1.42-3.91,1.63-5.09,3.41-1.19,1.78-1.61,3.92-1.19,6.01.75,3.73,4.05,6.44,7.85,6.44.53,0,1.06-.05,1.58-.16l35.08-7.02c2.43-.49,4.53-2.11,5.62-4.34,1.09-2.23,1.08-4.88-.03-7.1l-16.04-32.07c-1.37-2.73-4.11-4.43-7.17-4.43-1.23,0-2.47.29-3.58.85-1.91.96-3.34,2.6-4.02,4.63-.68,2.03-.52,4.2.43,6.12l5.76,11.51c-26.63-7.88-55.76-12.02-84.71-12.02s-58.98,4.27-86.02,12.38l5.94-11.87c1.97-3.95.37-8.77-3.58-10.75-1.11-.55-2.35-.85-3.58-.85-3.06,0-5.8,1.7-7.17,4.43l-16.03,32.07c-1.11,2.22-1.12,4.87-.03,7.1,1.09,2.23,3.19,3.85,5.62,4.34Z" stroke-width="0"/>
  <path d="m412.52,292.71c-46.32,10.64-55.26,38.93-99.1,40.71,0,0,5.83-69.26,15.8-117.12,10.91-52.39,18.74-77.68,29.89-107.53,10.04-26.86-33.84-53.29-58.17-15.54-24.32,37.75-44.21,131.88-44.21,131.88,0,0-5.66-28.33-32.28-30.64-19.54-1.7-28.78,12.51-32.33,20.18-4.7,15.03-9.36,36.57-11.16,65.79-3.22,52.22,17.12,76.37,27.47,79.89,6.55,2.22,12.33,1.81,16.69-1.19,4.34-3.01,7.17-8.5,7.37-14.34.03-.84.06-1.82.1-2.93.45-15.04,1.66-55.02,12.05-86.62.86-2.63,3.7-4.06,6.32-3.2,2.63.86,4.06,3.7,3.2,6.32-9.92,30.23-11.11,69.15-11.55,83.8-.03,1.12-.06,2.11-.09,2.98-.1,2.93-.66,5.81-1.59,8.53.41-.17.82-.35,1.22-.52,25.47-10.71,45.31-12.6,46.14-12.68,2.77-.24,5.19,1.78,5.44,4.54s-1.78,5.19-4.54,5.44c-.19.02-19.38,1.88-43.48,12.07-22.07,9.33-52.94,27.8-74.69,62.74-.95,1.53-2.59,2.37-4.26,2.37-.9,0-1.81-.24-2.65-.75-2.34-1.46-3.07-4.55-1.6-6.9,13.6-21.87,30.54-37.65,46.96-48.96-1.36-.3-2.78-.69-4.25-1.19-8.37-2.85-16.39-10.94-22.54-22.56-2.36,3.07-5.41,5.74-8.99,7.82-5.21,3.02-11.17,4.57-17.22,4.57-3.35,0-6.72-.48-10-1.44-5.86-1.73-16.94-7.12-25.21-23.73-7.44-14.95-10.46-34.66-8.99-58.6,2.46-39.8,13.18-66,22.39-81.56-.92-24.09-1.72-62.67,1.26-84.88,3.4-25.19-15.71-32.86-24.3-28.93-25.98,11.89-24.64,53.44-29.01,129.46-.94,16.54-3.09,24.33-25.99,78.56-22.9,54.24-22.03,125.27-.82,148.64,39.38,43.41,71.59,30.18,101.21,48.28,29.61,18.1,87.35,46.41,137.71,5.75,50.37-40.65,52.77-77.52,81.29-108.29,28.51-30.78,72.97-46.57,90.69-54.44,17.74-7.87-7.85-46.4-54.17-35.75Z" stroke-width="0"/>
  <path d="m184.31,206.17c-3.92-4.92-10.25-9.38-20.4-9.62-23.01-.54-28.25,19.27-28.25,19.27,0,0-.02-.26-.05-.77-6.13,14.64-11.7,34.8-13.35,61.43-1.34,21.86,1.41,40.37,7.97,53.52,4.8,9.65,11.76,16.43,19.07,18.59,6.56,1.93,13.62,1.13,19.36-2.18,4.56-2.65,7.79-6.61,8.9-10.9-4.32-12.21-8.15-30.54-6.59-55.69,2.08-33.78,7.83-57.73,13.35-73.65Z" stroke-width="0"/>
</svg>