<?xml version="1.0" encoding="UTF-8"?>
<svg id="I_m_Sorry_Icon" data-name="I&amp;apos;m Sorry Icon" xmlns="http://www.w3.org/2000/svg" viewBox="0 0 512 512">
  <path d="m374.34,256.19l63.54-26.68c8.38-10.96,10.25-24.06,8.13-37.37-1.68-10.54-6.86-15.46-11.33-17.76l-56.51,19.92c-.58.21-1.18.31-1.77.31-2.19,0-4.24-1.37-5.01-3.55-.98-2.77.48-5.8,3.25-6.78l64.55-22.76c9.58-13.32,10.08-31.66,3.15-46.37-3.31-7.06-9.17-10.29-14.62-11.72l-73.23,24.41c-.56.19-1.13.28-1.68.28-2.22,0-4.29-1.4-5.03-3.64-.93-2.78.57-5.79,3.36-6.71l71.41-23.81c12.76-19.05,10.55-46.13-10.95-53.95-10.68-3.88-29.66,1.35-45.24,7.2h-.01c-.32.24-.66.44-1.04.6l-23.76,10.16c-.34.16-.53.26-.53.26.01-.02.02-.03.03-.05l-2.19.93c-6.2,2.41-11.64,4.83-15.4,6.58l-74.98,32.03c-.68.3-1.38.43-2.08.43-2.06,0-4.02-1.2-4.89-3.22-1.15-2.7.11-5.82,2.8-6.97l101.71-43.46c2.88-20.47-10.96-43.36-40.31-20.43-27.63,21.6-63.75,30.74-91.08,52.37-27.33,21.63-44.41,115-96.78,152.56C65.47,266.6,0,289.48,0,289.48c0,105.99,117.84,187.75,117.84,187.75,0,0,79.65-92.38,105.47-92.83,118.77-2.09,134.41-35.09,160.6-57.85,26.19-22.77,50.45-30.35,52.73-58.81.99-12.33-5.79-18.67-10.82-21.63l-47.37,19.88c-.66.28-1.36.42-2.05.42-2.08,0-4.05-1.22-4.9-3.26-1.14-2.7.14-5.81,2.84-6.95Z" stroke-width="0"/>
  <path d="m33.87,196.72c1.03.31,2.08.46,3.14.46,4.81,0,9.13-3.22,10.51-7.82,13.66-45.64,41.83-85.63,79.86-113.76l-1.82,3.73c-2.66,5.43-.4,12.02,5.04,14.67,1.51.74,3.13,1.11,4.81,1.11,4.23,0,8-2.36,9.86-6.15l18.86-38.59c1.71-3.49,1.43-7.67-.73-10.9-2.04-3.06-5.46-4.88-9.15-4.88-.2,0-.4,0-.64.02l-44.65,2.69c-6.04.36-10.65,5.57-10.29,11.61.35,5.78,5.17,10.31,10.97,10.31.2,0,.4,0,.64-.02l2.61-.16c-41.08,30.86-71.58,74.53-86.4,124.03-.84,2.81-.54,5.77.85,8.35,1.39,2.58,3.7,4.46,6.51,5.3Z" stroke-width="0"/>
  <path d="m379.03,423.35c-2.02,0-4,.56-5.72,1.61-34.62,21.21-74.42,32.42-115.09,32.42-12.13,0-24.28-1.01-36.24-3l3.22-1.11c5.72-1.96,8.78-8.22,6.81-13.94-1.52-4.43-5.69-7.41-10.37-7.41-1.22,0-2.42.2-3.57.6l-40.62,13.95c-3.68,1.26-6.44,4.41-7.2,8.22-.76,3.81.57,7.78,3.48,10.36l33.47,29.67c2.01,1.78,4.59,2.76,7.28,2.76,3.14,0,6.13-1.35,8.21-3.69,1.94-2.19,2.92-5.01,2.74-7.94-.18-2.93-1.48-5.61-3.67-7.55l-2.4-2.13c12.84,2.09,25.86,3.14,38.85,3.14,44.73,0,88.49-12.33,126.57-35.65,2.5-1.53,4.25-3.94,4.94-6.79.68-2.85.22-5.79-1.31-8.29-2.01-3.28-5.51-5.24-9.36-5.24Z" stroke-width="0"/>
  <path d="m511.97,287c-.23-2.92-1.58-5.58-3.8-7.48-1.99-1.7-4.52-2.64-7.13-2.64-3.21,0-6.25,1.4-8.33,3.83l-1.62,1.89c7.01-42.26,2.62-85.52-12.86-125.82-1.62-4.21-5.73-7.04-10.24-7.04-1.35,0-2.67.25-3.93.73-2.74,1.05-4.9,3.1-6.09,5.78-1.19,2.68-1.27,5.66-.22,8.39,14.4,37.48,18.25,77.68,11.26,116.92l-1.4-3.86c-1.57-4.33-5.71-7.23-10.31-7.23-1.28,0-2.54.22-3.74.66-2.76,1-4.96,3.01-6.2,5.67s-1.38,5.63-.38,8.39l14.65,40.38c1.33,3.65,4.52,6.36,8.35,7.05.64.12,1.3.18,1.96.18,3.21,0,6.24-1.4,8.33-3.83l29.1-33.97c1.9-2.23,2.83-5.06,2.6-7.98Z" stroke-width="0"/>
</svg>