<?xml version="1.0" encoding="UTF-8"?>
<svg id="Left_Icon" data-name="Left Icon" xmlns="http://www.w3.org/2000/svg" viewBox="0 0 512 512">
  <path d="m319.72,309.84c4.26-25.19,11.46-54.79,19.28-83.41-10.13,5.5-23.19-.76-25.72-11.99h-70.55c-9.92,0-17.99-8.07-17.99-17.99s8.07-17.99,17.99-17.99h70.59s.02-.1.03-.15c1.86-8.14,9.26-13.9,17.48-13.83,3.16,0,6.29.85,9.05,2.45l14.01,8.17c11.59-38.02,21.33-66.19,21.33-66.19-73.32-61.7-146.46-9.21-147.02-93.25h-81.17C146.47,99.68,73.33,47.21,0,108.91,0,108.91,42.19,231.02,55.51,309.84c13.32,78.81-14.43,155.42-14.43,155.42,77.55,41.45,216.04,41.45,293.06,0,0,0-27.75-76.6-14.42-155.42Zm-42.93,72.43c-15.18,11.84-41.98,12.1-57.37,8.08l-3.51-.92-24.6-37.43c-26.64-1.49-34.65-14.57-40.58-24.26-1.73-2.82-3.21-5.26-4.92-6.96-3.49-3.5-18.99-6.09-27.31-7.48-13.06-2.19-20.94-3.51-25.09-8.69-9.1-12.35,2.19-27.01,20.05-32.49,13.17-4.1,28.23,1.67,41.29,2.96.27-.75.48-2.1.44-3.14-4.61-53.09-10.49-106.44,21.32-109.24,4.84,0,9.39,2.05,12.8,5.75,4.09,4.45,6.11,10.91,5.54,17.74-.22,2.57-.19,11.46,4.56,38.75,10.61-2.88,21.44,3.48,25.31,13.88,8.22.59,15.19,5.83,19.32,14.24,18.21,6.77,19.82,19.62,21.56,36.49.45,4.18,1.13,10.49,2.1,12.21,3.51,4.27,18.52,18.75,26.52,26.31.64,4.09,8.15,34.66-17.43,54.21Z" stroke-width="0"/>
  <path d="m260.3,307.54c-4.4-5.5-3.3-20.9-6.6-33-1.78-6.52-6.42-9.85-10.33-11.54-5.78,18.62-7.51,22.82-18.28,43.97.54,3.38,2.1,8.73,4.86,10.12,4.93,2.51,8.78-1.97,12.39-8.89,1.17-2.32,3.99-3.26,6.31-2.11,2.32,1.17,3.26,3.99,2.11,6.31-3.11,6.22-6.76,10.55-10.83,12.85-9.17,5.11-18.93-.2-22.17-9.48-7.36,5.01-19.31,3.04-22.65-5.07-7.15-.31-13.85-8.09-14.77-12.69-1.09-5.43-2.37-18.98-1.18-32.15.94-10.32,8.32-30.31,11.25-37.92h0c-2.43-13.82-5.6-34.17-4.91-42.52,1.1-13.2-12.11-19.8-19.81-4.4-9.03,18.06-2.2,79.21-1.1,90.21,0,0,1.1,14.31-11,13.21s-26.4-6.6-37.4-3.3-19.8,12.1-15.4,17.6c4.4,5.5,41.8,5.5,51.7,15.4,9.9,9.9,9.9,28.6,44.01,28.6l.41.62c19.47,4.69,47.28,2.03,56.29-21.66.99-2.4,3.74-3.54,6.14-2.56,2.4.99,3.54,3.73,2.56,6.14-8.93,23.17-33.59,32.01-57.94,28.83l17.84,27.14c32.46,7.82,70.35-4.7,63.8-48.4,0,0-20.9-19.8-25.3-25.3Z" stroke-width="0"/>
  <path d="m189.54,296.17c.55,1.88,3.94,4.73,5.57,5.12,1.22-8.8,4.11-22.96,7.16-32.08,2.45-7.32,9.07-18.41,14.01-26.15-2.27-7.81-11.81-12.97-19.11-6.4-3.25,8.88-7.98,22.73-8.65,30.05-1.04,11.54-.03,24.17,1.02,29.46Z" stroke-width="0"/>
  <path d="m203.91,307.38c1.85,2.14,6.86,2.88,10.54-1.05.38-.4.92-1.25,1.6-2.41.06-.13.13-.25.21-.38,3.56-6.27,10.18-20.54,12.72-26.91,1.31-3.27,4.33-12.94,6.44-19.79-1.85-3.6-5.34-8.13-11.27-8.63-4.67,7.32-10.82,17.58-12.96,23.98-3.68,10.98-7.05,29.91-7.28,35.19Z" stroke-width="0"/>
  <path d="m511.25,332.85s-20.9-19.8-25.3-25.3c-4.4-5.5-3.3-20.9-6.6-33-1.78-6.52-6.42-9.85-10.33-11.54-5.78,18.62-7.51,22.82-18.28,43.97.54,3.38,2.1,8.73,4.86,10.12,4.93,2.51,8.78-1.97,12.39-8.89,1.17-2.32,3.99-3.26,6.31-2.11,2.32,1.17,3.26,3.99,2.11,6.31-3.11,6.22-6.76,10.55-10.83,12.85-9.17,5.11-18.93-.2-22.17-9.48-7.36,5.01-19.31,3.04-22.65-5.07-7.15-.31-13.85-8.09-14.77-12.69-1.09-5.43-2.37-18.98-1.18-32.15.94-10.32,8.32-30.31,11.25-37.92h0c-2.43-13.82-5.6-34.17-4.91-42.52,1.1-13.2-12.11-19.8-19.81-4.4-9.03,18.06-2.2,79.21-1.1,90.21,0,0,1.1,14.31-11,13.21-12.1-1.1-26.4-6.6-37.4-3.3-11,3.3-19.8,12.1-15.4,17.6,4.4,5.5,41.8,5.5,51.7,15.4,9.9,9.9,9.9,28.6,44.01,28.6l.41.62c19.47,4.69,47.28,2.03,56.29-21.66.99-2.4,3.74-3.54,6.14-2.56,2.4.99,3.54,3.73,2.56,6.14-8.93,23.17-33.59,32.01-57.94,28.83l17.84,27.14c32.46,7.82,70.35-4.7,63.8-48.4Z" stroke-width="0"/>
  <path d="m415.2,296.17c.55,1.88,3.94,4.73,5.57,5.12,1.22-8.8,4.11-22.96,7.16-32.08,2.45-7.32,9.07-18.41,14.01-26.15-2.27-7.81-11.81-12.97-19.11-6.4-3.25,8.88-7.98,22.73-8.65,30.05-1.04,11.54-.03,24.17,1.02,29.46Z" stroke-width="0"/>
  <path d="m429.57,307.38c1.85,2.14,6.86,2.88,10.54-1.05.38-.4.92-1.25,1.6-2.41.06-.13.13-.25.21-.38,3.56-6.27,10.18-20.54,12.72-26.91,1.31-3.27,4.33-12.94,6.44-19.79-1.85-3.6-5.34-8.13-11.27-8.63-4.67,7.32-10.82,17.58-12.96,23.98-3.68,10.98-7.05,29.91-7.28,35.19Z" stroke-width="0"/>
  <path d="m334.84,217.33s23.98-13.98,23.98-13.98c5.23-2.94,5.24-10.86,0-13.8l-23.98-13.98c-1.84-1.08-3.99-1.37-6.06-.82-6.11,1.48-8.01,9.67-3.25,13.72h-82.8c-4.4,0-7.99,3.58-7.99,7.99s3.58,7.99,7.99,7.99h82.8c-7.06,6.52.87,17.55,9.31,12.89Z" stroke-width="0"/>
</svg>