<?xml version="1.0" encoding="UTF-8"?>
<svg id="Me_Too_Icon" data-name="Me Too Icon" xmlns="http://www.w3.org/2000/svg" viewBox="0 0 512 512">
  <path d="m194.37,122.34c-23.82,7.58-27.07,32.48-27.07,32.48,0,0-.23-.1-.66-.26.17,92.46,53.26,135.17,53.93,135.7.47.35,24.99,18.89,45.8,8.91,9.57-4.58,10.91-12.43,11.1-14.47-3.24-1.77-6.33-3.98-9.12-6.61-22.72-21.43-36.34-56.6-39.4-101.72-1.14-16.81-.65-31.96.15-43.06-7.91-7.34-20.55-15.48-34.73-10.97Z" stroke-width="0"/>
  <path d="m114.25,206.71c4.31,20.5,13.53,47.18,33.13,71.34,26.41,32.55,46.59,29.93,54.04,27.28,6.16-2.18,9.59-6.14,10.69-9.15-5.12-4.57-17.82-17.08-29.84-38.4-12.36-21.9-26.02-57.22-25.61-105.88-8.7-1.4-21.06-1.11-30.5,8.33-16.24,16.24-11.36,47.1-11.36,47.1,0,0-.19-.21-.55-.62Z" stroke-width="0"/>
  <path d="m511.59,237.1c-4.33-20.57-63.88-34.64-121.26,16.24,0,0-55.22-8.66-64.96-50.88-9.74-42.23-19.49-87.7-50.88-87.7-24.07,0-32.87,16.54-35.66,24.27-1.86,34.06.21,97.67,36.38,131.78,7.77,7.34,21.5,12.04,30.13,6.85,6.61-3.98,6.01-12.06,4.34-18.13-11.99-43.61-9.44-89.54-9.33-91.47.16-2.76,2.53-4.86,5.29-4.7,2.75.16,4.86,2.53,4.69,5.29-.02.45-2.55,46.26,8.99,88.22,3.61,13.12.39,23.82-8.83,29.36-4.05,2.44-8.87,3.6-13.97,3.6-3.13.01-6.37-.45-9.59-1.31-1.18,5.3-4.86,14.22-16.24,19.67-5.46,2.62-11.45,3.93-17.8,3.93s-13.54-1.4-20.71-4.2c-4.71-1.84-8.75-3.99-11.79-5.81-2.88,5.41-8.52,10.13-15.63,12.65-2.77.98-6.9,2-12.13,2-12.58,0-31.51-5.9-53.01-32.41-27.01-33.3-35.46-70.26-38.05-92.4-14.12-16.76-35.85-43.72-46.32-62.57-16.24-29.24-36.27-36.27-50.34-18.95-14.08,17.32,5.41,57.38,17.32,79.03,11.91,21.66,46.55,77.95,51.97,107.19,5.41,29.23-.86,90.83,34.8,134.05,30.2,36.6,66.96,38.09,123.26,37,56.3-1.08,102.85,11.91,138.58-43.3,35.73-55.22,42-100.11,81.2-134.25,33.56-29.23,63.88-32.48,59.55-53.05Zm-157.69,69.16c-.44.01-24.25,1.05-50.04,14.57-34.44,18.07-56.03,48.81-64.15,91.36-.46,2.4-2.56,4.06-4.91,4.06-.31,0-.63-.02-.94-.09-2.71-.51-4.49-3.13-3.98-5.84,10.92-57.14,43.94-85.13,69.73-98.55,27.87-14.5,52.91-15.47,53.96-15.51,2.76-.07,5.07,2.08,5.16,4.84.09,2.76-2.07,5.07-4.83,5.16Z" stroke-width="0"/>
  <path d="m365.66,80.12l-16-32c-1.37-2.73-4.11-4.42-7.16-4.42-1.23,0-2.47.29-3.57.85-1.91.96-3.34,2.6-4.01,4.63s-.52,4.2.43,6.11l5.74,11.48c-26.57-7.85-55.64-11.99-84.52-11.99s-58.85,4.26-85.83,12.35l5.92-11.84c.96-1.91,1.11-4.08.43-6.11-.68-2.03-2.1-3.67-4.01-4.63-1.11-.55-2.34-.85-3.58-.85-3.05,0-5.79,1.7-7.16,4.42l-16,32c-1.11,2.22-1.12,4.87-.03,7.09,1.09,2.23,3.19,3.84,5.62,4.33l35,7c.52.1,1.05.16,1.58.16,3.8,0,7.09-2.71,7.84-6.43.42-2.1,0-4.23-1.19-6.01-1.19-1.78-2.99-2.99-5.09-3.41l-9.56-1.91c24.1-6.69,50.15-10.2,76.07-10.2s51.62,3.47,75.53,10.08l-10.17,2.03c-4.33.87-7.14,5.09-6.28,9.41.75,3.73,4.04,6.43,7.84,6.43.53,0,1.06-.05,1.57-.16l35-7c2.43-.49,4.53-2.1,5.62-4.33,1.09-2.23,1.08-4.88-.03-7.09Z" stroke-width="0"/>
</svg>