<?xml version="1.0" encoding="UTF-8"?>
<svg id="Minus_Icon" data-name="Minus Icon" xmlns="http://www.w3.org/2000/svg" viewBox="0 0 512 512">
  <path d="m311.15,0h-86.46c-.59,89.5-78.49,33.61-156.6,99.33,0,0,14.58,42.19,29.75,94.03,7.61-10.15,14.13-19.2,16.86-23.97,4.64-8.12,19.42-16.32,56.48-31.32,2.67-1.08,4.78-1.93,6.1-2.5,3.34-1.43,7.48-2.1,13.01-2.1,6.19,0,13.47.8,21.89,1.73,9.63,1.05,20.54,2.25,30.92,2.25,8.23,0,12.69,4.95,14.12,9.59,2.29,7.38-1.81,15.98-10.46,21.9-.95.65-1.99,1.12-3.08,1.41.81,2.36,1,5.01.48,7.75-1.9,9.87-12.94,20.36-29.65,20.37h-.01c-2.71,0-5.52-.29-8.34-.85-3.39-.68-12.23-1.02-19.13-1.12l-16.49,18.54c0,.19-.02.39-.03.58,1.98-.31,4.48-.86,7.08-1.43,6.59-1.45,14.78-3.26,23.05-3.26,4.5,0,8.52.51,12.3,1.57,13.69,3.83,22.49,13.95,21.39,24.59-1.2,11.63-12.59,16.5-22.84,17.19-18.35,1.22-25.43,3.15-37.03,13.59-2.53,2.28-5.02,4.83-7.66,7.54-9.48,9.71-21.01,21.54-39.8,24.12l-1.4,4.81c.58,3.05,1.11,6.06,1.61,9,1.25,7.37,2.16,14.73,2.78,22.01,5.76-1.96,11.35-4.48,16.23-7.74,6.55-4.38,17.91-6.24,39.09-9.39,16.95-2.53,36.16-5.4,52.37-10.51,11.12-3.5,20.93-5.2,30.01-5.2,18.57,0,30.56,7.05,42.2,14.91,20.82,14.08,34.99,34.89,37.89,55.68,1.73,12.38-.94,23.5-7.51,31.31-1.87,2.22-4.38,4.09-7.47,5.55-1.35.63-2.81.95-4.26.95-.21,0-.42-.01-.63-.02-.45,1.62-1.29,3.12-2.48,4.34-4.03,4.15-9.23,6.97-15.46,8.38-.74.17-1.48.25-2.22.25-.85,0-1.68-.11-2.5-.32-.49,1.47-1.32,2.81-2.44,3.92-5.86,5.78-12.79,9.06-20.06,9.49-.19,0-.39.02-.59.02-1.28,0-2.53-.24-3.69-.7-.32.3-.66.58-1.03.84-4.93,3.79-14.85,9.85-27.87,9.85-2.98,0-5.99-.32-8.96-.94-12.72-2.69-20.86-13.39-25.72-22.99-8.77,4.08-21.65,8.34-37.22,8.34-10.71,0-21.31-2.04-31.55-6.08-3.96.89-12.91,3.58-23.02,11.28-5.28,25.8-11.26,42.31-11.26,42.31,134.55,70.11,297.48,7.13,297.48,7.13,0,0-1.81-4.61-3.03-7.56l-13.98-33.78c-3.84-.85-8.87-2.47-13.94-5.54-9.41-5.71-20.64-17.46-20.64-40.98,0-12.95.65-20.1,1.08-24.82q.64-7.02-5.05-21.49c-12.61-32.11-3.08-47.66,4.38-54.34-.32-10.49.64-30.47,11.31-41.14,5.32-5.32,10.87-8.02,16.5-8.02,4.73,0,9.11,2,12.33,5.62,5.35,6.02,7.25,15.93,5.66,29.47-.51,4.39-.78,8.38-.79,11.86.84-.07,1.71-.1,2.6-.1,2.13,0,4.18.21,6.14.63,3.05-15.16,6.84-31.3,10.99-47.58,4.3-15,32.23-110.68,32.23-110.68,7.42-23.17,12.63-38.23,12.63-38.23C389.64,33.6,311.74,89.52,311.15,0Zm42.27,252.93c-.33,1.61-.88,3.15-1.63,4.59-.22.42-.46.85-.69,1.22l-20.08,32.7c-2.93,4.76-7.79,7.85-13.34,8.47-.66.08-1.35.12-2.02.12-4.87,0-9.43-1.92-12.84-5.4l-23.93-24.41c-4.22-4.3-6-10.39-4.77-16.29.73-3.5,2.47-6.67,5.03-9.18,3.08-3.02,7.07-4.8,11.34-5.09-10.4-24.62-28.37-40.37-29.07-40.97-5.11-4.28-7.44-10.97-6.08-17.5.6-2.85,1.9-5.55,3.77-7.8,3.42-4.14,8.48-6.52,13.87-6.52,4.18,0,8.25,1.47,11.47,4.14,1.37,1.13,29.17,24.5,42.39,62.61,1.48-.84,3.08-1.48,4.77-1.88,1.38-.33,2.79-.5,4.2-.5,3.32,0,6.57.93,9.41,2.67,6.45,3.96,9.75,11.61,8.2,19.02Z" stroke-width="0"/>
  <g>
    <path d="m241.11,160.69l-43.66-6.75c-.92-.14-1.87-.02-2.73.35l-47.08,20.18c-2.54,1.09-3.72,4.03-2.63,6.56.81,1.9,2.66,3.04,4.6,3.04.66,0,1.32-.13,1.97-.41l45.76-19.61,27.74,4.29c2.18,1.1,4.72,2.31,7.26,3.33,6.73,2.69-2.95,20.39-24.22,16.14-6.72-1.35-25.55-1.35-25.55-1.35l-21.53,24.22s-1.04,4.7-.2,8.89c-3.24,13.2-9.16,23.54-17.62,30.79-7.77,6.66-15.51,8.89-19.23,9.97-1.91.55-3.07.88-4.15,1.97-1.95,1.95-1.95,5.11,0,7.07.98.97,2.26,1.46,3.54,1.46.82,0,1.64-.2,2.38-.6.25-.08.59-.18,1-.29,21.74-6.28,36.09-21.09,42.77-44.11,9.28-.77,26.74-7.6,40.71-3.69,16.72,4.68,20.75,20.82.58,22.17-20.18,1.34-29.6,4.03-43.05,16.14-13.45,12.11-24.22,29.6-48.43,29.6l-12.11,41.7s-39.01,9.41-69.95-30.94c0,0,22.87-36.32,24.21-41.7,1.35-5.39,51.96-67.39,61.89-84.75,5.38-9.42,48.42-25.56,57.84-29.6,9.42-4.03,36.29,2.69,61.88,2.69,7.34,0,5.78,7.92-1.99,13.24Z" stroke-width="0"/>
    <path d="m430.25,362.28c-3.65,7.44-9.81,13.72-22.92,8.78-3.28-1.24-7.39-4.18-9.08-8.71-1.22-3.25-1.05-7,.48-11.18,3.13.95,6.72,1.59,10.71,1.59,4.42,0,9.35-.78,14.71-2.77,1.63,3.56,3.67,7.77,6.1,12.29Z" stroke-width="0"/>
    <path d="m474.72,408.71s-1.35,71.3-59.19,65.92l-16.14-39.01s-31.66-.95-31.66-37.47,5.3-24.62-4.66-49.97c-14.8-37.67,5.38-45.74,5.38-45.74,0,0-2.69-28.25,8.07-39.01,10.95-10.95,20.18-4.04,17.49,18.83-.64,5.47-.87,9.92-.86,13.5-16.68,7.46-15.58,25.01-15.56,25.22.2,2.62,2.38,4.6,4.97,4.6.12,0,.23,0,.35,0,2.74-.19,4.81-2.57,4.65-5.31-.06-1.14,1.02-9.94,6.62-13.56,4.2-2.71,15.18-6.29,25.39,5.16,10.81,12.13.22,27.81.65,28.9-9.02,3.22-17.84,2.23-23.07-.84-3.41-1.74-5.33-3.67-5.55-3.91-1.89-2-5.03-2.11-7.05-.24-2.02,1.88-2.14,5.04-.26,7.07.06.06,1.93,2.01,5.34,4.17-3.22,8.29-2.3,14.71-.75,18.85,1.22,3.27,3.04,5.88,5.01,7.94-4.33,6.67-4.35,12.29-3.54,15.93.37,1.67.96,3.15,1.66,4.47-6.89,5.53-8.61,11.36-8.82,15.3-.43,7.93,4.5,13.38,6.02,14.87,4.69,4.57,9.7,6.88,14.93,6.88.49,0,.98-.02,1.47-.06,2.75-.23,4.8-2.64,4.57-5.4-.22-2.75-2.63-4.78-5.39-4.57-2.79.24-5.59-1.08-8.6-4.01-1.49-1.46-3.17-4.21-3.01-7.17.15-2.81,1.93-5.57,5.28-8.2.11-.09.2-.19.3-.29.58.39,1.07.67,1.41.86,3.97,2.16,7.79,3.25,11.44,3.25,2.13,0,4.19-.38,6.19-1.12,2.59-.96,3.91-3.84,2.95-6.43-.97-2.59-3.85-3.9-6.43-2.94-2.62.97-5.68.47-9.37-1.54-1.83-1-4.19-3.19-4.84-6.08-.53-2.36.12-5.02,1.91-7.9.73.34,1.35.6,1.78.76,4.3,1.63,8.36,2.43,12.14,2.43,8.05,0,14.83-3.63,19.97-10.72,9.51,15.41,22.78,31.46,38.81,36.59Z" stroke-width="0"/>
    <path d="m332.62,397.97c-1.04,1.24-2.53,2.21-4.08,2.94.37-41.85-19.89-55.79-20.82-56.4-2.3-1.53-5.43-.91-6.95,1.39-1.53,2.31-.92,5.39,1.39,6.92.79.54,18.92,13.61,16.1,55.44-3.16,3.25-7.12,4.83-10.51,5.6,6.33-30.58-12.15-56.51-13.01-57.69-1.62-2.23-4.74-2.73-6.97-1.11-2.24,1.62-2.74,4.74-1.12,6.98.19.27,19.59,27.66,9.42,56.6-.2.56-.29,1.14-.29,1.7-3.12,3.08-7.73,6.28-13.62,6.63,5.88-36.33-14.06-56.14-14.95-57-1.98-1.92-5.12-1.86-7.05.1-1.92,1.97-1.88,5.13.08,7.06.75.75,18.33,18.56,11.37,51.86h-.01c-5.06,3.96-15.47,10.08-28.94,7.24-10.29-2.17-16.82-13.03-20.14-20.41,6.52-3.79,11.18-7.77,14.37-11.06l8.4,19.91c.81,1.9,2.66,3.05,4.61,3.05.65,0,1.31-.13,1.95-.39,2.54-1.08,3.73-4.01,2.66-6.56l-11.67-27.62c-.74-1.76-2.42-2.92-4.32-3.03-1.9-.12-3.71.88-4.65,2.53-.05.08-1.49,11.28-20.66,20.07-11.46,5.85-36.57,14.93-65.95,2.23,0,0-18.58,1.84-37.52,19.89,0,0-40.9-37.1-23.78-82.76,0,0,40.34.86,65.81-16.16,10.12-6.77,55.45-8.12,88.91-18.67,33.46-10.54,48.67-1.63,63.61,8.46,31.65,21.39,41.49,56.61,28.33,72.26Z" stroke-width="0"/>
  </g>
  <path d="m322.27,255.98l6.7-10.92c1.12-1.82,2.88-3.1,4.96-3.6,2.08-.5,4.23-.15,6.05.96,2.87,1.76,4.34,5.16,3.65,8.46-.15.71-.39,1.39-.73,2.04-.09.18-.19.36-.29.51l-20.12,32.77c-1.3,2.12-3.46,3.49-5.92,3.76-2.46.28-4.88-.58-6.62-2.35l-23.92-24.4c-1.88-1.91-2.67-4.62-2.12-7.24.32-1.55,1.1-2.96,2.23-4.07,1.53-1.5,3.55-2.31,5.68-2.29,2.14.02,4.14.87,5.64,2.4l9.43,9.62c-5.73-42.25-38.68-70.3-39.03-70.6-2.29-1.9-3.34-4.89-2.73-7.81.26-1.27.84-2.46,1.67-3.46,2.81-3.4,7.87-3.87,11.27-1.06,1.57,1.3,36.52,30.73,44.19,77.27Z" stroke-width="0"/>
</svg>