<?xml version="1.0" encoding="UTF-8"?>
<svg id="More_Icon" data-name="More Icon" xmlns="http://www.w3.org/2000/svg" viewBox="0 0 512 512">
  <path d="m148.16,260.32l-64.89-3.13c-7.24-.6-6.76-11.08.53-10.98,0,0,73.11,3.53,73.11,3.53,8.88-1.73,20.97-6.67,22.08-20.85l-99.04-4.9c-3.03-.15-5.36-2.73-5.21-5.75.15-3.03,2.72-5.37,5.76-5.21l111.13,5.48c7.26-3.47,14.05-10.51,9.54-24.79l-124.35-1.81c-3.04-.04-5.45-2.54-5.41-5.57.05-3.03,2.51-5.46,5.57-5.41l130.32,1.9c7.15-6.44,11-20.78.73-27.4-43.36-.36-135.22-1.12-136.67-1.12-3.03-.01-5.49-2.47-5.48-5.5,0-3.03,2.46-5.48,5.48-5.48,1.07,0,75.35.61,122.04,1,.39-7.44-1.44-19.26-16.37-21.51-16.74-2.51-109.85-3.95-146.22,4.02-12,2.63-24.73,18.79-18.65,37.03,6.08,18.24-12.16,24.32-12.16,44.08s10.64,15.21,12.16,42.56c1.52,27.36,13.68,69.92,13.68,69.92l-15.2,59.28s50.16,25.83,95.76,0c0,0,1.52-48.64,4.57-63.84,2.73-13.65,35.53-28.63,37.19-55.54Z" stroke-width="0"/>
  <path d="m499.84,250.49c1.52-27.35,12.16-22.8,12.16-42.56s-18.24-25.83-12.16-44.08c6.07-18.24-6.65-34.41-18.65-37.03-36.36-7.96-129.47-6.52-146.22-4.02-14.94,2.25-16.76,14.07-16.37,21.51,46.69-.39,120.97-1,122.04-1,7.25.24,7.3,10.73,0,10.99-6.4.01-110.81.93-136.67,1.12-10.28,6.63-6.41,20.98.73,27.4l130.32-1.9c3.03-.07,5.52,2.39,5.57,5.41.04,3.04-2.38,5.53-5.41,5.57l-124.35,1.81c-4.51,14.28,2.28,21.32,9.54,24.79l111.13-5.48c3.03-.17,5.61,2.19,5.76,5.21.15,3.03-2.19,5.6-5.21,5.75l-99.04,4.9c1.11,14.18,13.2,19.12,22.08,20.85l73.11-3.53c7.25-.1,7.8,10.37.53,10.98,0,0-64.89,3.13-64.89,3.13,1.67,26.9,34.47,41.89,37.19,55.54,3.05,15.2,4.57,63.84,4.57,63.84,45.6,25.83,95.76,0,95.76,0l-15.2-59.28s12.16-42.56,13.68-69.92Z" stroke-width="0"/>
  <path d="m248.62,321.85l-23.98-13.98c-1.84-1.08-4-1.37-6.06-.82-6.11,1.48-8.01,9.67-3.25,13.72h-82.81c-4.41,0-7.99,3.58-7.99,7.99s3.58,7.99,7.99,7.99h82.81c-7.06,6.52.87,17.55,9.31,12.89,0,0,23.98-13.98,23.98-13.98,5.23-2.94,5.24-10.86,0-13.8Z" stroke-width="0"/>
  <path d="m379.47,320.76h-82.81c7.06-6.52-.87-17.56-9.31-12.89,0,0-23.98,13.98-23.98,13.98-2.45,1.43-3.96,4.07-3.96,6.9s1.52,5.48,3.96,6.9l23.98,13.98c8.43,4.66,16.37-6.36,9.31-12.89h82.81c10.59-.44,10.6-15.54,0-15.98Z" stroke-width="0"/>
</svg>