<?xml version="1.0" encoding="UTF-8"?>
<svg id="More_Icon" data-name="More Icon" xmlns="http://www.w3.org/2000/svg" viewBox="0 0 512 512">
  <path d="m330.8,361.19h0s-24.07-14.04-24.07-14.04c-1.85-1.08-4.01-1.38-6.08-.82-6.13,1.48-8.04,9.69-3.27,13.76h-79.58c7.09-6.54-.87-17.62-9.34-12.94l-24.07,14.03c-2.46,1.44-3.97,4.08-3.97,6.93s1.53,5.5,3.97,6.93l24.07,14.03c8.46,4.67,16.42-6.37,9.35-12.93h79.58c-7.09,6.54.87,17.61,9.34,12.94l24.07-14.03c5.25-2.95,5.26-10.9,0-13.85Z" stroke-width="0"/>
  <path d="m475.79,276.5c-3.88-44.11-7.4-74.17-10.55-96.94-2.98-21.57-8.71-29.22-17.96-34-14.87-7.69-39.4-10.17-71.05-19.88-26.74-10.58-58.07,3.49-95.5,7.04-14.63,1.4-22.07,9.93-20.73,19.27,88.32-14.92,83.93-23.16,166.73,5.17,6.19,1.97,2.95,11.67-3.17,9.52-25.39-8.46-67.15-20.62-78.21-19.42-25.17,3.47-50.59,9.76-82.02,14.36-8.02,3.68-6.39,15.57-1.48,18.1,74.4-12,83.46-18.51,156.02,5.78,2.65.8,4.15,3.6,3.34,6.25-.8,2.68-3.68,4.15-6.26,3.34-26.85-8.15-67.9-19.02-75.1-17.65-14.16,2.69-44.97,7.45-66.76,10.74,2.71,30.54,93.53,16.72,107.86,25.5,7.68,2.77-3.91,70.8,41.17,93.93,5.88,2.75,1.36,11.99-4.42,9.01-29.14-11.37-44.99-62.1-43.89-94.8-21.44-2.88-50.16-.7-72.61-5.62,9.88,14.53,24.52,35.56,32.22,55.84,25.4,71.31,64.41,25.68,93.9,118.12,0,0,78.57,2.23,84.69-53.49,0,0-31.19-26.75-36.21-60.18Z" stroke-width="0"/>
  <path d="m138.19,221.83c1.1,32.7-14.75,83.43-43.89,94.8-5.78,2.98-10.3-6.27-4.42-9.01,45.08-23.13,33.49-91.16,41.17-93.93,14.33-8.79,105.15,5.04,107.86-25.5-21.79-3.29-52.6-8.05-66.76-10.74-7.21-1.36-48.26,9.5-75.1,17.65-2.58.81-5.47-.66-6.26-3.34-.8-2.65.69-5.45,3.34-6.25,72.55-24.3,81.61-17.78,156.02-5.78,4.92-2.53,6.54-14.41-1.48-18.1-31.43-4.6-56.84-10.89-82.02-14.36-11.06-1.2-52.82,10.96-78.21,19.42-6.12,2.15-9.36-7.56-3.17-9.52,82.79-28.33,78.4-20.09,166.73-5.17,1.34-9.34-6.09-17.87-20.73-19.27-37.44-3.55-68.76-17.62-95.5-7.04-31.65,9.7-56.18,12.18-71.05,19.88-9.24,4.78-14.98,12.43-17.96,34-3.14,22.77-6.66,52.83-10.55,96.94C31.19,309.93,0,336.68,0,336.68c6.12,55.72,84.69,53.49,84.69,53.49,29.49-92.44,68.5-46.81,93.9-118.12,7.7-20.29,22.34-41.31,32.22-55.84-22.46,4.92-51.17,2.74-72.61,5.62Z" stroke-width="0"/>
</svg>