<?xml version="1.0" encoding="UTF-8"?>
<svg id="Now_Icon" data-name="Now Icon" xmlns="http://www.w3.org/2000/svg" viewBox="0 0 512 512">
  <path d="m226.35,6.75c-6.32,7.91-26.87,28.49-26.87,28.49,0,0-.01-.02-.03-.06-10.18,12.24-20.21,23.86-20.87,24.64-1.1,1.27-2.65,1.92-4.22,1.92-1.28,0-2.59-.45-3.63-1.35-2.33-2.02-2.59-5.55-.58-7.88.18-.2,11.42-13.24,22.23-26.27-4.94-4.78-12.05-9.06-20.05-5.81-5.53,4.27-12.08,11.4-20.87,25.33-1.06,1.69-2.88,2.6-4.71,2.6-1.03,0-2.05-.28-2.98-.86-2.6-1.65-3.38-5.1-1.74-7.7,8.89-14.11,16.12-22.31,22.95-27.73-4.69-3.85-12.63-6.14-25.54.22-9.15,7.77-18.05,20.01-21.61,25.58-1.06,1.66-2.86,2.58-4.7,2.58-1.03,0-2.06-.29-2.99-.88-2.6-1.65-3.35-5.1-1.71-7.7,1.42-2.22,10.55-16.25,22.01-26.52-4.95-3.28-12.16-5.06-21.01,1.4-17.39,12.67-36.34,42.73-36.34,42.73,0,0-17.39-25.32-39.51-23.74-22.12,1.58,12.64,22.01,19.76,45.81,7.11,23.81,5.53,61.79,16.58,93.44l-11.06,45.88s42.66,30.07,86.91,7.91l3.15-49.05s27.85-21.35,39.51-68.05c3.15-12.66,58.47-66.45,56.88-87.03-1.58-20.57-12.64-15.81-18.96-7.91Z" stroke-width="0"/>
  <path d="m356.76,169.75l3.15,49.05c44.24,22.15,86.91-7.91,86.91-7.91l-11.06-45.88c11.06-31.65,9.47-69.63,16.58-93.44,7.12-23.81,41.88-44.23,19.76-45.81-22.12-1.58-39.51,23.74-39.51,23.74,0,0-18.96-30.07-36.34-42.73-8.85-6.45-16.06-4.68-21.01-1.4,11.46,10.27,20.6,24.3,22.01,26.52,1.65,2.6.89,6.05-1.71,7.7-.92.59-1.96.88-2.99.88-1.84,0-3.64-.92-4.7-2.58-3.56-5.57-12.46-17.81-21.61-25.58-12.92-6.36-20.85-4.07-25.54-.22,6.83,5.42,14.05,13.63,22.95,27.73,1.64,2.6.86,6.05-1.74,7.7-.92.58-1.95.86-2.98.86-1.84,0-3.66-.92-4.71-2.6-8.79-13.94-15.35-21.06-20.87-25.33-8-3.25-15.11,1.04-20.05,5.81,10.81,13.04,22.06,26.07,22.23,26.27,2.01,2.33,1.75,5.86-.58,7.88-1.05.9-2.35,1.35-3.63,1.35-1.57,0-3.12-.65-4.22-1.92-.67-.78-10.7-12.4-20.87-24.64-.02.03-.03.06-.03.06,0,0-20.55-20.58-26.87-28.49-6.32-7.9-17.37-12.66-18.96,7.91-1.58,20.58,53.73,74.38,56.88,87.03,11.66,46.7,39.51,68.05,39.51,68.05Z" stroke-width="0"/>
  <path d="m226.18,413.99c-8.02,8.04-35.3,36.95-35.3,36.95,0,0,3.59-39.32-9.33-48.2-16.34-11.25-28.49,0-28.49,0,0,0-8.72-12.86-19.95-12.86-17.64,0-20.85,12.86-20.85,12.86,0,0-5.04-15.49-20.86-12.86-16.2,2.71-17.63,29.33-17.68,37.69l4.81,39.46c.38,3.06-1.79,5.84-4.85,6.22-.09.01-.17.01-.26.02-2.95.23-5.59-1.91-5.95-4.89l-5.35-43.9c-1.74-.73-3.73-1.55-6.03-2.47-16.05-6.43-35.3,6.43-27.27,11.24,8.69,5.23,33.69,35.36,38.5,56.24,4.81,20.89,27.27,16.07,38.5,14.46s12.76,8.04,30.48,8.04c19.26,0,25.55-13.67,33.69-12.86,16.05,1.61,24.07-3.21,28.89-11.25,4.81-8.04,33.33-39.5,43.32-57.84,9.63-17.68-8.02-24.11-16.05-16.07Z" stroke-width="0"/>
  <path d="m455.49,422.02c-2.3.92-4.29,1.74-6.03,2.47l-5.35,43.9c-.36,2.98-3,5.12-5.95,4.89-.09-.01-.17-.01-.26-.02-3.05-.38-5.23-3.16-4.85-6.22l4.81-39.46c-.04-8.36-1.47-34.98-17.68-37.69-15.83-2.63-20.86,12.86-20.86,12.86,0,0-3.21-12.86-20.85-12.86-11.23,0-19.95,12.86-19.95,12.86,0,0-12.15-11.25-28.49,0-12.92,8.88-9.33,48.2-9.33,48.2,0,0-27.27-28.92-35.3-36.95-8.02-8.04-25.68-1.61-16.05,16.07,9.99,18.34,38.5,49.8,43.32,57.84,4.81,8.04,12.84,12.86,28.89,11.25,8.14-.81,14.43,12.86,33.69,12.86,17.72,0,19.25-9.64,30.48-8.04,11.23,1.61,33.69,6.43,38.5-14.46,4.81-20.88,29.81-51,38.5-56.24,8.02-4.81-11.22-17.67-27.27-11.24Z" stroke-width="0"/>
  <path d="m468.28,190.73c-4,1.45-6.15,6.29-4.54,10.23,15.87,41.36,19.01,85.61,9.22,128.58-2.67-5.16-4.15-19.81-12.46-19.1-5.31-.15-9.39,5.67-7.43,10.62,0,0,14.56,40.21,14.56,40.21,1.83,5.58,9.76,7.04,13.44,2.45,1.91-3.58,33.2-35.27,30.81-39.59-.29-6.83-9.64-9.89-13.89-4.54,0,0-8.94,10.46-8.94,10.46,8.98-17.83,5.9-144.59-20.76-139.31Z" stroke-width="0"/>
  <path d="m44.36,361.58s14.57-40.21,14.57-40.21c1.96-4.95-2.12-10.77-7.43-10.62-8.28-.74-9.83,13.98-12.46,19.1-9.79-42.96-6.65-87.21,9.22-128.58,1.61-3.94-.55-8.79-4.55-10.23-26.61-5.14-29.78,120.87-20.75,139.31l-8.94-10.46c-6.54-7.91-18.81,2.61-12.01,10.3l28.93,33.83c3.68,4.58,11.61,3.13,13.44-2.45Z" stroke-width="0"/>
</svg>