<?xml version="1.0" encoding="UTF-8"?>
<svg id="Pay_Attention_Icon" data-name="Pay Attention Icon" xmlns="http://www.w3.org/2000/svg" viewBox="0 0 512 512">
  <path d="m434.51,379.53c-1.33,4.18-5.21,6.97-9.53,6.97-.29,0-.58-.01-.87-.04-.31-.03-7.57-.68-16.39-3.43-12.43-3.86-21.91-9.83-28.15-17.74-6.05-7.65-8.83-17.04-8.11-27.33-39.48-13.09-66.09-32.19-66.09-42.94v-29.75c5.24-4.24,10.1-9.13,14.51-14.59.08-.1.16-.2.23-.3-.53-2.66-.86-5.52-.88-8.56-.01-1.25-.23-2.38-.63-3.35-1.78-4.23-4.22-11.84-5.74-24.2-1-8.17-1.04-13.18-1.07-17.2-.04-5.44-.07-9.38-2.66-20.11-2.1-8.67.8-14.05,2.71-16.48,2.78-3.54,6.98-5.56,11.53-5.56,3.2,0,6.33,1,9.09,2.8,1.75-4.95,3.62-9.54,5.44-12.57,1.82-3.04,3.93-5.68,6.23-7.85-9.08-63.34-45.09-79.04-88.13-79.04s-79.15,15.75-88.16,79.01c2.31,2.18,4.43,4.83,6.25,7.88,1.82,3.03,3.7,7.61,5.45,12.57,2.76-1.8,5.89-2.8,9.09-2.8,4.54,0,8.74,2.02,11.52,5.56,1.92,2.43,4.82,7.81,2.72,16.48-2.6,10.73-2.63,14.67-2.67,20.11-.03,4.02-.06,9.03-1.07,17.2-1.53,12.43-3.96,20.02-5.73,24.2-.41.97-.62,2.1-.63,3.35-.02,2.97-.33,5.76-.84,8.37,4.46,5.6,9.38,10.61,14.7,14.94v29.89c0,10.75-26.61,29.85-66.09,42.94.72,10.29-2.06,19.68-8.11,27.33-6.25,7.91-15.72,13.88-28.16,17.74-8.81,2.75-16.08,3.4-16.38,3.43-.29.03-.59.04-.88.04-4.32,0-8.2-2.79-9.52-6.98-.02-.06-.45-1.41-1.17-3.61-11.77,19.82-13.08,40.99-13.08,40.99,0,0,29.13,36.84,192.76,36.84s192.76-36.84,192.76-36.84c0,0-1.31-21.17-13.08-40.99-.72,2.21-1.16,3.56-1.17,3.62Z" stroke-width="0"/>
  <path d="m124.26,148.94c.85,1.45,1.78,3.08,2.69,4.71,10.19,5.98,26.85,19.86,34.46,49.14.62,2.4-.82,4.87-3.22,5.5-.38.09-.76.14-1.14.14-2,0-3.82-1.34-4.36-3.37-6.91-26.58-21.84-38.75-30.44-43.73-4.45.19-8.47,2.04-7.16,8.58.46,2.27,3.46,6.36,6.46,9.96.88.47,1.78.99,2.68,1.57,7.96,5.08,18.05,15.31,21.78,35.38,2.63,1.58,7.41,4.77,11.81,9.36,8.91,9.31,12.04,19.89,9.05,30.62-.56,1.98-2.36,3.28-4.34,3.28-.4,0-.81-.05-1.22-.16-2.39-.67-3.79-3.16-3.12-5.56,2.1-7.52-.16-14.86-6.73-21.8-5.33-5.62-11.52-8.83-11.58-8.86-1.28-.66-2.18-1.89-2.4-3.31-3.24-20.65-13.82-29.58-21.83-33.42-1.16.95-2.01,2.42-2.29,4.65-.62,4.92,9.84,10.79,10.23,28.32.39,17.53-2.04,17.13-.43,22.39,1.62,5.27,6.6,15.25,4.3,29.01-2.3,13.75-8.93,38.43-8.93,38.43,0,0,43.2,22.64,58.4-11l-5.17-31.24s10.87-9.58,11-25.77c.02-2.46.46-4.9,1.42-7.17,1.47-3.47,3.61-10.13,5.02-21.53,2.31-18.74-.88-18.5,3.94-38.44,2.7-11.18-7.35-12.72-11.73-4.46-2.42,4.59-4.19,15.1-4.19,15.1,0,0-6.63-26.49-11.71-34.96-5.05-8.42-11.67-11.09-15.97-9.7,6.46,8.29,15.42,22.42,21.1,42.42.67,2.39-.71,4.89-3.1,5.56-.42.12-.83.18-1.24.18-1.96,0-3.76-1.3-4.33-3.28-7.55-26.57-21.39-42-25.3-45.97-1.42-.83-3-1.46-4.72-1.75-8.94-1.49-10.93,5.66-7.7,11.19Z" stroke-width="0"/>
  <path d="m73.8,339.32c5.49,12.83,13.22,37.18,13.22,37.18,0,0,48.59-4.25,43.23-40.78l-21.21-23.51s3.98-13.93-4.64-27.62c-1.32-2.09-2.26-4.39-2.67-6.81-.64-3.71-2.42-10.48-7.4-20.84-8.17-17.03-10.71-15.1-17.41-34.48-3.76-10.88-13.06-6.75-12.29,2.57.42,5.06,4.44,14.56,4.61,14.97-.61-.57-20-18.79-28.72-23.11-8.79-4.36-15.81-3.05-18.68.44,9.92,3.49,25.08,10.56,40.65,24.34,1.86,1.65,2.04,4.5.39,6.36-.89,1.01-2.13,1.52-3.37,1.52-1.06,0-2.13-.37-2.98-1.13-20.72-18.33-40.72-23.84-46.12-25.06-1.64.08-3.3.4-4.91,1.08-8.33,3.56-6.16,10.65-.45,13.57,1.5.76,3.17,1.64,4.82,2.52,11.8-.47,33.32,2.22,55.53,22.77,1.82,1.69,1.93,4.55.25,6.37-.89.96-2.1,1.44-3.31,1.44-1.09,0-2.19-.39-3.05-1.19-20.15-18.64-39.29-20.84-49.22-20.41-3.64,2.56-6.04,6.3-1.4,11.09,1.6,1.66,6.35,3.47,10.81,4.9,1-.08,2.03-.12,3.1-.12h.08c9.44,0,23.41,3.18,37.35,18.03,7.79-.26,32.49.7,39.14,22.41.73,2.37-.61,4.9-2.98,5.63-.44.13-.89.2-1.32.2-1.93,0-3.71-1.25-4.32-3.19-2.28-7.47-8.15-12.42-17.42-14.72-7.52-1.86-14.47-1.22-14.54-1.21-1.43.14-2.85-.42-3.81-1.49-13.92-15.69-27.57-17.52-36.37-16.41-.5,1.43-.42,3.14.55,5.2,2.12,4.48,14.11,3.78,23.89,18.33,9.79,14.55,7.53,15.52,11.72,19.07,4.2,3.56,13.78,9.28,19.26,22.1Z" stroke-width="0"/>
  <path d="m330.58,170.15c-4.39-8.26-14.44-6.73-11.73,4.46,4.83,19.93,1.63,19.69,3.94,38.44,1.4,11.39,3.55,18.05,5.02,21.53.96,2.27,1.4,4.71,1.42,7.17.13,16.19,11,25.77,11,25.77l-5.17,31.24c15.2,33.64,58.4,11,58.4,11,0,0-6.63-24.68-8.93-38.43-2.3-13.76,2.68-23.74,4.3-29.01,1.61-5.26-.81-4.86-.42-22.39.39-17.53,10.84-23.41,10.22-28.32-.29-2.24-1.15-3.72-2.33-4.68-8.01,3.81-18.53,12.73-21.79,33.45-.22,1.42-1.12,2.65-2.4,3.31-.06.03-6.26,3.24-11.58,8.86-6.57,6.94-8.83,14.28-6.73,21.8.67,2.4-.73,4.89-3.12,5.56-.41.11-.81.16-1.22.16-1.96,0-3.77-1.3-4.34-3.28-2.99-10.72.14-21.31,9.06-30.62,4.4-4.6,9.17-7.78,11.8-9.36,3.72-20.07,13.82-30.31,21.78-35.38.91-.58,1.81-1.11,2.69-1.58,2.98-3.6,6-7.68,6.46-9.95,1.3-6.54-2.72-8.39-7.16-8.58-8.61,4.99-23.54,17.15-30.45,43.73-.52,2.03-2.35,3.37-4.36,3.37-.37,0-.75-.05-1.13-.14-2.41-.63-3.85-3.09-3.23-5.5,7.61-29.28,24.27-43.15,34.46-49.14.91-1.62,1.84-3.25,2.69-4.71,3.23-5.54,1.24-12.69-7.69-11.19-1.71.29-3.29.92-4.72,1.76-.48.48-1.12,1.14-1.87,1.98-1.78,1.98-4.25,4.94-6.96,8.82-5,7.16-11.91,19.06-16.48,35.15-.56,1.98-2.36,3.28-4.33,3.28-.41,0-.82-.06-1.23-.18-2.39-.67-3.78-3.16-3.1-5.56,5.68-20,14.63-34.13,21.09-42.42-4.31-1.39-10.92,1.29-15.97,9.7-5.08,8.47-11.7,34.96-11.7,34.96,0,0-1.76-10.51-4.2-15.1Z" stroke-width="0"/>
  <path d="m506.5,224.44c-1.6-.68-3.27-1-4.93-1.08-2.26.52-7.03,1.77-13.26,4.35-8.07,3.33-20.32,9.63-32.84,20.72-.86.76-1.93,1.13-2.98,1.13-1.25,0-2.49-.51-3.38-1.52-1.64-1.86-1.47-4.71.39-6.36,15.57-13.78,30.74-20.85,40.65-24.34-2.87-3.49-9.89-4.8-18.68-.44-8.71,4.32-28.1,22.54-28.72,23.11.17-.41,4.2-9.91,4.61-14.97.77-9.32-8.52-13.46-12.28-2.57-6.7,19.38-9.25,17.45-17.42,34.48-4.97,10.35-6.76,17.12-7.39,20.84-.42,2.42-1.36,4.72-2.67,6.81-8.63,13.7-4.65,27.62-4.65,27.62l-21.21,23.51c-5.36,36.53,43.23,40.78,43.23,40.78,0,0,7.74-24.35,13.22-37.18,5.49-12.82,15.07-18.53,19.26-22.1,4.2-3.55,1.93-4.53,11.72-19.07,9.79-14.55,21.77-13.86,23.9-18.33.97-2.04,1.04-3.76.56-5.2-8.79-1.11-22.47.7-36.39,16.41-.96,1.08-2.38,1.63-3.81,1.49-.06-.01-7.02-.65-14.54,1.21-9.27,2.3-15.14,7.25-17.42,14.72-.6,1.94-2.38,3.19-4.31,3.19-.44,0-.88-.07-1.32-.2-2.38-.73-3.72-3.25-2.99-5.63,6.65-21.71,31.35-22.67,39.14-22.41,13.94-14.85,27.91-18.03,37.35-18.03h.08c1.07,0,2.1.04,3.1.12,4.47-1.42,9.21-3.23,10.82-4.9,4.62-4.79,2.24-8.52-1.38-11.08-9.93-.45-29.08,1.73-49.24,20.4-.87.8-1.97,1.19-3.06,1.19-1.21,0-2.42-.48-3.3-1.44-1.69-1.82-1.58-4.68.24-6.37,22.21-20.55,43.72-23.24,55.53-22.77,1.64-.88,3.31-1.76,4.82-2.52,5.71-2.91,7.89-10-.44-13.57Z" stroke-width="0"/>
  <path d="m28.71,184.29l36.18,12.99c.19.07.39.13.58.19.7.19,1.42.29,2.14.29h0c3.37,0,6.4-2.13,7.53-5.3,1.49-4.15-.67-8.75-4.83-10.24l-12.06-4.33c43.99-17.03,65.65-57.25,66.6-59.06,2.06-3.9.56-8.76-3.34-10.82-1.15-.61-2.44-.93-3.73-.93-2.98,0-5.69,1.64-7.08,4.26-.22.41-20.96,38.4-61.13,52.65l7.49-11.2c1.19-1.78,1.61-3.91,1.2-6.01-.42-2.1-1.62-3.91-3.4-5.1-1.32-.89-2.86-1.35-4.45-1.35-2.68,0-5.17,1.33-6.66,3.56l-19,28.41c-1.38,2.06-1.72,4.6-.95,6.95.78,2.36,2.56,4.19,4.9,5.03Z" stroke-width="0"/>
  <path d="m453.94,177.89l-12.06,4.33c-2.01.72-3.62,2.19-4.53,4.12-.91,1.93-1.02,4.11-.29,6.12,1.14,3.17,4.17,5.3,7.53,5.3.72,0,1.44-.1,2.14-.29.19-.05.39-.12.56-.18l36.19-13c2.34-.84,4.12-2.67,4.9-5.03.78-2.36.43-4.89-.95-6.96l-19-28.41c-1.49-2.23-3.98-3.56-6.66-3.56-1.59,0-3.12.47-4.45,1.35-1.78,1.19-2.98,3-3.4,5.1-.42,2.1,0,4.23,1.2,6.01l7.49,11.2c-40.19-14.25-60.91-52.24-61.12-52.64-1.39-2.63-4.1-4.27-7.08-4.27-1.29,0-2.58.32-3.73.93-3.9,2.06-5.4,6.91-3.34,10.82.95,1.8,22.61,42.03,66.6,59.06Z" stroke-width="0"/>
</svg>