<?xml version="1.0" encoding="UTF-8"?>
<svg id="Pencil_Icon" data-name="Pencil Icon" xmlns="http://www.w3.org/2000/svg" viewBox="0 0 512 512">
  <path d="m183.95,139.81c2.16,5.92,4.8,11.53,7.83,16.75,3.45-4.28,9.02-6.91,14.88-6.91,5.45,0,10.35,2.34,13.43,6.43,2.45,3.24,4.83,8.95,2.3,17.76-.71,2.5-1.79,5.37-3.1,8.41,8.31-5.38,15.77-10.18,19.02-12.12,3.14-1.89,6.67-2.89,10.23-2.89,7.86,0,14.91,4.74,17.95,12.08,3.41,8.22,1.06,17.51-6.27,24.85-7.05,7.04-19.09,16.51-29.18,24.07,1.32,1.18,2.51,2.52,3.53,4,3.02,4.34,4.45,9.49,4.27,15.07,3.88,1.83,7.76,4.91,10.01,10.1,1.8,4.02,1.96,10.21.49,18.38-.79,4.36-2.71,12.67-6.71,19.34-4.86,8.09-10.71,10.05-14.77,10.27l-2.36.12c-.89,3.43-2.15,6.77-3.78,9.93-4.6,8.96-14.2,20.55-34.05,26.83l-.69,1.57c19.25,1.85,42.06,2.99,69.03,2.99,15.27,0,29.23-.38,41.96-1.07-.44-.52-.85-1.06-1.23-1.63l-13.78-20.67c-2.66-3.99-3.61-8.79-2.67-13.51.94-4.71,3.67-8.78,7.67-11.45,1.16-.77,2.41-1.41,3.7-1.89-4.14-8.7-11.84-15.48-21.51-18.29-9.53-2.77-15.03-12.78-12.26-22.31,2.23-7.64,9.33-12.97,17.29-12.97,1.7,0,3.39.24,5.02.72,25.45,7.39,44.43,28.75,49.48,54.19.95.12,1.89.31,2.81.58,2.48.72,4.73,1.94,6.7,3.63,7.53,6.47,8.39,17.86,1.93,25.38l-13.68,15.93c79.29-8.26,97.61-28.95,97.61-28.95,0,0-3.27-52.84-48.32-63.67-45.06-10.84-77.43-32.12-77.43-43.22v-26.09c4.6-3.72,8.86-8.01,12.73-12.79,6.7-8.32,12.19-18.14,16.16-29.02,6.48-1.23,13.58-10.75,16.94-23.48,3.91-14.82,1.27-28.37-5.9-30.25-1.39-.37-2.85-.26-4.33.24C331.26,16.5,297.33,0,256.01,0s-75.41,16.57-78.93,86.35c-1.57-.59-3.13-.73-4.61-.34-7.16,1.88-9.8,15.43-5.89,30.25,3.44,13.02,10.78,22.68,17.37,23.55Z" stroke-width="0"/>
  <path d="m125.89,275.15c.14-7.41.28-14.96,1.21-21.71-37.28,14.82-40.15,61.1-40.15,61.1,0,0,2.76,3.5,11.57,8.19,5.53-6.23,20.93-23.58,26.19-29.68.9-2.94,1.07-11.89,1.18-17.9Z" stroke-width="0"/>
  <path d="m277.94,422.83c-6.16,16.68-14.75,35.1-21.18,52.63-1.72,5.18,1.7,8.28,5.96,8.71,6.45-22.32,18.25-46.78,18.84-47.98,2.75-5.92,12-1.44,9.07,4.39-.14.29-12.69,26.3-18.76,48.3,1.18,4.71,7.79,6.36,11.48,3.92,5.81-27,15.93-49.58,16.42-50.67,2.61-5.99,11.96-1.76,9.18,4.15-.11.26-10.3,23.02-15.9,49.37,8.79,8.54,19.4-2.78,19.48-13.46l.02.02c2.47-25.71,10.53-54.06,11.08-56-13.96,8.19-29.34.14-45.7-3.38Z" stroke-width="0"/>
  <path d="m356.09,421.99c-3.55-5.85-5.09-11.49-5.76-15.4-11.31-.61-17.71-7.77-18.02-8.11-4.34-4.84,3.3-11.6,7.56-6.67.28.3,5.38,5.69,14.4,4.59,10.13.74,1.73,10.78,12.88,23.86,0,0,.01,0,.01.01,2.76,1.86,7.04,3.38,12.7,1.33,10.58-3.85-2.88-14.43-3.85-18.27-.96-3.85.97-30.78-14.42-33.66-18.07-3.99-30.34,7-41.31,21.8,12.74,4.76,16.59,21.54,7.25,31.42,3.54-.72,6.81,2.87,5.72,6.34-.12.41-9.01,31.8-10.96,56.92,20.96-7.05,12.01-53.92,33.8-64.16Z" stroke-width="0"/>
  <path d="m389.75,427.11c-6.2,5.99-17.53,7.2-25.27,3.23,0,0-2.22,0-2.22,0l-.19-.25c-9.52,6.31-10.1,13.46-13.33,26.52-2.55,10.58-4.99,20.64-8.93,27.66l20.79,27.72c54.81-5.77,64.43-55.78,64.43-55.78l-35.3-29.11Z" stroke-width="0"/>
  <path d="m162.7,373.99l17.66-40.11c36.54-9.17,40.74-38.34,34-55.45-2.72-5.91,6.6-10.09,9.19-4.12.25.55,4.02,9.15,3.78,21.02,9.45-.5,14.84-28.45,12.31-33.86-2.88-6.74-12.5-6.74-12.5-6.74,5.79-15.51-4.56-25.47-19.23-22.11,0,0,32.21-22.6,45.19-35.58,11.54-11.54,0-24.05-9.61-18.27-8.93,5.35-51.93,33.66-51.93,33.66,0,0,17.31-27.88,21.15-41.35,3.85-13.46-9.62-13.46-13.46-7.69-15.26,22.7-41.34,54.38-58.67,79.81-7.69,11.53-1.92,49.04-7.69,55.78-5.77,6.73-28.85,32.69-28.85,32.69,15.38,30.78,58.66,42.32,58.66,42.32Z" stroke-width="0"/>
  <path d="m259.25,421.96c2.74-9.22-7.03-17.54-7.03-17.54,0,0,37.33,12.39,55.52,15.08,16.14,2.39,19.3-14.34,8.94-18.62-9.61-3.97-57.98-21.63-57.98-21.63,0,0,32.71-2.73,45.82-7.67,13.11-4.94,5.08-15.75-1.84-15.39-27.33,1.3-68.32-.77-99.06.48-13.85.7-40.53,27.68-49.37,27.07-8.84-.62-43.45-3.68-43.45-3.68-15.54,30.69.99,72.32.99,72.32l42.73-9.73c21.2,18.49,42.39,11.88,49.77,8.64,10.06-5.88,14.95-14.27,15.01-14.4,3.14-5.7,12.04-.71,8.79,4.93-.3.53-4.96,8.68-14.63,15.57,6.02,7.27,31.7-5.07,34.52-10.31,3.68-6.33-2.06-14.04-2.06-14.04,0,0,10.97-3.16,13.33-11.09Z" stroke-width="0"/>
  <path d="m300.18,305.81c-2.27-.66-4.71-.29-6.67,1.02-1.78,1.19-2.99,2.99-3.41,5.09-.42,2.1,0,4.23,1.19,6.01l13.78,20.67c1.04,1.57,2.62,2.72,4.42,3.24.57.17,1.16.27,1.75.3,2.48.15,4.93-.89,6.56-2.77l15.74-18.33c2.87-3.35,2.49-8.41-.86-11.28-.87-.75-1.88-1.29-2.98-1.61-3.01-.87-6.27.1-8.31,2.47l-.39.45c-.19-26.29-17.7-50.17-43.6-57.7-4.24-1.23-8.68,1.21-9.92,5.45s1.21,8.68,5.45,9.92c18.58,5.4,31.25,22.16,32.03,40.88l-.38-.56c-1.04-1.57-2.61-2.72-4.42-3.24Z" stroke-width="0"/>
</svg>