<?xml version="1.0" encoding="UTF-8"?>
<svg id="Please_Icon" data-name="Please Icon" xmlns="http://www.w3.org/2000/svg" viewBox="0 0 512 512">
  <path d="m370.88,334.24c-15.88-3.47-62.94-8.55-62.94-8.55,0,0,104.84-7.19,121.43-9.55,17.73-2.52,24.19-24.26,11.18-36.03l-128.33,3.44c-2.51.07-4.61-1.9-4.72-4.41v-.07c-.07-2.54,1.93-4.65,4.47-4.72l133.62-3.58c4.63-.71,9.2-1.44,12.53-2.01,25.52-4.42,25.27-37.02.55-40.46-8.43-1.17-148.63,1.28-148.63,1.28-2.55.11-4.69-1.87-4.79-4.41-.11-2.54,1.86-4.69,4.41-4.79l117.69-4.92c2.84-3.61,4.77-8.11,3.96-13.39-3.12-20.27-30.53-21.43-55.1-21.34-24.27.09-113.8,3.39-118.69-5.49-5.79-10.51,54.82-25.25,64.25-40.17,12.01-18.99,1.02-29.11-11.11-25.24-12.13,3.86-55.23,16.91-86.25,22.1-57.54,9.63-67.68,27.75-94.76,61.42-5.23,6.51-13.06,10.34-21.41,10.51-16.46.33-44.1-.3-64.97-6.79,0,0-22.6,74.19,5.92,141.43,0,0,56.35-15.51,79.69-18.73,23.33-3.21,18.22,35,92.19,39.73,73.97,4.73,129.2,6.89,146.67,6.16,23.43-.98,24.59-26.74,3.16-31.43Z" stroke-width="0"/>
  <path d="m16.35,263.68c-.8-47.1,14.7-92.15,43.89-128.36l-5.34,18.75c-1.23,4.3,1.28,8.8,5.58,10.02.73.21,1.48.31,2.23.31,3.6,0,6.81-2.42,7.8-5.89l14.57-51.11c.85-2.97-.04-6.12-2.32-8.21-1.5-1.37-3.45-2.13-5.48-2.13-.99,0-1.97.18-2.9.54l-47.51,18.17c-2.02.77-3.62,2.29-4.51,4.27-.88,1.98-.94,4.18-.17,6.21,1.19,3.12,4.24,5.21,7.58,5.21.99,0,1.97-.18,2.9-.54l14.84-5.67C16.78,163.39,0,210.86,0,260.26c0,57.58,22.42,111.71,63.13,152.42,1.53,1.53,3.57,2.38,5.74,2.38s4.2-.84,5.74-2.38c1.53-1.53,2.38-3.57,2.38-5.74s-.84-4.2-2.38-5.74c-36.68-36.69-57.37-85.53-58.25-137.53Z" stroke-width="0"/>
  <path d="m482.24,380.54c-.99,0-1.97.18-2.9.54l-14.84,5.67c30.71-38.14,47.49-85.6,47.49-135,0-57.58-22.42-111.71-63.13-152.42-1.53-1.53-3.57-2.38-5.74-2.38s-4.2.84-5.74,2.38c-3.16,3.16-3.16,8.31,0,11.47,36.68,36.69,57.37,85.53,58.25,137.53.8,47.1-14.7,92.15-43.88,128.36l5.34-18.75c.59-2.08.34-4.27-.71-6.17-1.05-1.89-2.78-3.26-4.86-3.86-.73-.21-1.48-.31-2.23-.31-3.6,0-6.81,2.42-7.8,5.89l-14.57,51.11c-.85,2.97.04,6.12,2.32,8.2,1.5,1.37,3.45,2.13,5.48,2.13.99,0,1.97-.18,2.9-.54l47.51-18.17c2.02-.77,3.63-2.29,4.51-4.27s.94-4.18.17-6.21c-1.19-3.12-4.24-5.21-7.58-5.21Z" stroke-width="0"/>
</svg>