<?xml version="1.0" encoding="UTF-8"?>
<svg id="Sit_Icon" data-name="Sit Icon" xmlns="http://www.w3.org/2000/svg" viewBox="0 0 512 512">
  <path d="m242.49,164.5c.67-1.7,2.23-2.9,4.04-3.12,1.82-.22,3.61.57,4.68,2.06l11.68,16.4c6.83,3.22,12.72,7.71,17.43,12.09,4-6.44,11.36-18.14,19.17-29.68.61-.9,1.22-1.77,1.85-2.62-10.22-20.45-25.04-28.52-25.98-29.02-2.44-1.28-3.39-4.3-2.11-6.74,1.27-2.44,4.27-3.4,6.72-2.13,1.04.54,16.72,8.92,28.39,29.76,8.19-8.02,17.5-12.33,27.81-12.88-9.88-23.66-26.53-38.67-26.78-38.89-2.07-1.83-2.26-4.99-.43-7.06,1.82-2.07,4.98-2.26,7.05-.44.96.85,13.67,12.26,23.99,31.03-2.11-10.67-3.86-22.78-4.46-35.39-1.75-1.71-3.37-3.18-4.82-4.43-6.97-5.99-11.68-8.29-11.72-8.31-2.48-1.2-3.54-4.18-2.35-6.67,1.19-2.48,4.15-3.54,6.64-2.36.4.19,5.13,2.48,12.14,8.24.57-10.77,3.26-19.09,6.34-25.23-6.66-1.98-13.35-4.26-20.01-6.88-25.36-9.97-50.73-18.12-96.63,8.46-45.9,26.57-112.34,43.48-125.05,56.8C68.1,140.98,2.88,161.81,2.88,161.81c-18.73,76.7,60.05,117.52,60.05,117.52,22.01-32.86,56.51-53.75,56.51-53.75,46.41,8.84,79.97-11.59,95.47-24.11-.07-4.08.61-7.87,2.07-11.25,1.92-4.46,6.97-12.06,19.43-14.3,4.14-6.64,6.04-11.33,6.08-11.42Z" stroke-width="0"/>
  <path d="m439.53,102.02c42.27-7.25,41.17-37.6,18.11-38.65-13.75-.63-35.28-.6-60.3-3.37,1.89,10.43,5.74,25.74,11.37,45.21,10.12-.47,20.64-1.45,30.82-3.19Z" stroke-width="0"/>
  <path d="m512,381.81s-39.86-32.61-50.73-51.94-2.42-129.24-21.14-145.55c-3.48-3.03-9.86-6.28-17.68-9.55l-75.1-25.03c-.08-.03-.17-.06-.25-.1-13.55-3.25-27.21.32-39.33,18.22-7.35,10.86-14.55,22.23-19.47,30.18-3.53,7.8-7.67,18.62-7.25,24.58.24,3.53,1.07,10,2.03,17.49,1.82,14.18,3.88,30.24,3.61,38.24-.12,3.54,3.22,6.36,6.58,7.58,3.23,1.16,7.87,1.34,11-1.66,1.02-9.49,6.11-56.69,8.33-69.97,1.16-6.95,4.54-12.27,10.05-15.81,10.83-6.95,29.73-6.65,57.79.93,2.66.72,4.24,3.47,3.52,6.14-.72,2.66-3.46,4.24-6.13,3.52-30.92-8.36-44.14-5.8-49.77-2.18-3.13,2.01-4.9,4.88-5.6,9.04-2.36,14.19-8.35,70.41-8.41,70.98-.02.12-.05.24-.07.37-.01.05,0,.09-.02.14-.03.18-2.37,11.79,2.98,18.78.81-2.59,1.65-5.3,2.5-8.05,7.94-25.72,13.21-41.66,19.34-46.04,8.99-6.42,52.71-12.93,61.39-14.17,2.72-.39,5.26,1.51,5.65,4.25.39,2.73-1.51,5.26-4.24,5.65-20.56,2.94-51.84,8.73-56.99,12.41-3.91,2.99-11.51,27.62-15.6,40.85-3.71,12.03-6.92,22.41-9.47,27.16-2.39,4.44-2.13,10.09.64,13.74,2.96,3.91,8.36,5.13,15.61,3.51,9.41-2.09,17.01-12.25,21.73-20.41,1.96-3.4,3.6-6.74,4.89-9.63,1.9-5.89,3.72-9.4,3.86-9.68.02-.03.05-.06.07-.1.12-.22.26-.43.42-.63.03-.05.07-.1.11-.15.17-.21.37-.4.58-.58.06-.06.13-.11.2-.16.18-.14.36-.26.56-.38.05-.03.11-.06.16-.09.25-.13.5-.24.76-.32.08-.03.15-.04.22-.07.1-.02.21-.06.31-.08l37.74-7.99c2.7-.57,5.36,1.16,5.93,3.86s-1.16,5.36-3.86,5.93l-34.99,7.4c-.61,1.65-1.52,3.94-2.69,6.6-1.56,4.94-3.18,11.75-3.68,19.74-1.38,22.09,6.02,42.35,22.02,60.23,1.84,2.06,1.66,5.22-.4,7.06-.95.85-2.14,1.27-3.33,1.27-1.37,0-2.74-.56-3.73-1.66-20.63-23.07-25.04-46.77-24.69-63.83-5.43,6.39-12.11,11.68-20.02,13.44-2.94.65-5.59.93-7.98.93-9.88,0-15.25-4.83-17.77-8.17-5.13-6.78-5.73-16.63-1.48-24.52.79-1.46,1.73-3.84,2.78-6.82-5.59-4.09-8.98-10.55-9.85-18.86-.07-.66-.12-1.3-.15-1.93-1.84.54-3.77.82-5.76.82-2.57,0-5.23-.46-7.86-1.41-8.26-2.99-13.43-9.79-13.18-17.32.25-7.19-1.85-23.51-3.53-36.63-.98-7.64-1.82-14.25-2.09-18.06-.43-6.09,2.05-14.45,4.86-21.71-7.35-7.46-20.78-18.07-36.31-16.08-20.47,2.62-17.87,23.57-2.87,44.16,55.41,76.02,40.44,89.55,54.21,119.51,20.53,44.69,56.77,47.1,71.26,59.18,14.5,12.08,30.2,60.4,30.2,60.4,0,0,53.75,27.17,86.97-6.04,33.21-33.22,32.61-80.93,32.61-80.93Z" stroke-width="0"/>
  <path d="m415.82,162.02c-2.89-8.86-7.1-21.94-11.44-36.22-7.87-25.88-16.19-55.68-18-71.37-3.62-31.36-41.07-18.07-41.07,24.2,0,24.19,5.02,47.49,9.32,62.99l61.19,20.4Z" stroke-width="0"/>
</svg>