<?xml version="1.0" encoding="UTF-8"?>
<svg id="Point_Icon" data-name="Point Icon" xmlns="http://www.w3.org/2000/svg" viewBox="0 0 512 512">
  <path d="m510.83,438.28s-29.98-12.75-39.99-22.55c-10.01-9.79-24.27-77.89-38.52-84.47,0-.29-57.17-4.35-57.24-4.51-.58-.02-1.13-.06-1.6-.09-21.55-3.5-26.54,23.59-31.06,39.8.49,13.18,1.12,14.73,5.99,25.47,3.64,8.33,7.75,17.79,9.03,22.82,1.3,2.41,5.25,3.04,7.99.53-4.28-36.33-24.71-66.17,33.34-66.22,6.43-.09,6.55,9.96.09,9.98-22.74,1.28-30.39,3.12-30.63,11.84,2.37,15.15,6.61,43.82,8.97,50.67.33-18.85.83-28.56,4.04-32.54,4.48-5.67,28.3-16.68,35.5-19.92,5.86-2.74,10.1,6.51,4.12,9.1-34.5,17.81-33.21,8.64-33.63,43.39.89,11.41-3.51,20.92,1.1,24.83,11.93,4.15,16.67-12.39,18.04-22.14.61-6.4-.18-6.31,2.09-9.38.33-.33.72-.58,1.12-.82l21.52-11.47c5.67-3.14,10.52,5.83,4.73,8.81,0,0-19.05,10.15-19.05,10.15-1.22,13.42.54,31.35,23.97,47,2.35,1.47,3.06,4.55,1.59,6.88-9.41,11.04-33.42-26.14-32.61-29.47-10.85,18.95-38.86,12.47-32.96-11.05-3.78-1.76-6.77-4.97-8.76-9.43-21.07,7.08-20.81-14.61-28.8-29.58-4.97-10.91-6.18-14.26-6.74-26.91-20.48-10.66-42.92,5.33-15.75,25.49,47.08,36.32,40.36,47.15,54.01,62.89,39.26,38.48,48.37-.39,82.75,54.61,33.36.53,66.23-43.83,57.34-73.72Z" stroke-width="0"/>
  <path d="m195.27,140.72c27.42-20.41,4.26-36.32-16.16-25.29-.19,12.84-1.37,15.76-6.33,26.71-7.97,14.96-7.75,36.66-28.8,29.58-1.99,4.47-4.98,7.67-8.76,9.42,5.9,23.54-22.12,30.01-32.96,11.06.89,3.19-23.23,40.56-32.61,29.47-1.47-2.34-.75-5.43,1.59-6.89,23.45-15.67,25.16-33.55,23.97-47l-19.05-10.15c-5.77-2.99-.96-11.96,4.72-8.81,2.33,1.96,24.26,11.03,24.04,14.76.76,9.52,4.16,34.03,18.74,29.05,4.61-3.82.21-13.53,1.1-24.82-.41-34.74.84-25.6-33.64-43.39-5.95-2.57-1.75-11.88,4.13-9.1,7.2,3.24,31.01,14.25,35.5,19.92,3.2,3.97,3.73,13.68,4.03,32.54,2.34-6.7,6.62-35.64,8.98-50.67-.24-8.73-7.89-10.55-30.64-11.84-6.5,0-6.28-10.24.19-9.99,57.98.09,37.5,30.04,33.23,66.22,2.73,2.54,6.7,1.87,7.99-.52,1.29-5.05,5.4-14.49,9.04-22.82,8.57-14.97,5.9-30.08-.57-47.38-5.47-16.63-15.8-18.95-28.02-17.73-9.86.89-47.21.13-55.32,4.43-14.25,6.59-28.5,74.67-38.52,84.47-10.01,9.79-39.99,22.55-39.99,22.55-8.91,30.2,24.26,74.29,57.34,73.72,34.49-55.09,43.4-16.07,82.75-54.61,13.64-15.74,6.94-26.56,54.01-62.89Z" stroke-width="0"/>
  <path d="m155.94,30.11c7.46-25.62-12.96-40.25-20.7-21.89-5.44,12.93-23.67,40.55-33.99,55.77l40.35-1.44c4.93-8.46,10.68-19.94,14.33-32.45Z" stroke-width="0"/>
  <path d="m355.66,264.79s0-.02.01-.02c-5.17,15.64,8.09,39.6,14.73,51.6l41.55,3.22c-10.02-14.74-29.54-44.12-35.21-57.58-4.62-10.99-13.78-10.16-18.8-2.24,2.03-7.54-2.56-13.91-13.15-11.92-13.76,2.6-46.68,2.7-65.15,2.52l23.9,32.72c14.09-1.09,43.47-3.81,52.11-18.29Z" stroke-width="0"/>
  <path d="m262.95,323.95c-7.38,3.71-33.28,14.94-40.11,17.9-.6,3.68,2.14,6.61,4.85,6.36,4.92-1.72,15.09-3.51,24.07-5.09,16.83-1.08,28.71-12.3,39.32-26.62,10.89-13.75,7.13-23.59-.64-33.09-5.93-7.72-26.27-39.18-34.23-43.55-13.38-8.21-78.19,17.52-91.91,14.6-13.72-2.92-40.93-20.81-40.93-20.81-30.01,9.17-48.83,60.99-30.02,88.36,65.04-1.75,37.28,27.12,91.36,38.67,20.69,2.66,26.04-8.9,82.4,10.2,32.84,11.4,32.61-16.6,11.88-27.62-9.82,7.02-13.89,7.88-25.48,9.69-16.59,1.74-35.32,13.57-40.61-7.61-4.38.81-9.12.19-12.73-2.08-16.08,17.68-37.35-1.31-27.45-21.3-5.62,3.19-47.23,1.83-42.65-10.86,1.15-2.51,4.12-3.62,6.64-2.47,26.06,10.84,41.95,2.41,52.55-6.01l-2.02-21.45c-.7-6.43,9.47-7.41,9.97-.94-.37,3.12,4.26,26.31.84,28.23-7.55,5.79-26.04,22.19-13.87,31.53,5.76,1.72,11.42-7.29,21.37-12.78,28.79-19.48,21.91-13.44,17.73-51.92-1.15-6.37,8.96-8.03,9.89-1.6,1.26,7.77,5.2,33.66,2.94,40.5-1.55,4.85-9.39,10.66-24.99,21.32,6.88-1.76,33.45-14.15,47.33-20.5,7.16-5,4.48-12.38-7-32.01-3.57-5.41,5.07-10.89,8.46-5.36,12.39,21.32,19.51,35.13,3.07,46.29Z" stroke-width="0"/>
  <path d="m208.34,99.01c37.83,23.41,67.23,56.84,85.48,97.07l-12.36-7.97c-1.3-.84-2.8-1.28-4.34-1.28-2.73,0-5.25,1.36-6.73,3.65-1.16,1.79-1.56,3.93-1.11,6.02.45,2.09,1.69,3.88,3.49,5.04l36.07,23.27c1.27.87,2.76,1.33,4.32,1.33,4.35,0,7.98-3.42,8.1-7.52l2.67-44.62c.13-2.13-.59-4.19-2.01-5.79-1.42-1.6-3.38-2.54-5.51-2.67-.16,0-.32-.01-.48-.01-4.23,0-7.74,3.3-7.99,7.52l-.82,13.63c-19.64-41.87-50.67-76.71-90.29-101.23-1.34-.86-2.76-1.29-4.24-1.29-3.48,0-6.73,2.61-7.72,6.2-.96,3.48.38,6.8,3.48,8.66Z" stroke-width="0"/>
</svg>