<?xml version="1.0" encoding="UTF-8"?>
<svg id="Question_Icon" data-name="Question Icon" xmlns="http://www.w3.org/2000/svg" viewBox="0 0 512 512">
  <path d="m323.49,142.77c18.97,15.92,37.53,32.72,41.16,36.02,2.04,1.86,2.19,5.01.33,7.05-1.85,2.05-5,2.2-7.05.34-25.4-23.1-69.38-60.96-79.21-64.23-4.08-1.37-7.58-.69-9.83,1.91-2.55,2.94-4.03,9.34.16,17.71,7.87,15.76,33.73,36.82,33.99,37.03,1.88,1.53,2.4,4.17,1.24,6.29-.22.39-21.49,39.87-5.41,62.39,1.6,2.25,1.08,5.36-1.16,6.96-.88.63-1.9.93-2.91.93-1.55,0-3.09-.72-4.06-2.09-8.92-12.48-9-28.21-6.32-41.88-2.57.65-5.16.99-7.75.99-3.87,0-7.7-.73-11.28-2.22-.88-.37-1.74-.78-2.59-1.22-4,2.21-8.6,3.33-13.36,3.33-4.04,0-8.21-.81-12.22-2.44-1.46-.6-2.85-1.29-4.18-2.04-.1.08-.19.17-.3.24-7.07,4.5-13.88,6.76-20.32,6.76-2.71,0-5.33-.39-7.9-1.19-.57,8.55-.76,36.62,19.57,51.86,24.17,18.13,42.31,8.46,62.86,8.46s41.1,7.26,68.91-3.62c27.8-10.88,33.84-48.36,22.97-107.59-10.88-59.23-9.68-114.84-7.25-139.01,2.42-24.17-37.47-36.27-48.36-3.62-10.88,32.64-9.66,80.96-6.04,107.59.56,4.1,5.08,13.6,6.32,15.29Z" stroke-width="0"/>
  <path d="m207.11,203.77c5.19,1.73,10.9.85,17.39-2.67-10.54-10.45-15.66-25.84-17.97-35.62-2.15-9.05-3.08-17.16-2.81-24.31-6.19,3.16-13.37,9.81-14.7,23.76-.99,10.41,1.47,20.01,4.72,27.71,4.16,5.82,8.63,9.55,13.36,11.12Z" stroke-width="0"/>
  <path d="m240.97,200.39c4.7,1.91,9.09,2.01,12.63,1.22-7.53-8.06-13.18-20.57-16.86-37.4-4.19-19.18-1.96-34.72,1.67-45.89-8.14.83-18.33,4.62-24.05,17.22-1.31,7.4-.69,16.74,1.9,27.66,4.59,19.37,13.37,32.59,24.72,37.19Z" stroke-width="0"/>
  <path d="m269.23,200.75c7.68,3.2,14.8.46,18.25-1.38,2.13-6.68,4.54-12.2,6.17-15.61-7.5-6.42-26.37-23.4-33.54-37.73-5.34-10.68-4.87-21.7,1.23-28.73,4.92-5.67,12.6-7.49,20.53-4.84,4.56,1.52,13.3,7.62,23.46,15.55-2.05-6.15-3.9-13.62-5.01-22.46-4.92-3.3-10.95-5.15-18.21-4.67-45.44,2.97-39.74,42.33-35.62,61.19,4.59,21.03,12.46,34.41,22.74,38.68Z" stroke-width="0"/>
  <path d="m362.81,308.8c-4.83-22.97-47.86-22.35-54.4-9.68-4.9,9.5-10.93,28.46-13.65,37.37-.81,6.25-.47,12.14,2.06,16.23,2.53,4.09,7.31,6.08,14.62,6.08,21.14,0,28.93-29.77,29.01-30.06.67-2.68,3.38-4.29,6.05-3.62,2.68.67,4.29,3.37,3.63,6.05-.1.38-2.38,9.33-8.02,18.35-7.87,12.59-18.46,19.25-30.62,19.27,22.35,18.02,48.51,41.7,52.88,45.67,2.04,1.86,2.19,5.01.34,7.06-1.86,2.04-5.01,2.19-7.06.33-25.4-23.1-69.37-60.95-79.21-64.23-4.08-1.36-7.58-.68-9.83,1.92-2.55,2.94-4.03,9.34.16,17.71,7.88,15.75,33.73,36.82,34,37.03,1.87,1.52,2.39,4.16,1.23,6.28-.21.39-21.49,39.88-5.41,62.39,1.61,2.25,1.08,5.36-1.16,6.97-.88.63-1.9.93-2.9.93-1.56,0-3.1-.73-4.07-2.1-8.91-12.47-9-28.21-6.32-41.87-2.57.64-5.16.99-7.74.99-3.88,0-7.71-.74-11.28-2.22-.89-.37-1.75-.78-2.6-1.23-4,2.21-8.6,3.34-13.36,3.34-4.04,0-8.21-.81-12.22-2.44-1.46-.59-2.85-1.28-4.18-2.04-.1.08-.19.17-.3.24-7.07,4.5-13.88,6.77-20.32,6.77-2.71,0-5.33-.4-7.9-1.2-.57,8.55-.76,36.62,19.57,51.86,24.17,18.13,42.31,8.47,62.86,8.47s41.1,7.25,68.91-3.63c27.8-10.87,33.17-48.23,22.97-107.58-7.27-42.28-12.55-74.32-15.73-89.42Z" stroke-width="0"/>
  <path d="m281.6,348.15c.99.33,2.19.88,3.54,1.62-.72-3.47-.91-7.37-.57-11.68-2.32-.46-25.97-3.58-36.03,16.25-5.3,10.46-6.46,24.55-2.34,43.41,4.6,21.04,12.46,34.41,22.74,38.68,7.68,3.2,14.8.46,18.25-1.37,2.13-6.68,4.54-12.2,6.18-15.62-7.5-6.41-26.38-23.39-33.55-37.73-5.34-10.68-4.86-21.69,1.23-28.72,4.93-5.68,12.6-7.49,20.54-4.84Z" stroke-width="0"/>
  <path d="m214.07,371.23c-1.3,7.4-.67,16.74,1.91,27.64,4.59,19.38,13.37,32.59,24.72,37.2,4.7,1.91,9.1,2,12.64,1.21-7.54-8.05-13.19-20.56-16.87-37.4-4.19-19.19-1.96-34.74,1.67-45.9-8.14.84-18.34,4.63-24.06,17.25Z" stroke-width="0"/>
  <path d="m224.23,436.8c-10.54-10.46-15.66-25.84-17.97-35.62-2.15-9.05-3.08-17.16-2.81-24.31-6.19,3.16-13.37,9.81-14.7,23.76-.99,10.4,1.47,20,4.72,27.7,4.16,5.83,8.63,9.55,13.37,11.12,5.18,1.73,10.89.86,17.38-2.66Z" stroke-width="0"/>
  <path d="m181.67,321.12c-.75-.23-1.53-.34-2.31-.34-3.47,0-6.6,2.32-7.61,5.65l-4.29,14.2c-12.17-42.54-11.42-87.08,2.26-129.42.65-2.02.48-4.18-.49-6.07-.97-1.89-2.61-3.29-4.63-3.94-.79-.26-1.62-.39-2.45-.39-3.46,0-6.5,2.21-7.56,5.51-14.34,44.36-15.42,91.01-3.25,135.69l-9.55-10c-1.49-1.56-3.59-2.46-5.75-2.46s-4,.78-5.49,2.2c-3.17,3.03-3.29,8.07-.26,11.24l30.89,32.35c1.49,1.56,3.59,2.46,5.75,2.46.14,0,.29,0,.44-.01.48-.03.95-.1,1.41-.21,2.74-.65,4.95-2.73,5.77-5.43l12.44-41.11c1.27-4.2-1.11-8.64-5.31-9.91Z" stroke-width="0"/>
</svg>