<?xml version="1.0" encoding="UTF-8"?>
<svg id="Right_Icon" data-name="Right Icon" xmlns="http://www.w3.org/2000/svg" viewBox="0 0 512 512">
  <path d="m454.88,311.52c13.71-81.11,57.12-206.78,57.12-206.78-75.46-63.51-150.72-9.49-151.3-95.97h-83.54c-.56,86.47-75.83,32.47-151.3,95.97,0,0,5.46,15.81,13.12,39.83,9.66-3.27,20.76,2.87,22.93,12.98.01.05.03.09.04.14h40.59c9.92,0,17.99,8.07,17.99,17.99s-8.07,17.99-17.99,17.99h-40.56c-.8,3.46-2.74,6.74-5.29,9.11,37.82,123.38,37.21,188.91,11.44,268.69,79.84,42.66,222.3,42.66,301.6,0,0,0-28.55-78.84-14.85-159.95Zm-121.35-28.75c-2,22.95-15.58,40.11-24.57,51.46-3.05,3.85-6.21,7.83-7.15,9.96-3.59,8.29-9.05,40.88-11.43,58.02l-7.81,1.3c-38.64,6.87-77.15-15.29-86.57-22.34l19.39-51.72c-13.48-17.88-19.61-42.94-20.11-67.05-1.16-16.71-2.01-28.8,5.73-39.14,3.26-4.43,8.9-5.3,13.82-3.31-3.13-13.66,8.32-28.71,22.77-28.67,3.06-.06,6.33.8,9.32,1.86,1.54,1.24,3.26,2.61,4.72,3.88l.62-3.1c-7.04-19.11-13.3-38.56,1.1-52.96,6.65-6.34,13.89-6.18,20.22-2.7,4.58-10.11,13.17-19.88,24.59-19.73,14.71.07,23.05,14.86,19.05,29.04-1.38,5.51-5.82,32.66-8.79,51.67,6.64,12.94,27.49,56.11,25.1,83.53Z" stroke-width="0"/>
  <path d="m306.68,144.94c3.69-14.79-9.87-20.96-18.51-9.86-8.63,11.1-9.86,25.89-9.86,25.89,0,0-9.23-20.36-17.27-12.32-9.87,9.87-4.93,24.42,2.47,44.39l-2.43,12.16c11.94,13.79,15.02,26.62,15.77,33.33,11.12,3.4,22.48,7.3,24.54,8.01,7.28,2.8,3.62,13.43-3.84,11.14-5.77-1.99-17.83-6.02-27.91-9.02-.03-.01-.07-.02-.1-.02-5.42-1.62-10.26-2.92-13.23-3.46-.03.82.09,1.93.38,3.22.45,1.09.76,2.09.95,3,1.31,3.33,3.64,7,7.23,9.3,10.96,7.06,17.57,9.36,17.64,9.38,5.57,1.89,5.16,10.05-.6,11.32-14.38,4.2-21.18,17.19-13.43,36.93,1.14,3.04-.4,6.44-3.45,7.59-2.96,1.12-6.44-.37-7.57-3.44-7.3-19.22-4.89-36.25,9.56-46.76-4.06-2.37-9.81-5.28-13.45-9.28-7.98,8.08-27.02,2.88-32.76.52-3.04-1.16-4.58-4.55-3.41-7.6,1.15-3.04,4.54-4.56,7.59-3.42,10.13,3.83,18.35,3.63,20.4,2.03.82-.64.92-2.12.83-3.44-.35-.96-.66-1.92-.9-2.89-2.63-4.9-11.88-15.11-35.59-21.85-6.43,8.6-4.11,20.81-2.92,42.19,1.24,22.19,9.87,43.15,20.96,55.49l-18.5,49.33s34.54,22.2,71.53,16.03c0,0,6.16-41.93,11.1-53.02,4.93-11.1,28.36-29.59,30.83-57.95,2.47-28.36-25.57-80.72-25.57-80.72,0,0,7.42-47.7,9.54-56.16Z" stroke-width="0"/>
  <path d="m247.77,236.32c4.5-4.72,10.13-2.98,16.52-1.39-1.91-7.6-7.34-19.82-22.65-32.09-3.35-1.12-6.86-1.03-10.18,1.29-8.89,6.22-6.25,15.01-4.08,19.42,9.06,3.93,15.68,8.41,20.39,12.77Z" stroke-width="0"/>
  <path d="m101.29,144.94c3.69-14.79-9.87-20.96-18.51-9.86-8.63,11.1-9.86,25.89-9.86,25.89,0,0-9.23-20.36-17.27-12.32-9.87,9.87-4.93,24.42,2.47,44.39l-2.43,12.16c11.94,13.79,15.02,26.62,15.77,33.33,11.12,3.4,22.48,7.3,24.54,8.01,7.28,2.8,3.62,13.43-3.84,11.14-5.77-1.99-17.83-6.02-27.91-9.02-.03-.01-.07-.02-.1-.02-5.42-1.62-10.26-2.92-13.23-3.46-.03.82.09,1.93.38,3.22.45,1.09.76,2.09.95,3,1.31,3.33,3.64,7,7.23,9.3,10.96,7.06,17.57,9.36,17.64,9.38,5.57,1.89,5.16,10.05-.6,11.32-14.38,4.2-21.18,17.19-13.43,36.93,1.14,3.04-.4,6.44-3.45,7.59-2.96,1.12-6.44-.37-7.57-3.44-7.3-19.22-4.89-36.25,9.56-46.76-4.06-2.37-9.81-5.28-13.45-9.28-7.98,8.08-27.02,2.88-32.76.52-3.04-1.16-4.58-4.55-3.41-7.6,1.15-3.04,4.54-4.56,7.59-3.42,10.13,3.83,18.35,3.63,20.4,2.03.82-.64.92-2.12.83-3.44-.35-.96-.66-1.92-.9-2.89-2.63-4.9-11.88-15.11-35.59-21.85-6.43,8.6-4.11,20.81-2.92,42.19,1.24,22.19,9.87,43.15,20.96,55.49l-18.5,49.33s34.54,22.2,71.53,16.03c0,0,6.16-41.93,11.1-53.02,4.93-11.1,28.36-29.59,30.83-57.95,2.47-28.36-25.57-80.72-25.57-80.72,0,0,7.42-47.7,9.54-56.16Z" stroke-width="0"/>
  <path d="m42.38,236.32c4.5-4.72,10.13-2.98,16.52-1.39-1.91-7.6-7.34-19.82-22.65-32.09-3.35-1.12-6.86-1.03-10.18,1.29-8.89,6.22-6.25,15.01-4.08,19.42,9.06,3.93,15.68,8.41,20.39,12.77Z" stroke-width="0"/>
  <path d="m202.54,183.67c4.4,0,7.99-3.58,7.99-7.99s-3.58-7.99-7.99-7.99h-52.8c4.76-4.05,2.86-12.23-3.25-13.72-2.06-.54-4.22-.25-6.06.82l-23.98,13.98c-5.24,2.94-5.23,10.86,0,13.8,0,0,23.98,13.98,23.98,13.98,8.44,4.66,16.37-6.37,9.31-12.89h52.8Z" stroke-width="0"/>
</svg>