<?xml version="1.0" encoding="UTF-8"?>
<svg id="Share_Icon" data-name="Share Icon" xmlns="http://www.w3.org/2000/svg" viewBox="0 0 512 512">
  <path d="m289.34,237.31l8.92,2.07c1.36-9.42,2.24-19.27,3.14-29.58,1.63-18.66,18.41-98.87.36-111.48-13.36-9.33-24.54,2.71-28.29,20.77-2.07,9.97-5.1,21.5-8.02,31.76-.16.54,3.54,6.64,5.04,8.96.98,1.5,23.1,36.07,18.85,77.49Z" stroke-width="0"/>
  <path d="m101,108c14.29,21.47,39.04,65.51,39.4,113.4,8.85,3.16,30.26,13.36,37.83,39.67,1.01,3.52,1.74,7.22,2.17,11.06,12.5,1.78,26.04,3.6,38.82,5.21-17.49-11.56-22.26-19.23-24.25-24.29-6.31-16.11-3.15-26.09.61-31.6,4-5.88,10.51-9.25,17.85-9.25,4.3,0,8.75,1.18,12.85,3.41,7.52,4.09,29.43,12.8,53.09,19.39,3.64-39.52-21.65-76.93-20.95-78.5-1.71-83-32.26-130.23-53.48-130.23-7.7,0-13.08,2.08-16.78,4.68,5.29,9.89,12.42,23.82,19.58,39.57,18.97,41.78,29.16,75.87,30.26,101.35.12,2.76-2.01,5.11-4.77,5.23h-.22c-2.67,0-4.88-2.1-5-4.79-1.83-42.23-28.03-101.91-47.46-131.73C168.33,21.83,141.98-2.69,123.19.24c-19.13,2.99-16.21,24.38-11.48,32.53.73,1.26,1.57,2.69,2.48,4.2t0,.01c6.27,5.5,17.49,16.4,29.56,33.14,16.49,22.87,37.73,61.5,45.26,115.64.38,2.74-1.53,5.28-4.27,5.66-.23.03-.46.04-.69.04-2.46,0-4.6-1.8-4.95-4.32-7.21-51.89-27.47-88.9-43.2-110.8-8.23-11.48-16.12-20.12-22.1-26.01-22.25-6.65-41.83,8.05-26.83,35.09,4.55,8.2,14.01,22.57,14.02,22.57Z" stroke-width="0"/>
  <path d="m76.61,252.26c-2.16,9.67-3.63,17.68.12,15,6.32-4.52,14.86-6.8,25.53-6.8,11.47,0,24.12,2.49,36.36,4.91l2.14.42c6.78,1.32,17.23,3.02,29.35,4.84-.36-2.34-.86-4.61-1.48-6.79-7.85-27.26-34.15-33.84-34.41-33.9-2.29-.55-3.88-2.61-3.84-4.97.91-46.41-24.17-90.84-38.05-111.79-12.23-5.98-27.1-5.73-29.89,13.8-2.65,18.59,14.34,18.91,17.21,89.2.55,13.54-.69,25.54-3.04,36.08Z" stroke-width="0"/>
  <path d="m495.31,360.36c-23.8,2.66-53.67-2.35-71.39-6.11-9-1.91-16.75-7.66-21.06-15.8-22.24-42.02-58.23-82.14-89.57-86.07-34.3-4.31-79.48-21.28-91.78-27.97-12.3-6.69-26.25,1.95-17.23,24.97,7.1,18.09,64.3,42.95,64.3,42.95-20.7-.46-103.56-11.59-129.74-16.71-26.5-5.2-55.87-11.61-63.43,9.65-1.98,5.57-.81,10.85,1.53,15.36l125.98,29.73c2.69.64,4.36,3.33,3.72,6.03-.54,2.3-2.59,3.86-4.86,3.86-.38,0-.76-.04-1.15-.13,0,0-138.65-34.39-160.19-32.16-27.3,2.83-34.43,33.76-7.79,43.84,3.57,1.35,8.56,3.15,13.57,4.94h.01l143,31.48c2.7.6,4.41,3.26,3.81,5.97-.51,2.34-2.58,3.94-4.87,3.94-.36,0-.72-.04-1.08-.12l-137.75-30.33c-16.56,9.98-14.12,34.9,4.53,41.31,17.41,6,129.09,35.52,129.09,35.52,0,0-51.85-4.29-69.72-3.83-24.1.62-28.19,28.7-3.1,34.63,18.7,4.41,78.78,13.54,159.6,23.76,80.82,10.23,83.22-32.13,107.74-23.82,24.53,8.32,82.14,36.77,82.14,36.77,44.72-66.77,35.69-151.64,35.69-151.64Z" stroke-width="0"/>
</svg>