<?xml version="1.0" encoding="utf-8"?>
<!-- Generator: Adobe Illustrator 28.0.0, SVG Export Plug-In . SVG Version: 6.00 Build 0)  -->
<svg version="1.1" id="Share_Icon" xmlns="http://www.w3.org/2000/svg" xmlns:xlink="http://www.w3.org/1999/xlink" x="0px" y="0px"
	 viewBox="0 0 512 512" style="enable-background:new 0 0 512 512;" xml:space="preserve">
<g>
	<path d="M52.1,223.4c2.8-1.8,6.5-1,8.3,1.8c0.1,0.1,3,4.6,8.6,9.5c5.5,4.9,13.6,10.2,23.8,11.9c9.3,1.5,19-0.1,29.1-4.8
		c8.6-8.7,25.6-23.4,46.3-29.3c30.2-8.6,47.5-51.1,49.6-74.1c2.2-23,15.1-25.2,18-53.5c2.9-28.3-17.3-47.2-25.2-24.9
		c-2.6,7.3-5.3,13.9-7.9,19.5c4,34.3,4.5,68.7,4.5,70.6c0,3.3-2.6,6-5.9,6.1h-0.1c-3.3,0-5.9-2.6-6-5.9c0-0.5-0.6-42.8-5.8-79.8
		c0,0,0-0.1,0-0.1c-3.3-19.8-8.8-44.7-16.3-54.9c-7.4-10-13.8-11.7-18.6-10.6c19.2,38.7,24.4,92.8,24.6,95.7
		c0.3,3.3-2.1,6.2-5.4,6.5c-0.2,0-0.4,0-0.6,0c-3.1,0-5.7-2.3-6-5.4c-0.1-0.7-5.1-54-23-90.6c-3.2-3.4-15.2-14.8-26.3-9.9
		c-3.5,1.5-5.4,4.3-6.2,7.5C127,27.9,136,51,141.1,68.5c6.8,23.4,8.3,41.8,8.4,42.5c0.3,3.3-2.2,6.2-5.5,6.5c-0.2,0-0.3,0-0.5,0
		c-3.1,0-5.7-2.4-6-5.5c-0.1-0.7-4.4-50.5-29.2-87.9c-12.6-7.4-25.8,3.2-18.4,21.7c3.2,8.1,6.7,18,9,24.7v0
		c10,14.6,19.7,36.3,22.3,66.6c0.3,3.3-2.2,6.2-5.5,6.5c-0.2,0-0.3,0-0.5,0c-3.1,0-5.7-2.4-6-5.5c-2.3-27.8-11.1-47.5-20-60.6
		c-7.9,2.6-14,10.5-10.3,19.9c18.6,47.8-9.1,72.9-9.1,72.9c-6.8,15.3-21.6,23.7-21.6,23.7s-46.7,7.2-24.5,58.3
		c22.3,51.1,72.6,28,72.6,28l13.4-21.9c-3.4,0.6-6.7,0.9-10,0.9c-3.1,0-6.1-0.3-9.1-0.8c-25.7-4.4-39.8-25.9-40.4-26.8
		C48.5,228.9,49.3,225.2,52.1,223.4z"/>
	<path d="M489.8,397.4L489.8,397.4c-16.9,4.5-30.6,8.3-52.3,3.2c-6.5-1.5-7.9-9.6-17.3-19.9c-23.5-25.6-70.9-20.8-74.5-88.8
		c-0.6-11.9-28-9-28.7,20.9c-0.7,29.9,14.4,43.4,1.2,48.9c-15,1.9-76.1,2.7-95.6,1.8c-19.7-0.9-41.6-2.4-44.8,13.8
		c-0.8,4.2,0.6,7.9,2.8,10.9l94.3,8c2,0.2,3.5,1.9,3.3,4c-0.1,1.7-1.5,3.1-3.1,3.3c-0.3,0-0.6,0.1-0.8,0c0,0-103.9-10-119.2-6.1
		c-19.4,5-21.3,28.1-0.9,32.5c2.7,0.6,6.5,1.4,10.3,2.1l0,0l106.7,7.4c2,0.1,3.5,1.9,3.4,3.9c-0.1,1.7-1.4,3.1-3.1,3.4
		c-0.3,0-0.5,0-0.8,0l-102.8-7.1c-10.9,9-6.5,26.7,7.7,29.4c13.2,2.5,97.1,11.8,97.1,11.8s-37.9,2.5-50.8,4.7
		c-17.4,3-17.3,23.8,1.5,25.4c14,1.2,58.4,1.3,117.9,0c59.5-1.3,56.7-32.2,75.3-28.8c18.6,3.4,63.3,17.8,63.3,17.8
		C505,447,489.8,397.4,489.8,397.4z"/>
	<path d="M190.4,354.2c-7.3-24.2-18.5-40.4-28.8-51.1c-7.3,3.9-11.9,12.8-6.7,21.4c16.7,27.4,14,49.2,9.6,61.7c1.1,0,2.2,0,3.5,0
		c-1-3.5-1.2-7.2-0.5-10.8C170.2,362,180.6,356.5,190.4,354.2z"/>
	<path d="M207.3,352.7c4.7,0,9.5,0.2,14.2,0.4l1.6,0.1c4.8,0.2,12.9,0.3,22.8,0.3c10.2,0,21.6-0.1,32.5-0.4
		c-2.1-10.5-9.3-44.5-19-74.3c0,0,0-0.1-0.1-0.1c-6.7-19-16.4-42.5-25.6-51.2c-9-8.5-15.6-9.2-20.2-7.2c25.7,34.8,40.2,87.2,41,89.9
		c0.9,3.2-1,6.5-4.2,7.3c-0.2,0.1-0.4,0.1-0.5,0.1c-3,0.5-6-1.3-6.8-4.3c-0.2-0.6-14.5-52.2-38.4-85.2c-3.7-2.7-17.6-12-27.7-5.1
		c-3.1,2.1-4.5,5.1-4.8,8.4c18.3,16.3,31.1,37.4,39.2,53.8c10.8,21.8,15.5,39.7,15.7,40.4c0.8,3.2-1.1,6.5-4.3,7.3
		c-0.2,0-0.3,0.1-0.5,0.1c-3,0.5-6-1.4-6.8-4.4c-0.2-0.7-13.2-48.9-44.1-81.4c-13.7-5.1-24.9,7.6-14.4,24.6
		c4.6,7.4,9.7,16.5,13.1,22.7v0c11.9,12.2,24.7,30.7,32.6,58.2C204.4,352.7,206,352.7,207.3,352.7z"/>
	<path d="M307.4,285.1c-2.1-28.4-25.2-43.5-29.1-20.1c-1.3,7.6-2.8,14.6-4.3,20.5c9,30,15.1,60.5,16.5,67.4c3-0.1,5.9-0.2,8.6-0.3
		c0.3-4.3,0.2-8.2-0.1-11.7C297.1,317.8,309.5,313.5,307.4,285.1z"/>
	<path d="M237.6,36.6c0.4,0.3,33.1,28.6,38.6,70.8l-9.4-9.7c-1.5-1.6-3.6-2.4-5.8-2.4c-2.1,0-4.1,0.8-5.6,2.3
		c-1.5,1.5-2.4,3.5-2.4,5.6c0,2.1,0.8,4.2,2.3,5.7l23.8,24.5c1.5,1.5,3.6,2.4,5.8,2.4c0.3,0,0.6,0,0.8,0c2.5-0.3,4.6-1.6,5.9-3.7
		L312,99.4c0.1-0.2,0.2-0.3,0.3-0.5c1.9-3.7,0.7-8.3-2.9-10.5c-1.3-0.8-2.7-1.2-4.2-1.2c-2.8,0-5.3,1.4-6.8,3.8l-6.8,10.9
		c-7.4-46.6-42.2-76.2-43.7-77.5c-1.4-1.2-3.3-1.9-5.1-1.9c-2.4,0-4.6,1-6.1,2.9c-1.4,1.6-2,3.7-1.8,5.8
		C234.9,33.3,235.9,35.2,237.6,36.6z"/>
	<path d="M307.1,178.3l-33.9-4.6c-2.5-0.3-4.9,0.5-6.7,2.2c-1.8,1.7-2.6,4.1-2.4,6.6l0,0l4.2,38.2c0,0.2,0.1,0.4,0.1,0.6
		c0.1,0.7,0.4,1.4,0.7,2.1c1.5,3,4.7,4.8,8.1,4.4l0,0c4.4-0.5,7.6-4.4,7.1-8.8l-1.4-12.7c0,0,0.1,0.1,0.1,0.1
		c0.4,0.7,0.9,1.3,1.5,1.9c1.5,1.3,34.1,29.9,79.4,32c0.6,0,1,0.1,1.2,0.1c0.1,0,0.3,0,0.4,0c0.7,0,1.4,0.1,2.1,0.1l-9.8,8.3
		c-3.4,2.8-3.8,7.9-1,11.3c2.2,2.6,5.8,3.5,8.9,2.3c0.7-0.3,1.3-0.6,1.9-1c0.2-0.1,0.3-0.2,0.5-0.4l29.4-24.8l0,0
		c1.9-1.6,2.9-4,2.8-6.4c-0.1-2.5-1.3-4.7-3.3-6.2l-27.7-20c-2.2-1.6-5-1.9-7.5-1c-1.5,0.6-2.8,1.5-3.7,2.8c-1.3,1.7-1.7,3.9-1.4,6
		c0.4,2.1,1.5,4,3.2,5.2l10.9,7.9c-2.6,0-5.1,0-7.6-0.2c-9.5-0.9-45.4-5.9-71.7-31.7l13.3,1.8c2.1,0.3,4.2-0.3,5.9-1.6
		c1.7-1.3,2.8-3.2,3.1-5.3c0.2-1.6,0-3.2-0.7-4.6C312,180.3,309.7,178.6,307.1,178.3z"/>
</g>
</svg>
