<?xml version="1.0" encoding="UTF-8"?>
<svg id="Show_Me_Icon" data-name="Show Me Icon" xmlns="http://www.w3.org/2000/svg" viewBox="0 0 512 512">
  <path d="m250.13,350.85c2.26-.14,4.34-.32,6.25-.49-2.23-2.72-4.37-4.9-5.85-5.9-.41,1.39-.59,3.65-.4,6.39Z" stroke-width="0"/>
  <path d="m269.65,416.51c-8.8-17.08-8.64-24.26-17.53-36.36-7.01,1.11-15.3,1.79-21.06,2.17,1.16,5.81-1.35,10.66-5.15,13.7,1.07,3.73.34,7.19-1.17,9.99,6.63,15.89-12.8,27.74-26.97,32.17-6.57,1.55-21.01,1.06-30.1,1.7l-4.92,61.07s29.04,11.05,101.21,11.05,115.08-16.04,115.08-16.04c0,0-55.42-40.69-67.53-50.01-6.83-.26-29.39-3.14-41.87-29.44Z" stroke-width="0"/>
  <path d="m452.81,421.36c-6.55-47.98-15.96-92.9-21.81-117.77-4.36-18.54-8.18-51.05-51.35-61.44-43.17-10.39-74.19-30.77-74.19-41.41v-25c12.78-10.43,21.78-24.04,27.68-40.06,15.09-.76,28.18-55.22,6.44-51.25,2.21-112.6-153.59-112.57-151.23.1-22.24-4.68-8.8,51.23,6.59,51.23,6,16.3,15.61,30.13,27.55,39.86v25.12c0,10.63-31.02,31.01-74.19,41.41-27.34,6.58-38.95,29.82-43.22,45.07,0,0-30.47,90.02-41.54,125.4-5.45,17.45-12.95,35.82,7.63,51.25,35.28,21.79,51.14-24.41,75.4-30.82,11.87-4.4,36.06-2.71,48.79-4.54,8.76-2.93,19.95-9.06,20.82-16.47-4.06-.78-5.28-6.6-1.78-8.92,2.3-1.74,2.67-3.83,1.02-6.13-3.75-6.56,3.62-6.57,5.82-10.8.91-4.75-7.25-11.04,2.39-13.43,7.51-.65,44.76-1.16,45.12-11.88-6.44-2.9-23.13,1.55-32.1.03-16.74-.63-47.19-6.43-58.74-1.54-9.52,4.34-65.66,42.1-86.49,56.29-2.27,1.54-5.37.97-6.92-1.32-10.57-5.72,79.25-57.27,89.27-64.05,14.1-6.61,46.82.37,66.41.77-1.75-12.67,7.81-23.31,18.52-12.76-1.23-15.72-5.95-39.91,3.06-49.79,5.58-5.85,15.81-2.32,18.45,4.38,12.74-.45,13.46,8.69,19.66,22.94,5.46,13.72,13.71,34.47,20.17,40.93,6.97,6.97,9.54,20.14,11.8,31.77,1.34,6.86,3.17,16.24,5.36,18.13,3.09,2.62,25.36,6.67,55.96,8.62,2.75.18,4.83,2.55,4.66,5.29,2.65,11.41-65.92-2.42-67.1-6.35-9.73-8.33-8.27-41.36-17.73-50.42-10.28-9.57-21.46-44.29-28.98-59.64-2.54-4.38-8.72,4.63-11.62-3.97-.49-2.08-1.92-4.69-2.91-4.72-7.34,6.11.26,45.74.77,55.01,17.54,7.33,6.26,23.7-7.55,27.17,13.85,26.35,20.06,58.53,50.3,58.35,17.36,9.43,54.81,40.25,78.14,55.72h0c44.19,12.67,70.16-19.26,61.68-70.37Zm-143.36-.37c-1.53,2.31-4.65,2.9-6.91,1.39-23.5-15.67-15.42-53.45-15.06-55.05,1.31-6.32,11.22-4.14,9.73,2.15-2.42,10.09-2.95,36.74,10.85,44.6,2.29,1.53,2.91,4.62,1.38,6.91Z" stroke-width="0"/>
</svg>