<?xml version="1.0" encoding="UTF-8"?>
<svg id="Silence_Icon" data-name="Silence Icon" xmlns="http://www.w3.org/2000/svg" viewBox="0 0 512 512">
  <path d="m192.77,421.92l-49.38,16.82,18.14,28.79c1.48,2.33.78,5.43-1.56,6.91-.83.52-1.75.77-2.66.77-1.66,0-3.28-.83-4.23-2.34l-20.06-31.8c-2.76-3.62-12.96-16.94-23.6-29.6-5.07-6.02-15.86-4.25-9.81,12.46l15.04,27.21c.92,1.66.82,3.7-.26,5.27-.5.74-12.4,18.66,3.02,32.47,2.06,1.85,2.24,5.02.4,7.07-.99,1.11-2.36,1.67-3.73,1.67-1.19,0-2.38-.42-3.33-1.27-16.04-14.36-11.78-32.98-6.27-42.91l-16.52-29.88c-8-12.85-28.9-46.46-31.28-50.68-5.4-9.64-18.92-1.6-12.17,14.47-.41-.49-13.59-16.2-18.92-24.11-5.41-8.04-20.29,1.6-8.12,25.73,0,0-9.47-6.44-12.17,4.82-2.7,11.26,11.78,36.43,29.7,60.79,0,0-20.91-1.78-30.03-3.14-9.13-1.35-6.43,13.13,13.85,19.55,20.28,6.43,28.19,6.62,28.19,6.62,0,0,20.02,28.04,40.03,29.04,24.35,1.22,20.6,1.02,34.03,4.01,27.02,6.01,43.76-9.1,47.81-20.37l50.03-1.6s34.68-57.09-26.16-66.74Z" stroke-width="0"/>
  <path d="m507.01,451.42c-9.13,1.36-30.03,3.14-30.03,3.14,17.92-24.36,32.41-49.52,29.7-60.79-2.7-11.25-12.17-4.82-12.17-4.82,12.17-24.13-2.7-33.77-8.12-25.73-5.32,7.91-18.5,23.62-18.92,24.11,6.75-16.07-6.77-24.11-12.17-14.47-2.37,4.23-23.28,37.84-31.28,50.68l-16.52,29.88c5.51,9.93,9.78,28.56-6.27,42.91-.95.85-2.14,1.27-3.33,1.27-1.37,0-2.74-.56-3.73-1.67-1.84-2.05-1.66-5.22.4-7.07,15.42-13.81,3.52-31.73,3.02-32.47-1.08-1.56-1.18-3.6-.26-5.27l15.04-27.21c6.05-16.7-4.73-18.47-9.81-12.46-10.64,12.66-20.84,25.97-23.6,29.6l-20.06,31.8c-.95,1.51-2.57,2.34-4.23,2.34-.91,0-1.83-.25-2.66-.77-2.34-1.48-3.04-4.58-1.56-6.91l18.14-28.79-49.38-16.82c-60.84,9.65-26.16,66.74-26.16,66.74l50.03,1.6c4.05,11.26,20.79,26.37,47.81,20.37,13.43-2.98,9.68-2.78,34.03-4.01,20.02-1,40.03-29.04,40.03-29.04,0,0,7.92-.19,28.19-6.62,20.28-6.43,22.98-20.91,13.85-19.55Z" stroke-width="0"/>
  <g>
    <path d="m159.05,285.3c-.56-.12-1.14-.18-1.71-.18-3.73,0-7.02,2.65-7.81,6.3-.1.45-9.79,42.59-44.76,67.12l4.21-12.81c1.38-4.19-.91-8.73-5.1-10.11-.81-.27-1.65-.4-2.5-.4-3.46,0-6.52,2.21-7.6,5.5l-10.68,32.46c-.77,2.36-.43,4.89.95,6.95,1.38,2.06,3.59,3.35,6.07,3.53l38.34,2.81c.2.02.41.02.61.02,4.17,0,7.67-3.26,7.98-7.42.32-4.4-3-8.25-7.4-8.57l-12.78-.94c37.81-28.2,47.88-72.77,48.31-74.76.94-4.31-1.81-8.58-6.12-9.52Z" stroke-width="0"/>
    <path d="m427.16,373.19l-10.68-32.46c-1.08-3.29-4.14-5.51-7.6-5.51-.85,0-1.69.13-2.5.4-4.19,1.38-6.48,5.92-5.1,10.11l4.21,12.8c-34.89-24.51-44.66-66.67-44.76-67.11-.79-3.66-4.08-6.31-7.81-6.31-.57,0-1.15.06-1.71.18-4.31.94-7.06,5.21-6.12,9.52.43,1.99,10.49,46.55,48.31,74.76l-12.78.94c-4.4.32-7.72,4.17-7.4,8.57.3,4.16,3.81,7.42,7.98,7.42.2,0,.4,0,.59-.02l38.35-2.81c2.48-.18,4.69-1.47,6.07-3.53,1.38-2.06,1.73-4.6.95-6.96Z" stroke-width="0"/>
  </g>
  <path d="m328.94,28.18c-9.46,2.33-28.1,5.54-46.76.88-1.7,1.39-4.29,3.31-7.55,5.1,3.53,6.77,4.38,15.41,2.29,24.42-.19.83-.4,1.67-.62,2.51,28.42-5.9,45.26-23.32,52.64-32.92Z" stroke-width="0"/>
  <path d="m228.59,59.27c5.88-10.58,9.89-18.64,11.48-23.11.06-.17.12-.33.19-.5-4.56-2.12-8-4.73-10.09-6.55-18.85,4.67-37.65,1.33-46.97-1.01,6.69,8.72,21.28,24.03,45.39,31.17Z" stroke-width="0"/>
  <path d="m230.19,18.74c1.84-.54,3.83.03,5.11,1.45.05.05,3.98,4.27,10.42,6.92,2.98,1.23,6.48,2.12,10.39,2.12.04,0,.08.02.13.02.04,0,.09-.02.13-.02,4.32,0,8.38-1.33,11.76-2.98,5.49-2.67,9.19-6.2,9.25-6.26,1.29-1.28,3.17-1.76,4.91-1.25,13.75,4.01,28.14,2.8,37.88,1.06-13.17-3.48-25.78-11.12-33.68-16.6-5.37-3.73-12.35-4.23-18.21-1.33l-5.33,2.64c-4.31,2.14-9.37,2.14-13.68,0l-5.33-2.64c-5.86-2.9-12.84-2.4-18.22,1.33-7.88,5.47-20.44,13.08-33.56,16.57,9.74,1.76,24.21,3,38.03-1.03Z" stroke-width="0"/>
  <path d="m321.31,327.2c17-17,16.69-41.43,16.69-41.43,0,0-20.39-16.69-25.96-26.58-5.56-9.89-1.23-66.16-10.81-74.5-.73-.64-1.72-1.29-2.91-1.96l-47.64-16.28c-5.95-.51-11.85,1.95-17.18,9.81-3.79,5.6-7.5,11.48-10.02,15.54h0c-.79,5.45-1.35,10.35-1.21,12.33.12,1.73.56,5.16,1.03,8.8.94,7.35,2,15.68,1.86,19.97,0,.35.61,1.08,1.76,1.5.29.1,1.49.49,2.49.08.71-6.66,3.08-28.4,4.16-34.85.7-4.21,2.85-7.58,6.23-9.75,6.24-4,16.25-3.95,31.52.18,2.67.72,4.25,3.47,3.53,6.13-.73,2.67-3.47,4.24-6.14,3.52-15.74-4.25-21.49-2.71-23.5-1.41-.71.45-1.48,1.16-1.78,2.97-1.2,7.19-4.25,35.9-4.28,36.19-.01.08-.03.16-.05.24,0,.04,0,.08,0,.12-.02.15-1.33,7.9,1.62,12.11.77-2.32,1.63-5.09,2.43-7.68,4.61-14.93,7.18-22.24,10.81-24.84,4.8-3.43,24.32-6.51,32.49-7.68,2.72-.39,5.26,1.51,5.65,4.25.39,2.73-1.51,5.26-4.24,5.65-11.35,1.63-25.05,4.32-27.94,5.84-1.87,2.4-5.33,13.64-7.21,19.73-2.24,7.25-3.68,11.83-5.03,14.34-.76,1.41-.71,3.3.12,4.4,1.19,1.57,3.96,1.23,5.51.89,6.76-1.51,12.25-14.04,13.64-18.3.07-.24.17-.46.27-.68.03-.06.07-.11.1-.17.11-.2.23-.39.37-.58.05-.06.1-.13.15-.19.17-.22.36-.41.57-.6.04-.04.09-.07.14-.11.18-.15.37-.28.57-.4.06-.04.12-.08.18-.11.25-.14.5-.25.77-.35.04-.01.09-.02.13-.03.15-.05.31-.1.47-.14l19.31-4.08c2.7-.57,5.35,1.15,5.92,3.86.57,2.7-1.15,5.35-3.85,5.92l-16.1,3.41c-1.13,6.91-2.46,24.48,10.93,33.86,2.26,1.59,2.81,4.71,1.23,6.97-.98,1.39-2.53,2.13-4.1,2.13-.99,0-1.99-.29-2.87-.9-8.45-5.92-13.69-14.87-15.33-26.02-2.85,2.97-6.28,5.37-10.33,6.27-1.57.35-3.08.52-4.53.52-4.66,0-8.58-1.78-11.12-5.13-2.08-2.75-2.96-6.3-2.6-9.78-5.6-3.4-7.8-9.71-8.32-15.54-.17.01-.34.03-.51.03-1.6,0-3.25-.29-4.87-.88-5.24-1.89-8.52-6.3-8.35-11.24.11-3.49-.99-12.09-1.79-18.37-.51-3.95-.95-7.35-1.09-9.37-.2-2.91.46-8.75,1.3-14.53h0c-3.87-3.02-9.12-5.74-14.95-4.99-10.48,1.34-9.15,12.07-1.47,22.6,28.35,38.92,20.69,45.84,27.73,61.18,10.51,22.88,29.05,24.11,36.47,30.29,7.41,6.18,15.45,30.91,15.45,30.91,0,0,27.5,13.92,44.49-3.09Z" stroke-width="0"/>
  <path d="m273.73,118.19c-1.86-16.06-21.02-9.25-21.02,12.39,0,9.97,1.67,19.64,3.47,27.17l31.02,10.59c-1.26-3.92-2.75-8.62-4.26-13.62-4.03-13.25-8.28-28.51-9.21-36.54Z" stroke-width="0"/>
  <path d="m198.67,245.45s2.19-3.65,5.38-8.27c-3.15-6.06-7.83-13.6-14.96-23.38-7.54-10.33-9.85-20.29-6.53-28.02,1.45-3.36,5.3-9.17,14.81-10.39,1.07-.14,2.16-.21,3.24-.21,5.05,0,10.04,1.45,14.88,4.32,1.06-3.91,1.46-7.48,1.62-9.84l-14.91-6.95c-2.51-1.17-3.58-4.14-2.42-6.64,1.17-2.51,4.14-3.59,6.64-2.42l17.89,8.33c.15.07.29.16.43.24.03.02.08.04.12.06.24.16.46.32.67.51.05.05.1.1.15.15.17.16.32.33.46.52.04.05.09.09.12.14.16.23.3.46.42.71.03.07.06.15.1.22.09.22.17.43.23.65.01.06.04.12.06.19.05.23.09.47.11.72.04.46.11,1.02.2,1.66,4.3-5.34,8.9-8.29,13.16-9.83-.46-4.72-1.04-9.18-1.77-10.76-2.47-2.14-15.21-7.85-25.9-12-2.57-1-3.85-3.89-2.86-6.46,1-2.59,3.91-3.86,6.47-2.87,6.29,2.44,19.68,7.82,26.49,12.15-.17-2.51-.26-4.97-.26-7.38,0-3.81.46-7.33,1.28-10.51-2.31-.09-4.95-.1-7.98.01-2.77.1-5.08-2.05-5.19-4.82-.1-2.75,2.06-5.08,4.82-5.17,4.71-.17,8.88-.1,12.55.23,4.55-7.06,11.36-10.97,18.04-10.97,2.84,0,5.33.63,7.48,1.73-3.32-5.96-7.74-8.64-12.64-9.34l-50.08,5.11c-1.31.38-2.42.79-3.28,1.25-11.21,5.96-19.68,61.76-27.33,70.14s-31.28,20.04-31.28,20.04c0,0-5.81,23.73,6.92,44.13,12.72,20.4,42.65,13.05,42.65,13.05Z" stroke-width="0"/>
  <path d="m303.86,144.2c9.85-8.53,13.57-18.68,3.66-22.35-5.51-2.05-20.07-.75-24.52,1.31,0,0,9.94,30.07,10.16,30.79,3.09-2.99,6.63-6.23,10.7-9.75Z" stroke-width="0"/>
  <path d="m249.49,39.52c-2.71,7.61-10.3,21.52-17.21,33.52-2.6,4.52-5.11,8.77-7.22,12.3l32.61-3.32c3.45-6.93,7.26-15.97,9.51-25.69,4.88-21.08-12.25-32.03-17.69-16.81Z" stroke-width="0"/>
</svg>