<svg version="1.1" viewBox="0 0 512 512" xmlns="http://www.w3.org/2000/svg">
	<path d="m294.32901 456.36694h-0.12555v1.88373h-51.23766c-6.4675 0-12.43267 2.63723-16.70249 6.96984-4.26981 4.26981-6.96983 10.17219-6.96983 16.70248 0 6.40471 2.57444 12.24429 6.71867 16.51409l0.18837 0.18838c4.26982 4.26981 10.17219 6.96983 16.70249 6.96983l113.14985 4.83494c41.0655-0.31396 73.08905-13.37455 94.75203-37.04686 21.72578-23.7351 33.27937-58.2703 33.27937-101.47069v-1.69537c-0.18836-33.09099-11.11404-59.27496-28.25605-78.80303-20.03043-22.85602-48.47488-36.85848-77.98677-42.50969-21.09787-2.1977-53.37257-6.09076-63.60755 0.37674-10.1094 6.34192-16.6397 18.58622-22.16532 39.05618-0.37675 1.88374-2.07211 3.26515-4.08144 3.26515h-157.79449c-6.53028 0-12.43267 2.63722-16.70248 6.90702-4.26979 4.26981-6.90704 10.17219-6.90704 16.70248 0 6.46751 2.63725 12.43268 6.96983 16.70249 4.26982 4.26979 10.1722 6.90703 16.70249 6.90703h138.32917v8.28845h-135.81752c-6.46751 0-12.43267 2.63723-16.70249 6.96984-4.26979 4.26979-6.90703 10.17217-6.90703 16.70246 0 6.5303 2.63724 12.43267 6.90703 16.70249 4.26982 4.26981 10.17219 6.90705 16.70249 6.90705h144.10596v8.28843h-51.23768c-6.46751 0-12.43267 2.63723-16.70247 6.96984-4.26981 4.26979-6.96984 10.17219-6.96984 16.70246 0 6.40472 2.57445 12.24432 6.71868 16.51411l0.18837 0.18838c4.2698 4.26981 10.17217 6.96983 16.70247 6.96983h68.56806v6.40471h0.12556zm-61.91218 55.63306c-1.56978-0.50233-3.01398-1.19304-4.45818-1.94652 1.4442 0.75348 2.8884 1.44419 4.45818 1.94652z"/>
	<path d="m82.220113 189.12729v0.0628h5.46284v69.44715c0 6.59308 2.70004 12.55825 7.03262 16.89085l0.18838 0.18838c4.3326 4.207 10.234977 6.84424 16.702477 6.84424 6.59308 0 12.55826-2.70003 16.95363-7.03262 4.3326-4.3326 7.03263-10.36056 7.03263-16.89085v-51.92834h8.41403v140.08732c0 6.59308 2.70003 12.55825 7.03262 16.89086 4.33261 4.33259 10.29777 7.03261 16.89086 7.03261s12.55825-2.70002 16.89084-7.03261c4.33261-4.33261 7.03262-10.36056 7.03262-16.89086v-131.67328h8.41404v131.6733c0 6.59308 2.70004 12.55825 7.03262 16.89086 4.3326 4.33258 10.29777 7.03261 16.89086 7.03261 6.59308 0 12.55825-2.70003 16.89084-7.03261 4.33261-4.33261 7.03263-10.36057 7.03263-16.89086v-151.45255c0-2.00932 1.4442-3.70467 3.32793-4.08142 20.7839-5.58843 33.15379-12.2443 39.62129-22.47928 6.5303-10.29777 7.40937-39.80967 5.21169-61.1587-5.77682-29.888702-19.90484-58.772685-43.07483-78.991475-19.84203-17.330394-46.27716-28.444448-79.87049-28.632815h-1.75814c-43.76552 0-78.740257 11.679174-102.78932 33.718908-23.986264 21.976945-37.235222 54.377239-37.486388 96.007852v111.39171c0 6.59309 2.700026 12.55826 7.032624 16.89085 4.332596 4.3326 10.360558 7.03262 16.890851 7.03262 6.593081 0 12.558253-2.70002 16.953641-7.03262 4.3326-4.33259 7.03262-10.36055 7.03262-16.95364v-51.92839h2.95119v-0.0628z"/>
</svg>
