<?xml version="1.0" encoding="UTF-8"?>
<svg id="Sit_Icon" data-name="Sit Icon" xmlns="http://www.w3.org/2000/svg" viewBox="0 0 512 512">
  <path d="m152.2,382.67c-4.77-.59-8.44-1.06-10.49-1.34-24.72-3.33-36.28-38.84-6.77-51.67l10.03.93c1.79,18.31,3.31,33.7,3.89,39.1.49,4.6,1.64,8.97,3.34,12.98Z" stroke-width="0"/>
  <path d="m143.98,320.45l-7.91-.73c-4.2-5.13-8.16-12.97-6.21-23.23,1.4-7.33,4.7-12.06,10.74-15.12v.09s-.29,1.03-.29,1.03l.19,1.92c1.11,11.51,2.33,24.1,3.48,36.04Z" stroke-width="0"/>
  <g>
    <path d="m428.26,292.85c-21.12-18.5-43.45-38.76-59.25-41.21-54.94-8.48-98.03,20.61-98.03,20.61-1.66.13-4.11.3-7.19.47-.55,17.28-1.03,36.25-1.27,52.4-.03,2.16-.07,4.27-.12,6.32l20.35,1.89c2.75.25,4.77,2.69,4.52,5.44-.24,2.59-2.42,4.53-4.97,4.53-.16,0-.31,0-.47-.02l-19.76-1.83c-.53,11.29-1.56,20.56-3.65,27.76-3.62,12.44-10.77,19.78-21.86,22.46-1.68.41-3.38.67-5.06.79,7.97.98,13.09,1.6,13.09,1.6-.04.02-.07.03-.11.05l50.24,5.89c2.74.32,4.71,2.81,4.39,5.55-.3,2.54-2.46,4.42-4.96,4.42-.2,0-.4-.01-.59-.04l-60.73-7.12c-7.2,9.07-8.01,22.12-2.25,34.88,3.3,7.32,8.58,12.5,13.68,16.07l55.64,4.18c2.75.21,4.82,2.61,4.61,5.37-.19,2.62-2.39,4.62-4.98,4.62-.12,0-.25,0-.38-.01l-44.5-3.35c-3.77,4.37-7.47,11.47-6.29,23.42,1.96,19.87,16.16,24.24,46.05,24,29.89-.24,89.18.17,112.3-8.24,36.63-13.34,40.38-47.71,54.94-90.91,20.72-61.47-3.88-94.11-33.39-119.99Z" stroke-width="0"/>
    <path d="m196.68,205.46c2.75-.2,5.15,1.87,5.35,4.62l12.13,165.5c4.56,4.48,11.32,8.48,20.05,6.37,15.08-3.64,17.77-18.79,18.31-56.97.52-36.37,2.43-89.22,3.23-101.81,0,0,25.86-48.48,18.32-110.29-2.17-17.78-20.18-42.91-36.63-66.66-22.99-33.21-52.01-60.89-106.64-37.57-38.4,16.38-68.95,20.6-80.8,61.81-7.48,26.02-7.11,92.72-7.33,126.35-.21,33.64,3.68,49.61,21.34,51.82,9.06,1.13,14.98-1.74,18.94-5.24l-2.44-51.65c-.13-2.76,2-5.1,4.75-5.23,2.77-.11,5.1,2,5.23,4.75l2.84,59.89c3.17,6.33,8.08,13.3,15.38,17.47,11.25,6.43,22.74,5.59,30.8-2.31l-5-68.45c-.2-2.75,1.87-5.15,4.63-5.35,2.75-.19,5.15,1.87,5.35,4.63l6.16,84.49c.05.63-.03,1.24-.2,1.82,2.97,30.8,7.28,75.16,8.35,85.17,2.94,27.45,33.71,40.47,45.47,8.88l-12.21-166.69c-.2-2.75,1.87-5.15,4.62-5.35Z" stroke-width="0"/>
  </g>
</svg>
