<?xml version="1.0" encoding="UTF-8"?>
<!DOCTYPE svg PUBLIC "-//W3C//DTD SVG 1.1//EN" "http://www.w3.org/Graphics/SVG/1.1/DTD/svg11.dtd">
<!-- Creator: CorelDRAW 2020 (64-Bit) -->
<svg xmlns="http://www.w3.org/2000/svg" xml:space="preserve" width="1.12217in" height="1.25704in" version="1.1" shape-rendering="geometricPrecision" text-rendering="geometricPrecision" image-rendering="optimizeQuality" fill-rule="evenodd" clip-rule="evenodd"
viewBox="0 0 75.98 85.12"
 xmlns:xlink="http://www.w3.org/1999/xlink"
 xmlns:xodm="http://www.corel.com/coreldraw/odm/2003">
 <g id="Layer_x0020_1">
  <metadata id="CorelCorpID_0Corel-Layer"/>
  <g id="_2294835005408">
   <path fill="black" stroke="white" stroke-width="3.84" stroke-linecap="round" stroke-linejoin="round" stroke-miterlimit="2.61313" d="M45.29 74.95l-2.95 0 -8.73 0c-2.6,0 -4.73,-2.13 -4.73,-4.73l0 -0c0,-2.6 2.13,-4.73 4.73,-4.73l8.73 0 -2.98 0 -20.57 0c-2.6,0 -4.73,-2.13 -4.73,-4.73l0 -0c0,-2.6 2.13,-4.73 4.73,-4.73l20.57 0 1.57 0 -22.13 0c-2.6,0 -4.73,-2.13 -4.73,-4.73l0 -0c0,-2.6 2.13,-4.73 4.73,-4.73l25.45 0c1.98,-7.38 4.82,-8.86 12.35,-8.08 9.61,1.84 18.62,8.73 18.68,21.36 0.11,15.32 -8.09,24.58 -22.74,24.58 -13.65,0 -4.67,0 -15.98,0 -2.6,0 -4.73,-2.13 -4.73,-4.73l0 -0c0,-2.6 2.13,-4.73 4.73,-4.73l8.73 0z"/>
   <path fill="black" stroke="white" stroke-width="3.84" stroke-linecap="round" stroke-linejoin="round" stroke-miterlimit="2.61313" d="M10.17 30.7l0 2.95 0 8.73c0,2.6 2.13,4.73 4.73,4.73l0 0c2.6,0 4.73,-2.13 4.73,-4.73l0 -8.73 0 2.98 0 20.57c0,2.6 2.13,4.73 4.73,4.73l0 0c2.6,0 4.73,-2.13 4.73,-4.73l0 -20.57 0 -1.57 0 22.13c0,2.6 2.13,4.73 4.73,4.73l0 0c2.6,0 4.73,-2.13 4.73,-4.73l0 -25.45c7.38,-1.98 8.86,-4.82 8.08,-12.35 -1.84,-9.61 -8.73,-18.62 -21.36,-18.68 -15.32,-0.11 -24.58,8.09 -24.58,22.74 0,13.65 0,4.67 0,15.98 0,2.6 2.13,4.73 4.73,4.73l0 0c2.6,0 4.73,-2.13 4.73,-4.73l0 -8.73z"/>
  </g>
 </g>
</svg>
