 <svg
    xmlns="http://www.w3.org/2000/svg"
    viewBox="0 0 72.12 81.54"
>
    <g id="Layer_x0020_1">
        <metadata id="CorelCorpID_0Corel-Layer" />
        <g id="_2276493876848">
            <path
                d="M41.88 72.68l-0.02 0 0 0.3 -8.16 0c-1.03,0 -1.98,0.42 -2.66,1.11 -0.68,0.68 -1.11,1.62 -1.11,2.66 0,1.02 0.41,1.95 1.07,2.63l0.03 0.03c0.68,0.68 1.62,1.11 2.66,1.11l18.02 0.77c6.54,-0.05 11.64,-2.13 15.09,-5.9 3.46,-3.78 5.3,-9.28 5.3,-16.16l0 -0.27c-0.03,-5.27 -1.77,-9.44 -4.5,-12.55 -3.19,-3.64 -7.72,-5.87 -12.42,-6.77 -3.36,-0.35 -8.5,-0.97 -10.13,0.06 -1.61,1.01 -2.65,2.96 -3.53,6.22 -0.06,0.3 -0.33,0.52 -0.65,0.52l-25.13 0c-1.04,0 -1.98,0.42 -2.66,1.1l-0 0c-0.68,0.68 -1.1,1.62 -1.1,2.66 0,1.03 0.42,1.98 1.11,2.66l0 0c0.68,0.68 1.62,1.1 2.66,1.1l22.03 0 0 1.32 -21.63 0c-1.03,0 -1.98,0.42 -2.66,1.11l-0 0c-0.68,0.68 -1.1,1.62 -1.1,2.66 0,1.04 0.42,1.98 1.1,2.66l0 0c0.68,0.68 1.62,1.1 2.66,1.1l22.95 0 0 1.32 -8.16 0c-1.03,0 -1.98,0.42 -2.66,1.11 -0.68,0.68 -1.11,1.62 -1.11,2.66 0,1.02 0.41,1.95 1.07,2.63l0.03 0.03c0.68,0.68 1.62,1.11 2.66,1.11l10.92 0 0 1.02 0.02 0zm-9.86 8.86c-0.25,-0.08 -0.48,-0.19 -0.71,-0.31 0.23,0.12 0.46,0.23 0.71,0.31z"
            />
            <path
                d="M8.1 30.12l0 0.01 0.87 0 0 11.06c0,1.05 0.43,2 1.12,2.69l0.03 0.03c0.69,0.67 1.63,1.09 2.66,1.09 1.05,0 2,-0.43 2.7,-1.12 0.69,-0.69 1.12,-1.65 1.12,-2.69l0 -8.27 1.34 0 0 22.31c0,1.05 0.43,2 1.12,2.69l0 0c0.69,0.69 1.64,1.12 2.69,1.12 1.05,0 2,-0.43 2.69,-1.12 0.69,-0.69 1.12,-1.65 1.12,-2.69l0 -20.97 1.34 0 0 20.97c0,1.05 0.43,2 1.12,2.69l0 0c0.69,0.69 1.64,1.12 2.69,1.12 1.05,0 2,-0.43 2.69,-1.12 0.69,-0.69 1.12,-1.65 1.12,-2.69l0 -24.12c0,-0.32 0.23,-0.59 0.53,-0.65 3.31,-0.89 5.28,-1.95 6.31,-3.58 1.04,-1.64 1.18,-6.34 0.83,-9.74 -0.92,-4.76 -3.17,-9.36 -6.86,-12.58 -3.16,-2.76 -7.37,-4.53 -12.72,-4.56l-0.28 -0c-6.97,0 -12.54,1.86 -16.37,5.37 -3.82,3.5 -5.93,8.66 -5.97,15.29l0 17.74c0,1.05 0.43,2 1.12,2.69 0.69,0.69 1.65,1.12 2.69,1.12 1.05,0 2,-0.43 2.7,-1.12 0.69,-0.69 1.12,-1.65 1.12,-2.7l0 -8.27 0.47 0 0 -0.01z"
            />
        </g>
    </g>
</svg>