<?xml version="1.0" encoding="UTF-8"?>
<svg id="Snack_Icon" data-name="Snack Icon" xmlns="http://www.w3.org/2000/svg" viewBox="0 0 512 512">
  <path d="m439.64,440.08s1.29-17.95-14.12-46.19c-8.08-14.81,5.51-42.4,6.42-48.75,1.29-8.99-28.23-12.83-37.21,10.26-.52,1.34-1.03,2.65-1.5,3.9-2.14,15.42-6.17,40.08-11.45,53.28-.84,2.12-2.87,3.4-5.01,3.4-3.72.07-6.49-3.96-5.01-7.41,2.1-5.26,4.02-12.73,5.68-20.71-24.91-6.21-59.05-3.83-81.42,4.77-15.83-1.8-31.46-2.19-45.61-1.34.36,3.28.13,6.5-.64,9.56,20.69-1.84,36.63-2.25,38.02-2.28,7.14.08,7.41,10.37.26,10.8-.38.01-20.31.52-44.7,2.98-17.81,1.83-38.37,4.67-55.45,9.31-.01,0-.01.01-.01.01-6.72,3.98-18.35,13.24-8.05,25.68,19.34-24.17,73.83-32.44,116.4-35.12,2.96-.19,5.54,2.07,5.73,5.06.18,2.97-2.07,5.54-5.06,5.73-80.8,6.07-100.86,20.31-110.74,34.16-1.39,3.75-2.45,10.2,4.55,13.7,6.43,3.22,18.92.89,27.34-1.29,3.36-14.58,21.92-23.93,36.73-30.03,26.33-10.53,94.09-10.65,96.97-10.65,7.11.23,7.19,10.54,0,10.8-.69,0-68.56.12-92.96,9.87-24.63,10.34-28.64,17.14-30.23,22.55,17.09,27.41,40.79-30.16,139.22,1.32l35.93,38.49s47.48,3.86,64.16-48.75l-28.23-23.11Z" stroke-width="0"/>
  <path d="m193.89,409.05c5.52-1.26,11.27-2.38,17.07-3.36-.86-1.89-1.83-4.03-2.84-6.31-6.59,2.67-11.51,5.91-14.23,9.67Z" stroke-width="0"/>
  <path d="m224.11,408.23c2.34,4.07,18.67-2.92,15.17-18.06-3.5-15.16-9.26-45.42-9.26-45.42,0,0,32.51,3.04,43.05,3.46,19.81.53,51.95-5.6,41.17-16.13-36.64-9.44-83.91-17.64-84.5-17.75-2.94-.51-4.92-3.31-4.41-6.24.51-2.94,3.31-4.92,6.24-4.41,3.08.78,78.47,13.16,112.92,26.42,4.16.54,7.39.73,12.48,1.79,8.3,1.72,15.16-1.17,13.99-12.82-.81-8.11-16.32-15.66-25.67-19.5-42.24-10.66-97.7-20.78-98.32-20.9-6.98-1.51-5.16-11.68,1.92-10.63.52.1,37.82,6.9,74.72,15.26-4.48-4.09-9.03-8.21-12.1-10.85-8.16-6.99-32.62-12.81-32.62-12.81,0,0-31.47-25.65-52.45-25.65s-82.74,40.79-82.74,40.79l-72.25,8.16s-12.82,65.26,25.64,88.57l57.1-24.48s29.14,11.66,48.95,13.99c0,0,18.61,43.11,20.96,47.2Z" stroke-width="0"/>
  <path d="m131.51,255.87l12.47-60.86s26.2-17.28,39.41-32.22c0,0,46.03,9.31,50.72,9.71,4.68.4,8.25-17-6.18-22.76-14.44-5.77-42.58-18.31-42.58-18.31,0,0,37.74-41.82,43.14-54.79,3.9-8.99,6.57-23.43-5.5-21.61-28.66,24.71-62.36,58.85-62.79,59.27-2.09,2.12-5.52,2.15-7.64.06-2.12-2.09-2.15-5.52-.06-7.64,2.4-2.08,55.57-56.94,86.12-77.67,2.82-3.11,4.82-5.65,8.59-9.22,6.14-5.83,7.69-13.11-2.55-18.81-7.13-3.96-22.18,4.47-30.66,9.96-32.85,28.61-72.81,68.38-73.26,68.82-5.2,4.89-12.55-2.45-7.63-7.64.38-.37,27.25-27.12,55.17-52.66-5.92,1.35-11.9,2.73-15.81,3.75-10.39,2.71-29.14,19.49-29.14,19.49,0,0-39.02,11.21-50.98,28.44-11.96,17.22-13.7,91.23-13.7,91.23l-34.52,63.99s46.28,47.76,87.37,29.48Z" stroke-width="0"/>
  <path d="m257.08,116.96c36.01,26.12,62.88,61.62,78.13,103.07l-11.74-8.86c-1.4-1.06-3.07-1.62-4.83-1.62-4.72-.12-8.69,4.43-7.94,9.09.29,2.12,1.4,4,3.11,5.29l34.27,25.85c4.63,3.88,12.37.51,12.85-5.35h-.05c.13-.58.21-1.2.3-1.81l5.68-42.4c.28-2.12-.28-4.22-1.58-5.92-4.23-5.63-13.41-3.19-14.3,3.8,0,0-1.81,13.53-1.81,13.53-16.52-43.2-44.91-80.22-82.63-107.58-4.37-3.46-10.78-.99-12.38,4.31-1.04,3.29.09,6.6,2.93,8.6Z" stroke-width="0"/>
</svg>