<?xml version="1.0" encoding="UTF-8"?>
<svg id="Stand_Icon" data-name="Stand Icon" xmlns="http://www.w3.org/2000/svg" viewBox="0 0 512 512">
  <g>
    <path d="m392.95,498.11c-40.72,12.58-92.15,4.58-116.79-1.14-24.64-5.72-72.86,17.16-91.08,14.87-18.21-2.29-9.1-34.84-9.11-34.84,29.09-32.02,97.88-41.31,98.69-41.41,1.15-.15,2.21-.7,3.01-1.55,18.84-20.11,43.25-30.3,72.57-30.3h.42c22.34.08,39.29,6.34,39.46,6.4,2.58.97,5.46-.33,6.44-2.91.97-2.58-.33-5.47-2.91-6.44-.75-.29-18.53-6.9-42.59-7.05h-.8c-31.13,0-58.27,11.11-78.66,32.18-7.21,1.05-33.62,5.44-59.68,16.23-11.45-4.49-95.84-16.36-128.09-15.53-9.58.25-32.42,4.76-34.29-17.15-1.22-14.3,10.71-21.54,21.24-25.12,50.94-6.95,96.82,4.02,119.63,11.17.1.58.2,1.13.3,1.66,3.34,17.84,16.24,25.83,27.53,25.83,7.84,0,15.43-3.6,20.82-9.88,5.55-6.45,8.48-15.19,8.48-25.26,0-6.65-.39-25.37-.85-47.04-.03-1.66-.07-3.38-.11-5.14,3.68-.66,7.53-1.55,11.53-2.61,4.97,13.53,9.64,25.73,13.23,34.16,5.11,12,14.81,19.16,25.95,19.16,7.49,0,14.72-3.45,19.84-9.46,6.77-7.96,9.36-19.43,7.28-32.3-1.48-9.15-3.61-19.27-5.98-29.57,14.84-3.62,30.08-5.96,45.06-5.12,71.25,4.01,93.89,48.9,98.04,76.07,7.5,49.18-27.86,99.51-68.58,112.09Z" stroke-width="0"/>
    <path d="m188.56,384.41c-23.11-6.88-63.01-15.48-108.53-11.2-2.23-4.03-3.34-9.23.59-15.22,8.25-12.57,33.97-11.1,33.97-11.48,26.67-.63,51.13,3.87,69.7,8.88,1.54,10.97,3.01,20.98,4.27,29.02Z" stroke-width="0"/>
    <path d="m182.77,344.49c-18.53-4.72-42.05-8.65-67.78-8.05,4.06-11.42,20.85-17.58,41.16-14.48,8.52,1.3,16.58,2.89,24.16,4.53.82,6.08,1.65,12.13,2.46,18Z" stroke-width="0"/>
    <path d="m198.88,448.17c-13.75,7.06-26.43,16.16-34.91,27.78-10.69-.87-26.4-1.95-37.98-1.95-19.29,0-48,3-53.41-12.49-6.4-18.31,8.88-23.29,16.07-24.02,27.55-2.8,90.35,4.21,110.23,10.68Z" stroke-width="0"/>
  </g>
  <path d="m280.54,363.32c-13.91-32.67-45-124.9-45-124.9-1.35,8.08,2,130.21,2,149.45,0,29.89-32.02,34.06-37,7.47-3.68-19.64-11.46-78.33-15.32-107.92l-5.26-76.92c-.19-2.76-2.57-4.83-5.33-4.65-2.75.19-4.83,2.57-4.65,5.33l5,73.11c-8.05,8.44-19.55,9.34-30.8,2.47-7.3-4.45-12.21-11.91-15.38-18.67l-2.83-63.88c-.12-2.76-2.46-4.89-5.22-4.77s-4.89,2.45-4.77,5.21l2.44,55.18c-3.96,3.74-9.89,6.8-18.94,5.59-17.66-2.36-21.55-19.41-21.33-55.32.21-35.9-.16-107.11,7.33-134.88,11.84-44,42.39-48.5,80.79-65.99,54.64-24.89,83.65,4.66,106.64,40.11,16.45,25.36,34.36,52.19,36.63,71.16,8.45,70.5-18.31,117.74-18.31,117.74-.81,13.44,17.15,69.88,23.31,108,5,30.96-24,40.56-34,17.08Z" stroke-width="0"/>
</svg>