<?xml version="1.0" encoding="UTF-8"?>
<svg id="Stop_Icon" data-name="Stop Icon" xmlns="http://www.w3.org/2000/svg" viewBox="0 0 512 512">
  <path d="m389.34,429.92s-41.13,5.72-54.31,2.39c-11.89-3-25.64-15.3-45.32-18.83-24.27-4.34-51.79,7.11-68.6,6.15-9.6-.55-23.64-7.95-42.29-13.17-8.98-2.51-17.05-1.32-21.06,2.65,31.3,3.48,54.75,18.29,55.94,19.05,2.43,1.55,3.13,4.78,1.57,7.22-1.58,2.44-4.82,3.11-7.22,1.57-.51-.32-32.44-20.33-69.63-17.91-.04,0-.09.01-.13,0-2.45,1.52-4.11,4.66-4.6,7.13,39.06.67,68.95,17.82,70.27,18.58,2.5,1.45,3.34,4.65,1.89,7.15-1.46,2.51-4.7,3.31-7.14,1.89-.32-.19-36.71-18.79-75.13-17.75-3.93.11-6.83,4.37-7.03,10-.21,5.72,3.81,8.54,8.01,9.95,36.11-4.37,68.35,10.95,76.48,15.22,13.56-3.65,26.63-4.43,31.45-4.6,30.94-24.41,67.01-6,68.55-5.19,2.56,1.34,3.54,4.5,2.21,7.05-1.33,2.56-4.49,3.55-7.05,2.22-1.36-.71-32.64-16.49-58.45,5.11-.92.78-2.1,1.21-3.31,1.22-13.42.11-49.57,4.29-59.08,21.85,0,4,1.13,8.94,6.56,10.31,9.53,2.39,36.61-6.64,49.34-2.02,12.72,4.63,37.32,6.27,59.77,2.22,10.26-1.85,24.14-6.48,35.02-8.89,14.96-3.32,53.32,11.52,53.32,11.52,29.01-39.23,9.99-82.08,9.99-82.08Z" stroke-width="0"/>
  <path d="m129.12,466.01c-2.35,1.71-4.31,4.55-3.71,9.16,1.34,10.34,17.5,10.45,27.75,11.7,5.05.61,10.7,2.21,15.11,3.65,4.5-6.27,11.21-10.89,18.65-14.31-12.48-5.18-34.31-12.16-57.8-10.2Z" stroke-width="0"/>
  <path d="m166.9,64.38c11.72,5.64,26.45,17.53,35.49,42.64,15.71,5.77,40.87,22.24,37.94,49.59-.29,2.86-2.93,4.98-5.75,4.63-2.87-.3-4.94-2.88-4.64-5.75,2.96-27.56-32.86-39.26-33.22-39.38-1.59-.5-2.86-1.74-3.39-3.33-9.31-27.93-25.84-38.14-38.03-41.8-1.96,1.58-3.23,4.07-3.08,7.9.27,6.95,16.12,12.67,20.73,36.85,4.6,24.19,1.15,24.19,4.6,31.1,3.46,6.91,12.68,19.57,12.68,39.15s-3.46,55.28-3.46,55.28c0,0,65.07,21.33,78.31-28.78l-14.39-42.05s12.83-15.78,9.26-38.23c-.55-3.42-.5-6.9.3-10.27,1.23-5.14,2.66-14.86,1.96-30.97-1.15-26.49-5.51-25.41-3.45-54.13,1.15-16.12-13.13-15.91-17.28-3.45-2.31,6.91-2.31,21.88-2.31,21.88,0,0-18.48-35.64-28.79-44.91-6.38-5.74-14.16-9.01-19.25-8.43,12.31,11.59,30.05,32.34,42.55,64.1,1.05,2.69-.27,5.73-2.96,6.78-.62.24-1.27.36-1.91.36-2.09,0-4.05-1.25-4.86-3.31-14.22-36.16-35.87-57.25-46.42-65.94-3.39-2.16-7.55-3.92-12.06-3.92-12.72,0-13.82,10.37-8.05,17.28,1.94,2.33,4.13,5.04,6.2,7.62,15.45,6.3,40.18,21.76,56.73,58.77,1.17,2.63-.01,5.72-2.64,6.9-.69.31-1.42.45-2.14.45-2,0-3.9-1.15-4.77-3.09-16.46-36.83-41.35-50.05-54.29-54.59-3.8,1.15-6.32,4.28-4.27,11.52,1.11,3.95,9.43,13.66,14.68,19.51Z" stroke-width="0"/>
  <path d="m309.64,298.21c5.36,4.79,4.68,17.79-1.75,23.61-14.2-4.91-34.14-12.27-44.86-18.3-10.6-5.63-7.53-14.84-4.09-20.02,3.89-5.7-4.2-11.58-8.43-6.16-4.28,5.7-10.02,21.06,1.97,31.44-4.21,5.47-5,16.92.69,24.48-.02.07-.05.12-.07.19-.18.73-2.17,9.58,1.68,21.55-3.75,1.28-8.14,4.74-10.03,9.27-11.26-5.65-36.03-16.77-51.64-14.16,0,0-24.19-55.28,2.3-86.38,0,0,51.14,8.06,73.36-21.3,15.83-20.93,11.86-27.07,11.86-39.73s20.73-11.52,26.48,11.51c5.76,23.03-2.31,43.76-2.31,43.76,0,0,1.42,11.35-1.31,22.35-15.39-10.23-31.32-11.92-32.14-12-2.86-.27-5.42,1.82-5.71,4.68-.29,2.86,1.82,5.27,4.66,5.72,0,0,28.17,9.49,39.34,19.49Z" stroke-width="0"/>
  <path d="m308.13,339.06c-.27-2.14-.98-3.94-1.94-5.44-13.28-4.51-34.15-11.99-47.22-18.66-10.01,14.69,21.88,30.32,44.46,38.97,3.57-3.78,5.39-9.32,4.7-14.87Z" stroke-width="0"/>
  <path d="m290.9,379.26c6.33-4.74,5.58-12.76,4.5-17.29-11.24-4.42-26.82-12.1-34.75-18.42.69,8.71,5.25,23.97,26.04,38.36,1.32-.67,2.73-1.54,4.21-2.65Z" stroke-width="0"/>
  <path d="m256.64,365.02c-10.77,3.6-3.55,20.88.77,30.4,2.06,2.13,4.58,3.35,7.65,3.04,10.08-1.02,10.96-7.8,10.59-11.75-9.22-7.27-15.19-14.74-19.01-21.69Z" stroke-width="0"/>
  <path d="m382.27,261.12c-2.19-6.78-11.82-7.46-14.93-1.05,0,0-3.99,8-3.99,8,1.34-43.5.45-146.89-39.78-152.44-13.32-.72-23.97,9.61-34.45,30.77-1.95,3.83-.2,8.89,3.71,10.69,3.85,1.96,8.87.19,10.69-3.71,7.79-16.07,14.66-21.8,18.5-21.8,1.54.09,4.67.77,9.51,9.36,15.93,33.88,16.83,80.76,15.85,125.82l-3.57-7.33c-5.04-9.47-18.89-2.76-14.56,7.09,0,0,18.98,38.96,18.98,38.96,1.36,2.8,4.15,4.55,7.28,4.55,3.09,0,5.87-1.72,7.25-4.48l19.07-38.23c.97-1.94,1.12-4.13.43-6.18Z" stroke-width="0"/>
</svg>