<?xml version="1.0" encoding="UTF-8"?>
<svg id="Take_A_Break_Icon" data-name="Take A Break Icon" xmlns="http://www.w3.org/2000/svg" viewBox="0 0 512 512">
  <path d="m159.17,359.02c10.99,14.69,40.82,13.75,26.56-9.69-4.65,3.82-13.17,8.81-26.56,9.69Z" stroke-width="0"/>
  <path d="m230.61,315.68c-10.64,4.35-19.6,7.54-24.53,8.11-29.79,4.35-.88,37.77,26.43,28.05-2.91-13.75,2.36-24.03-1.9-36.16Z" stroke-width="0"/>
  <path d="m500.11,256.82c-23.92-23.92-58.27-23.49-58.27-23.49,0,0-23.49,28.71-37.41,36.54-23.34,7.76-77.86-4.09-126.24,24.97,4.64,15.29,4.37,19.54,3.64,22.5-.48,8-14.27,56.66,5.94,63.07,13,8.87,26.13,18.41,39.33,17.84,10.16-.91,32.32-4.43,40.28-4.06,3.93-.35,5.98-6.79,3.52-9.94-40.58-7.3-79.77,7.19-61.76-56.54,1.6-6.27,11.43-3.65,9.66,2.61-.98,4.22-1.82,8.03-2.48,11.45-3.18,16.32-2.43,23.96,6.3,26.67,20.35,2.09,49.26,7.75,61.15,5.7-18.49-5.55-34.36-10.95-36.46-15.26-4.7-6.57-9.19-35.96-10.45-44.82-.98-6.39,9.05-7.85,9.9-1.41,8.37,44.29.01,39.75,37.38,51.13,11.69,2.26,22.21,10.79,28.19,6.58,9.13-11.8-7.95-23.38-18.6-27.94-7.02-2.9-7.83-1.7-9.85-6.28,0,0-5.74-27.18-5.74-27.18-.57-2.7,1.15-5.35,3.85-5.93,2.7-.57,5.36,1.16,5.93,3.86l5.17,24.43c14.8,5.8,35.12,9.73,60.2-11.25,5.07-4.26,11.45,2.89,6.67,7.45-15.36,13.74-31.13,17.69-43.28,18.12,18.43,18.09,3.08,46.32-21.24,32.31-3.76,4.58-9.09,6.28-13.72,6.79,1.93,8.91-5.56,20.16-14.68,19.44-5.05-.17-16.75,1.33-26.15,2.53-12.91,1.96-18.44,2.22-30.74-1.39-18.79,18.78-10,49.95,22.14,26.22,54.75-39.9,64.49-29.12,86.06-39.03,54.62-30.66,14.93-52.99,86.11-73.06,0,0,19.57-38.71-4.35-62.63Z" stroke-width="0"/>
  <path d="m268.39,296.97c-8.27-21.46-6.98-33.84-25.02-45.59-111.86-71.05-97.78-43.46-242-15.12,0,0-11.93,65.1,34.63,96.24l37.77-26.76c14.92,8.95,31.46,9.64,39.63,9.32,20.89-10.27,20.01-20,27.48-20.95,5.44-1.43,14.96,33.12,17.18,35.84,2.45,5.97-6.97,9.77-9.31,3.68,0,0-9.79-24.8-9.79-24.8-3.76,3.86-9.52,8.74-17.8,13.32,10.34,28.22,32.8,31.78,57.97,19.71,12.52-49.21-18.13-61.19-11.65-70.9,7.78-6.54,22.62,15.93,24.4,47.58,5.06-4.05,12.97-4.52,20.26-5.88,2.73-27.76-13.09-51.22-13.28-51.5-1.56-2.27-.99-5.39,1.28-6.95,8.41-5.81,22.78,25.08,22.27,56.1,3.15-.78,6.64-1.69,9.93-2.6,1.29-5.17,1.82-10.1,1.9-14.55,3.12,9.49,7.15,22.36,8.72,32.19-1.04.86-2.71,28.84,2.78,36.37,4.06,12.02,28.83,21.88,23.85-1.52-1.5-7.27-1.15-15.06-.54-23.5,1.54-20.62,5.89-20.83-.66-39.73Z" stroke-width="0"/>
  <path d="m126.97,107.82c1.22.71,2.61,1.09,4.02,1.09,2.31,0,4.5-1.01,6.01-2.71v82.92c0,4.41,3.59,8,8,8s8-3.59,8-8v-82.92c1.5,1.7,3.69,2.71,6,2.71,1.41,0,2.8-.38,4.02-1.09,1.85-1.08,3.16-2.81,3.71-4.87.54-2.07.25-4.22-.83-6.07l-14-24.01c-1.43-2.45-4.08-3.97-6.91-3.97s-5.48,1.52-6.91,3.97l-14,24.01c-1.08,1.85-1.37,4-.83,6.07.54,2.07,1.86,3.8,3.71,4.87Z" stroke-width="0"/>
  <path d="m375.9,110.71c1.22.71,2.62,1.09,4.03,1.09,2.31,0,4.5-1.01,6-2.71v131.04c0,4.41,3.59,8,8,8s8-3.59,8-8V109.09c1.5,1.7,3.69,2.71,6,2.71,1.41,0,2.8-.38,4.02-1.09,3.81-2.22,5.1-7.13,2.88-10.94l-14-24.01c-1.43-2.45-4.08-3.97-6.91-3.97s-5.48,1.52-6.91,3.97l-14,24.01c-2.22,3.81-.93,8.72,2.88,10.94Z" stroke-width="0"/>
</svg>