<?xml version="1.0" encoding="UTF-8"?>
<svg id="Thank_You_Icon" data-name="Thank You Icon" xmlns="http://www.w3.org/2000/svg" viewBox="0 0 512 512">
  <path d="m246.98,39.2c1.84-.54,3.83.03,5.12,1.46.05.05,1.98,2.14,5.48,4.89,3.41-12.62,13.76-24.46,30.55-24.46,13.69,0,29.66,9.52,32.39,30.41.02.18.05.36.07.54,9.95-5.22,16.37-11.49,16.48-11.59,1.29-1.28,3.17-1.76,4.92-1.25,31.63,9.23,64.91,4.15,82.66.06-28.3-4.6-56.7-21.56-73.59-33.28-10.05-6.97-23.1-7.91-34.07-2.48l-9.96,4.94c-8.06,3.99-17.53,3.99-25.59,0l-9.96-4.94c-10.96-5.43-24.01-4.49-34.07,2.48-16.84,11.68-45.09,28.56-73.3,33.24,17.69,4.09,51.11,9.24,82.87-.02Z" stroke-width="0"/>
  <path d="m207,95.42c3.72-11.21,11.74-24.59,28.92-26.5,1.01-.11,2.03-.17,3.03-.17,5.76,0,11.39,1.89,16.46,5.48.27-6.92.54-12.82.8-17.26-4.21-2.83-7.36-5.55-9.3-7.37-39.03,10.41-78.48,1.47-93.03-2.63,7.29,10.56,24.43,31.9,53.12,48.45Z" stroke-width="0"/>
  <path d="m341.91,49.56c-1.81,1.57-4.65,3.88-8.34,6.36,1.48-.21,2.99-.32,4.52-.32,16.88,0,30.88,12.7,32.56,29.54.29,3,.62,8.46.97,15.53,34.51-16.91,54.7-41.76,62.87-53.54-15.02,4.18-54.02,12.77-92.58,2.43Z" stroke-width="0"/>
  <path d="m377.68,150.4c-4.49,17.07-12.13,67.9-12.13,67.9,0,0-3.04-114.07-4.85-132.17-1.93-19.35-25.22-27.34-38.58-13.76l-2.09,139.38c-.04,2.73-2.27,4.92-5,4.92h-.08c-2.76-.04-4.96-2.31-4.92-5.07l2.18-145.13c-.56-5.06-1.14-10.05-1.61-13.68-3.64-27.89-39.02-29.1-43.87-2.43-1.65,9.09-5.35,161.31-5.35,161.31,0,2.77-2.24,5-5,5s-5-2.23-5-5v-127.91c-3.79-3.24-8.58-5.54-14.35-4.9-22.13,2.46-24.63,32.15-25.65,58.81-1,26.33-1.49,123.62-11.34,128.52-11.66,5.81-24.91-60.62-40.67-71.53-20.06-13.89-31.53-2.43-27.89,10.91,3.64,13.34,15.84,60.69,20.06,94.57,7.84,62.86,27.04,74.69,62.33,105.59,6.82,5.97,10.63,14.64,10.43,23.7-.39,17.87-2.33,47.83-10.31,70.18,0,0,79.46,27.88,153.71,0,0,0-14.27-61.84-16.7-87.31-2.42-25.46,38.8-18.18,47.29-98.21,8.49-80.03,13.34-139.86,13.34-158.84,0-25.46-27.89-27.89-33.95-4.85Z" stroke-width="0"/>
  <path d="m171.07,150.44c-9.91-20.46-20.96-30.83-32.86-30.83-.53,0-1.05.02-1.58.06-16.08,1.24-27.67,20.45-34.44,57.1-4.86,26.29-6.71,59.72-5.34,95.34l-3.99-8c-1.38-2.77-4.16-4.48-7.25-4.48-1.24,0-2.49.29-3.61.85-4,1.99-5.62,6.87-3.63,10.86l19.07,38.23c1.38,2.77,4.16,4.48,7.25,4.48h.04c3.11-.02,5.88-1.76,7.24-4.55l18.97-38.96c1.96-4.01.28-8.87-3.74-10.83-1.12-.54-2.31-.82-3.54-.82-3.08,0-5.94,1.79-7.28,4.55l-3.57,7.33c-1.28-34.15.5-66.15,5.11-91.11,6.3-34.12,15.8-43.74,19.94-44.06.1,0,.2-.01.3-.01,3.85,0,10.73,5.73,18.51,21.8,1.33,2.74,4.16,4.51,7.2,4.51,1.21,0,2.38-.27,3.48-.8,1.92-.93,3.37-2.56,4.07-4.57.7-2.02.57-4.19-.36-6.11Z" stroke-width="0"/>
</svg>