<?xml version="1.0" encoding="UTF-8"?>
<svg id="Time_Icon" data-name="Time Icon" xmlns="http://www.w3.org/2000/svg" viewBox="0 0 512 512">
  <path d="m308.73,494.08c.79,4.64,1.93,10.35,3.3,14.98,1.87,6.3,14.22,1.91,16.55-7.72,1.09-4.5,1.4-9.9,1.41-14.38-8,5.05-16,8.05-21.26,7.12Z" stroke-width="0"/>
  <path d="m413.05,303.47s-28.77,27.57-54.78,34.62c-10.34,2.8-37.44,32.08-63.79,48.16-26.34,16.09-29.22,31.33-31.17,47.07-4.12,33.36,13.54,60.25,31.53,60.57,1.71.03,3.52-.6,5.12-1.38-27.93-23.76-25.49-44.98-25.36-45.94.26-1.96,2.07-3.34,4.03-3.08,1.95.26,3.32,2.04,3.08,4,0,13.81,8.36,28.08,26.95,42.85,4.97.14,9.06-2.11,11.81-4.29-23.87-13.24-30.36-40.39-30.64-41.62-.44-1.93.77-3.85,2.69-4.3,1.93-.44,3.85.76,4.3,2.69.07.29,7.09,29.39,32.58,39.55.08.03.17.07.24.1,4.21-.11,10.08-1.22,14.2-5.88-27.27-16.88-28.86-41.24-28.91-42.31-.11-1.97,1.41-3.66,3.38-3.76,1.98-.1,3.66,1.42,3.77,3.39.05.93,1.65,22.81,27.35,37.68,5.11-.78,16.41-3.78,22.81-15.23,4.37-7.83,1.29-18.04-1.61-24.55-6.52,1.88-11.91,2.36-15.76,2.35l8.35,18.46c.77,1.7.11,3.68-1.48,4.58-1.81,1.06-4.19.28-5.04-1.63,0,0-10.88-24.04-10.88-24.04-1.28-2.62,1.3-5.73,4.12-4.95-.12.11,9.36,1.71,21.7-2.56,0,0,0-.01.01,0,9.65-3.49,32.48-14.54,41.64-43.21,0,0,20.27-11.84,43.19-13.96,0,0,1.01-51.63-43.41-63.36Z" stroke-width="0"/>
  <path d="m283.12,383.57c2.23-8.79-2.93-17.25-6.7-22-4.37,1.11-9.35,1.95-12.82,1.27-2.17-.42-5.91-1.37-10.24-2.47-7.42-1.88-16.66-4.24-20.81-4.59-4.35-.38-7.89-3.83-9.03-8.79-.36-1.58-.44-3.14-.26-4.62.14-1.14.44-2.23.87-3.25-.36-.06-.72-.14-1.1-.22-4.72-1.08-8.19-3.48-10.15-6.98-1.79.39-3.22.77-4.12,1.12-4.83,1.89-10.45.86-13.99-2.57-1.74-1.68-4.14-5.11-3.45-10.79.17-1.37.51-2.88,1.09-4.52,1.57-4.42,5.07-7.89,9.13-10.57-9.83-.99-23.15-5.19-34.96-18.66-.56-.65-.79-1.47-.69-2.26.08-.68.41-1.34.96-1.83,1.2-1.06,3.03-.94,4.09.26,9.16,10.45,20.29,16.12,33.08,16.88,4.63.27,8.66-.18,11.61-.73,1.61-.49,2.99-.85,3.98-1.08l6.7-19.6c.52-1.51,2.17-2.32,3.68-1.8,1.51.52,2.32,2.17,1.8,3.68l-7.24,21.13c-.02.06-.05.12-.07.17-.02.04-.03.08-.06.12-.06.14-.14.28-.24.41-.02.03-.04.06-.06.09-.08.11-.16.2-.26.3-.03.04-.07.07-.11.1-.12.11-.24.21-.37.29-.03.02-.06.04-.09.05-.13.08-.26.14-.39.2-.02,0-.04.02-.06.03-.17.06-2.32.86-5.83,1.54-1.75.54-3.79,1.25-5.88,2.14-5.02,2.14-11.39,5.8-13.25,11.06-1.44,4.05-1.12,7.24.92,9.22,1.9,1.85,5.13,2.39,7.85,1.33,2.91-1.13,9.1-2.25,16.28-3.54,7.89-1.42,22.58-4.07,24.58-6.11,2.48-2.7,8-20.28,11.13-31.89.42-1.54,2-2.46,3.54-2.04,1.55.42,2.46,2.01,2.05,3.55-1.32,4.9-8.13,29.58-12.45,34.3-2.95,3.22-12.48,5.13-27.82,7.89-1.64.3-3.26.59-4.8.87,3.64,3.57,10.48,3.03,10.59,3.03.03,0,.05,0,.08,0,.08,0,.15-.01.22-.01.33,0,33.07.5,41.39.14,2.44-.11,4.21-.93,5.59-2.59,2.48-2.98,4.87-10.4,2.23-28.76-.23-1.59.87-3.05,2.45-3.28,1.59-.23,3.06.87,3.28,2.45,2.39,16.66,1.24,27.55-3.51,33.29-2.42,2.92-5.72,4.49-9.79,4.67-7.79.35-35.28-.03-40.81-.11-1.94,1.59-2.17,4.27-1.72,6.21.47,2.02,1.85,4.13,3.9,4.31,4.62.41,13.71,2.71,21.73,4.75,4.24,1.08,7.9,2.01,9.91,2.39,3.4.66,9.91-.96,14.64-2.45,4.91-2.27,11.95-5.61,18.71-9.08,11.14-5.71,14.15-13.32,13.23-21.33-.02-.05-.03-.1-.04-.15l-9.13-44.92c-1.33-4.72-2.75-8.62-4.25-10.83-8.06-11.9-71.84-14.74-82.19-22.35-10.35-7.6-26.3-32.8-26.3-32.8,0,0-27.38-3.69-48.81,13.08-21.42,16.77-9.56,49.57-9.56,49.57,0,0,26.68,12.41,32.61,21.59,5.93,9.18,4.78,30.18,29.03,45.11,16.26,10.01,25.08,2.36,64.9,39.53,10.79,10.06,22.65,13.03,25.59,1.44Z" stroke-width="0"/>
  <path d="m351.98,330.3c24.3,2.96,34.56-17.64,16.79-21.91-8.89-2.14-25.44-9.01-39.77-15.35-7.9-3.5-15.13-6.83-20.02-9.11l7.44,36.6c8.61,3.56,21.65,8.08,35.56,9.77Z" stroke-width="0"/>
  <path d="m140.12,214.12c9.18-5.93,30.18-4.78,45.11-29.03,10.01-16.26,2.36-25.08,39.53-64.9,10.06-10.79,13.03-22.65,1.44-25.59-8.79-2.23-17.25,2.93-22,6.7,1.11,4.37,1.95,9.35,1.27,12.82-.42,2.17-1.37,5.91-2.47,10.24-1.88,7.42-4.24,16.66-4.6,20.81-.38,4.35-3.83,7.89-8.79,9.03-1.58.36-3.14.44-4.62.26-1.14-.14-2.23-.44-3.25-.87-.06.36-.13.72-.22,1.1-1.08,4.72-3.48,8.19-6.98,10.15.39,1.79.77,3.22,1.12,4.12,1.89,4.83.86,10.45-2.57,13.99-1.68,1.74-5.11,4.14-10.79,3.45-1.37-.17-2.88-.51-4.52-1.09-4.42-1.57-7.89-5.07-10.57-9.13-.99,9.83-5.19,23.15-18.66,34.96-.65.56-1.47.79-2.26.69-.68-.08-1.34-.41-1.83-.96-1.06-1.2-.94-3.03.26-4.09,10.45-9.16,16.12-20.29,16.88-33.08.27-4.63-.18-8.66-.73-11.61-.49-1.61-.85-2.99-1.08-3.98l-19.6-6.7c-1.51-.52-2.32-2.17-1.8-3.68.52-1.51,2.17-2.32,3.68-1.8l21.13,7.24c.06.02.12.05.17.07.04.02.08.03.12.06.14.06.28.14.41.24.03.02.06.04.09.06.11.08.2.16.3.26.04.03.07.07.1.11.11.12.21.24.29.37.02.03.04.06.05.09.08.13.14.26.2.39,0,.02.02.04.03.06.06.17.86,2.32,1.54,5.83.54,1.75,1.25,3.79,2.14,5.88,2.14,5.02,5.8,11.39,11.06,13.25,4.05,1.44,7.24,1.12,9.22-.92,1.85-1.9,2.39-5.13,1.33-7.85-1.13-2.91-2.25-9.1-3.54-16.28-1.42-7.89-4.07-22.58-6.11-24.58-2.7-2.48-20.28-8-31.89-11.13-1.54-.42-2.46-2-2.04-3.54.42-1.55,2.01-2.46,3.55-2.05,4.9,1.32,29.58,8.13,34.3,12.45,3.22,2.95,5.13,12.48,7.89,27.82.3,1.64.59,3.26.87,4.8,3.57-3.64,3.03-10.48,3.03-10.59,0-.03,0-.05,0-.08,0-.08-.01-.15-.01-.22,0-.33.5-33.07.14-41.39-.11-2.44-.93-4.21-2.59-5.59-2.98-2.48-10.4-4.87-28.76-2.23-1.59.23-3.05-.87-3.28-2.45-.23-1.59.87-3.06,2.45-3.28,16.66-2.39,27.55-1.24,33.29,3.51,2.92,2.42,4.49,5.72,4.67,9.79.35,7.79-.03,35.28-.11,40.81,1.59,1.94,4.27,2.17,6.21,1.72,2.02-.47,4.13-1.85,4.31-3.9.41-4.62,2.71-13.71,4.75-21.73,1.08-4.24,2.01-7.9,2.39-9.91.66-3.4-.96-9.91-2.45-14.64-2.27-4.91-5.61-11.95-9.08-18.71-5.71-11.14-13.32-14.15-21.33-13.23-.05.02-.1.03-.15.04l-44.92,9.13c-4.72,1.33-8.62,2.75-10.83,4.25-11.9,8.06-14.74,71.84-22.35,82.19-7.6,10.35-32.8,26.3-32.8,26.3,0,0-3.69,27.38,13.08,48.81,16.77,21.42,49.57,9.56,49.57,9.56,0,0,12.41-26.68,21.59-32.61Z" stroke-width="0"/>
  <path d="m172.94,25.75c2.96-24.3-17.64-34.56-21.91-16.79-2.14,8.89-9.01,25.44-15.35,39.77-3.5,7.9-6.83,15.13-9.11,20.02l36.6-7.44c3.56-8.61,8.08-21.65,9.77-35.56Z" stroke-width="0"/>
</svg>