<?xml version="1.0" encoding="UTF-8"?>
<!DOCTYPE svg PUBLIC "-//W3C//DTD SVG 1.1//EN" "http://www.w3.org/Graphics/SVG/1.1/DTD/svg11.dtd">
<!-- Creator: CorelDRAW 2020 (64-Bit) -->
<svg xmlns="http://www.w3.org/2000/svg" xml:space="preserve" width="0.647224in" height="1.17119in" version="1.1" shape-rendering="geometricPrecision" text-rendering="geometricPrecision" image-rendering="optimizeQuality" fill-rule="evenodd" clip-rule="evenodd"
viewBox="0 0 20.34 36.8"
 xmlns:xlink="http://www.w3.org/1999/xlink"
 xmlns:xodm="http://www.corel.com/coreldraw/odm/2003">
 <g id="Layer_x0020_1">
  <metadata id="CorelCorpID_0Corel-Layer"/>
  <g id="_2294780215632">
   <path fill="black" stroke="white" stroke-width="2.55" stroke-linecap="round" stroke-linejoin="round" stroke-miterlimit="2.61313" d="M6.35 13.1c-3.12,0.96 -3.96,-1.77 -2.77,-3.36 1.25,-1.66 2.13,-3.53 2.5,-5.64 0.28,-2.07 0.72,-3.77 2.39,-3.77 1.67,0 2.11,1.71 2.39,3.77 0.37,2.12 1.24,3.98 2.5,5.64 1.19,1.59 0.35,4.31 -2.77,3.36 0.56,-1.04 2.07,-1.46 2.25,-0.03 -0.18,-1.43 -1.69,-1.02 -2.25,0.03 -0.62,0.71 -1.32,1.15 -2.12,1.15 -0.8,0 -1.5,-0.45 -2.12,-1.15 -0.56,-1.04 -2.07,-1.46 -2.25,-0.03 0.18,-1.43 1.69,-1.02 2.25,0.03z"/>
   <path fill="black" stroke="white" stroke-width="1.51" stroke-linecap="round" stroke-linejoin="round" stroke-miterlimit="2.61313" d="M19.33 28.67l-0 -0c0.87,-0.83 0.91,-2.21 0.09,-3.08l0 0c-0.82,-0.87 -2.21,-0.91 -3.08,-0.09l-1.27 1.2 3.32 -3.15c0.87,-0.83 0.94,-2.24 0.09,-3.08l-0 -0c-0.85,-0.85 -2.21,-0.91 -3.08,-0.09l-3.32 3.14 4.81 -4.56c0.87,-0.83 0.91,-2.21 0.09,-3.08l0 0c-0.82,-0.87 -2.21,-0.91 -3.08,-0.09l-4.81 4.56 5.98 -5.67c2.26,-2.13 -1.25,-5.31 -2.99,-3.17l-5.37 6.57c-1.05,1.12 -1.5,0.82 -1.54,-0.76l0.16 -3.36c0.29,-4.14 -5.55,-4.55 -4.95,-0.57 2.11,9.13 -1.43,17.3 2.41,20.4 8.73,5.36 9.17,1.87 14.08,-2.76l2.48 -2.34z"/>
  </g>
 </g>
</svg>
