<?xml version="1.0" encoding="UTF-8"?>
<svg id="Silence_Icon" data-name="Silence Icon" xmlns="http://www.w3.org/2000/svg" viewBox="0 0 512 512">
  <path d="m99.12,102.74c7.34,0,14.71,4.28,20.76,12.06,4.44,5.7,6.26,19.29,6.86,33.26,8.61-7.81,30.11-32.45,41.08-45.02,11.14-12.76,17.08-19.54,19.76-21.95.36-.33.73-.64,1.09-.93-6.79-5.93-12.21-13.34-15.92-21.63-10.42-23.28-14.35-47.82-14.35-47.82-2.27-6.25-8.25-10.71-15.28-10.71h-.6c-7.03,0-13,4.46-15.27,10.71,0,0-3.93,24.54-14.35,47.82-4.82,10.78-12.55,20.07-22.4,26.57-5.95,3.93-12.23,9.61-12.23,15.94,0,5.53,2.09,10.57,5.53,14.38,1.1-7.34,7.4-12.68,15.32-12.68Z" stroke-width="0"/>
  <path d="m221.7,188.26c4.99-23.69-14.96-24.94-14.96-24.94,2.49-24.94-19.4-22.43-19.4-22.43,0,0,25.42-36.17,28.65-43.65,3.22-7.48-9.24-19.95-21.71-8.73-6.7,6.03-54.2,63.48-64.83,70.12-4.3,2.69-8.73,5.93-12.47,5.93,0,0,.41-36.7-4.99-43.64-8.73-11.22-18.16-9.46-18.37-3.39-.72,20.59-1.3,38.19-7.82,53.26-3.49,8.21-10.24,32.45-8.73,43.64,2.28,16.84,14.53,35.84,12.47,52.36-1.25,9.97-19.95,56.1-19.95,56.1,43.64,38.65,104.71,25.03,104.71,25.03,0,0-1.74-59.01,7.96-66.62,17.25-8.51,40.7-51.01,46.92-61.89,4.99-7.48,6.24-18.7,3.74-23.69-3.94-7.89-11.22-7.48-11.22-7.48Z" stroke-width="0"/>
  <path d="m307.44,253.42c-5.95,3.93-12.24,9.6-12.24,15.93,0,.24,0,.48.02.72,2.8-3.45,7.18-5.6,12.21-5.6,7.34,0,14.72,4.28,20.76,12.05,2.56,3.29,4.25,9.19,5.34,16.27,5.65-10.88,10.96-21,14.94-26.69,4.07-5.82,11.64-9.03,21.31-9.03,10.61,0,27.99,4.34,32.41,16.29.81,2.17,1.99,6.34,2.84,17.21h.18s.03.71.03.71c1.75-.72,2.86-1.06,2.86-1.06h-.03c9.33-2.38,16.25-10.81,16.25-20.87,0-6.33-6.29-12-12.24-15.93-9.85-6.51-17.58-15.8-22.4-26.57-10.42-23.29-14.35-47.83-14.35-47.83-2.27-6.24-8.24-10.71-15.27-10.71h-.6c-7.03,0-13,4.47-15.27,10.71,0,0-3.93,24.54-14.35,47.83-4.82,10.77-12.55,20.06-22.4,26.57Z" stroke-width="0"/>
  <path d="m430.01,349.99c4.99-23.69-14.96-24.94-14.96-24.94,1.12-30.51-23.07-21.39-32.92-20.45-5.53.65-8.15-13.42-10.29-16.66-2.58-5.95,6.82-9.87,9.24-3.85l3.82,9.18c2.57-.75,6.03-1.53,10.17-1.85-.43-5.48-1.13-11.55-2.26-14.59-3.32-8.98-29.82-14.04-36.15-4.99-8.73,12.47-27.63,54.46-31.37,54.46,0,0,.41-36.7-4.99-43.64-8.73-11.22-18.16-9.46-18.37-3.39-.71,20.59-1.29,38.19-7.81,53.26-3.49,8.21-10.24,32.45-8.73,43.64,2.28,16.84,14.53,35.84,12.47,52.37-1.25,9.97-19.95,56.1-19.95,56.1,43.64,38.65,104.71,25.03,104.71,25.03-2.92-91.96,15.96-50.46,54.87-128.51,8.74-12.98,5.57-31.4-7.48-31.17Z" stroke-width="0"/>
  <path d="m320.07,157.72c-.73-.21-1.49-.32-2.25-.32-3.53,0-6.69,2.37-7.68,5.76l-3.59,12.3c-19.65-42.89-61.12-62.06-62.98-62.9-1.05-.47-2.16-.71-3.3-.71-3.14,0-6,1.85-7.29,4.7-.88,1.95-.95,4.12-.2,6.13.75,2,2.24,3.59,4.18,4.46.42.19,39.6,18.58,56.25,57.83l-11.63-6.8c-1.23-.72-2.62-1.1-4.04-1.1-2.84,0-5.49,1.52-6.91,3.96-1.08,1.85-1.38,4-.83,6.07s1.86,3.8,3.7,4.88l29.51,17.24c1.22.72,2.62,1.09,4.04,1.09h0c1.02,0,2.01-.19,2.96-.57,2.31-.92,4.03-2.81,4.73-5.19l10.78-36.89c.06-.2.11-.4.15-.59.87-4.08-1.58-8.19-5.58-9.36Z" stroke-width="0"/>
</svg>
