<svg version="1.1" viewBox="0 0 512 512" xmlns="http://www.w3.org/2000/svg">
		<path d="m207.38977 183.6509c-44.86926 13.73903-56.95612-25.39112-39.82582-48.26052 17.9999-23.91287 30.60849-50.695297 35.91277-81.129858 3.99997-29.738913 10.34777-54.26048 34.43456-54.26048 23.99982 0 30.3476 24.521567 34.43451 54.26048 5.2174 30.434561 17.82599 57.216988 35.91282 81.129858 17.1303 22.8694 5.04344 61.99955-39.82582 48.26052 7.99996-15.04337 29.73895-20.95636 32.34759-0.4348-2.60864-20.52159-24.34763-14.60859-32.34759 0.4348-8.8695 10.17384-18.95638 16.60857-30.43458 16.60857-11.56514 0-21.65201-6.43473-30.43454-16.60857-7.99995-15.04337-29.73894-20.95636-32.34758-0.4348 2.60864-20.52159 24.34763-14.60859 32.34758 0.4348z"/>
		<path d="m388.25803 403.64932c0.17367-0.17368 0.26074-0.34783 0.43489-0.52174 5.21735-4.9565 7.99991-11.65206 8.17386-18.34767 0.17368-6.6956-2.17389-13.47819-7.1304-18.78247l-0.0871-0.0871c-4.95646-5.21739-11.56513-7.91302-18.26073-8.08693-6.60863-0.17415-13.30424 2.08697-18.52158 6.86951l-18.17377 17.21728-6.34779-6.69561c15.82595-14.9564 31.99978-29.9128 47.56485-45.04316 4.86957-4.95646 7.56519-11.47815 7.73911-17.99985 0.26075-6.5217-1.91306-13.0434-6.69561-17.99988l-0.4349-0.52173c-5.21734-5.21736-11.91295-7.99994-18.69548-8.17386-6.60868-0.17391-13.3043 2.08694-18.43466 6.95648l-46.95622 44.52143-6.34779-6.6956 68.08651-64.5213c5.21735-4.95648 7.99991-11.65208 8.17386-18.34769 0.17368-6.6956-2.17389-13.47817-7.1304-18.78248l-0.0871-0.087c-4.95647-5.21735-11.56514-7.91298-18.26074-8.0869-6.69557-0.17391-13.47815 2.17391-18.6955 7.04343-22.78244 21.39116-45.39098 43.04318-68.17343 64.60824l-6.34778-6.69561 84.69507-80.26029c9.47816-8.95646 10.60861-19.39116 7.04342-27.9998-1.65216-4.08693-4.26086-7.73908-7.47822-10.78253-3.21736-3.04346-7.04343-5.39126-11.0434-6.78257l-0.17368-0.087c-8.08689-2.69563-17.21727-1.30434-23.99981 7.04343l-75.99948 92.95585-0.4349 0.4348c-9.04341 9.47819-15.99991 12.6086-21.56507 9.56515l-0.34783-0.26089c-4.86952-2.9565-7.21733-10.86948-7.56515-23.39114 0.17415-15.5651 1.47826-32.34759 2.26083-47.99965 1.30435-19.21726-7.56515-32.08673-19.13028-38.17364-5.21735-2.78259-10.95643-4.17388-16.5216-4.17388-5.3913 0-10.60865 1.39129-14.86947 4.08692-7.82604 4.95649-12.69558 14.78251-10.43469 29.73892 13.30423 57.82567 10.86944 112.69484 8.69554 159.82492-2.60865 57.39092-4.69562 102.86884 23.47814 125.8252 99.04277 60.6952 119.91215 38.43453 162.25969-6.86952 9.13035-9.73906 19.13028-20.52158 31.13023-31.82587l34.52149-32.60843z"/>
</svg>
