<?xml version="1.0" encoding="UTF-8"?>
<!DOCTYPE svg PUBLIC "-//W3C//DTD SVG 1.1//EN" "http://www.w3.org/Graphics/SVG/1.1/DTD/svg11.dtd">
<!-- Creator: CorelDRAW 2020 (64-Bit) -->
<svg xmlns="http://www.w3.org/2000/svg" xml:space="preserve" width="0.59602in" height="1.13276in" version="1.1" shape-rendering="geometricPrecision" text-rendering="geometricPrecision" image-rendering="optimizeQuality" fill-rule="evenodd" clip-rule="evenodd"
viewBox="0 0 30.97 58.86"
 xmlns:xlink="http://www.w3.org/1999/xlink"
 xmlns:xodm="http://www.corel.com/coreldraw/odm/2003">
 <g id="Layer_x0020_1">
  <metadata id="CorelCorpID_0Corel-Layer"/>
  <g id="_2276785915664">
   <path fill="black" d="M9.17 21.12c-5.16,1.58 -6.55,-2.92 -4.58,-5.55 2.07,-2.75 3.52,-5.83 4.13,-9.33 0.46,-3.42 1.19,-6.24 3.96,-6.24 2.76,0 3.49,2.82 3.96,6.24 0.6,3.5 2.05,6.58 4.13,9.33 1.97,2.63 0.58,7.13 -4.58,5.55 0.92,-1.73 3.42,-2.41 3.72,-0.05 -0.3,-2.36 -2.8,-1.68 -3.72,0.05 -1.02,1.17 -2.18,1.91 -3.5,1.91 -1.33,0 -2.49,-0.74 -3.5,-1.91 -0.92,-1.73 -3.42,-2.41 -3.72,-0.05 0.3,-2.36 2.8,-1.68 3.72,0.05z"/>
   <path fill="black" d="M29.97 46.42c0.02,-0.02 0.03,-0.04 0.05,-0.06l0 -0c0.6,-0.57 0.92,-1.34 0.94,-2.11 0.02,-0.77 -0.25,-1.55 -0.82,-2.16l-0.01 -0.01c-0.57,-0.6 -1.33,-0.91 -2.1,-0.93 -0.76,-0.02 -1.53,0.24 -2.13,0.79l-2.09 1.98 -0.73 -0.77c1.82,-1.72 3.68,-3.44 5.47,-5.18 0.56,-0.57 0.87,-1.32 0.89,-2.07 0.03,-0.75 -0.22,-1.5 -0.77,-2.07l-0.05 -0.06c-0.6,-0.6 -1.37,-0.92 -2.15,-0.94 -0.76,-0.02 -1.53,0.24 -2.12,0.8l-5.4 5.12 -0.73 -0.77 7.83 -7.42c0.6,-0.57 0.92,-1.34 0.94,-2.11 0.02,-0.77 -0.25,-1.55 -0.82,-2.16l-0.01 -0.01c-0.57,-0.6 -1.33,-0.91 -2.1,-0.93 -0.77,-0.02 -1.55,0.25 -2.15,0.81 -2.62,2.46 -5.22,4.95 -7.84,7.43l-0.73 -0.77 9.74 -9.23c1.09,-1.03 1.22,-2.23 0.81,-3.22 -0.19,-0.47 -0.49,-0.89 -0.86,-1.24 -0.37,-0.35 -0.81,-0.62 -1.27,-0.78l-0.02 -0.01c-0.93,-0.31 -1.98,-0.15 -2.76,0.81l-8.74 10.69 -0.05 0.05c-1.04,1.09 -1.84,1.45 -2.48,1.1l-0.04 -0.03c-0.56,-0.34 -0.83,-1.25 -0.87,-2.69 0.02,-1.79 0.17,-3.72 0.26,-5.52 0.15,-2.21 -0.87,-3.69 -2.2,-4.39 -0.6,-0.32 -1.26,-0.48 -1.9,-0.48 -0.62,0 -1.22,0.16 -1.71,0.47 -0.9,0.57 -1.46,1.7 -1.2,3.42 1.53,6.65 1.25,12.96 1,18.38 -0.3,6.6 -0.54,11.83 2.7,14.47 11.39,6.98 13.79,4.42 18.66,-0.79 1.05,-1.12 2.2,-2.36 3.58,-3.66l3.97 -3.75z"/>
  </g>
 </g>
</svg>
