<?xml version="1.0" encoding="UTF-8"?>
<svg id="Together_Icon" data-name="Together Icon" xmlns="http://www.w3.org/2000/svg" viewBox="0 0 512 512">
  <path d="m489.05,360.89h3.79c4.46,0,8.08-3.63,8.08-8.08s-3.63-8.08-8.08-8.08h-36.87c-2.82,0-5.48,1.5-6.93,3.92-1.45,2.42-1.53,5.47-.2,7.96l14.92,27.97c1.41,2.64,4.14,4.28,7.13,4.28,1.32,0,2.63-.33,3.8-.95,1.91-1.02,3.3-2.71,3.93-4.78.63-2.07.41-4.25-.6-6.16l-2.69-5.04c13.01,6.92,20.28,14.22,20.28,20.57,0,12.22-26.08,26.84-66.43,37.24-46.15,11.9-107.66,18.45-173.18,18.45s-127.03-6.55-173.18-18.45c-40.36-10.4-66.43-25.02-66.43-37.24,0-9.29,16.13-20.75,42.1-29.92,4.26-1.51,6.5-6.2,5-10.45-1.15-3.27-4.26-5.47-7.73-5.47-.93,0-1.85.16-2.73.47C17.84,359.55,0,374.81,0,392.5c0,9.52,5.3,18.47,15.75,26.63,13.01,10.15,34.2,19.06,62.98,26.48,47.45,12.23,110.41,18.97,177.27,18.97s129.82-6.74,177.27-18.97c28.78-7.42,49.97-16.33,62.98-26.48,10.45-8.15,15.75-17.11,15.75-26.63,0-11.61-7.71-22.21-22.95-31.61Z" stroke-width="0"/>
  <path d="m193.29,48.62c-12.6-3.34-30.91-1.11-37.78,24.46-2.03,7.55-16.84,27.94-27.59,42.09l76.8-5.57c14.12-37.65,5.11-56.59-11.42-60.97Z" stroke-width="0"/>
  <path d="m72.67,261.87c-9.49,32.65,6.64,39.43,14.66,56.11,8.02,16.67-4.84,23.45,7.48,36.33,14.88,15.56,50.42,4.11,89.32,2.23,45.8-2.23,58.4-14.46,60.69-36.68,1.11-10.82-2.98-18.8-6.33-23.36l-79.49,1.18h-.07c-2.59,0-4.7-2.08-4.74-4.67-.04-2.62,2.05-4.77,4.67-4.81l76.61-1.14,5.73-.09c3.96-4.45,8.2-12.39,8.2-26.04,0-12.26-4.69-19.6-9.18-23.81h-77.84c-2.62,0-4.74-2.11-4.74-4.74s2.12-4.74,4.74-4.74h77.25c6.44-4.92,14.49-14.35,12.91-30.11-1.37-13.55-7.62-20.84-13.2-24.7h0l-80.2,3.34c-.07,0-.13,0-.2,0-2.53,0-4.63-2-4.74-4.55-.1-2.62,1.92-4.82,4.54-4.93l72.61-3.02,4.8-.2c14.39-16,4.31-42.83-13.08-44.82-1.83-.21-4.22-.33-7.07-.37l-108.19,7.84c-4.68.52-8.7,1-11.84,1.42-25.2,3.34-26.34,18.9-26.34,18.9,0,0-2.99,12.42,3.44,28.9,4.23,10.85-12.46,24.55-13.74,42.24-1.45,19.99,16.7,32.76,13.36,44.29Z" stroke-width="0"/>
  <path d="m384.08,115.17c-10.75-14.14-25.56-34.53-27.59-42.09-6.87-25.56-25.19-27.79-37.78-24.46-16.53,4.38-25.55,23.32-11.42,60.97l76.8,5.57Z" stroke-width="0"/>
  <path d="m272.35,227.64h77.25c2.62,0,4.74,2.12,4.74,4.74s-2.12,4.74-4.74,4.74h-77.84c-4.48,4.21-9.18,11.55-9.18,23.81,0,13.65,4.24,21.59,8.2,26.04l5.73.09,76.61,1.14c2.63.04,4.71,2.19,4.67,4.81-.04,2.6-2.15,4.67-4.74,4.67h-.07l-79.49-1.18c-3.36,4.56-7.44,12.53-6.33,23.36,2.29,22.23,14.89,34.46,60.69,36.68,38.9,1.89,74.44,13.34,89.32-2.23,12.32-12.88-.54-19.66,7.48-36.33,8.02-16.67,24.15-23.45,14.66-56.11-3.35-11.53,14.81-24.29,13.36-44.29-1.28-17.69-17.97-31.38-13.74-42.24,6.43-16.48,3.44-28.9,3.44-28.9,0,0-1.15-15.56-26.34-18.9-3.14-.42-7.16-.9-11.84-1.42l-108.19-7.84c-2.85.04-5.24.16-7.07.37-17.39,1.99-27.47,28.82-13.08,44.82l4.8.2,72.61,3.02c2.62.1,4.64,2.31,4.54,4.93-.11,2.55-2.21,4.55-4.74,4.55-.07,0-.13,0-.2,0l-80.2-3.34h0c-5.58,3.86-11.84,11.15-13.2,24.7-1.58,15.76,6.47,25.2,12.91,30.11Z" stroke-width="0"/>
</svg>