<?xml version="1.0" encoding="UTF-8"?>
<!DOCTYPE svg PUBLIC "-//W3C//DTD SVG 1.1//EN" "http://www.w3.org/Graphics/SVG/1.1/DTD/svg11.dtd">
<!-- Creator: CorelDRAW 2020 (64-Bit) -->
<svg xmlns="http://www.w3.org/2000/svg" xml:space="preserve" width="1.5147in" height="1.30207in" version="1.1" shape-rendering="geometricPrecision" text-rendering="geometricPrecision" image-rendering="optimizeQuality" fill-rule="evenodd" clip-rule="evenodd"
viewBox="0 0 135.23 116.25"
 xmlns:xlink="http://www.w3.org/1999/xlink"
 xmlns:xodm="http://www.corel.com/coreldraw/odm/2003">
 <g id="Layer_x0020_1">
  <metadata id="CorelCorpID_0Corel-Layer"/>
  <g id="_2294844416304">
   <path fill="black" stroke="white" stroke-width="1.86" stroke-linecap="round" stroke-linejoin="round" stroke-miterlimit="2.61313" d="M109.49 59.11c11.12,61.72 -25.54,57.72 -61.38,54.87 -23.9,-2.21 -30.35,-13.78 -35.03,-38.75 -0.72,-10.33 -1.45,-20.67 -2.17,-31 -1.01,-18.02 9.26,-23.94 21.39,-18.29 -0.59,-11.72 20.23,-15.33 22.63,-4.34 -0.82,-10.88 18.46,-13.51 21.7,-2.17 5.07,-22.93 37.42,-26.62 29.76,0.62 9.22,-4.11 18.87,4.76 14.88,13.64 -3.93,8.47 -7.85,16.95 -11.78,25.42z"/>
   <path fill="none" stroke="white" stroke-width="1.86" stroke-linecap="round" stroke-linejoin="round" stroke-miterlimit="2.61313" d="M32.3 25.94c7.89,7.49 7.92,17.08 6.28,27.13 -1.68,8.07 -17.83,10.91 -17.83,0.62 0.7,-8.12 -1.84,-17.15 -6.3,-25.23"/>
   <path fill="none" stroke="white" stroke-width="1.86" stroke-linecap="round" stroke-linejoin="round" stroke-miterlimit="2.61313" d="M54.93 21.6c2.98,11.43 3.22,23.61 1.71,36.27 -2.17,9.92 -19.88,9.34 -18.47,-3.5"/>
   <path fill="none" stroke="white" stroke-width="1.86" stroke-linecap="round" stroke-linejoin="round" stroke-miterlimit="2.61313" d="M76.63 19.43c2.98,11.43 2.68,25.78 1.17,38.44 -2.17,9.92 -22.21,9.34 -20.8,-3.5"/>
   <path fill="none" stroke="white" stroke-width="1.86" stroke-linecap="round" stroke-linejoin="round" stroke-miterlimit="2.61313" d="M106.39 20.05c-7.09,9.44 -11.85,21.69 -15.26,33.98 -2.38,10.31 15.06,16.91 18.63,4.51"/>
   <path fill="none" stroke="black" stroke-width="1.86" stroke-linecap="round" stroke-linejoin="round" stroke-miterlimit="2.61313" d="M121.54 14.12c4.3,7.66 5.59,16.15 5.74,24.96"/>
   <path fill="none" stroke="black" stroke-width="1.86" stroke-linecap="round" stroke-linejoin="round" stroke-miterlimit="2.61313" d="M126.4 7.14c4.3,7.66 7.76,17.39 7.91,26.2"/>
   <path fill="none" stroke="black" stroke-width="1.86" stroke-linecap="round" stroke-linejoin="round" stroke-miterlimit="2.61313" d="M8.75 88.1c0.4,8.77 3.8,16.66 8.34,24.21"/>
   <path fill="none" stroke="black" stroke-width="1.86" stroke-linecap="round" stroke-linejoin="round" stroke-miterlimit="2.61313" d="M0.93 84.75c0.4,8.77 2.61,18.86 7.16,26.41"/>
   <path fill="none" stroke="white" stroke-width="1.86" stroke-linecap="round" stroke-linejoin="round" stroke-miterlimit="2.61313" d="M75.85 61.51c-7.12,7.09 -10.29,16.3 -10.5,27.11"/>
  </g>
 </g>
</svg>
