<svg version="1.1" viewBox="0 0 512 512" xmlns="http://www.w3.org/2000/svg">
		<path d="m323.57018 472.66516c67.56867-12.17301 111.29621-57.41513 89.41843-193.56231-6.03043 8.83526-14.64131 13.46326-23.86923 14.75347-5.55361 0.78536-11.33155 0.30846-16.85713-1.20609-5.49748-1.48656-10.77057-4.03895-15.34247-7.37673-11.58404-8.44257-18.96076-22.13023-15.28642-37.97759l0.0282-0.14015c6.47919-23.39236 14.27664-46.78477 23.84117-68.83084 9.48036-21.90585 20.69977-42.46536 34.13495-60.44441 7.90965-28.637453 3.75848-47.486023-6.56335-57.751743-4.99261-4.96458-11.4718-7.965762-18.73635-9.115754-7.46088-1.178033-15.73516-0.420727-24.09359 2.159741-24.09361 7.404783-48.60795 29.675243-56.46154 63.866306 5.10482 19.97049 7.65724 42.21291 8.35844 65.04433 0.81342 27.06676-0.92558 54.97494-4.03898 80.9478l-0.056 0.36464c-1.48654 6.73161-4.88042 12.28522-9.48036 16.68884-12.48154 12.76201-21.56924 27.37524-27.68379 43.58723-6.31089 16.80103-9.45233 35.36914-9.84502 55.42377-0.0282 1.93535-1.62681 3.47799-3.56213 3.44997-1.93535-0.0282-3.47801-1.62681-3.44998-3.56216 0.3927-20.86805 3.67436-40.22151 10.2938-57.77985 4.20726-11.21936 9.78888-21.68141 16.82905-31.38616-1.43046 0.42073-2.91706 0.81339-4.40362 1.12193-6.31089 1.29021-12.95835 1.51462-19.35341 0.58901-6.45116-0.92558-12.67789-3.02922-18.06318-6.3109-5.86215-3.56216-10.68649-8.47063-13.74377-14.78153-4.90845 10.85474-14.78152 17.69858-25.8326 20.39123-5.63773 1.37437-11.584 1.65484-17.27782 0.78536-5.74995-0.86952-11.30353-2.86097-16.12787-6.03043-7.90968-5.217-13.77179-13.46325-15.25835-24.87896-5.24507 5.4975-12.28523 9.64864-19.77415 12.11691-5.72189 1.87925-11.75231 2.7768-17.47421 2.55242-5.890174-0.22431-11.471802-1.62681-16.127828-4.40361-7.57308-4.48774-12.649865-12.36935-12.649865-24.2058l0.02817-0.33664c1.26218-14.55714-0.336638-29.92771-4.179236-45.29826-3.646286-14.55714-9.312081-29.14232-16.520528-43.05437-0.897549 1.51463-1.710936 3.08534-2.496295 4.76825-5.497511 11.80842-8.162125 27.73993-7.06823 47.82262l8.21822 117.2705c8.751101 46.5885 19.100983 80.63932 38.23 103.86342 18.960762 22.99974 46.897012 35.64957 90.961122 39.74465l7.18041 0.56098c47.48601 3.81457 94.97202 7.6011 134.18372 0.53291zm-182.37097-224.49973 0.0282-0.0282 0.0842-0.2243c0.56098-1.31828 1.00974-2.69265 1.29025-4.12315 3.02921-18.62416 4.51577-36.82759 1.62678-53.74081-2.83287-16.49248-9.9011-31.86301-23.92533-45.35432-11.58401-5.3292-22.635085-7.71333-32.50814-7.1804-7.825493 0.44877-14.92175 2.74874-20.980242 6.89991-2.860928 1.96339-5.497476 4.37557-7.881582 7.20845 8.274279 15.34252 14.753462 31.55451 18.792445 47.79456 4.010917 16.0998 5.665794 32.19961 4.375549 47.48602 0.02817 8.94744 3.702385 14.78152 9.171823 18.00708 3.618258 2.15973 8.049939 3.25363 12.790127 3.44998 4.88039 0.19613 10.06937-0.58905 15.03397-2.24389 9.67672-3.16947 18.39975-9.53646 22.10216-17.97906zm6.73163 2.10364c-1.43047 14.3047 4.01092 24.06554 12.2291 29.47888 3.92679 2.58046 8.49869 4.23534 13.29497 4.93654 4.85237 0.72926 9.87306 0.50488 14.61324-0.64511 10.79864-2.60852 20.22295-10.04134 22.88753-21.96194 0.42072-3.5341 0.81342-7.04017 1.14999-10.51816 0.056-0.81339 0.11232-1.65485 0.19648-2.4963 0.0282-0.14015 0.0282-0.28065 0.056-0.3927 1.76707-19.12904 2.41218-37.89342 1.68291-56.26517-0.89755-22.60705-3.89873-44.62507-9.42427-65.91383-0.0282-0.11222-0.0842-0.25245-0.11233-0.36464-2.52436-11.584-11.30353-18.37173-22.01804-20.95218-5.94627-1.43048-12.53763-1.62681-19.07295-0.64512-6.53528 0.95366-12.98644 3.08533-18.65219 6.25481-11.02306 6.14261-19.12904 16.29615-19.01686 29.53501 14.83762 14.50104 22.38268 30.99352 25.41188 48.66404 3.05728 17.8388 1.51462 36.7715-1.6268 56.12492l-0.056 0.22431c-0.36463 1.739-0.89755 3.4219-1.54265 5.02065zm71.18692 1.90728c-0.64509 12.87424 5.21704 21.82169 13.82789 27.06675 4.54387 2.74874 9.84503 4.54384 15.37057 5.3292 5.60967 0.81339 11.44374 0.6451 16.94124-0.50489 12.36937-2.55239 23.1119-10.01327 25.80455-22.04607 3.05731-25.69234 4.79631-53.2079 3.98289-79.74171-0.67317-22.55095-3.19753-44.48484-8.27428-64.06265l-0.056-0.16828c-3.84263-13.46325-14.36081-21.204623-26.33748-24.009473-6.11456-1.43046-12.6218-1.59876-18.82051-0.61706-6.17065 0.9817-12.06083 3.14143-16.96932 6.31089-8.35841 5.413363-13.91202 13.968143-13.15472 25.047273 5.63777 21.76558 8.69504 44.23237 9.62062 67.28821 0.78536 19.66196 0.0282 39.71659-1.96338 60.07975zm78.87223 11.24743v0.0282zm113.06327 4.20727c-0.056-0.58902 0.056-1.17806 0.30847-1.73901l0.92561-2.01951c0.056-0.11232 0.0842-0.22431 0.16832-0.33663l43.50316-93.87806c4.40362-9.84501 3.95483-19.69002 0.25248-27.99236-1.85119-4.17922-4.54387-7.99381-7.82553-11.24742-3.30972-3.25362-7.2365-5.97432-11.55596-7.90966-9.34012-4.20727-20.61561-4.88043-31.75085-0.19635-13.01446 17.47418-23.92528 37.47272-33.15324 58.81759-9.36817 21.65341-17.05345 44.68118-23.44851 67.79309-2.91702 12.70595 3.14144 23.78507 12.59378 30.71304 3.89872 2.86092 8.38646 5.02065 13.04252 6.28283 4.62799 1.26218 9.42427 1.65488 14.05226 1.00978 9.53646-1.31828 18.31562-7.23652 22.88752-19.29733z"/>
		<g>
			<path d="m457.08075 98.723307c-0.95364-1.6829-0.33664-3.84263 1.34634-4.79628 1.68291-0.95364 3.84263-0.33656 4.79627 1.34633 8.33041 14.809583 13.74373 30.432563 17.13761 46.616513 3.3658 16.04371 4.74017 32.6484 5.02065 49.53356 0.0282 1.93532-1.51459 3.5341-3.44993 3.56212-1.93535 0.0282-3.5341-1.51458-3.56217-3.44993-0.25247-16.46443-1.59874-32.62037-4.88043-48.21528-3.25363-15.48274-8.44257-30.43256-16.38028-44.597033z"/>
			<path d="m475.50859 72.273637c-0.95364-1.68291-0.33663-3.84264 1.34631-4.79629 1.68291-0.95365 3.84264-0.33656 4.79631 1.34632 8.72303 15.53885 16.54856 33.321553 22.07409 51.637193 4.93654 16.35224 8.02188 33.15326 8.27432 49.22501 0.0282 1.93535-1.51462 3.5341-3.44997 3.56216-1.93535 0.0282-3.5341-1.51462-3.56217-3.44997-0.25247-15.34249-3.22555-31.52644-7.9938-47.31772-5.35726-17.7827-12.98643-35.060553-21.48509-50.206703z"/>
			<path d="m29.622491 377.24437c-0.08416-1.93536 1.430463-3.59019 3.365813-3.64628 1.935349-0.0842 3.590191 1.43045 3.64632 3.3658 0.757294 16.212 4.263362 31.63863 9.704743 46.53234 5.469446 14.94985 12.874241 29.36675 21.372898 43.4751 0.981708 1.65488 0.448792 3.81461-1.20605 4.82435-1.654877 0.9817-3.814603 0.44875-4.824341-1.20609-8.69504-14.473-16.324214-29.28259-21.961944-44.70921-5.665795-15.51079-9.340111-31.61059-10.12547-48.60795z"/>
			<path d="m0.00334385 364.53841c-0.08415884-1.93532 1.4304636-3.59019 3.3658128-3.64629 1.9353492-0.0842 3.5901914 1.43047 3.646286 3.36582 0.785358 17.30588 3.4780014 36.0142 8.3584374 53.96519 4.319455 15.9035 10.321853 31.21794 18.259528 44.37265 0.981707 1.65484 0.448792 3.81457-1.20605 4.82434-1.654877 0.98168-3.814605 0.44876-4.824342-1.20608-8.274314-13.77179-14.557148-29.67528-19.016856-46.16775-4.9926244-18.42784-7.7413631-37.64101-8.5828158-55.47981z"/>
		</g>
</svg>
