<?xml version="1.0" encoding="UTF-8"?>
<!DOCTYPE svg PUBLIC "-//W3C//DTD SVG 1.1//EN" "http://www.w3.org/Graphics/SVG/1.1/DTD/svg11.dtd">
<!-- Creator: CorelDRAW 2020 (64-Bit) -->
<svg xmlns="http://www.w3.org/2000/svg" xml:space="preserve" width="1.51464in" height="1.26068in" version="1.1" shape-rendering="geometricPrecision" text-rendering="geometricPrecision" image-rendering="optimizeQuality" fill-rule="evenodd" clip-rule="evenodd"
viewBox="0 0 182.54 151.94"
 xmlns:xlink="http://www.w3.org/1999/xlink"
 xmlns:xodm="http://www.corel.com/coreldraw/odm/2003">
 <g id="Layer_x0020_1">
  <metadata id="CorelCorpID_0Corel-Layer"/>
  <g id="_2276624973040">
   <path fill="black" d="M115.36 150.52c24.09,-4.34 39.68,-20.47 31.88,-69.01 -2.15,3.15 -5.22,4.8 -8.51,5.26 -1.98,0.28 -4.04,0.11 -6.01,-0.43 -1.96,-0.53 -3.84,-1.44 -5.47,-2.63 -4.13,-3.01 -6.76,-7.89 -5.45,-13.54l0.01 -0.05c2.31,-8.34 5.09,-16.68 8.5,-24.54 3.38,-7.81 7.38,-15.14 12.17,-21.55 2.82,-10.21 1.34,-16.93 -2.34,-20.59 -1.78,-1.77 -4.09,-2.84 -6.68,-3.25 -2.66,-0.42 -5.61,-0.15 -8.59,0.77 -8.59,2.64 -17.33,10.58 -20.13,22.77 1.82,7.12 2.73,15.05 2.98,23.19 0.29,9.65 -0.33,19.6 -1.44,28.86l-0.02 0.13c-0.53,2.4 -1.74,4.38 -3.38,5.95 -4.45,4.55 -7.69,9.76 -9.87,15.54 -2.25,5.99 -3.37,12.61 -3.51,19.76 -0.01,0.69 -0.58,1.24 -1.27,1.23 -0.69,-0.01 -1.24,-0.58 -1.23,-1.27 0.14,-7.44 1.31,-14.34 3.67,-20.6 1.5,-4 3.49,-7.73 6,-11.19 -0.51,0.15 -1.04,0.29 -1.57,0.4 -2.25,0.46 -4.62,0.54 -6.9,0.21 -2.3,-0.33 -4.52,-1.08 -6.44,-2.25 -2.09,-1.27 -3.81,-3.02 -4.9,-5.27 -1.75,3.87 -5.27,6.31 -9.21,7.27 -2.01,0.49 -4.13,0.59 -6.16,0.28 -2.05,-0.31 -4.03,-1.02 -5.75,-2.15 -2.82,-1.86 -4.91,-4.8 -5.44,-8.87 -1.87,1.96 -4.38,3.44 -7.05,4.32 -2.04,0.67 -4.19,0.99 -6.23,0.91 -2.1,-0.08 -4.09,-0.58 -5.75,-1.57 -2.7,-1.6 -4.51,-4.41 -4.51,-8.63l0.01 -0.12c0.45,-5.19 -0.12,-10.67 -1.49,-16.15 -1.3,-5.19 -3.32,-10.39 -5.89,-15.35 -0.32,0.54 -0.61,1.1 -0.89,1.7 -1.96,4.21 -2.91,9.89 -2.52,17.05l2.93 41.81c3.12,16.61 6.81,28.75 13.63,37.03 6.76,8.2 16.72,12.71 32.43,14.17l2.56 0.2c16.93,1.36 33.86,2.71 47.84,0.19zm-65.02 -80.04l0.01 -0.01 0.03 -0.08c0.2,-0.47 0.36,-0.96 0.46,-1.47 1.08,-6.64 1.61,-13.13 0.58,-19.16 -1.01,-5.88 -3.53,-11.36 -8.53,-16.17 -4.13,-1.9 -8.07,-2.75 -11.59,-2.56 -2.79,0.16 -5.32,0.98 -7.48,2.46 -1.02,0.7 -1.96,1.56 -2.81,2.57 2.95,5.47 5.26,11.25 6.7,17.04 1.43,5.74 2.02,11.48 1.56,16.93 0.01,3.19 1.32,5.27 3.27,6.42 1.29,0.77 2.87,1.16 4.56,1.23 1.74,0.07 3.59,-0.21 5.36,-0.8 3.45,-1.13 6.56,-3.4 7.88,-6.41zm2.4 0.75c-0.51,5.1 1.43,8.58 4.36,10.51 1.4,0.92 3.03,1.51 4.74,1.76 1.73,0.26 3.52,0.18 5.21,-0.23 3.85,-0.93 7.21,-3.58 8.16,-7.83 0.15,-1.26 0.29,-2.51 0.41,-3.75 0.02,-0.29 0.04,-0.59 0.07,-0.89 0.01,-0.05 0.01,-0.1 0.02,-0.14 0.63,-6.82 0.86,-13.51 0.6,-20.06 -0.32,-8.06 -1.39,-15.91 -3.36,-23.5 -0.01,-0.04 -0.03,-0.09 -0.04,-0.13 -0.9,-4.13 -4.03,-6.55 -7.85,-7.47 -2.12,-0.51 -4.47,-0.58 -6.8,-0.23 -2.33,0.34 -4.63,1.1 -6.65,2.23 -3.93,2.19 -6.82,5.81 -6.78,10.53 5.29,5.17 7.98,11.05 9.06,17.35 1.09,6.36 0.54,13.11 -0.58,20.01l-0.02 0.08c-0.13,0.62 -0.32,1.22 -0.55,1.79zm25.38 0.68c-0.23,4.59 1.86,7.78 4.93,9.65 1.62,0.98 3.51,1.62 5.48,1.9 2,0.29 4.08,0.23 6.04,-0.18 4.41,-0.91 8.24,-3.57 9.2,-7.86 1.09,-9.16 1.71,-18.97 1.42,-28.43 -0.24,-8.04 -1.14,-15.86 -2.95,-22.84l-0.02 -0.06c-1.37,-4.8 -5.12,-7.56 -9.39,-8.56 -2.18,-0.51 -4.5,-0.57 -6.71,-0.22 -2.2,0.35 -4.3,1.12 -6.05,2.25 -2.98,1.93 -4.96,4.98 -4.69,8.93 2.01,7.76 3.1,15.77 3.43,23.99 0.28,7.01 0.01,14.16 -0.7,21.42zm28.12 4.01l-0 0.01 0 -0.01zm40.31 1.5c-0.02,-0.21 0.02,-0.42 0.11,-0.62l0.33 -0.72c0.02,-0.04 0.03,-0.08 0.06,-0.12l15.51 -33.47c1.57,-3.51 1.41,-7.02 0.09,-9.98 -0.66,-1.49 -1.62,-2.85 -2.79,-4.01 -1.18,-1.16 -2.58,-2.13 -4.12,-2.82 -3.33,-1.5 -7.35,-1.74 -11.32,-0.07 -4.64,6.23 -8.53,13.36 -11.82,20.97 -3.34,7.72 -6.08,15.93 -8.36,24.17 -1.04,4.53 1.12,8.48 4.49,10.95 1.39,1.02 2.99,1.79 4.65,2.24 1.65,0.45 3.36,0.59 5.01,0.36 3.4,-0.47 6.53,-2.58 8.16,-6.88z"/>
   <path fill="black" fill-rule="nonzero" d="M162.96 17.2c-0.34,-0.6 -0.12,-1.37 0.48,-1.71 0.6,-0.34 1.37,-0.12 1.71,0.48 2.97,5.28 4.9,10.85 6.11,16.62 1.2,5.72 1.69,11.64 1.79,17.66 0.01,0.69 -0.54,1.26 -1.23,1.27 -0.69,0.01 -1.26,-0.54 -1.27,-1.23 -0.09,-5.87 -0.57,-11.63 -1.74,-17.19 -1.16,-5.52 -3.01,-10.85 -5.84,-15.9z"/>
   <path fill="black" fill-rule="nonzero" d="M169.53 7.77c-0.34,-0.6 -0.12,-1.37 0.48,-1.71 0.6,-0.34 1.37,-0.12 1.71,0.48 3.11,5.54 5.9,11.88 7.87,18.41 1.76,5.83 2.86,11.82 2.95,17.55 0.01,0.69 -0.54,1.26 -1.23,1.27 -0.69,0.01 -1.26,-0.54 -1.27,-1.23 -0.09,-5.47 -1.15,-11.24 -2.85,-16.87 -1.91,-6.34 -4.63,-12.5 -7.66,-17.9z"/>
   <path fill="black" fill-rule="nonzero" d="M10.56 116.5c-0.03,-0.69 0.51,-1.28 1.2,-1.3 0.69,-0.03 1.28,0.51 1.3,1.2 0.27,5.78 1.52,11.28 3.46,16.59 1.95,5.33 4.59,10.47 7.62,15.5 0.35,0.59 0.16,1.36 -0.43,1.72 -0.59,0.35 -1.36,0.16 -1.72,-0.43 -3.1,-5.16 -5.82,-10.44 -7.83,-15.94 -2.02,-5.53 -3.33,-11.27 -3.61,-17.33z"/>
   <path fill="black" fill-rule="nonzero" d="M0 111.97c-0.03,-0.69 0.51,-1.28 1.2,-1.3 0.69,-0.03 1.28,0.51 1.3,1.2 0.28,6.17 1.24,12.84 2.98,19.24 1.54,5.67 3.68,11.13 6.51,15.82 0.35,0.59 0.16,1.36 -0.43,1.72 -0.59,0.35 -1.36,0.16 -1.72,-0.43 -2.95,-4.91 -5.19,-10.58 -6.78,-16.46 -1.78,-6.57 -2.76,-13.42 -3.06,-19.78z"/>
  </g>
 </g>
</svg>
