<?xml version="1.0" encoding="UTF-8"?>
<svg id="Toilet_Icon" data-name="Toilet Icon" xmlns="http://www.w3.org/2000/svg" viewBox="0 0 512 512">
  <path d="m402.42,273.87c-48.52-6.61-26.94-102.72-24.83-123.22,0,0-11.32-60.62-11.32-60.62-7.28-24.96-23.25-73.44-37.94-75.17-62.51-7.36-52.44,86.23-52.44,86.23,0,0-.06-.03-.18-.09,11.28,75.52,42.51,131.77,36.26,139.75-27.94,17.86-68.3,79.68-54.08,120.57,1.48,6.06-8.16,8.33-9.45,2.12-14.17-41.06,22.36-105.65,54.84-128.2-2.33-6.09-7.47-19.98-13.43-38.61-2,26.71-7.91,57.72-21.78,66.96-17.2,13.21-41.39,7.41-53.23-7.08-4.32,35.19-44.05,48.1-66.97,23.88-2.79,19.67-17.84,36.72-37.96,36.45-36.31.43-49.64-50.91-56.06-77.16-1.47-6.1,8.14-8.32,9.45-2.15,7.81,28.11,17.59,74.8,53.07,68.81,45.87-14.45,15.3-131.55-9.77-167.3-86.99-28.51-79.71,95.79-57.84,159.19,13.07,47.03,24.24,181.77,189.74,147.4,96.46,23.51,179.6-38.37,170.08-171.2-2.05-.01-4.11-.19-6.16-.56Z" stroke-width="0"/>
  <path d="m217.43,233.53c-.11,3.17-.32,6.49-.64,9.88,5.9,10.4,26.3,26.97,45.91,12.11,11.36-7,18.93-48.26,18.49-87.71-6.1-21.72-12.09-46.59-16.13-71.81-17.86-7.24-53.81-16.87-76.75,10.19,19.76,34.68,30.42,88.93,29.12,127.34Z" stroke-width="0"/>
  <path d="m148.88,266.76c7.2,11.85,27.76,23.87,44.79,10.54,30.31-32.59,7.54-125.25-12.03-161.51,0,0-43.12-22.35-66.96,17.9,27.84,41.21,34.07,95.06,34.2,133.07Z" stroke-width="0"/>
  <path d="m412.23,101.09h0c-14.62-5.57-26.74-3.24-34.13-.47,0,0,9.17,49.1,9.17,49.1.11.57.11,1.15.02,1.72-2.31,30.97-23.89,111.02,22.43,113.31,49.97-11.88,57.05-150.22,2.51-163.66Z" stroke-width="0"/>
  <path d="m85.34,455.11c-22.78-15.12-36.38-40.45-36.38-67.75.16-10.19-15.92-10.25-15.76,0,0,32.59,16.23,62.82,43.42,80.87,3.49,2.42,8.63,1.37,10.92-2.2,2.41-3.47,1.37-8.65-2.2-10.92Z" stroke-width="0"/>
  <path d="m69.78,483.11h-.01c-33.82-22.45-54.01-60.06-54.01-100.6.17-10.18-15.92-10.26-15.76,0,0,45.83,22.82,88.35,61.06,113.73,3.49,2.4,8.64,1.36,10.92-2.21,2.41-3.47,1.37-8.65-2.2-10.92Z" stroke-width="0"/>
  <path d="m435.39,63.18h-.01c-8.4-5.76-17.33,7.57-8.71,13.12,22.78,15.12,36.38,40.45,36.38,67.75,0,4.34,3.53,7.88,7.88,7.88s7.88-3.53,7.88-7.88c0-32.59-16.23-62.83-43.42-80.87Z" stroke-width="0"/>
  <path d="m450.96,35.17h-.01c-8.41-5.76-17.33,7.61-8.71,13.13,33.82,22.45,54.01,60.06,54.01,100.6,0,4.34,3.53,7.88,7.88,7.88s7.88-3.53,7.88-7.88c0-45.83-22.82-88.35-61.05-113.73Z" stroke-width="0"/>
</svg>