<?xml version="1.0" encoding="UTF-8"?>
<svg id="Try_Icon" data-name="Try Icon" xmlns="http://www.w3.org/2000/svg" viewBox="0 0 512 512">
  <path d="m169.92,325.15c-30.59,55.1-19.53,62.86-26.21,83.91-9.98,31.4-33.87,35.99-42.52,45.21-8.65,9.21-15.1,42.63-15.1,42.63,0,0-11.65,19.38-44.39,13.13-30.91-5.9-41.7-25.36-41.7-25.36,0,0,28.2-27.41,20.02-60.62-2.51-10.15-15.13-43.37-9.56-53.63,5.56-10.25,11.91-9.35,14.38-18.95,2.48-9.59,2.06-22.12,14.12-29.25,12.07-7.12,8.76-22.59,19.61-27.83,10.85-5.24,60.16-7.38,67.33-6.03,2.98.56,5.54,2.8,7.67,5.7,3.1,8.44,7.9,25.47,3.04,40.38-3.2-7.23-7.37-14.23-11.19-16.69-8.96-5.8-39.69-15.42-43.17-16.5-2.64-.82-5.43.66-6.25,3.28-.81,2.64.66,5.43,3.29,6.25,9.07,2.82,34.08,11.07,40.7,15.35,2.91,1.88,8.67,14.05,11.02,21.5.06.37.18.74.33,1.09.45,1.58.71,2.89.71,3.71-.05,6.55-5.62,10.55-10.08,12.54-3.15-9.35-9.08-21.42-14.38-24.84-8.96-5.8-39.69-15.42-43.17-16.5-2.63-.82-5.43.66-6.24,3.28-.82,2.64.65,5.43,3.28,6.25,9.07,2.82,34.08,11.07,40.7,15.35,3.71,2.4,12.09,21.6,12.06,26.32-.05,6.8-6.08,10.86-10.62,12.77-2.35-8.43-7.73-19.7-14.33-22.44-13.86-5.76-39.28-14.46-40.36-14.82-2.61-.89-5.45.5-6.34,3.11-.89,2.61.5,5.44,3.11,6.33.26.09,26.2,8.96,39.75,14.61,3.38,1.41,9.47,15.56,9.44,20.51-.07,8.83-10.19,13.04-14.1,13.92-2.05.45-10.59-1.32-18.28-3.81-2.62-.85-5.43.59-6.28,3.21-.85,2.62.58,5.43,3.2,6.29,3.44,1.11,13.93,4.32,20.64,4.32,1.08,0,2.07-.09,2.91-.28,4.67-1.05,9.7-3.54,13.45-6.67,4.64-3.88,7.45-8.69,8.21-14.03,3.97-1.26,8-3.41,11.13-6.03,5.47-4.57,8.39-10.41,8.44-16.91v-.06c3.38-1.3,6.71-3.19,9.38-5.42,5.47-4.57,8.39-10.41,8.44-16.91,0-1.16-.26-2.81-.73-4.75,6.93-10.87,9.02-25.03,6.07-41.14-.14-.74-.28-1.47-.43-2.18,3.73-4.23,9.47-8.47,17.45-8.43,13.83.06,13.83,14.2,5.54,29.12Z" stroke-width="0"/>
  <path d="m512,484.67s-10.78,19.46-41.7,25.36c-32.73,6.25-44.38-13.13-44.38-13.13,0,0-6.47-33.41-15.11-42.63-8.65-9.22-32.53-13.82-42.51-45.21-6.69-21.04,4.38-28.81-26.21-83.91-8.29-14.92-8.29-29.06,5.54-29.12,7.98-.04,13.72,4.2,17.45,8.44-.15.71-.29,1.44-.43,2.17-2.96,16.11-.86,30.27,6.06,41.14-.47,1.95-.73,3.59-.72,4.75.04,6.5,2.96,12.34,8.44,16.91,2.67,2.23,6,4.12,9.38,5.42,0,.02,0,.04,0,.06.05,6.5,2.97,12.34,8.45,16.91,3.12,2.62,7.15,4.77,11.12,6.03.77,5.34,3.56,10.14,8.22,14.03,3.74,3.12,8.77,5.62,13.45,6.67.84.19,1.82.28,2.91.28,6.71,0,17.2-3.21,20.63-4.32,2.63-.86,4.06-3.67,3.21-6.29-.85-2.63-3.66-4.06-6.29-3.21-7.69,2.5-16.22,4.26-18.28,3.81-3.89-.88-14.03-5.09-14.09-13.93-.04-4.93,6.05-19.09,9.44-20.51,13.55-5.63,39.49-14.51,39.75-14.6,2.61-.89,4-3.72,3.1-6.33-.89-2.61-3.72-4-6.33-3.11-1.08.37-26.51,9.06-40.36,14.82-6.61,2.75-11.99,14.02-14.33,22.44-4.55-1.91-10.58-5.97-10.63-12.77-.03-4.71,8.36-23.92,12.06-26.32,6.62-4.28,31.63-12.54,40.71-15.35,2.63-.82,4.1-3.61,3.28-6.25-.82-2.63-3.61-4.1-6.25-3.28-3.47,1.08-34.19,10.7-43.17,16.5-5.28,3.41-11.22,15.47-14.37,24.84-4.47-1.99-10.04-5.99-10.08-12.54,0-.84.25-2.14.71-3.71.14-.35.26-.71.32-1.08,2.35-7.46,8.12-19.64,11.02-21.51,6.63-4.28,31.63-12.54,40.71-15.35,2.63-.82,4.1-3.61,3.28-6.25-.82-2.63-3.61-4.1-6.25-3.28-3.47,1.08-34.19,10.7-43.17,16.5-3.82,2.47-7.99,9.47-11.19,16.7-4.84-14.91-.06-31.93,3.04-40.37,2.13-2.92,4.68-5.16,7.67-5.72,7.17-1.35,56.48.79,67.34,6.03,10.85,5.24,7.53,20.71,19.6,27.83,12.07,7.13,11.64,19.66,14.12,29.25,2.48,9.59,8.82,8.7,14.39,18.95,5.57,10.26-7.07,43.48-9.56,53.63-8.19,33.2,20.01,60.62,20.01,60.62Z" stroke-width="0"/>
  <path d="m511.99,190.2s-6.45,23.73-38.07,38.2c-33.48,15.33-49.96,12.88-49.96,12.88,0,0-18.54-47.33-28.58-57.04-19.98-19.31-34.35-11.8-50.29-36.72-6.22-9.7-20.22-30.8-21.4-44.47-2.17-24.99,14-26.27,14-26.27-.92-24.97,23.13-22.05,23.13-22.05,5.08-27.99,28.54-17.51,28.54-17.51-3.67-13.45,14.32-22.53,22.45-19.46,3.8,1.44,7.57,5.04,10.49,8.49l.02.03,22.58,39.52c.92,1.62,2.61,2.52,4.33,2.52.84,0,1.7-.21,2.48-.66,2.39-1.37,3.22-4.41,1.86-6.81l-22.58-39.5C441.12-6.38,465.84-.03,463.01,5.76c-5.38,11.04-6.59,39.39,3.94,59.77,5.93,11.46,7.61,53.34,7.6,64.89-.04,37.8,37.44,59.78,37.44,59.78Z" stroke-width="0"/>
  <path d="m189.34,103.04c-1.19,13.68-15.18,34.77-21.4,44.47-15.94,24.92-30.32,17.41-50.29,36.72-10.04,9.71-28.58,57.04-28.58,57.04,0,0-16.47,2.46-49.96-12.88C7.49,213.93,1.04,190.2,1.04,190.2c0,0,37.48-21.98,37.44-59.78,0-11.55,1.67-53.43,7.6-64.89,10.53-20.38,9.32-48.73,3.94-59.77C47.19-.03,71.91-6.38,82.03,21.33l-22.57,39.51c-1.37,2.4-.54,5.44,1.86,6.81.78.45,1.64.66,2.48.66,1.73,0,3.41-.9,4.33-2.52l22.58-39.52.02-.03c2.93-3.44,6.69-7.05,10.49-8.49,8.14-3.07,26.13,6.01,22.45,19.46,0,0,23.46-10.48,28.54,17.51,0,0,24.05-2.92,23.13,22.05,0,0,16.16,1.28,14,26.27Z" stroke-width="0"/>
  <g>
    <path d="m323.21,212.49c-4.93-18.3-12.22-27.58-21.65-27.58-7.63,0-13.86,5.99-18.5,17.8-1.61,4.1.42,8.74,4.52,10.35.93.37,1.92.55,2.91.55,3.31,0,6.23-1.99,7.44-5.07,1.48-3.78,2.78-5.81,3.61-6.86,1.33,1.68,3.81,5.79,6.27,15.05,3.56,13.41,5.52,31.37,5.52,50.57s-1.96,37.17-5.52,50.57c-2.32,8.75-4.67,12.9-6.04,14.75-.9-1.08-2.14-2.89-3.49-5.81-1.7-3.66-3.84-9.69-5.45-18.97l.13.14c1.5,1.59,3.61,2.49,5.8,2.49,2.05,0,4-.78,5.49-2.19,1.55-1.47,2.43-3.45,2.49-5.58.06-2.13-.72-4.16-2.19-5.71l-17.97-18.97c-1.5-1.59-3.61-2.5-5.79-2.5-.42,0-.84.03-1.25.1-2.6.41-4.83,2.07-5.96,4.44l-10.98,22.96c-1.9,3.97-.21,8.75,3.76,10.65,1.09.52,2.24.78,3.44.78,3.04,0,5.85-1.76,7.18-4.48,4.87,29.1,15.93,39.72,24.57,39.72,9.43,0,16.72-9.28,21.65-27.58,3.94-14.6,6.1-34.07,6.1-54.83s-2.17-40.23-6.1-54.83Z" stroke-width="0"/>
    <path d="m237.68,280.1c-1.14-2.37-3.36-4.04-5.96-4.44-.41-.07-.83-.1-1.24-.1-2.18,0-4.3.91-5.8,2.49l-17.97,18.97c-3.03,3.2-2.89,8.26.31,11.29,1.49,1.41,3.44,2.19,5.49,2.19,2.18,0,4.3-.91,5.8-2.49l.13-.14c-1.61,9.28-3.75,15.31-5.45,18.97-1.35,2.91-2.59,4.72-3.49,5.81-1.37-1.85-3.72-6-6.04-14.75-3.56-13.41-5.52-31.37-5.52-50.57s1.96-37.17,5.52-50.57c2.46-9.26,4.95-13.37,6.27-15.05.84,1.05,2.13,3.08,3.61,6.86,1.21,3.08,4.13,5.07,7.44,5.07,1,0,1.98-.19,2.92-.55,4.1-1.61,6.12-6.25,4.52-10.35-4.64-11.81-10.86-17.8-18.5-17.8-9.43,0-16.72,9.28-21.65,27.58-3.94,14.6-6.1,34.07-6.1,54.83s2.17,40.23,6.1,54.83c4.93,18.3,12.22,27.58,21.65,27.58,8.64,0,19.69-10.62,24.57-39.72,1.33,2.73,4.14,4.48,7.18,4.48,1.2,0,2.36-.26,3.44-.78,3.97-1.9,5.66-6.68,3.76-10.65l-10.98-22.96Z" stroke-width="0"/>
  </g>
</svg>