<?xml version="1.0" encoding="UTF-8"?>
<svg id="Wait_Icon" data-name="Wait Icon" xmlns="http://www.w3.org/2000/svg" viewBox="0 0 512 512">
  <path d="m477.82,312.61c-4.35-12.43-16.16-39.77-37.29-51.58-21.13-11.81-27.97-23.62-32.94-38.53-4.97-14.92-26.46-7.24-23.4,14.93.57,4.08,1.31,7.72,2.09,10.85,7.06,13.56,17.02,30.54,26.06,38.18,2.11,1.78,2.38,4.94.6,7.05-.99,1.17-2.4,1.77-3.82,1.77-1.14,0-2.29-.38-3.23-1.18-8.46-7.15-17.26-20.77-24.27-33.35l-38.76-2.2c4.41,12.82,9.11,25.59,11.2,28.99,1.9,3.01,17.65,9.36,33.68,13.58,2.67.7,4.27,3.44,3.56,6.11-.59,2.24-2.61,3.73-4.83,3.73-.42,0-.85-.06-1.27-.17-10.25-2.7-34.64-9.85-39.66-18.01-3.05-4.96-9.18-22.24-13.47-34.84l-.3-.02s-8.08-23.62-17.4-27.34c-9.33-3.73-15.08,2.17-15.08,2.17,0,0-7.89-19.2-23.95-9.13,0,0-16.41-17.98-26.35-1.2-2.34,3.95,3.62,11.68,9.32,17.72l27.49,25.38c2.03,1.87,2.15,5.03.28,7.06-.99,1.07-2.33,1.61-3.67,1.61-1.22,0-2.43-.44-3.39-1.33l-27.7-25.57c-1.84.36-3.65.97-5.32,1.93-8.7,4.97-6.46,13.67,7.96,19.27,14.42,5.59,38.65,13.05,44.87,20.51,6.21,7.45,9.32,14.91,19.26,15.53,9.95.62,14.92,15.54,29.21,17.41,14.3,1.86,86.73,32.93,105.04,65.87,3.1,5.6,52.82-9.94,59.66-44.12,0,0-29.83-18.65-34.18-31.08Z" stroke-width="0"/>
  <path d="m194.69,225.75c-6.06-1.51-16.89-20.46-54.17-20.46-9.48,0-28.04-26.52-40.16-31.44-12.12-4.93-24.61,6.43-15.94,17.4-.54-.51-11.61-10.82-22.33-5.28,0,0-1.53-15.52-6.06-22.73-6.44-10.25-24.86-14.35-23.49,0,.41,4.3,1.38,9.27,2.17,12.92,7.07,15.66,15.73,37.11,20.96,58.02,4.21,5.78,10.5,14.36,13.62,18.3,4.92,6.23,27.28,4.72,27.28,4.72,0,0,11.74,16.9,23.87,17.16,12.12.27,44.32,21.63,51.52,31.6,7.2,9.96,11.37,30.42,12.88,34.97,1.52,4.54,63.19-5.56,66.26-22.11,0,0-21.82-37.66-28.24-49.63-6.41-11.98-7.89-38.37-28.17-43.44Zm5.54,33.05c-1.86,2.05-5.02,2.2-7.06.34-.1-.08-5.03-4.49-12.82-9.08-7.79-4.58-18.45-9.36-30.01-10.18-4.9-.35-8.54-5.54-16.33-17.26-4.77-7.19-11.3-17.03-15.39-19.31-5.21-2.92-11.64-2.62-13.58-1.58.08.19.22.44.43.76,6.37,9.56,13.26,26.89,13.89,28.51,2.16,4.91,3.7,8.78,4.95,11.9,2.79,6.99,3.83,9.61,6.87,12.43,2.03,1.88,2.15,5.04.27,7.07-.99,1.06-2.33,1.59-3.67,1.59-1.22,0-2.44-.44-3.4-1.33-4.69-4.36-6.35-8.51-9.36-16.06-1.23-3.06-2.75-6.88-4.85-11.67-.03-.06-.06-.13-.08-.19-.07-.17-6.99-17.78-12.94-26.7-4.55-6.83-1.03-11.54.16-12.83,5.5-5.94,18.22-5.1,26.2-.63,6.19,3.47,12.62,13.15,18.84,22.51,3.18,4.79,7.48,11.27,9.46,12.88,26.29,2.2,47.2,20.97,48.08,21.77,2.04,1.86,2.19,5.02.34,7.06Z" stroke-width="0"/>
  <path d="m22.22,173.01c-5.29-2.5-11.02-4.18-15.07-2.57-10.45,4.16-10.34,13.93,6.33,23.78,8.75,5.17,18.79,14.34,26.35,21.87-5.64-16.51-12.46-32.1-17.61-43.08Z" stroke-width="0"/>
  <path d="m68.81,145.25c-2.31,1.51-2.97,4.6-1.46,6.92,1.51,2.31,4.6,2.97,6.92,1.46,10.47-6.81,24.54-3.84,31.35,6.63.96,1.47,2.56,2.27,4.2,2.27.93,0,1.88-.26,2.72-.81,2.31-1.51,2.97-4.6,1.46-6.92-9.82-15.09-30.1-19.38-45.19-9.56Z" stroke-width="0"/>
  <path d="m68.99,138.62c15.88-10.33,37.2-5.83,47.54,10.05.96,1.47,2.56,2.27,4.2,2.27.93,0,1.88-.26,2.72-.81,2.31-1.51,2.97-4.6,1.46-6.92-13.34-20.5-40.88-26.32-61.38-12.98-2.31,1.51-2.97,4.6-1.46,6.92,1.51,2.31,4.6,2.97,6.92,1.46Z" stroke-width="0"/>
  <path d="m59.44,283.46c3.91,1.55,7.99,2.33,12.08,2.33,4.39,0,8.77-.9,12.92-2.68,2.54-1.09,3.71-4.04,2.61-6.57-1.09-2.54-4.03-3.71-6.57-2.61-5.56,2.4-11.72,2.48-17.34.25s-10.04-6.53-12.44-12.09c-1.09-2.54-4.03-3.71-6.57-2.61-2.54,1.09-3.71,4.03-2.61,6.57,3.45,8.01,9.82,14.2,17.92,17.42Z" stroke-width="0"/>
  <path d="m83.15,289.61c-8.43,3.63-17.77,3.77-26.29.37-8.53-3.39-15.23-9.9-18.86-18.33-1.09-2.54-4.03-3.71-6.57-2.61-2.54,1.09-3.71,4.03-2.61,6.57,4.69,10.88,13.34,19.29,24.35,23.66,5.31,2.11,10.86,3.16,16.4,3.16,5.96,0,11.91-1.22,17.55-3.65,2.54-1.09,3.71-4.04,2.61-6.57-1.09-2.54-4.03-3.7-6.57-2.61Z" stroke-width="0"/>
  <path d="m336.92,191.99c-8.54-1.81-17.26-.18-24.57,4.58-2.31,1.51-2.97,4.6-1.46,6.92,1.5,2.31,4.6,2.97,6.92,1.46,5.07-3.3,11.13-4.43,17.05-3.18,5.92,1.25,11,4.74,14.3,9.81.96,1.47,2.56,2.27,4.2,2.27.93,0,1.88-.26,2.72-.81,2.31-1.51,2.97-4.6,1.46-6.92-4.76-7.31-12.08-12.33-20.62-14.14Z" stroke-width="0"/>
  <path d="m312.52,189.94c7.69-5.01,16.87-6.72,25.85-4.82,8.98,1.9,16.68,7.18,21.69,14.87.96,1.47,2.56,2.27,4.2,2.27.93,0,1.88-.26,2.72-.81,2.31-1.51,2.97-4.6,1.46-6.92-6.46-9.93-16.41-16.75-28-19.2-11.59-2.45-23.45-.24-33.38,6.22-2.31,1.51-2.97,4.6-1.46,6.92,1.51,2.31,4.6,2.97,6.92,1.46Z" stroke-width="0"/>
  <path d="m302.98,334.79c3.91,1.55,7.99,2.33,12.08,2.33,4.39,0,8.77-.9,12.92-2.68,2.54-1.09,3.71-4.03,2.61-6.57-1.09-2.54-4.04-3.71-6.57-2.61-11.48,4.94-24.83-.37-29.78-11.84-1.09-2.54-4.04-3.71-6.57-2.61-2.54,1.09-3.71,4.03-2.61,6.57,3.45,8.01,9.82,14.2,17.92,17.42Z" stroke-width="0"/>
  <path d="m326.68,340.93c-17.4,7.5-37.65-.56-45.15-17.96-1.09-2.54-4.04-3.71-6.57-2.61-2.54,1.09-3.71,4.03-2.61,6.57,7.22,16.76,23.61,26.8,40.8,26.8,5.85,0,11.79-1.16,17.49-3.62,2.54-1.09,3.71-4.03,2.61-6.57-1.09-2.54-4.04-3.71-6.57-2.61Z" stroke-width="0"/>
</svg>