<?xml version="1.0" encoding="UTF-8"?>
<svg id="Wait_Icon" data-name="Wait Icon" xmlns="http://www.w3.org/2000/svg" viewBox="0 0 512 512">
  <path d="m311.61,217.55v41.93c53.18,11.25,100.23-14.32,100.23-14.32,0,0-13.3-52.16-4.09-61.36s25.57-30.68,31.71-47.05c6.14-16.36,26.59-38.86,19.43-43.98-8.96-6.41-20.45,0-26.59,5.11-.44.37-.91.81-1.41,1.32-5.05,15.46-12.49,35.61-21.68,52.92-.92,1.73-2.69,2.71-4.52,2.71-.82,0-1.64-.19-2.4-.59-2.49-1.33-3.44-4.43-2.12-6.92,5.23-9.84,9.92-20.79,13.9-31.23,2.54-17.94,8.38-59.61,10.05-74.77,2.05-18.41-20.83-17.97-23.52-4.79-3.07,15.01-17.39,70.57-17.39,70.57,0,0-7.16-61.69-11.25-84.19s-27.61-18.41-27.61,1.02c0,11.54,5.85,86.69,6.13,90.21-.34-2.25-5.41-35.91-14.31-62.59-3.62-10.85-16.91-9.93-21.48-3.07-4.09,6.14-3.07,16.36-3.07,16.36,0,0-23.52-11.34-23.52,12.27,0,13.3,10.23,60.34,10.23,60.34-6.14,41.93,13.3,80.1,13.3,80.1Z" stroke-width="0"/>
  <path d="m458.94,348.73c-8.96-6.4-20.45,0-26.59,5.11-1.96,1.64-4.58,4.82-7.25,8.43-1.59,14.96-4.03,32.92-7.7,49.44-.53,2.39-2.64,4.01-4.99,4.01-.36,0-.74-.04-1.1-.12-2.76-.61-4.5-3.34-3.89-6.1,2.6-11.73,4.58-24.36,6.06-36.09,1.45-18.51-.13-37.61-2.61-53.32-1.25-7.93-6.62-12.87-13.78-12.87s-12.27,5.11-12.27,5.11c0,0-4.09-12.27-10.23-14.32-9.2-3.07-17.71,2.87-17.39,13.3,1.02,32.73-6.89,56.69-6.69,58.85-.56-1.86-18.51-61.61-25.56-79.73-7.16-18.41-24.55-6.14-23.52,2.05s14.32,91.02,14.32,91.02c0,0-17.39-24.55-33.75-40.91s-23.52,1.02-20.45,8.18c3.07,7.16,35.8,58.3,35.8,58.3-6.14,41.93,19.43,62.9,19.43,62.9l2.05,29.66c53.18,11.25,92.05-15.85,92.05-15.85,0,0-12.27-36.82-3.07-46.02s24.13-28.93,29.66-45.51c7.16-21.48,28.64-40.4,21.48-45.51Z" stroke-width="0"/>
  <path d="m115.84,183.8c9.2,9.2-4.09,61.36-4.09,61.36,0,0,47.05,25.57,100.23,14.32v-41.93s19.43-38.17,13.3-80.1c0,0,10.23-47.05,10.23-60.34,0-23.62-23.52-12.27-23.52-12.27,0,0,1.02-10.23-3.07-16.36-4.57-6.86-17.86-7.78-21.48,3.07-8.9,26.68-13.97,60.34-14.31,62.59.28-3.52,6.13-78.67,6.13-90.21,0-19.43-23.52-23.52-27.61-1.02s-11.25,84.19-11.25,84.19c0,0-14.32-55.56-17.39-70.57-2.69-13.18-25.57-13.62-23.52,4.79,1.68,15.17,7.52,56.83,10.05,74.77,3.98,10.44,8.67,21.4,13.9,31.23,1.32,2.5.37,5.59-2.12,6.92-.77.4-1.59.59-2.4.59-1.83,0-3.6-.98-4.52-2.71-9.19-17.3-16.63-37.45-21.68-52.92-.5-.51-.97-.95-1.41-1.32-6.14-5.11-17.63-11.53-26.59-5.11-7.16,5.11,13.3,27.61,19.43,43.98,6.14,16.36,22.5,37.84,31.71,47.05Z" stroke-width="0"/>
  <path d="m228.28,342.6c-16.36,16.36-33.75,40.91-33.75,40.91,0,0,13.3-82.84,14.32-91.02,1.02-8.18-16.36-20.45-23.52-2.05-7.05,18.12-25,77.87-25.56,79.73.2-2.16-7.71-26.12-6.69-58.85.33-10.42-8.18-16.36-17.39-13.3-6.14,2.05-10.23,14.32-10.23,14.32,0,0-5.03-5.11-12.27-5.11s-12.53,4.94-13.78,12.87c-2.48,15.71-4.06,34.8-2.61,53.32,1.48,11.73,3.47,24.36,6.06,36.09.61,2.75-1.12,5.48-3.89,6.1-.37.08-.75.12-1.1.12-2.35,0-4.46-1.62-4.99-4.01-3.67-16.52-6.12-34.48-7.7-49.44-2.67-3.61-5.29-6.79-7.25-8.43-6.14-5.11-17.63-11.52-26.59-5.11-7.16,5.11,14.32,24.03,21.48,45.51,5.53,16.58,20.45,36.31,29.66,45.51s-3.07,46.02-3.07,46.02c0,0,38.86,27.1,92.05,15.85l2.05-29.66s25.57-20.97,19.43-62.9c0,0,32.73-51.14,35.8-58.3,3.07-7.16-4.09-24.55-20.45-8.18Z" stroke-width="0"/>
  <path d="m60.74,283.09c-1.78-4.49-7.65-6.41-11.73-3.83-1.54.92-2.72,2.29-3.39,3.95l-5.17,12.71c-6.88-36.65-4.66-74.07,6.61-109.81l3.96,14.51c.47,1.73,1.47,3.23,2.9,4.33,3.75,3.05,9.81,1.85,12.11-2.39,1.09-1.9,1.37-4.11.79-6.22l-11.57-42.35c-1.33-6.04-9.69-8.15-13.75-3.7l.04.04c-.47.38-.92.83-1.37,1.28l-31.11,30.76c-1.55,1.54-2.41,3.59-2.42,5.78-.1,7.2,8.86,10.97,13.95,5.87,0,0,8.26-8.17,9.71-9.6-11.19,36.51-13.59,74.85-7,112.67,0,0-8.68-10.93-8.68-10.93-4.44-5.67-13.78-3-14.55,4.16-.25,2.17.36,4.31,1.71,6.03l27.2,34.26c.39.5.79,1,1.21,1.43l-.04.03c3.5,4.9,12.05,3.8,14.09-2.03l16.55-40.66c.83-2.03.81-4.26-.04-6.27Z" stroke-width="0"/>
  <path d="m511.94,290.29c-.77-7.16-10.11-9.83-14.55-4.16,0,0-8.68,10.93-8.68,10.93,6.59-37.82,4.18-76.16-7-112.67,1.44,1.43,9.71,9.6,9.71,9.6,5.09,5.1,14.04,1.33,13.95-5.87,0-2.19-.87-4.24-2.42-5.78l-31.11-30.76c-.45-.45-.9-.89-1.37-1.28l.04-.04c-4.06-4.45-12.42-2.33-13.75,3.7l-11.57,42.35c-.58,2.11-.3,4.32.79,6.22,2.3,4.24,8.36,5.44,12.11,2.39,1.42-1.1,2.42-2.59,2.9-4.33l3.96-14.51c11.27,35.75,13.49,73.17,6.61,109.81l-5.17-12.71c-.68-1.66-1.85-3.03-3.39-3.95-4.09-2.58-9.96-.66-11.73,3.83-.85,2.01-.87,4.24-.04,6.27l16.55,40.66c2.04,5.83,10.6,6.93,14.09,2.03l-.04-.03c.42-.44.81-.94,1.21-1.43l27.2-34.26c1.36-1.71,1.97-3.85,1.71-6.03Z" stroke-width="0"/>
</svg>