<?xml version="1.0" encoding="utf-8"?>
<!-- Generator: Adobe Illustrator 28.0.0, SVG Export Plug-In . SVG Version: 6.00 Build 0)  -->
<svg version="1.1" id="Wait_Icon" xmlns="http://www.w3.org/2000/svg" xmlns:xlink="http://www.w3.org/1999/xlink" x="0px" y="0px"
	 viewBox="0 0 512 512" style="enable-background:new 0 0 512 512;" xml:space="preserve">
<style type="text/css">
	.st0{fill:#FFFFFF;}
</style>
<g>
	<g>
		<path d="M482.7,169.4c-6.7-6.5-15.6-9.9-24.9-9.7c-2.9,0.1-5.3,2.5-5.2,5.5c0.1,2.9,2.5,5.3,5.5,5.2c6.5-0.1,12.6,2.3,17.3,6.7
			c4.7,4.5,7.3,10.5,7.4,17c0,1.9,1,3.5,2.5,4.4c0.8,0.5,1.9,0.8,2.9,0.8c2.9-0.1,5.3-2.5,5.2-5.5
			C493.3,184.5,489.5,175.9,482.7,169.4L482.7,169.4z"/>
		<path d="M461.8,153.8c9.8-0.2,19.1,3.4,26.2,10.2s11.1,15.9,11.3,25.7c0,1.9,1,3.5,2.5,4.4c0.8,0.5,1.9,0.8,2.9,0.8
			c2.9-0.1,5.3-2.5,5.2-5.5c-0.3-12.7-5.4-24.4-14.6-33.2c-9.1-8.8-21.1-13.4-33.8-13.2c-2.9,0.1-5.3,2.5-5.2,5.5
			C456.4,151.5,458.8,153.8,461.8,153.8L461.8,153.8z"/>
	</g>
	<path d="M487.5,278.4c7.6-22.9,30.6-43.1,22.9-48.6c-9.6-6.8-21.8,0-28.4,5.5c-2.1,1.8-4.9,5.1-7.7,9c-1.7,16-4.3,35.2-8.2,52.8
		c-0.6,2.6-2.8,4.3-5.3,4.3c-0.4,0-0.8,0-1.2-0.1c-3-0.7-4.8-3.6-4.2-6.5c2.8-12.5,6.8-40.2,8.4-52.7c1.5-19.8-4.8-25-7.4-41.7
		c-1.3-8.5-7-13.6-12-14.8c-5.9-1.4-10.2,3.1-11.7,6.4c-6.7,14.6,3.8,42.7,3.8,42.7l-11.6,20.7c0,0,0.3-7,0.1-30.3
		c-0.1-15,2.9-60.6-3.2-70.6c-5.4-8.8-21.4-1.2-22.5,9.9c-2.7,25,0.2,75.6-7,91.8c1.2-2.7,0.3-25.4-3-33.7
		c-2.9-7.4-13.9-14.2-18-19.6c-12.6-16.9-25.2-9.5-20.3,9c2.7,10,10.5,11.2,11.3,24.2c0.3,5.8-4.9,31.2-4.9,31.2s-18.6-26.2-36-43.7
		c-17.5-17.5-25.1,1.1-21.9,8.7c3.3,7.6,38.2,62.3,38.2,62.3c-6.6,44.8,20.8,67.2,20.8,67.2l2.2,31.7c56.8,12,98.3-16.9,98.3-16.9
		s-13.1-39.3-3.3-49.2C465.7,317.1,481.6,296.1,487.5,278.4z"/>
	<path class="st0" d="M429.5,189.3c-0.2,0.9-0.4,1.7-0.5,2.6C428.9,191.9,429.5,189.5,429.5,189.3z"/>
	<g>
		<path d="M341.8,167c-7.2,5.9-11.7,14.2-12.7,23.5c-0.3,2.9,1.8,5.6,4.8,5.9c2.9,0.3,5.6-1.8,5.9-4.8c0.7-6.4,3.8-12.2,8.8-16.3
			c5-4.1,11.3-6,17.7-5.3c1.9,0.2,3.6-0.6,4.7-2c0.6-0.8,1-1.7,1.2-2.8c0.3-2.9-1.8-5.6-4.8-5.9C358.1,158.4,349,161.1,341.8,167
			L341.8,167z"/>
		<path d="M323.7,185.9c1-9.8,5.7-18.5,13.3-24.7c7.6-6.2,17.2-9,26.9-8.1c1.9,0.2,3.6-0.6,4.7-2c0.6-0.8,1-1.7,1.2-2.8
			c0.3-2.9-1.8-5.6-4.8-5.9c-12.6-1.3-24.9,2.4-34.7,10.4s-15.9,19.3-17.2,31.9c-0.3,2.9,1.8,5.6,4.8,5.9
			C320.8,191,323.4,188.9,323.7,185.9L323.7,185.9z"/>
	</g>
	<g>
		<path d="M172.1,232.5c-3.2,8.2,2.6,25.9,4.5,34.4c9.6,44.2-14.2,85.6-14.2,85.6v44.8C105.5,409.3,55.3,382,55.3,382
			s14.2-55.7,4.4-65.5c-9.8-9.8-27.3-32.8-33.9-50.2c-6.6-17.5-28.4-41.5-20.8-47c9.6-6.9,21.9,0,28.4,5.5c0.5,0.4,1,0.9,1.5,1.4
			c5.4,16.5,13.3,38,23.2,56.5c1,1.8,2.9,2.9,4.8,2.9c0.9,0,1.8-0.2,2.6-0.6c2.7-1.4,3.7-4.7,2.3-7.4c-5.6-10.5-10.6-22.2-14.8-33.4
			c-2.7-19.2-9-63.7-10.7-79.9c-2.2-19.7,22.2-19.2,25.1-5.1c3.2,15.7,18,73.2,18.6,75.3c-0.1-1.1-1.7-16.1,0.9-31.6
			c1.5-9.1,11.3-14,12.8-22.7c4.4-24,24.9-19.2,24,1.6c-0.5,12.7-10.5,28.7-10.5,28.7s7.9,29.5,7.7,31.6
			c0.4-2.4,13.4-67.6,22.9-96.1c3.9-11.6,13.9-8.4,18.8-1c1.8,2.8,4.4,12,3.5,20.5c-5.6,9.9-20,34.7-28.2,43.4c-2.7,2.9-4,8.4-2,26
			c1.1,9.5,2.7,18.2,2.8,18.6c0.5,2.6,2.7,4.4,5.2,4.4c0.3,0,0.7,0,1-0.1c2.9-0.5,4.8-3.3,4.3-6.2c-3.3-17.6-4.3-32.4-3.2-35.7
			c5.4-5.8,12.6-16.9,18.8-27c5.2-1.1,17-1.6,15.8,15.6C179.8,214.5,176,222.2,172.1,232.5z"/>
		<g>
			<path d="M28.7,136.4c-7.2,5.9-11.7,14.2-12.7,23.5c-0.3,2.9,1.8,5.6,4.8,5.9c2.9,0.3,5.6-1.8,5.9-4.8c0.7-6.4,3.8-12.2,8.8-16.3
				c5-4.1,11.3-6,17.7-5.3c1.9,0.2,3.6-0.6,4.7-2c0.6-0.8,1-1.7,1.2-2.8c0.3-2.9-1.8-5.6-4.8-5.9C45,127.8,36,130.5,28.7,136.4
				L28.7,136.4z"/>
			<path d="M10.7,155.3c1-9.8,5.7-18.5,13.3-24.7c7.6-6.2,17.2-9,26.9-8.1c1.9,0.2,3.6-0.6,4.7-2c0.6-0.8,1-1.7,1.2-2.8
				c0.3-2.9-1.8-5.6-4.8-5.9c-12.6-1.3-24.9,2.4-34.7,10.4S1.3,141.6,0,154.2c-0.3,2.9,1.8,5.6,4.8,5.9
				C7.7,160.4,10.4,158.3,10.7,155.3L10.7,155.3z"/>
		</g>
		<g>
			<path d="M211,179.3c-5-7.9-12.7-13.4-21.8-15.5c-2.9-0.7-5.7,1.1-6.4,4c-0.7,2.9,1.1,5.7,4,6.4c6.3,1.4,11.7,5.3,15.1,10.7
				c3.4,5.5,4.5,12,3.1,18.3c-0.4,1.8,0.2,3.7,1.4,4.9c0.7,0.7,1.6,1.3,2.6,1.5c2.9,0.7,5.7-1.1,6.4-4
				C217.6,196.6,216,187.2,211,179.3L211,179.3z"/>
			<path d="M194.5,159.1c9.6,2.2,17.7,8,22.9,16.3c5.2,8.3,6.9,18.1,4.7,27.7c-0.4,1.8,0.2,3.7,1.4,4.9c0.7,0.7,1.6,1.3,2.6,1.5
				c2.9,0.7,5.7-1.1,6.4-4c2.8-12.3,0.7-25-6.1-35.8c-6.7-10.7-17.2-18.2-29.6-21c-2.9-0.7-5.7,1.1-6.4,4
				C189.8,155.6,191.6,158.4,194.5,159.1L194.5,159.1z"/>
		</g>
	</g>
</g>
</svg>
