<?xml version="1.0" encoding="UTF-8"?>
<!DOCTYPE svg PUBLIC "-//W3C//DTD SVG 1.1//EN" "http://www.w3.org/Graphics/SVG/1.1/DTD/svg11.dtd">
<!-- Creator: CorelDRAW 2020 (64-Bit) -->
<svg xmlns="http://www.w3.org/2000/svg" xml:space="preserve" width="1.30267in" height="1.16081in" version="1.1" shape-rendering="geometricPrecision" text-rendering="geometricPrecision" image-rendering="optimizeQuality" fill-rule="evenodd" clip-rule="evenodd"
viewBox="0 0 234.45 208.92"
 xmlns:xlink="http://www.w3.org/1999/xlink"
 xmlns:xodm="http://www.corel.com/coreldraw/odm/2003">
 <g id="Layer_x0020_1">
  <metadata id="CorelCorpID_0Corel-Layer"/>
  <g id="_2276785915232">
   <path fill="black" d="M94.3 90.71l-41.36 -7.48c0.49,-1.9 0.96,-4.22 1.44,-7.2 3.68,-20.53 12.08,-28.61 25.36,-25.09 11.19,4 14.33,15.69 14.68,30.02 0.08,3.14 0.02,6.41 -0.11,9.75z"/>
   <path fill="black" d="M45.1 109.18l-0.14 0 0.14 0 0 -1.46 47.56 -0.01c4.04,-0.03 7.71,-1.67 10.4,-4.32l0.09 -0.1c2.72,-2.72 4.41,-6.48 4.41,-10.6 0,-4.13 -1.69,-7.88 -4.41,-10.6 -2.72,-2.72 -6.47,-4.41 -10.6,-4.41l-47.45 0c-22.65,0 -36.01,16.92 -41.74,38.56 -2.27,8.56 -3.35,17.85 -3.35,27.13 -0,9.3 1.08,18.6 3.14,27.17 5.19,21.55 16.54,38.38 32.32,38.38l47.45 0c4.08,0 7.8,-1.65 10.51,-4.32l0.09 -0.1c2.72,-2.72 4.41,-6.48 4.41,-10.6 0,-4.08 -1.65,-7.8 -4.32,-10.51l-0.09 -0.09c-2.7,-2.7 -6.41,-4.38 -10.49,-4.41l-34.22 0 0 -1.47 -0.1 0 0.1 0 0 -2.23 43.75 -0.01c4.08,0 7.8,-1.65 10.51,-4.32l0.09 -0.09c2.72,-2.72 4.41,-6.48 4.41,-10.6 0,-4.13 -1.69,-7.88 -4.41,-10.6 -2.72,-2.72 -6.48,-4.41 -10.6,-4.41l-49.86 0 0 -1.85 -0.17 0 0.17 0 0 -1.85 57.65 0c4.08,0 7.8,-1.65 10.51,-4.32l0.09 -0.09c2.72,-2.72 4.41,-6.48 4.41,-10.6 0,-4.08 -1.65,-7.8 -4.32,-10.51l-0.09 -0.09c-2.72,-2.72 -6.48,-4.41 -10.6,-4.41l-55.24 0 0 -2.24z"/>
   <path fill="black" d="M102.64 50.4l6.09 0c2.19,0 3.98,-1.79 3.98,-3.98l0 -28.12 4.1 0 -11.13 -18.29 -11.13 18.29 4.1 0 0 28.12c0,2.19 1.79,3.98 3.98,3.98z"/>
   <path fill="black" d="M132.53 0l6.09 0c2.19,0 3.98,1.79 3.98,3.98l0 28.12 4.1 0 -11.13 18.29 -11.13 -18.29 4.1 0 0 -28.12c0,-2.19 1.79,-3.98 3.98,-3.98z"/>
   <path fill="black" d="M140.15 90.71l41.36 -7.48c-0.49,-1.9 -0.96,-4.22 -1.44,-7.2 -3.68,-20.53 -12.08,-28.61 -25.36,-25.09 -11.19,4 -14.33,15.69 -14.68,30.02 -0.08,3.14 -0.02,6.41 0.11,9.75z"/>
   <path fill="black" d="M189.35 109.18l0.14 0 -0.14 0 0 -1.46 -47.56 -0.01c-4.04,-0.03 -7.71,-1.67 -10.4,-4.32l-0.09 -0.1c-2.72,-2.72 -4.41,-6.48 -4.41,-10.6 0,-4.13 1.69,-7.88 4.41,-10.6 2.72,-2.72 6.47,-4.41 10.6,-4.41l47.45 0c22.65,0 36.01,16.92 41.74,38.56 2.27,8.56 3.35,17.85 3.35,27.13 0,9.3 -1.08,18.6 -3.14,27.17 -5.19,21.55 -16.54,38.38 -32.32,38.38l-47.45 0c-4.08,0 -7.8,-1.65 -10.51,-4.32l-0.09 -0.1c-2.72,-2.72 -4.41,-6.48 -4.41,-10.6 0,-4.08 1.65,-7.8 4.32,-10.51l0.09 -0.09c2.7,-2.7 6.41,-4.38 10.49,-4.41l34.22 0 0 -1.47 0.1 0 -0.1 0 0 -2.23 -43.75 -0.01c-4.08,0 -7.8,-1.65 -10.51,-4.32l-0.09 -0.09c-2.72,-2.72 -4.41,-6.48 -4.41,-10.6 0,-4.13 1.69,-7.88 4.41,-10.6 2.72,-2.72 6.48,-4.41 10.6,-4.41l49.86 0 0 -1.85 0.17 0 -0.17 0 0 -1.85 -57.65 0c-4.08,0 -7.8,-1.65 -10.51,-4.32l-0.09 -0.09c-2.72,-2.72 -4.41,-6.48 -4.41,-10.6 0,-4.08 1.65,-7.8 4.32,-10.51l0.09 -0.09c2.72,-2.72 6.48,-4.41 10.6,-4.41l55.24 0 0 -2.24z"/>
  </g>
 </g>
</svg>
