<svg version="1.1" viewBox="0 0 512 512" xmlns="http://www.w3.org/2000/svg">
		<path d="m206.76064 223.32621-90.08633-16.2922c1.06727-4.1384 2.09097-9.19159 3.13646-15.68234 8.01543-44.71645 26.3115-62.31552 55.23671-54.6486 24.37294 8.71241 31.2122 34.17443 31.97454 65.38664 0.17437 6.83925 0.0437 13.96164-0.23969 21.2365z"/>
		<path d="m99.597988 263.55577h-0.304913 0.304913v-3.18002l103.59054-0.0216c8.79956-0.0653 16.79318-3.63743 22.6523-9.4094l0.196-0.21782c5.92447-5.92443 9.60544-14.11411 9.60544-23.08788 0-8.99557-3.68097-17.16345-9.60544-23.08789-5.92441-5.92444-14.09229-9.60544-23.08787-9.60544h-103.35097c-49.334031 0-78.433484 36.8535-90.914015 83.98765-4.9442927 18.64439-7.2966431 38.87897-7.2966431 59.09175 0 20.25635 2.3523504 40.51273 6.839241 59.17906 11.304354 46.93811 36.025822 83.59559 70.396283 83.59559h103.35099c8.88667 0 16.98919-3.59388 22.89184-9.40943l0.196-0.21764c5.92442-5.92442 9.60544-14.11409 9.60544-23.08789 0-8.88666-3.59387-16.98919-9.40943-22.89183l-0.19601-0.19601c-5.88087-5.88089-13.96164-9.5401-22.84831-9.60543h-74.53462v-3.20182h-0.21782 0.21782v-4.85718l95.29201-0.0205c8.88663 0 16.9892-3.59387 22.89184-9.40939l0.196-0.196c5.92442-5.92447 9.60543-14.11412 9.60543-23.08789 0-8.99557-3.68101-17.16346-9.60543-23.08789-5.92445-5.92445-14.11412-9.60542-23.08787-9.60542h-108.6002v-4.0295h-0.37028 0.37028v-4.02945h125.56762c8.88666 0 16.98922-3.59387 22.89187-9.40943l0.19601-0.196c5.92441-5.92445 9.60543-14.11411 9.60543-23.08788 0-8.88666-3.59387-16.98921-9.40943-22.89187l-0.196-0.19605c-5.92446-5.92444-14.11412-9.60543-23.08793-9.60543h-120.31834v-4.87895z"/>
		<path d="m224.92603 135.52689h13.26463c4.77003 0 8.66886-3.8988 8.66886-8.66886v-61.248242h8.93024l-24.24233-39.837499-24.24226 39.837499h8.93024v61.248242c0 4.77006 3.89878 8.66886 8.66881 8.66886z"/>
		<path d="m290.02951 25.750508h13.26463c4.77008 0 8.66886 3.898806 8.66886 8.668851v61.248247h8.93025l-24.24233 39.837494-24.24226-39.837494h8.93023v-61.248247c0-4.770045 3.89879-8.668851 8.66886-8.668851z"/>
		<path d="m306.62664 223.32621 90.08633-16.2922c-1.06724-4.1384-2.09096-9.19159-3.13644-15.68234-8.01543-44.71645-26.31147-62.31552-55.23672-54.6486-24.37294 8.71241-31.21221 34.17443-31.97455 65.38664-0.17436 6.83925-0.0437 13.96164 0.2397 21.2365z"/>
		<path d="m413.78931 263.55577h0.30502-0.30502v-3.18002l-103.59056-0.0216c-8.79956-0.0653-16.79318-3.63743-22.65225-9.4094l-0.19601-0.21782c-5.92446-5.92443-9.60543-14.11411-9.60543-23.08788 0-8.99557 3.68097-17.16345 9.60543-23.08789s14.09231-9.60544 23.08788-9.60544h103.35097c49.33403 0 78.43351 36.8535 90.914 83.98765 4.94431 18.64451 7.29666 38.87909 7.29666 59.09186 0 20.25634-2.35235 40.51273-6.83922 59.17907-11.30435 46.93811-36.02582 83.59558-70.39628 83.59558h-103.35097c-8.88667 0-16.98923-3.59387-22.89188-9.40942l-0.19601-0.21765c-5.92441-5.92442-9.60543-14.11408-9.60543-23.08789 0-8.88667 3.59387-16.98918 9.40943-22.89183l0.196-0.19601c5.88088-5.88089 13.96165-9.54009 22.84832-9.60543h74.53467v-3.20183h0.21765-0.21765v-4.85716l-95.29198-0.0205c-8.88667 0-16.98924-3.59387-22.89188-9.40939l-0.196-0.196c-5.92446-5.92446-9.60544-14.11412-9.60544-23.08789 0-8.99557 3.68098-17.16347 9.60544-23.08788 5.92441-5.92446 14.11407-9.60542 23.08788-9.60542h108.60019v-4.02951h0.37036-0.37036v-4.02949h-125.5677c-8.88667 0-16.98922-3.59388-22.89188-9.40943l-0.196-0.196c-5.92446-5.92446-9.60542-14.11413-9.60542-23.08789 0-8.88665 3.59383-16.9892 9.40938-22.89185l0.196-0.19604c5.92441-5.92444 14.11408-9.60544 23.08789-9.60544h120.31839v-4.87894z"/>
</svg>
