<?xml version="1.0" encoding="UTF-8"?>
<svg id="Wash_Icon" data-name="Wash Icon" xmlns="http://www.w3.org/2000/svg" viewBox="0 0 512 512">
  <path d="m179.43,128.87c-15.38-4.07-37.75-1.35-46.14,29.86-2.48,9.23-20.57,34.12-33.7,51.39l93.78-6.81c17.25-45.98,6.24-69.1-13.95-74.45Z" stroke-width="0"/>
  <path d="m141.69,347.49h94.34c7.86-6.01,17.7-17.52,15.77-36.77-1.67-16.55-9.31-25.45-16.12-30.17h-.01l-97.94,4.07c-.08,0-.16.01-.24.01-3.09,0-5.65-2.44-5.79-5.56-.13-3.19,2.35-5.89,5.54-6.02l88.67-3.69,5.86-.24c17.57-19.54,5.27-52.3-15.97-54.73-2.23-.25-5.15-.41-8.64-.45l-132.12,9.57c-5.72.64-10.63,1.23-14.46,1.74-30.77,4.07-32.17,23.08-32.17,23.08,0,0-3.65,15.16,4.2,35.29,5.16,13.25-15.22,29.98-16.78,51.58-1.77,24.41,20.4,40,16.31,54.08-11.59,39.88,8.11,48.15,17.91,68.51,9.79,20.36-5.91,28.64,9.13,44.37,18.17,19.01,61.57,5.02,109.07,2.72,55.93-2.72,71.32-17.65,74.12-44.8,1.35-13.22-3.63-22.95-7.73-28.52l-97.07,1.44h-.08c-3.16,0-5.74-2.54-5.79-5.71-.05-3.19,2.5-5.82,5.71-5.87l93.55-1.39,6.99-.1c4.84-5.43,10.01-15.13,10.01-31.8,0-14.97-5.73-23.94-11.2-29.08h-95.06c-3.19,0-5.79-2.58-5.79-5.79s2.59-5.79,5.79-5.79Z" stroke-width="0"/>
  <path d="m412.41,125.91c-13.13-17.27-31.22-42.17-33.7-51.39-8.39-31.22-30.76-33.94-46.14-29.86-20.19,5.35-31.2,28.48-13.95,74.45l93.78,6.81Z" stroke-width="0"/>
  <path d="m496.18,250.98c-1.56-21.6-21.95-38.33-16.78-51.58,7.85-20.13,4.2-35.29,4.2-35.29,0,0-1.4-19.01-32.17-23.08-3.83-.51-8.74-1.1-14.46-1.74l-132.12-9.57c-3.48.05-6.4.2-8.64.45-21.24,2.43-33.55,35.19-15.97,54.73l5.86.24,88.67,3.69c3.19.13,5.67,2.82,5.54,6.02-.14,3.11-2.7,5.56-5.79,5.56-.08,0-.16-.01-.24-.01l-97.94-4.07h-.01c-6.82,4.71-14.46,13.61-16.12,30.17-1.93,19.25,7.91,30.77,15.77,36.77h94.34c3.19,0,5.79,2.59,5.79,5.79s-2.59,5.79-5.79,5.79h-95.06c-5.48,5.14-11.2,14.11-11.2,29.08,0,16.67,5.17,26.37,10.01,31.8l6.99.1,93.55,1.39c3.21.05,5.75,2.67,5.71,5.87-.05,3.17-2.63,5.71-5.79,5.71h-.08l-97.07-1.44c-4.1,5.57-9.09,15.3-7.73,28.52,2.8,27.14,18.18,42.08,74.12,44.8,47.5,2.3,90.9,16.29,109.07-2.72,15.05-15.73-.66-24.01,9.13-44.37,9.79-20.36,29.49-28.64,17.91-68.51-4.09-14.08,18.08-29.67,16.31-54.08Z" stroke-width="0"/>
  <path d="m194.62,39.01c1.22.71,2.61,1.09,4.02,1.09,2.31,0,4.5-1.01,6-2.71v82.89c0,4.41,3.59,8,8,8s8-3.59,8-8V37.39c1.5,1.7,3.69,2.71,6,2.71,1.41,0,2.8-.38,4.02-1.09,1.85-1.08,3.16-2.81,3.71-4.87.54-2.07.25-4.22-.82-6.06l-13.99-24c-1.43-2.45-4.07-3.97-6.91-3.97s-5.48,1.52-6.91,3.97l-13.99,24c-1.08,1.85-1.37,4-.83,6.06.54,2.07,1.86,3.8,3.71,4.87Z" stroke-width="0"/>
  <path d="m266.63,128.17c2.83,0,5.48-1.52,6.91-3.97l13.99-24c1.08-1.85,1.37-4,.83-6.06-.54-2.07-1.86-3.8-3.71-4.87-1.22-.71-2.61-1.09-4.02-1.09-2.31,0-4.5,1.01-6,2.71V8c0-4.41-3.59-8-8-8s-8,3.59-8,8v82.89c-1.5-1.7-3.69-2.71-6-2.71-1.41,0-2.8.38-4.02,1.09-1.85,1.08-3.16,2.81-3.71,4.87-.54,2.07-.25,4.22.82,6.06l13.99,24c1.43,2.45,4.07,3.97,6.91,3.97Z" stroke-width="0"/>
</svg>