<?xml version="1.0" encoding="UTF-8"?>
<!DOCTYPE svg PUBLIC "-//W3C//DTD SVG 1.1//EN" "http://www.w3.org/Graphics/SVG/1.1/DTD/svg11.dtd">
<!-- Creator: CorelDRAW 2020 (64-Bit) -->
<svg xmlns="http://www.w3.org/2000/svg" xml:space="preserve" width="1.35883in" height="1.18579in" version="1.1" shape-rendering="geometricPrecision" text-rendering="geometricPrecision" image-rendering="optimizeQuality" fill-rule="evenodd" clip-rule="evenodd"
viewBox="0 0 150 130.9"
 xmlns:xlink="http://www.w3.org/1999/xlink"
 xmlns:xodm="http://www.corel.com/coreldraw/odm/2003">
 <g id="Layer_x0020_1">
  <metadata id="CorelCorpID_0Corel-Layer"/>
  <g id="_2294839951136">
   <g>
    <path fill="black" stroke="white" stroke-width="2.3" stroke-linecap="round" stroke-linejoin="round" stroke-miterlimit="2.61313" d="M89.46 55.64l25.37 -4.59c-0.3,-1.16 -0.59,-2.59 -0.88,-4.42 -2.26,-12.59 -7.41,-17.55 -15.55,-15.39 -6.86,2.46 -8.79,9.62 -9.01,18.41 -0.05,1.93 -0.01,3.93 0.07,5.98z"/>
    <path fill="black" stroke="white" stroke-width="2.3" stroke-linecap="round" stroke-linejoin="round" stroke-miterlimit="2.61313" d="M125.71 129.75c28.93,0 34.77,-83.71 -5.98,-83.71l-29.44 0c-5.75,0 -10.46,4.71 -10.46,10.46l0 0c0,5.76 4.71,10.46 10.46,10.46l29.44 -0 -34.27 0c-5.75,0 -10.46,4.71 -10.46,10.46l0 0c0,5.76 4.71,10.46 10.46,10.46l35.76 0 -30.93 0c-5.75,0 -10.46,4.71 -10.46,10.46l0 0c0,5.76 4.71,10.46 10.46,10.46l27.14 0 -21.16 -0c-5.75,0 -10.46,4.71 -10.46,10.46l0 0c0,5.76 4.71,10.46 10.46,10.46l29.44 0z"/>
    <path fill="black" stroke="white" stroke-width="2.3" stroke-linecap="round" stroke-linejoin="round" stroke-miterlimit="2.61313" d="M60.54 55.64l-25.37 -4.59c0.3,-1.16 0.59,-2.59 0.88,-4.42 2.26,-12.59 7.41,-17.55 15.55,-15.39 6.86,2.46 8.79,9.62 9.01,18.41 0.05,1.93 0.01,3.93 -0.07,5.98z"/>
    <path fill="black" stroke="white" stroke-width="2.3" stroke-linecap="round" stroke-linejoin="round" stroke-miterlimit="2.61313" d="M24.29 129.75c-28.93,0 -34.77,-83.71 5.98,-83.71l29.44 0c5.75,0 10.46,4.71 10.46,10.46l0 0c0,5.76 -4.71,10.46 -10.46,10.46l-29.44 -0 34.27 0c5.75,0 10.46,4.71 10.46,10.46l0 0c0,5.76 -4.71,10.46 -10.46,10.46l-35.76 0 30.93 0c5.75,0 10.46,4.71 10.46,10.46l0 0c0,5.76 -4.71,10.46 -10.46,10.46l-27.14 0 21.16 -0c5.75,0 10.46,4.71 10.46,10.46l0 0c0,5.76 -4.71,10.46 -10.46,10.46l-29.44 0z"/>
   </g>
   <g>
    <path fill="black" d="M65.65 30.91l3.74 0c1.34,0 2.44,-1.1 2.44,-2.44l0 -17.25 2.52 0 -6.83 -11.22 -6.83 11.22 2.52 0 0 17.25c0,1.34 1.1,2.44 2.44,2.44z"/>
    <path fill="black" d="M83.98 0l3.74 0c1.34,0 2.44,1.1 2.44,2.44l0 17.25 2.52 0 -6.83 11.22 -6.83 -11.22 2.52 0 0 -17.25c0,-1.34 1.1,-2.44 2.44,-2.44z"/>
   </g>
  </g>
 </g>
</svg>
