<?xml version="1.0" encoding="UTF-8"?>
<svg id="Water_Icon" data-name="Water Icon" xmlns="http://www.w3.org/2000/svg" viewBox="0 0 512 512">
  <g>
    <path d="m246.65,47.13c-.09.08-.2.17-.29.25-2.37,2-19.6,15.74-44.76,15.74-20.12,0-32.67-6.66-37.81-10.1-3.18-2.26-5.6-4.37-7.18-5.85-36.99,9.87-74.38,1.39-88.17-2.49,6.06,8.78,19.31,25.42,40.83,39.96,0,0,0,0,0,0,14.18,10.56,40.79,27.35,92.33,27.35,45.13,0,73.2-16.43,73.2-16.43,32.71-16.03,51.84-39.58,59.59-50.74-14.24,3.96-51.2,12.1-87.74,2.3Z" stroke-width="0"/>
    <path d="m156.68,37.32c5.48-.53,3.96,1.76,10.05,6.02,0-.03.02-.06.03-.1,13.31,11.21,40.57,16.4,59.68,6.19,0,.02,0,.04,0,.06,3.37-1.57,8.51-5.08,7.9-4.81h0c8.22-5.02,6.23-7.73,12.38-7.36,29.98,8.75,61.52,3.93,78.34.06-26.82-4.36-53.74-20.43-69.75-31.54-27.44-18.67-40.96,14.54-65.98,2.33-12.61-7.71-28.87-11.92-41.73-2.33-15.96,11.07-42.73,27.07-69.47,31.5,16.77,3.88,48.44,8.76,78.54-.02Z" stroke-width="0"/>
  </g>
  <path d="m339.63,173.47c-12.67-3.46-21.88,0-33.39,20.72-9.58,17.24-36.67,76.67-45.52,96.21-1.54,3.38-5.63,4.73-8.88,2.92-2.05-1.14-3.26-3.28-3.26-5.55,0-.54.06-1.09.21-1.63,5.89-22.04,30.23-113.21,33.27-125.34,3.45-13.82-3.46-29.94-17.28-32.24-13.81-2.3-27.63,6.91-33.39,27.63-5.76,20.73-33.39,116.3-33.39,116.3,0,0-2.3-100.18-2.3-109.39s-4.61-26.48-23.03-25.33c-18.43,1.15-25.34,11.52-25.34,27.64,0,13.28-2.34,89.91-3.17,116.45,4.11,1.55,8.15,3.82,11.73,7.1,10.06,9.22,24,23.52,34.17,33.97,3.94,4.04,7.35,7.54,9.75,9.94,9.01,9.01,10.74,21.8,4.3,31.8-3.39,5.26-8.78,9.06-15.2,10.7-2.47.63-5.09.95-7.81.95-4.87,0-10.07-1.01-15.37-3-19.1-7.16-43.19-28.84-44.2-29.76-2.05-1.85-2.21-5.01-.36-7.06,1.85-2.05,5.01-2.21,7.06-.35.24.21,23.7,21.32,41.01,27.81,13.92,5.22,22.79.99,26.46-4.7,3.19-4.95,3.51-12.85-2.96-19.32-2.45-2.45-5.87-5.97-9.84-10.04-10.09-10.36-23.92-24.54-33.76-33.57-2.22-2.03-4.74-3.55-7.36-4.66-8.04,3.01-36.72,14.85-41.66,32.64-5.75,20.73-12.66,72.54-14.97,101.33-2.3,28.79,15.26,73.25,86.36,66.78,12.67-1.15,32.25,25.34,73.7,18.43,41.45-6.91,65.98-65.64,65.81-109.39-.18-43.76-4.78-76-4.78-76,0,0,35.69-90.97,44.9-110.54,9.22-19.58,1.16-38-11.51-41.45Zm-41.54,200.54c-1.69,2.18-4.83,2.58-7.01.88-25.5-19.83-35.81-43.55-42.63-59.24-1.77-4.07-3.29-7.58-4.75-10.25-1.73-3.17-4.01-4.72-6.7-4.71-3.65.06-7.85,3.01-9.77,6.86-2.66,5.32-14.3,33.89,17.85,74.09.99,1.23,1.34,2.86.94,4.39-.4,1.52-1.5,2.77-2.96,3.37-.46.18-45.91,19.3-54.53,69.89-.41,2.44-2.53,4.17-4.92,4.17-.28,0-.56-.03-.84-.08-2.73-.46-4.56-3.04-4.09-5.76,7.72-45.36,41.09-67.42,54.79-74.7-12.1-16.46-18.9-33.01-20.24-49.26-1.3-15.87,3.1-26.68,5.05-30.59,3.58-7.16,11.21-12.25,18.54-12.38,6.56-.1,12.1,3.41,15.66,9.92,1.67,3.07,3.28,6.77,5.14,11.05,6.42,14.77,16.12,37.08,39.6,55.34,2.18,1.69,2.57,4.83.87,7.01Z" stroke-width="0"/>
  <g>
    <path d="m332.7,127.46c1.41.04,2.82-.29,4.05-.96,2.03-1.1,3.47-3.04,3.98-5.25l39.59,72.82c2.11,3.87,6.97,5.31,10.85,3.21s5.31-6.97,3.21-10.85l-39.59-72.82c2.13.78,4.54.62,6.57-.49,1.24-.67,2.28-1.67,3.01-2.88,1.11-1.83,1.44-3.98.93-6.05-.51-2.07-1.8-3.83-3.62-4.93l-23.76-14.4c-2.42-1.47-5.48-1.54-7.97-.19s-4.09,3.95-4.17,6.79l-.83,27.77c-.06,2.14.71,4.17,2.17,5.72,1.46,1.56,3.45,2.45,5.58,2.51Z" stroke-width="0"/>
    <path d="m438.55,171.39c2.49-1.35,4.09-3.95,4.17-6.79l.83-27.77c.06-2.14-.71-4.17-2.17-5.72-1.46-1.56-3.45-2.45-5.58-2.51-1.41-.04-2.82.29-4.05.96-2.03,1.1-3.47,3.04-3.98,5.25l-39.59-72.82c-2.11-3.87-6.97-5.31-10.85-3.21s-5.31,6.97-3.21,10.85l39.59,72.82c-2.13-.78-4.54-.62-6.57.49-1.24.67-2.28,1.67-3.01,2.88-1.11,1.83-1.44,3.98-.93,6.05.51,2.07,1.8,3.83,3.62,4.93l23.76,14.4c2.42,1.47,5.48,1.54,7.97.19Z" stroke-width="0"/>
  </g>
</svg>