<?xml version="1.0" encoding="UTF-8"?>
<svg id="Work_Icon" data-name="Work Icon" xmlns="http://www.w3.org/2000/svg" viewBox="0 0 512 512">
  <path d="m187.5,503.39c-2.36,8.85,15.53,12.6,25.3,2.84,4.56-4.56,8.86-10.77,12.13-16.08-15.56-.79-25.54-4.55-30.47-6.98-2.43,6.09-5.22,13.71-6.96,20.22Z" stroke-width="0"/>
  <path d="m457.07,332.24s-54.26,11.88-90.33,1.37c-14.33-4.18-67.85,10.95-110.88,10.94-43.02,0-57.53,16.03-71.29,33.34-29.15,36.69-27.67,81.51-6.51,94.97,2.01,1.28,4.62,1.85,7.09,2.08-15.96-48.57,2.37-72.03,3.22-73.08,1.74-2.14,4.88-2.47,7.03-.73,2.13,1.73,2.47,4.84.76,6.99-10.05,16.42-10.47,39.48.92,70.56,5.81,3.79,12.3,4.07,17.17,3.48-18.78-33.11-6.76-70.11-6.2-71.79.88-2.62,3.72-4.02,6.32-3.16,2.62.88,4.02,3.71,3.16,6.32-.13.39-12.93,40.12,10.01,70.73.07.1.15.2.21.3,5.08,2.93,12.87,5.87,21.17,3.33-20.17-39.9-4.36-70.03-3.65-71.35,1.31-2.43,4.33-3.33,6.76-2.02,2.43,1.32,3.33,4.34,2.02,6.77-.62,1.15-14.61,28.33,5.15,64.7,6.65,2.79,22.26,7.43,38.2-1.54,10.9-6.14,14.64-20.52,15.93-30.38-9.12-2.5-15.88-5.84-20.46-8.66l-3.49,28.02c-.32,2.58-2.55,4.45-5.09,4.37-2.92-.05-5.19-2.71-4.81-5.6,0,0,4.53-36.5,4.53-36.5.39-4.05,5.72-5.88,8.5-2.9-.21.04,9.89,8.84,27.68,12.72,0,0,.02,0,.02,0,14.01,2.87,49.21,6.31,80.94-21.14,0,0,32.72.65,61.52,14.78,0,0,38.73-60.68-5.59-106.93Z" stroke-width="0"/>
  <path d="m194.23,336.95c13.81-4.04,39.89,5.28,67.83-19.72,18.73-16.77,12.37-30.78,74.23-67.09,16.75-9.84,24.94-23.7,11.41-31.76-6.77-4.03-13.75-3.94-19.47-2.54-5.83,17.99-16.99,32.8-30.69,39.43-3.39,13.85-19.12,19.08-32.2,16.36-5.74,11.02-20.71,14.31-32.38,11.24-6.89,9.51-21.88,11.45-32.74,7.88-6.55-2.11-17.3-13.84-20.43-17.39-1.83-2.07-1.63-5.22.43-7.05,2.07-1.83,5.22-1.64,7.05.43,5.58,6.31,13.36,13.64,16.02,14.5,4.47,1.45,17.27,3.22,22.67-5.78,3.07-5.12,5.22-22.79,2.57-26.34-10.04-13.38-30.35-37.1-30.56-37.34-4.14-5.11,3.12-11.39,7.58-6.5.85.99,20.73,24.21,30.97,37.85,4.89,6.53,3.45,21.01.76,30.43,5.73.93,14.89.68,19.24-6.58,2.9-4.82,5.81-28.67,3.43-33.43-4.04-8.1-23.84-30.72-31.13-38.75-1.85-2.05-1.7-5.2.35-7.06,2.04-1.85,5.19-1.7,7.05.35,2.78,3.06,27.26,30.2,32.67,40.99,3.14,6.29,1.84,22.02-.54,32.95,7.23,1.23,18.3-.84,20.13-10.95.05-.42.15-.83.3-1.22,2.08-8.85,3.46-24.24,1.59-27.95-4.04-8.1-23.84-30.72-31.13-38.75-1.85-2.05-1.7-5.2.35-7.05,2.04-1.86,5.2-1.71,7.05.34,2.78,3.06,27.27,30.2,32.67,41,2.37,4.74,2.21,14.88.97,24.26,7.38-5.97,12.43-14.2,15.88-22.24,0,0,0-.02,0-.04,1.7-6.29,5.69-24.29-1.77-30.83-6.25-5.46-55.83-31.89-69.49-33.04-13.67-1.14-19.37,15.95-35.32,15.95s-22.78,12.53-30.75,20.51c-7.98,7.97-13.67,3.42-25.07,10.25-11.39,6.84-18.23,46.71-21.64,58.1-11.2,37.29-54.69,47.85-54.69,47.85-.71,30.19,42.64,77.57,77.32,61.8,0,0,25.67-29.01,39.47-33.06Z" stroke-width="0"/>
  <path d="m112.13,215.4c3.35,0,6.29-2.14,7.31-5.33,1.29-4.03-.94-8.36-4.97-9.65C12.38,165.9,35.67,17.28,143.41,15.37c45.28-.83,87.18,35.06,93.57,79.71-5.75-9.58-19.14-1.48-13.26,7.86,0,0,16.01,22.22,16.01,22.22,1.42,1.97,3.72,3.16,6.23,3.19,2.4,0,4.69-1.14,6.13-3.06l16.74-22.22c1.23-1.64,1.76-3.66,1.47-5.69-.89-6.71-9.7-8.97-13.73-3.55,0,0-3.64,4.83-3.64,4.83C248.26,44.19,198.24-1.05,143.41.02,16.64,2.54-8.82,178.09,112.13,215.4Z" stroke-width="0"/>
</svg>