<?xml version="1.0" encoding="UTF-8"?>
<svg id="Yes_Icon" data-name="Yes Icon" xmlns="http://www.w3.org/2000/svg" viewBox="0 0 512 512">
  <path d="m454.72,106.81c9.3-22-53.91-47.22-85.26,3.39,26.05,44.44-.04,202.54-65.81,141.25-6.83,26.72-40.01,34.28-57.09,14.87-3.95,27.61-36.59,38.27-55.26,19.7-7.34,35.88-47.61,38.12-63.03,9.12-8.92-16.58-12.98-29.79-16.33-44.52-1.51-6.28,8.4-8.58,9.75-2.21,3.8,16.7,8.11,28.48,15.39,41.99,5.96,11.06,16.92,16.75,27.27,14.14,4.25-1.07,18.11-6.44,18.11-30.52,0-64.53-19.76-99.44-34.76-116.64-75.23-20.76-66.25,85.69-48.19,140.12,11.44,41.14,21.21,159.02,166,128.95,0,0,78.27,20.89,123.52-37.02,45.24-57.9,13.26-124.51,31.03-176.93,17.76-52.4,24.88-82.6,34.65-105.7Z" stroke-width="0"/>
  <path d="m309.54,214.44c-.23,6.65-.88,15.32-2.52,24,4.35,10.13,19.06,22.06,34.07,13.44,30.39-15.87,34.82-119.86,18.58-138.63-11.21-9.41-38.78-25.98-70.37,3.51,14.57,24.4,21.37,64.93,20.24,97.69Z" stroke-width="0"/>
  <path d="m249.13,245.36c-.08,2.51-.24,5.15-.49,7.84,4.17,7.78,21.16,21.42,36.37,9.47,8.24-5.49,13.67-23.65,14.53-48.58,1.41-41.01-8.57-76.94-20.9-95.31-11.56-5.74-38.87-14.95-58.82,12.76,19.94,28.07,30.53,79.72,29.3,113.81Z" stroke-width="0"/>
  <path d="m192.47,272.47c2.08,2.87,8.42,10.62,17.36,12.55,56.02,5.04,19.91-128.9.71-149.29-11.05-3.89-37.06-9.31-53.16,17.54,27.91,33.29,35.25,85.12,35.09,119.19Z" stroke-width="0"/>
  <path d="m44.38,240.4c-1.83-5.57-9.76-7.03-13.44-2.45-1.91,3.58-33.2,35.22-30.81,39.54.29,6.82,9.64,9.88,13.89,4.53,0,0,8.94-10.44,8.94-10.44-8.98,17.81-5.9,144.38,20.76,139.11,4-1.45,6.15-6.28,4.54-10.22-15.87-41.3-19.01-85.49-9.22-128.39,2.67,5.16,4.15,19.78,12.46,19.08,5.31.15,9.39-5.66,7.43-10.61,0,0-14.56-40.15-14.56-40.15Z" stroke-width="0"/>
  <path d="m510.01,271.42l-28.93-33.78c-3.68-4.57-11.61-3.13-13.44,2.45,0,0-14.57,40.15-14.57,40.15-1.96,4.94,2.12,10.76,7.43,10.61,8.28.74,9.83-13.96,12.46-19.08,9.79,42.9,6.65,87.09-9.22,128.39-1.61,3.93.55,8.78,4.55,10.22,26.61,5.13,29.78-120.69,20.75-139.11l8.94,10.44c6.54,7.89,18.81-2.61,12.01-10.29Z" stroke-width="0"/>
</svg>
