<?xml version="1.0" encoding="UTF-8"?>
<!DOCTYPE svg PUBLIC "-//W3C//DTD SVG 1.1//EN" "http://www.w3.org/Graphics/SVG/1.1/DTD/svg11.dtd">
<!-- Creator: CorelDRAW 2020 (64-Bit) -->
<svg xmlns="http://www.w3.org/2000/svg" xml:space="preserve" width="1.45691in" height="1.15219in" version="1.1" shape-rendering="geometricPrecision" text-rendering="geometricPrecision" image-rendering="optimizeQuality" fill-rule="evenodd" clip-rule="evenodd"
viewBox="0 0 265.99 210.36"
 xmlns:xlink="http://www.w3.org/1999/xlink"
 xmlns:xodm="http://www.corel.com/coreldraw/odm/2003">
 <g id="Layer_x0020_1">
  <metadata id="CorelCorpID_0Corel-Layer"/>
  <g id="_2294844394464">
   <path fill="black" stroke="white" stroke-width="4.38" stroke-linecap="round" stroke-linejoin="round" stroke-miterlimit="2.61313" d="M102.41 206.73c-42.46,-3.92 -53.92,-24.49 -62.24,-68.85 -1.29,-18.36 -2.57,-36.72 -3.86,-55.08 -1.79,-32.01 16.45,-42.53 38,-32.5 -1.04,-20.82 35.94,-27.23 40.21,-7.71 -1.45,-19.32 32.79,-24 38.55,-3.86 -0.25,-27.22 46.69,-24.46 42.56,1.98 20.57,-66.56 85.8,-40.5 43.69,25.01 -50.08,93.89 24.54,153.84 -136.92,141z"/>
   <path fill="none" stroke="white" stroke-width="4.38" stroke-linecap="round" stroke-linejoin="round" stroke-miterlimit="2.61313" d="M74.33 50.31c14.01,13.3 14.06,30.35 11.15,48.19 -2.98,14.34 -31.67,19.38 -31.67,1.1 1.25,-14.43 -3.26,-30.47 -11.2,-44.82"/>
   <path fill="none" stroke="white" stroke-width="4.38" stroke-linecap="round" stroke-linejoin="round" stroke-miterlimit="2.61313" d="M114.53 42.6c5.29,20.3 5.72,41.94 3.03,64.44 -3.85,17.63 -35.32,16.59 -32.82,-6.22"/>
   <path fill="none" stroke="white" stroke-width="4.38" stroke-linecap="round" stroke-linejoin="round" stroke-miterlimit="2.61313" d="M153.09 38.75c5.29,20.3 4.76,45.79 2.07,68.29 -3.85,17.63 -39.45,16.59 -36.95,-6.22"/>
   <path fill="none" stroke="white" stroke-width="4.38" stroke-linecap="round" stroke-linejoin="round" stroke-miterlimit="2.61313" d="M166.13 154.03c-17.56,3.17 -31.5,13.44 -42.72,29.03"/>
   <path fill="none" stroke="white" stroke-width="4.38" stroke-linecap="round" stroke-linejoin="round" stroke-miterlimit="2.61313" d="M195.65 40.73c0.33,21.95 -0.4,46.08 -3.09,68.58 -2.95,18.38 -39.45,16.59 -36.95,-6.22"/>
   <g>
    <path fill="none" stroke="black" stroke-width="1.83" stroke-linecap="round" stroke-linejoin="round" stroke-miterlimit="2.61313" d="M26.96 202.61c-35.52,-31.86 -31.04,-83.58 -0.81,-68.11"/>
    <polygon fill="black" stroke="black" stroke-width="5.18" stroke-linecap="round" stroke-linejoin="round" stroke-miterlimit="2.61313" points="15.37,147.12 33.18,145.82 31.86,127.81 "/>
   </g>
   <g>
    <path fill="none" stroke="black" stroke-width="1.83" stroke-linecap="round" stroke-linejoin="round" stroke-miterlimit="2.61313" d="M239.03 184.08c35.52,-31.86 31.04,-83.58 0.81,-68.11"/>
    <polygon fill="black" stroke="black" stroke-width="5.18" stroke-linecap="round" stroke-linejoin="round" stroke-miterlimit="2.61313" points="250.63,128.59 232.81,127.29 234.13,109.27 "/>
   </g>
  </g>
 </g>
</svg>
