<?xml version="1.0" encoding="UTF-8"?>
<!DOCTYPE svg PUBLIC "-//W3C//DTD SVG 1.1//EN" "http://www.w3.org/Graphics/SVG/1.1/DTD/svg11.dtd">
<!-- Creator: CorelDRAW 2020 (64-Bit) -->
<svg xmlns="http://www.w3.org/2000/svg" xml:space="preserve" width="1.45706in" height="1.1105in" version="1.1" shape-rendering="geometricPrecision" text-rendering="geometricPrecision" image-rendering="optimizeQuality" fill-rule="evenodd" clip-rule="evenodd"
viewBox="0 0 274.02 208.85"
 xmlns:xlink="http://www.w3.org/1999/xlink"
 xmlns:xodm="http://www.corel.com/coreldraw/odm/2003">
 <g id="Layer_x0020_1">
  <metadata id="CorelCorpID_0Corel-Layer"/>
  <g id="_2276634483136">
   <path fill="black" d="M43.73 56.35c3.38,6.58 6.04,13.46 7.75,20.34 1.85,7.4 2.61,14.8 2.01,21.81l-0.01 0.19c0,5.83 2.51,9.7 6.24,11.92 2.29,1.36 5.03,2.05 7.91,2.16 2.8,0.11 5.74,-0.33 8.53,-1.25 3.49,-1.15 6.78,-3.05 9.3,-5.55 0.84,5.33 3.66,9.21 7.42,11.69 2.36,1.56 5.08,2.54 7.9,2.96 2.78,0.41 5.69,0.28 8.45,-0.39 5.24,-1.27 9.96,-4.47 12.43,-9.52 1.5,2.87 3.78,5.12 6.5,6.78 2.63,1.6 5.67,2.62 8.82,3.08 3.11,0.45 6.36,0.35 9.44,-0.28 5.46,-1.13 10.4,-3.95 13.23,-8.4 1.66,3.86 4.65,6.77 8.28,8.72 2.61,1.4 5.56,2.29 8.58,2.68 3.01,0.38 6.09,0.27 8.99,-0.34 7.26,-1.53 13.45,-6.14 14.75,-13.78l0.04 -0.23c1.31,-10.92 2.17,-22.26 2.68,-33.58 0.57,-12.55 0.7,-25.08 0.52,-37.01 6.98,-22.37 18.87,-34.14 29.94,-37.4 5.03,-1.48 9.88,-1.17 13.95,0.72 4.06,1.89 7.38,5.38 9.39,10.26 4.47,10.87 2.49,28.47 -11.88,50.82l-0.13 0.25c-17.26,32.4 -20.25,60.83 -22.67,83.91 -4.72,44.91 -7.24,68.87 -116.44,60.18l-0.12 -0.01c-21.22,-1.98 -34.65,-8.06 -43.77,-19.12 -9.22,-11.18 -14.21,-27.6 -18.43,-50.07l-3.97 -56.68c-0.53,-9.66 0.75,-17.31 3.39,-22.98 0.3,-0.65 0.62,-1.28 0.96,-1.88zm127.06 96.48c1.06,-0.19 2.08,0.52 2.26,1.58 0.19,1.06 -0.52,2.08 -1.58,2.26 -8.76,1.58 -16.62,4.94 -23.69,9.84 -7.11,4.93 -13.43,11.43 -19.08,19.28 -0.63,0.87 -1.85,1.07 -2.72,0.44 -0.87,-0.63 -1.07,-1.85 -0.44,-2.72 5.91,-8.21 12.55,-15.02 20.03,-20.21 7.52,-5.21 15.88,-8.78 25.22,-10.47zm-47.16 -51.54c0.97,-9.85 1.33,-19.55 0.95,-29.06 -0.45,-11.15 -1.93,-22.02 -4.65,-32.55 -0.34,-5.24 2.29,-9.28 6.25,-11.85 2.34,-1.52 5.15,-2.54 8.1,-3.01 2.97,-0.48 6.08,-0.4 9.01,0.29 5.7,1.34 10.7,5.02 12.54,11.43l0.03 0.09c2.45,9.44 3.66,20.01 3.99,30.89 0.39,12.82 -0.45,26.09 -1.93,38.5 -1.28,5.7 -6.39,9.23 -12.27,10.45 -2.63,0.54 -5.42,0.63 -8.1,0.24 -2.65,-0.38 -5.18,-1.23 -7.34,-2.54 -4.09,-2.49 -6.87,-6.75 -6.56,-12.86zm75.99 -63.57l-0 0.02 -0 0.02 -0 0.03 -0 0.02 -0 0.03 -0 0.05 -0 0.02 -0 0.03 -0 0.02 -0 0.03 -0 0.02 0 0.03 0 0.02 0 0.02c0.18,11.91 0.05,24.46 -0.52,37.08 -0.5,11.17 -1.36,22.4 -2.66,33.29l-0 0.03c-0.99,5.84 -5.9,9.4 -11.7,10.62 -2.49,0.53 -5.14,0.63 -7.71,0.3 -2.55,-0.33 -5.03,-1.08 -7.22,-2.25 -4.83,-2.59 -8.21,-7.35 -7.58,-14.29 1.24,-11.49 1.89,-23.64 1.53,-35.45 -0.34,-11.12 -1.58,-21.95 -4.08,-31.66 0.01,-8.45 4.99,-13.74 11.42,-16.09 3.22,-1.17 6.8,-1.63 10.33,-1.39 3.52,0.24 6.96,1.16 9.91,2.75 5.71,3.07 9.55,8.71 8.31,16.7zm-110.4 62.71c0.32,-0.78 0.57,-1.59 0.75,-2.44l0.02 -0.12c1.53,-9.38 2.28,-18.57 0.79,-27.22 -1.47,-8.56 -5.11,-16.55 -12.28,-23.59 -0.01,-6.25 3.83,-11.03 9.06,-13.95 2.71,-1.51 5.8,-2.52 8.93,-2.99 3.13,-0.46 6.28,-0.37 9.12,0.31 5.1,1.23 9.26,4.44 10.46,9.94 0.02,0.07 0.03,0.14 0.06,0.21 2.67,10.27 4.11,20.89 4.55,31.79 0.36,8.86 0.05,17.92 -0.81,27.15 -0.01,0.07 -0.02,0.13 -0.03,0.2 -0.04,0.4 -0.08,0.8 -0.1,1.19 -0.17,1.69 -0.35,3.38 -0.55,5.08 -1.27,5.65 -5.75,9.17 -10.87,10.41 -2.26,0.55 -4.65,0.66 -6.96,0.31 -2.28,-0.34 -4.46,-1.12 -6.32,-2.35 -3.89,-2.56 -6.47,-7.18 -5.8,-13.97zm-42.97 -47.69c3.97,7.39 7.08,15.2 9.03,23 1.95,7.8 2.75,15.61 2.12,23.02 0.02,4.21 1.75,6.95 4.31,8.48 1.71,1.02 3.82,1.54 6.06,1.63 2.33,0.09 4.81,-0.29 7.18,-1.07 4.62,-1.52 8.77,-4.54 10.53,-8.56l0.01 -0.03 0.04 -0.1c0.26,-0.62 0.47,-1.26 0.61,-1.93 1.46,-8.98 2.18,-17.74 0.78,-25.88 -1.36,-7.91 -4.75,-15.28 -11.46,-21.75 -5.55,-2.54 -10.84,-3.69 -15.55,-3.43 -3.73,0.21 -7.12,1.31 -10.01,3.3 -1.32,0.91 -2.54,2.01 -3.65,3.31z"/>
   <path fill="black" fill-rule="nonzero" d="M29.09 203.34c0.8,0.72 0.87,1.95 0.15,2.75 -0.72,0.8 -1.95,0.87 -2.75,0.15 -17.61,-15.8 -25.91,-36.28 -26.46,-51.88 -0.19,-5.5 0.58,-10.43 2.23,-14.39 1.74,-4.17 4.47,-7.28 8.11,-8.93 4.57,-2.06 10.45,-1.74 17.46,1.85 0.96,0.49 1.34,1.67 0.85,2.62 -0.49,0.96 -1.67,1.34 -2.62,0.85 -5.85,-2.99 -10.57,-3.34 -14.08,-1.76 -2.69,1.21 -4.74,3.62 -6.11,6.87 -1.45,3.45 -2.12,7.83 -1.94,12.76 0.51,14.7 8.4,34.07 25.16,49.1z"/>
   <path fill="black" d="M34.33 148.24l-18.35 1.34c-0.49,0.03 -1,-0.12 -1.41,-0.47 -0.82,-0.7 -0.92,-1.94 -0.21,-2.76l16.93 -19.83c0.33,-0.42 0.83,-0.71 1.41,-0.75 1.08,-0.08 2.01,0.74 2.09,1.81l1.36 18.55c0.08,1.08 -0.74,2.01 -1.81,2.09z"/>
   <path fill="black" fill-rule="nonzero" d="M247.54 187.15c-0.8,0.72 -2.04,0.65 -2.75,-0.15 -0.72,-0.8 -0.65,-2.04 0.15,-2.75 16.75,-15.03 24.65,-34.4 25.16,-49.1 0.17,-4.93 -0.5,-9.31 -1.94,-12.76 -1.37,-3.25 -3.42,-5.65 -6.11,-6.87 -3.51,-1.59 -8.23,-1.24 -14.08,1.76 -0.96,0.49 -2.13,0.11 -2.62,-0.85 -0.49,-0.96 -0.11,-2.13 0.85,-2.62 7.01,-3.59 12.9,-3.91 17.46,-1.85 3.64,1.64 6.37,4.76 8.11,8.92 1.66,3.96 2.43,8.9 2.23,14.4 -0.54,15.6 -8.84,36.08 -26.46,51.88z"/>
   <path fill="black" fill-rule="nonzero" d="M258.04 130.49l-18.35 -1.34c-1.08,-0.08 -1.89,-1.01 -1.81,-2.09l1.36 -18.55c0.08,-1.08 1.01,-1.89 2.09,-1.81 0.58,0.04 1.08,0.33 1.41,0.75l16.93 19.83c0.7,0.82 0.61,2.05 -0.21,2.76 -0.41,0.35 -0.91,0.5 -1.41,0.47z"/>
  </g>
 </g>
</svg>
